<?xml version="1.0" encoding="utf-8"?>
<!-- Generator: Adobe Illustrator 12.0.1, SVG Export Plug-In . SVG Version: 6.00 Build 51448)  -->
<!DOCTYPE svg PUBLIC "-//W3C//DTD SVG 1.0//EN" "http://www.w3.org/TR/2001/REC-SVG-20010904/DTD/svg10.dtd" [
	<!ENTITY ns_svg "http://www.w3.org/2000/svg">
	<!ENTITY ns_xlink "http://www.w3.org/1999/xlink">
]>
<svg  version="1.0" id="Layer_1" xmlns="&ns_svg;" xmlns:xlink="&ns_xlink;" width="355.553" height="374.859"
	 viewBox="0 0 355.553 374.859" overflow="visible" enable-background="new 0 0 355.553 374.859" xml:space="preserve">
<path fill="#DF002A" d="M177.783,374.859c0,0-60.386-30.563-107.265-98.443C23.641,208.519,13.132,154.143,7.885,121.513
	C2.638,88.891,0,33,0,0h177.783h177.77c0,33-2.626,88.891-7.871,121.513c-5.263,32.63-15.743,87.006-62.635,154.902
	C238.157,344.296,177.783,374.859,177.783,374.859"/>
<polygon fill="#FFFFFF" points="177.957,10.294 151.33,84.175 125.078,12.366 97.32,85.675 70.316,15.925 16.306,15.925 
	16.306,68.804 84.956,97.685 15.553,134.437 88.697,147.186 31.686,189.948 107.439,192.2 56.444,243.948 128.457,234.569 
	86.826,289.709 165.202,269.083 134.457,324.221 177.957,356.661 221.471,324.221 190.712,269.083 269.102,289.709 227.458,234.569 
	299.47,243.948 248.461,192.2 324.213,189.948 267.217,147.186 340.345,134.437 270.972,97.685 339.591,68.804 339.591,15.925 
	285.584,15.925 258.594,85.675 230.848,12.366 204.584,84.175 "/>
<path fill="#3C474C" d="M151.071,177.434c-9.964-2.7-20.933-5.457-29.026-10.678c7.605,8.661,18.547,17.622,29.014,22.072
	L151.071,177.434z M197.224,178.99c-6.029,1.061-13.188,1.619-19.595,1.619c0,0-13.258-0.559-19.287-1.619l0.014,12.532
	c5.972,1.634,13.132,2.504,19.581,2.504c5.609,0,13.286-0.87,19.272-2.504L197.224,178.99z M174.225,174.232
	c-13.272-0.481-27.758-3.525-38.951-7.627l0.028-13.391c11.107,4.061,25.496,6.984,38.908,7.459L174.225,174.232z M127.877,150.654
	c-8.052-3.9-16.831-9.588-22.426-15.046c1.828,5.631,5.052,14.578,7.912,19.574c4.159,2.958,9.63,6.517,14.515,8.862V150.654z
	 M197.098,153.102c-5.945,0.823-12.812,1.271-19.189,1.271c-6.392,0-13.495-0.448-19.455-1.271v-11.64
	c5.932,0.789,13.049,1.201,19.455,1.201c6.406,0,13.258-0.412,19.189-1.201V153.102z M204.507,177.42
	c9.938-2.687,20.921-5.443,29.001-10.664c-7.578,8.661-18.548,17.622-29.001,22.052V177.42z M181.342,174.232
	c13.271-0.481,27.743-3.525,38.937-7.627l-0.028-13.391c-11.094,4.061-25.482,6.984-38.88,7.459L181.342,174.232z M227.69,150.654
	c8.051-3.9,16.83-9.588,22.411-15.046c-1.827,5.631-5.038,14.578-7.911,19.574c-4.159,2.958-9.603,6.517-14.5,8.862V150.654z
	 M204.592,151.881V140.34c4.898-1.02,10.425-2.729,14.752-4.236v-17.619h9.14v13.891c15.073-7.186,24.548-17.533,24.619-29.026
	h11.584c0.166,2.428,0.125,4.292,0.125,6.776c0,52.934-38.085,96.532-87.015,96.61c-48.427-0.365-87.043-43.676-87.043-96.61
	c0-2.484-0.041-4.348,0.126-6.776h11.583c0.069,11.494,9.545,21.84,24.619,29.026v-13.891h9.126v17.619
	c4.341,1.508,9.867,3.217,14.78,4.236v11.541c-6.992-1.528-14.403-4.042-20.333-6.601c0,0-2.57-1.097-3.824-1.745
	c-2.136-1.04-4.215-2.155-6.169-3.328c-15.617-8.849-22.651-18.017-23.334-18.749c4.996,44.029,39.16,78.472,80.455,78.557
	c42.006-0.085,75.445-34.527,80.469-78.557c-0.697,0.732-7.718,9.9-23.349,18.749c-1.968,1.173-4.019,2.288-6.169,3.328
	c-1.256,0.648-2.553,1.29-3.893,1.947C224.842,145.483,211.556,150.353,204.592,151.881"/>
</svg>
