<?xml version="1.0" encoding="UTF-8" standalone="no"?>
<!-- Created with Inkscape (http://www.inkscape.org/) -->
<svg
   xmlns:dc="http://purl.org/dc/elements/1.1/"
   xmlns:cc="http://creativecommons.org/ns#"
   xmlns:rdf="http://www.w3.org/1999/02/22-rdf-syntax-ns#"
   xmlns:svg="http://www.w3.org/2000/svg"
   xmlns="http://www.w3.org/2000/svg"
   xmlns:xlink="http://www.w3.org/1999/xlink"
   xmlns:sodipodi="http://sodipodi.sourceforge.net/DTD/sodipodi-0.dtd"
   xmlns:inkscape="http://www.inkscape.org/namespaces/inkscape"
   width="431.78528"
   height="53.715294"
   id="svg2"
   sodipodi:version="0.32"
   inkscape:version="0.46"
   sodipodi:docbase="/home/haf/shared/kieler/trunk/common/doc/images"
   sodipodi:docname="kieler-trac-logo-path.svg"
   inkscape:export-filename="/home/msp/shared/kieler/doc/images/kieler-trac-logo.png"
   inkscape:export-xdpi="151.25"
   inkscape:export-ydpi="151.25"
   inkscape:output_extension="org.inkscape.output.svg.inkscape"
   version="1.0">
  <defs
     id="defs4">
    <linearGradient
       id="linearGradient8159">
      <stop
         style="stop-color:#dfefff;stop-opacity:1;"
         offset="0"
         id="stop8161" />
      <stop
         id="stop8171"
         offset="0.28"
         style="stop-color:#d5e5ff;stop-opacity:1;" />
      <stop
         style="stop-color:#eff6ff;stop-opacity:1;"
         offset="1"
         id="stop8163" />
    </linearGradient>
    <inkscape:perspective
       sodipodi:type="inkscape:persp3d"
       inkscape:vp_x="0 : 526.18109 : 1"
       inkscape:vp_y="0 : 1000 : 0"
       inkscape:vp_z="744.09448 : 526.18109 : 1"
       inkscape:persp3d-origin="372.04724 : 350.78739 : 1"
       id="perspective38" />
    <marker
       inkscape:stockid="Arrow1Mend"
       orient="auto"
       refY="0"
       refX="0"
       id="Arrow1Mend"
       style="overflow:visible">
      <path
         id="path2998"
         d="M 0,0 L 5,-5 L -12.5,0 L 5,5 L 0,0 z"
         style="fill-rule:evenodd;stroke:#000000;stroke-width:1pt;marker-start:none"
         transform="matrix(-0.4,0,0,-0.4,-4,0)" />
    </marker>
    <marker
       inkscape:stockid="Arrow2Mend"
       orient="auto"
       refY="0"
       refX="0"
       id="Arrow2Mend"
       style="overflow:visible">
      <path
         id="path2980"
         style="font-size:12px;fill-rule:evenodd;stroke-width:0.625;stroke-linejoin:round"
         d="M 8.7185878,4.0337352 L -2.2072895,0.016013256 L 8.7185884,-4.0017078 C 6.97309,-1.6296469 6.9831476,1.6157441 8.7185878,4.0337352 z"
         transform="scale(-0.6,-0.6)" />
    </marker>
    <marker
       inkscape:stockid="Arrow2Lend"
       orient="auto"
       refY="0"
       refX="0"
       id="Arrow2Lend"
       style="overflow:visible">
      <path
         id="path2986"
         style="font-size:12px;fill-rule:evenodd;stroke-width:0.625;stroke-linejoin:round"
         d="M 8.7185878,4.0337352 L -2.2072895,0.016013256 L 8.7185884,-4.0017078 C 6.97309,-1.6296469 6.9831476,1.6157441 8.7185878,4.0337352 z"
         transform="matrix(-1.1,0,0,-1.1,-1.1,0)" />
    </marker>
    <linearGradient
       inkscape:collect="always"
       xlink:href="#linearGradient8159"
       id="linearGradient8165"
       x1="99.239552"
       y1="58.648251"
       x2="136.43576"
       y2="58.648251"
       gradientUnits="userSpaceOnUse"
       gradientTransform="matrix(1.0003934,0,0,0.9649371,-176.53227,61.111528)" />
    <linearGradient
       inkscape:collect="always"
       xlink:href="#linearGradient8159"
       id="linearGradient8167"
       x1="41.238392"
       y1="43.633694"
       x2="78.434604"
       y2="43.633694"
       gradientUnits="userSpaceOnUse"
       gradientTransform="matrix(1.000209,0,0,0.9812989,-103.4827,17.376826)" />
    <linearGradient
       inkscape:collect="always"
       xlink:href="#linearGradient8159"
       id="linearGradient8169"
       x1="158.36541"
       y1="43.633694"
       x2="195.56163"
       y2="43.633694"
       gradientUnits="userSpaceOnUse"
       gradientTransform="matrix(1.000209,0,0,0.9812989,-220.6342,134.23533)" />
    <filter
       inkscape:collect="always"
       id="filter3866"
       x="-0.0075533852"
       width="1.0151068"
       y="-0.15389546"
       height="1.3077909">
      <feGaussianBlur
         inkscape:collect="always"
         stdDeviation="0.74467969"
         id="feGaussianBlur3868" />
    </filter>
  </defs>
  <sodipodi:namedview
     id="base"
     pagecolor="#ffffff"
     bordercolor="#666666"
     borderopacity="1.0"
     gridtolerance="10000"
     guidetolerance="10"
     objecttolerance="10"
     inkscape:pageopacity="0.0"
     inkscape:pageshadow="2"
     inkscape:zoom="2.793113"
     inkscape:cx="213.6236"
     inkscape:cy="28.077199"
     inkscape:document-units="px"
     inkscape:current-layer="layer1"
     inkscape:window-width="1272"
     inkscape:window-height="941"
     inkscape:window-x="3"
     inkscape:window-y="27"
     showgrid="false" />
  <metadata
     id="metadata7">
    <rdf:RDF>
      <cc:Work
         rdf:about="">
        <dc:format>image/svg+xml</dc:format>
        <dc:type
           rdf:resource="http://purl.org/dc/dcmitype/StillImage" />
      </cc:Work>
    </rdf:RDF>
  </metadata>
  <g
     inkscape:label="Layer 1"
     inkscape:groupmode="layer"
     id="layer1"
     transform="translate(-23.831138,-24.283325)">
    <rect
       style="opacity:1;fill:url(#linearGradient8165);fill-opacity:1;stroke:#2b0000;stroke-width:0.80383962;stroke-linecap:butt;stroke-linejoin:miter;stroke-miterlimit:4;stroke-dasharray:none;stroke-opacity:1"
       id="rect1927"
       width="36.392372"
       height="36.55431"
       x="-76.844437"
       y="99.426239"
       rx="0.39003026"
       ry="0.6398828"
       transform="matrix(0,-1,1,0,0,0)" />
    <rect
       style="opacity:1;fill:url(#linearGradient8167);fill-opacity:1;stroke:#2b0000;stroke-width:0.81055135;stroke-linecap:butt;stroke-linejoin:miter;stroke-miterlimit:4;stroke-dasharray:none;stroke-opacity:1"
       id="rect1925"
       width="36.385662"
       height="37.174137"
       x="-61.826523"
       y="41.607452"
       rx="0.38995835"
       ry="0.65073293"
       transform="matrix(0,-1,1,0,0,0)" />
    <text
       xml:space="preserve"
       style="font-size:12px;font-style:normal;font-weight:normal;fill:#000000;fill-opacity:1;stroke:none;stroke-width:1pt;stroke-linecap:butt;stroke-linejoin:miter;stroke-opacity:1;font-family:Bitstream Vera Sans"
       x="212.77168"
       y="47.846443"
       id="text1907"><tspan
         sodipodi:role="line"
         x="212.77168"
         y="47.846443"
         id="tspan1911"><tspan
   style="font-weight:bold"
   id="tspan3018">K</tspan>iel <tspan
   style="font-weight:bold"
   id="tspan3020">I</tspan>ntegrated <tspan
   style="font-weight:bold"
   id="tspan3022">E</tspan>nvironment for <tspan
   style="font-weight:bold"
   id="tspan3024">L</tspan>ayout</tspan></text>
    <path
       style="font-size:12px;font-style:normal;font-weight:normal;fill:#8a8a8a;fill-opacity:1;stroke:none;stroke-width:1pt;stroke-linecap:butt;stroke-linejoin:miter;stroke-opacity:1;font-family:Bitstream Vera Sans"
       d="M 350.57837,57.828705 C 350.36503,57.956711 350.17037,58.050044 349.99437,58.108705 C 349.81837,58.162044 349.65837,58.188711 349.51437,58.188705 C 349.50903,58.188711 349.29037,58.159378 348.85837,58.100705 C 348.4317,58.042044 348.0717,58.012711 347.77837,58.012705 C 347.49037,58.012711 347.2477,58.023378 347.05037,58.044705 C 346.85837,58.066044 346.70637,58.090044 346.59437,58.116705 C 346.4877,58.143378 346.2637,58.188711 345.92237,58.252705 C 345.58104,58.316711 345.15437,58.391377 344.64237,58.476705 C 344.07171,58.63671 343.78637,58.93271 343.78637,59.364705 C 343.72237,59.482043 343.65837,59.642043 343.59437,59.844705 C 343.53037,60.047376 343.49837,60.364709 343.49837,60.796705 C 343.46637,60.780708 343.43437,60.791375 343.40237,60.828705 C 343.37571,60.866042 343.36237,60.954041 343.36237,61.092705 C 343.36237,61.156708 343.36504,61.234041 343.37037,61.324705 C 343.37571,61.415374 343.38637,61.527374 343.40237,61.660705 C 343.78104,61.580707 344.06104,61.527374 344.24237,61.500705 C 344.42371,61.474041 344.56237,61.460708 344.65837,61.460705 C 344.69037,61.460708 344.71704,61.463374 344.73837,61.468705 L 348.09037,61.084705 L 348.47437,61.084705 C 348.3517,61.436708 347.8397,61.690041 346.93837,61.844705 C 346.1437,61.935374 345.33837,62.028707 344.52237,62.124705 C 343.71171,62.215374 343.30637,62.37804 343.30637,62.612705 C 343.30637,62.916706 343.53837,63.202039 344.00237,63.468705 C 344.46637,63.730039 345.12771,63.860705 345.98637,63.860705 C 346.41304,63.860705 346.95437,63.796705 347.61037,63.668705 C 348.26637,63.540706 348.6797,63.476706 348.85037,63.476705 C 348.7597,63.791372 348.5997,63.999372 348.37037,64.100705 C 348.14637,64.202038 347.84237,64.252705 347.45837,64.252705 C 347.37837,64.252705 347.2477,64.250038 347.06637,64.244705 C 346.88504,64.239371 346.74637,64.236705 346.65037,64.236705 L 345.50637,64.236705 C 344.45571,64.236705 343.69837,64.098038 343.23437,63.820705 C 342.77571,63.538039 342.54637,62.975373 342.54637,62.132705 C 342.54637,61.743374 342.59171,61.324708 342.68237,60.876705 C 342.77837,60.428709 342.82637,60.178042 342.82637,60.124705 C 342.82637,60.114042 342.83971,60.090042 342.86637,60.052705 C 342.89837,60.015376 342.91437,59.951376 342.91437,59.860705 C 342.91437,59.818043 342.91171,59.764709 342.90637,59.700705 C 342.90104,59.631376 342.89037,59.551376 342.87437,59.460705 C 342.55437,59.327376 342.37304,59.25271 342.33037,59.236705 C 342.28237,59.22071 342.25837,59.167377 342.25837,59.076705 C 342.25837,58.85271 342.53571,58.615377 343.09037,58.364705 C 343.65037,58.108711 344.29837,57.892711 345.03437,57.716705 C 345.7757,57.540712 346.37837,57.452712 346.84237,57.452705 C 347.6157,57.452712 348.22904,57.455378 348.68237,57.460705 C 349.1357,57.466045 349.5597,57.471378 349.95437,57.476705 L 350.06637,57.476705 C 350.30103,57.476712 350.4717,57.468712 350.57837,57.452705 L 350.57837,57.828705 M 356.74487,63.252705 C 355.78487,63.722039 355.1742,64.015372 354.91287,64.132705 C 354.65687,64.250038 354.1262,64.308705 353.32087,64.308705 C 352.28621,64.308705 351.42754,64.154038 350.74487,63.844705 C 350.06221,63.530039 349.72087,62.980706 349.72087,62.196705 C 349.72087,62.068707 349.85421,61.791374 350.12087,61.364705 C 350.39287,60.938041 350.77421,60.546042 351.26487,60.188705 C 351.75554,59.831376 352.33421,59.652709 353.00087,59.652705 C 353.12354,59.652709 353.29687,59.700709 353.52087,59.796705 C 353.74487,59.887376 353.92354,59.980709 354.05687,60.076705 L 354.05687,60.396705 C 353.97687,60.412709 353.90754,60.420709 353.84887,60.420705 C 353.79554,60.420709 353.6462,60.418042 353.40087,60.412705 C 353.15554,60.402042 352.9502,60.396709 352.78487,60.396705 C 352.16087,60.396709 351.61687,60.591375 351.15287,60.980705 C 350.69421,61.370041 350.46487,61.810041 350.46487,62.300705 C 350.46487,62.647373 350.73421,62.980706 351.27287,63.300705 C 351.81687,63.620705 352.46221,63.780705 353.20887,63.780705 C 353.74754,63.780705 354.20887,63.714039 354.59287,63.580705 C 354.9822,63.442039 355.31554,63.274039 355.59287,63.076705 C 355.6942,62.996706 355.79554,62.914039 355.89687,62.828705 C 355.91287,62.828706 355.9902,62.87404 356.12887,62.964705 C 356.26753,63.050039 356.47287,63.146039 356.74487,63.252705 M 356.66662,63.932705 C 356.64529,63.991372 356.61862,64.050038 356.58662,64.108705 C 356.55462,64.167372 356.51462,64.196705 356.46662,64.196705 C 356.37596,64.196705 356.29329,64.098038 356.21862,63.900705 C 356.14396,63.698039 356.06662,63.407372 355.98662,63.028705 C 355.90662,62.65004 355.78662,62.068707 355.62662,61.284705 C 355.47196,60.495375 355.36529,59.938042 355.30662,59.612705 C 355.24796,59.282043 355.21862,58.754044 355.21862,58.028705 C 355.21329,57.959378 355.21062,57.898044 355.21062,57.844705 C 355.21062,57.706045 355.22662,57.594045 355.25862,57.508705 C 355.29596,57.423378 355.37062,57.380712 355.48262,57.380705 C 355.57329,57.380712 355.62929,57.420712 355.65062,57.500705 C 355.67729,57.575378 355.69062,57.719378 355.69062,57.932705 L 355.69062,58.372705 C 355.69062,58.82071 355.70396,59.215377 355.73062,59.556705 C 355.76262,59.892709 355.81062,60.258042 355.87462,60.652705 C 355.93862,60.924708 356.03196,61.306041 356.15462,61.796705 C 356.27729,62.287373 356.39196,62.759373 356.49862,63.212705 C 356.61062,63.660705 356.66662,63.900705 356.66662,63.932705 M 358.49425,57.284705 C 358.49425,57.498045 358.45958,57.639378 358.39025,57.708705 C 358.32625,57.772711 358.19291,57.834045 357.99025,57.892705 C 357.96358,57.844711 357.93158,57.740711 357.89425,57.580705 C 357.86225,57.415378 357.84625,57.276712 357.84625,57.164705 C 357.84625,57.068712 357.85692,56.996712 357.87825,56.948705 C 357.89958,56.900712 357.93692,56.876712 357.99025,56.876705 C 358.18225,56.876712 358.31291,56.900712 358.38225,56.948705 C 358.45691,56.991379 358.49425,57.103379 358.49425,57.284705 M 361.63025,62.148705 C 361.63024,62.623373 361.27825,63.044706 360.57425,63.412705 C 359.87558,63.780705 359.21425,63.964705 358.59025,63.964705 C 358.16358,63.964705 357.89958,63.892705 357.79825,63.748705 C 357.69692,63.604705 357.57158,63.271372 357.42225,62.748705 C 357.35825,62.764706 357.29425,62.79404 357.23025,62.836705 C 357.17158,62.87404 357.11825,62.914039 357.07025,62.956705 L 356.15825,62.956705 L 356.15825,62.452705 C 356.76625,62.292707 357.16892,62.09004 357.36625,61.844705 C 357.56892,61.599374 357.71558,61.255374 357.80625,60.812705 C 357.89692,60.370042 358.00891,60.034042 358.14225,59.804705 C 358.31291,59.874043 358.48358,59.940709 358.65425,60.004705 C 358.76091,60.052709 358.89425,60.154042 359.05425,60.308705 C 358.78225,60.644708 358.56891,61.020708 358.41425,61.436705 C 358.25958,61.852707 358.18225,62.25804 358.18225,62.652705 C 358.18225,62.903373 358.23825,63.100706 358.35025,63.244705 C 358.46225,63.388706 358.60891,63.460706 358.79025,63.460705 C 358.90225,63.460706 359.17425,63.410039 359.60625,63.308705 C 360.04358,63.207373 360.45425,63.044706 360.83825,62.820705 C 361.22758,62.596706 361.42224,62.303373 361.42225,61.940705 C 361.48091,61.924707 361.52358,61.916707 361.55025,61.916705 C 361.58758,61.916707 361.61424,61.924707 361.63025,61.940705 C 361.64624,61.956707 361.65424,61.983374 361.65425,62.020705 C 361.65424,62.052707 361.65158,62.079374 361.64625,62.100705 C 361.64624,62.116707 361.64091,62.132707 361.63025,62.148705 M 364.7435,61.684705 C 364.7435,62.020707 364.59416,62.303373 364.2955,62.532705 C 364.00216,62.76204 363.59416,62.876706 363.0715,62.876705 C 362.93816,62.876706 362.7915,62.860706 362.6315,62.828705 C 362.4715,62.796706 362.35683,62.780706 362.2875,62.780705 C 362.21817,62.780706 362.15417,62.788706 362.0955,62.804705 C 362.04217,62.815373 361.97017,62.839373 361.8795,62.876705 L 361.8795,63.196705 C 361.90083,63.260706 361.96483,63.599372 362.0715,64.212705 C 362.17817,64.831371 362.24483,65.207371 362.2715,65.340705 C 362.33016,65.564703 362.38883,65.79137 362.4475,66.020705 C 362.44216,66.074036 362.43683,66.130036 362.4315,66.188705 C 362.4475,66.204703 362.4635,66.220703 362.4795,66.236705 C 362.4955,66.258036 362.5035,66.279369 362.5035,66.300705 C 362.5035,66.343369 362.4635,66.378036 362.3835,66.404705 C 362.30883,66.436703 362.1675,66.452703 361.9595,66.452705 C 361.93817,66.452703 361.85017,66.343369 361.6955,66.124705 C 361.54617,65.91137 361.40483,65.612703 361.2715,65.228705 C 361.1435,64.850038 361.0795,64.410038 361.0795,63.908705 L 361.0795,63.196705 C 361.0795,62.103374 361.14617,61.234041 361.2795,60.588705 C 361.41817,59.938042 361.80217,59.612709 362.4315,59.612705 C 362.9115,59.612709 363.4155,59.839376 363.9435,60.292705 C 364.47683,60.746042 364.7435,61.210041 364.7435,61.684705 M 364.1835,61.764705 C 364.1835,61.391374 363.98616,61.055375 363.5915,60.756705 C 363.19683,60.458042 362.83683,60.290042 362.5115,60.252705 L 361.9595,60.444705 C 361.91683,60.610042 361.8955,60.748708 361.8955,60.860705 C 361.9115,61.052708 361.92483,61.255374 361.9355,61.468705 C 361.9515,61.676707 361.9595,61.882041 361.9595,62.084705 C 362.07683,62.100707 362.26883,62.143374 362.5355,62.212705 C 362.80216,62.28204 363.06083,62.316707 363.3115,62.316705 C 363.66883,62.316707 363.9035,62.284707 364.0155,62.220705 C 364.1275,62.151374 364.1835,61.999374 364.1835,61.764705 M 370.56325,63.292705 C 370.56324,63.420706 370.42724,63.591372 370.15525,63.804705 C 369.88324,64.018038 369.55791,64.124705 369.17925,64.124705 L 367.14725,64.124705 C 366.59258,64.060705 366.03792,63.980705 365.48325,63.884705 C 364.92858,63.783372 364.65125,63.650039 364.65125,63.484705 C 364.65125,63.340706 364.69658,63.236706 364.78725,63.172705 C 364.87258,63.108706 365.25925,62.906039 365.94725,62.564705 L 366.32325,62.564705 L 366.32325,62.836705 C 366.06725,62.954039 365.91258,63.031373 365.85925,63.068705 C 365.80592,63.122039 365.74458,63.180706 365.67525,63.244705 C 365.80858,63.378039 366.09125,63.498039 366.52325,63.604705 C 366.96058,63.706039 367.47791,63.756705 368.07525,63.756705 C 368.40058,63.735372 368.74458,63.698039 369.10725,63.644705 C 369.46991,63.586039 369.74191,63.468706 369.92325,63.292705 C 369.67258,63.106039 369.05125,62.86604 368.05925,62.572705 C 367.06725,62.279373 366.29925,61.980707 365.75525,61.676705 C 365.21125,61.372708 364.93925,60.927375 364.93925,60.340705 C 364.93925,59.914042 365.03258,59.655376 365.21925,59.564705 C 365.40592,59.46871 365.74192,59.42071 366.22725,59.420705 C 366.56858,59.42071 366.81925,59.439376 366.97925,59.476705 C 367.13925,59.514043 367.28591,59.588709 367.41925,59.700705 L 367.41925,59.980705 C 367.14725,60.092709 366.97125,60.148709 366.89125,60.148705 C 366.85391,60.148709 366.82991,60.122042 366.81925,60.068705 C 366.80858,60.010042 366.76325,59.980709 366.68325,59.980705 C 366.43791,60.066042 366.18991,60.159376 365.93925,60.260705 C 365.69392,60.356709 365.57125,60.444709 365.57125,60.524705 C 365.57125,60.935375 365.80325,61.242041 366.26725,61.444705 C 366.73658,61.642041 367.56858,61.94604 368.76325,62.356705 C 369.96324,62.76204 370.56324,63.074039 370.56325,63.292705 M 376.27812,63.924705 C 376.27812,64.020705 376.22212,64.130038 376.11012,64.252705 C 375.99812,64.380705 375.84612,64.444705 375.65412,64.444705 C 375.37679,64.444705 374.75812,64.346038 373.79812,64.148705 C 372.84346,63.946038 372.17679,63.756705 371.79812,63.580705 C 371.42479,63.399372 371.16346,63.247372 371.01412,63.124705 C 370.86479,62.996706 370.66746,62.783373 370.42212,62.484705 C 370.29946,62.500707 370.18746,62.508707 370.08612,62.508705 C 369.77146,62.508707 369.51013,62.428707 369.30212,62.268705 C 369.09413,62.103374 368.99013,61.927374 368.99012,61.740705 C 368.99013,61.628707 369.03813,61.538041 369.13412,61.468705 C 369.22479,61.394041 369.35013,61.346041 369.51012,61.324705 C 369.54213,61.356708 369.60613,61.420708 369.70212,61.516705 C 369.79813,61.607374 369.87279,61.674041 369.92612,61.716705 L 370.55012,61.740705 C 370.55012,61.202041 370.76879,60.770042 371.20612,60.444705 C 371.64346,60.114042 372.08079,59.884709 372.51812,59.756705 C 372.95546,59.623376 373.25412,59.551376 373.41412,59.540705 C 373.57945,59.52471 373.72879,59.514043 373.86212,59.508705 C 374.36345,59.50871 374.80345,59.623376 375.18212,59.852705 C 375.56612,60.076709 375.75812,60.359375 375.75812,60.700705 C 375.75812,60.876708 375.60879,61.095375 375.31012,61.356705 C 375.01679,61.612707 374.56612,61.839374 373.95812,62.036705 C 373.35012,62.23404 372.60079,62.332707 371.71012,62.332705 C 371.63546,62.32204 371.58479,62.316707 371.55812,62.316705 C 371.48346,62.316707 371.44612,62.335373 371.44612,62.372705 C 371.44612,62.41004 371.49146,62.471373 371.58212,62.556705 C 371.67812,62.64204 371.76612,62.716706 371.84612,62.780705 C 372.17679,62.983373 372.50746,63.183373 372.83812,63.380705 C 373.30746,63.540706 373.89679,63.620705 374.60612,63.620705 C 374.86745,63.620705 375.03012,63.564705 375.09412,63.452705 C 375.15812,63.335372 375.31012,63.250039 375.55012,63.196705 L 375.86212,63.196705 L 376.27812,63.924705 M 375.03012,60.852705 C 374.93412,60.575375 374.77145,60.394042 374.54212,60.308705 C 374.31279,60.223376 373.95545,60.180709 373.47012,60.180705 C 372.89946,60.180709 372.41946,60.324709 372.03012,60.612705 C 371.64079,60.895375 371.32079,61.306041 371.07012,61.844705 C 371.15012,61.812707 371.21146,61.796707 371.25412,61.796705 C 371.28612,61.796707 371.32612,61.804707 371.37412,61.820705 C 371.42212,61.836707 371.45946,61.844707 371.48612,61.844705 C 372.13146,61.844707 372.86746,61.735374 373.69412,61.516705 C 374.52079,61.298041 374.96612,61.076708 375.03012,60.852705 M 386.658,64.444705 C 386.65799,64.588704 386.63933,64.674038 386.602,64.700705 C 386.56466,64.732704 386.47933,64.748704 386.346,64.748705 C 386.26066,64.748704 385.89799,64.634038 385.258,64.404705 C 384.61799,64.175372 384.26599,64.060705 384.202,64.060705 C 384.17533,64.060705 383.98866,63.991372 383.642,63.852705 C 383.29533,63.708705 382.922,63.522039 382.522,63.292705 C 382.12733,63.058039 381.76733,62.77804 381.442,62.452705 C 381.87933,62.244707 382.282,62.028707 382.65,61.804705 C 383.02333,61.580707 383.21,61.156708 383.21,60.532705 C 383.21,60.026042 383.00466,59.594043 382.594,59.236705 C 382.18866,58.874044 381.83133,58.69271 381.522,58.692705 C 381.30866,58.69271 381.12733,58.874044 380.978,59.236705 C 380.82867,59.594043 380.754,60.002042 380.754,60.460705 C 380.754,60.594042 380.81267,60.938041 380.93,61.492705 C 381.04733,62.047374 381.17266,62.62604 381.306,63.228705 C 381.44466,63.831372 381.51666,64.132705 381.522,64.132705 L 381.522,64.444705 L 381.066,64.444705 C 380.826,64.140705 380.64467,63.634039 380.522,62.924705 C 380.39933,62.21004 380.28733,61.535374 380.186,60.900705 C 380.042,60.276709 379.82333,59.938042 379.53,59.884705 C 379.55133,59.810043 379.578,59.631376 379.61,59.348705 C 379.63667,59.066043 379.76467,58.92471 379.994,58.924705 C 380.01,58.92471 380.06067,58.946043 380.146,58.988705 C 380.23133,59.031377 380.33267,59.087377 380.45,59.156705 C 380.57267,58.943377 380.698,58.727377 380.826,58.508705 C 381.018,58.274044 381.27666,58.156711 381.602,58.156705 C 382.10866,58.156711 382.59133,58.423377 383.05,58.956705 C 383.514,59.490043 383.746,59.991376 383.746,60.460705 C 383.746,60.828708 383.61,61.196708 383.338,61.564705 C 383.03933,61.911374 382.74066,62.25804 382.442,62.604705 C 382.442,62.70604 382.70333,62.852706 383.226,63.044705 C 383.74866,63.236706 384.20999,63.426039 384.61,63.612705 C 385.01533,63.794039 385.34333,63.914038 385.594,63.972705 C 385.84999,64.031372 386.11399,64.060705 386.386,64.060705 L 386.658,64.060705 C 386.76999,64.060705 386.82599,64.095372 386.826,64.164705 C 386.82599,64.218038 386.80466,64.271371 386.762,64.324705 C 386.71933,64.378038 386.68466,64.418038 386.658,64.444705 M 387.338,57.284705 C 387.338,57.498045 387.30333,57.639378 387.234,57.708705 C 387.17,57.772711 387.03666,57.834045 386.834,57.892705 C 386.80733,57.844711 386.77533,57.740711 386.738,57.580705 C 386.706,57.415378 386.69,57.276712 386.69,57.164705 C 386.69,57.068712 386.70067,56.996712 386.722,56.948705 C 386.74333,56.900712 386.78067,56.876712 386.834,56.876705 C 387.026,56.876712 387.15666,56.900712 387.226,56.948705 C 387.30066,56.991379 387.338,57.103379 387.338,57.284705 M 390.474,62.148705 C 390.47399,62.623373 390.122,63.044706 389.418,63.412705 C 388.71933,63.780705 388.058,63.964705 387.434,63.964705 C 387.00733,63.964705 386.74333,63.892705 386.642,63.748705 C 386.54067,63.604705 386.41533,63.271372 386.266,62.748705 C 386.202,62.764706 386.138,62.79404 386.074,62.836705 C 386.01533,62.87404 385.962,62.914039 385.914,62.956705 L 385.002,62.956705 L 385.002,62.452705 C 385.61,62.292707 386.01267,62.09004 386.21,61.844705 C 386.41267,61.599374 386.55933,61.255374 386.65,60.812705 C 386.74067,60.370042 386.85266,60.034042 386.986,59.804705 C 387.15666,59.874043 387.32733,59.940709 387.498,60.004705 C 387.60466,60.052709 387.738,60.154042 387.898,60.308705 C 387.626,60.644708 387.41266,61.020708 387.258,61.436705 C 387.10333,61.852707 387.026,62.25804 387.026,62.652705 C 387.026,62.903373 387.082,63.100706 387.194,63.244705 C 387.306,63.388706 387.45266,63.460706 387.634,63.460705 C 387.746,63.460706 388.018,63.410039 388.45,63.308705 C 388.88733,63.207373 389.298,63.044706 389.682,62.820705 C 390.07133,62.596706 390.26599,62.303373 390.266,61.940705 C 390.32466,61.924707 390.36733,61.916707 390.394,61.916705 C 390.43133,61.916707 390.45799,61.924707 390.474,61.940705 C 390.48999,61.956707 390.49799,61.983374 390.498,62.020705 C 390.49799,62.052707 390.49533,62.079374 390.49,62.100705 C 390.48999,62.116707 390.48466,62.132707 390.474,62.148705 M 396.97925,63.252705 C 396.01924,63.722039 395.40858,64.015372 395.14725,64.132705 C 394.89124,64.250038 394.36058,64.308705 393.55525,64.308705 C 392.52058,64.308705 391.66191,64.154038 390.97925,63.844705 C 390.29658,63.530039 389.95525,62.980706 389.95525,62.196705 C 389.95525,62.068707 390.08858,61.791374 390.35525,61.364705 C 390.62725,60.938041 391.00858,60.546042 391.49925,60.188705 C 391.98991,59.831376 392.56858,59.652709 393.23525,59.652705 C 393.35791,59.652709 393.53125,59.700709 393.75525,59.796705 C 393.97925,59.887376 394.15791,59.980709 394.29125,60.076705 L 394.29125,60.396705 C 394.21125,60.412709 394.14191,60.420709 394.08325,60.420705 C 394.02991,60.420709 393.88058,60.418042 393.63525,60.412705 C 393.38991,60.402042 393.18458,60.396709 393.01925,60.396705 C 392.39525,60.396709 391.85125,60.591375 391.38725,60.980705 C 390.92858,61.370041 390.69925,61.810041 390.69925,62.300705 C 390.69925,62.647373 390.96858,62.980706 391.50725,63.300705 C 392.05125,63.620705 392.69658,63.780705 393.44325,63.780705 C 393.98191,63.780705 394.44325,63.714039 394.82725,63.580705 C 395.21658,63.442039 395.54991,63.274039 395.82725,63.076705 C 395.92858,62.996706 396.02991,62.914039 396.13125,62.828705 C 396.14724,62.828706 396.22458,62.87404 396.36325,62.964705 C 396.50191,63.050039 396.70724,63.146039 396.97925,63.252705 M 398.877,64.484705 C 398.701,64.570038 398.55166,64.650038 398.429,64.724705 C 398.30633,64.799371 398.24233,64.836704 398.237,64.836705 C 397.94366,64.836704 397.71966,64.588704 397.565,64.092705 C 397.41566,63.596705 397.27166,63.276706 397.133,63.132705 C 397.037,63.207373 396.90633,63.364706 396.741,63.604705 C 396.57567,63.839372 396.33833,64.036705 396.029,64.196705 C 395.97567,64.074038 395.93567,63.927372 395.909,63.756705 C 395.88233,63.586039 395.869,63.426039 395.869,63.276705 C 395.869,63.084706 395.87967,62.922039 395.901,62.788705 C 395.92233,62.65004 395.94367,62.53004 395.965,62.428705 C 395.92767,62.41804 395.88767,62.40204 395.845,62.380705 C 395.80767,62.35404 395.77567,62.29804 395.749,62.212705 C 395.69567,61.903374 395.629,61.524708 395.549,61.076705 C 395.47433,60.628708 395.38367,60.092709 395.277,59.468705 C 395.165,58.839377 395.109,58.500711 395.109,58.452705 C 395.109,58.415377 395.093,58.338044 395.061,58.220705 C 395.02367,58.098044 395.005,58.012711 395.005,57.964705 C 395.005,57.895378 395.01833,57.826045 395.045,57.756705 C 395.06633,57.687378 395.11167,57.610045 395.181,57.524705 C 395.39433,57.572711 395.53833,57.759378 395.613,58.084705 C 395.70367,58.799377 395.797,59.511376 395.893,60.220705 C 395.96233,60.519375 396.03167,60.938041 396.101,61.476705 C 396.17567,62.01004 396.213,62.45004 396.213,62.796705 C 396.213,63.015373 396.19967,63.175373 396.173,63.276705 L 396.389,63.276705 C 396.55433,63.180706 396.701,62.980706 396.829,62.676705 C 396.957,62.367373 397.117,62.212707 397.309,62.212705 C 397.49566,62.212707 397.629,62.439373 397.709,62.892705 C 397.79433,63.340706 397.893,63.682039 398.005,63.916705 C 398.12233,64.151372 398.413,64.268705 398.877,64.268705 L 398.877,64.484705 M 411.68962,63.604705 C 411.61495,63.647372 411.16962,63.738039 410.35362,63.876705 C 409.54295,64.015372 408.72162,64.138038 407.88962,64.244705 C 407.05762,64.356705 406.49762,64.412705 406.20962,64.412705 C 405.18029,64.412705 404.40162,64.236705 403.87362,63.884705 C 403.35096,63.532706 403.01762,63.111373 402.87362,62.620705 C 402.72962,62.13004 402.65762,61.543374 402.65762,60.860705 C 402.65762,59.564709 403.04696,58.56471 403.82562,57.860705 C 404.60962,57.156712 405.60695,56.804712 406.81762,56.804705 C 407.50562,56.804712 408.01495,56.916712 408.34562,57.140705 C 408.68162,57.364712 408.84962,57.692711 408.84962,58.124705 C 408.84962,58.204711 408.80962,58.279377 408.72962,58.348705 C 408.65495,58.412711 408.57495,58.471377 408.48962,58.524705 C 408.35629,58.242044 408.22562,57.959378 408.09762,57.676705 C 407.88962,57.431378 407.46295,57.308712 406.81762,57.308705 C 405.76162,57.308712 404.92162,57.652711 404.29762,58.340705 C 403.67896,59.023377 403.36962,59.898042 403.36962,60.964705 C 403.36962,61.828707 403.49762,62.463373 403.75362,62.868705 C 404.00962,63.274039 404.36429,63.532706 404.81762,63.644705 C 405.27629,63.751372 405.91095,63.804705 406.72162,63.804705 L 408.03362,63.804705 C 408.25229,63.804705 408.61229,63.730039 409.11362,63.580705 C 409.61495,63.426039 410.06028,63.279372 410.44962,63.140705 C 410.83895,62.996706 411.15095,62.879373 411.38562,62.788705 L 411.68962,62.788705 L 411.68962,63.604705 M 411.82287,63.932705 C 411.80154,63.991372 411.77487,64.050038 411.74287,64.108705 C 411.71087,64.167372 411.67087,64.196705 411.62287,64.196705 C 411.53221,64.196705 411.44954,64.098038 411.37487,63.900705 C 411.30021,63.698039 411.22287,63.407372 411.14287,63.028705 C 411.06287,62.65004 410.94287,62.068707 410.78287,61.284705 C 410.62821,60.495375 410.52154,59.938042 410.46287,59.612705 C 410.40421,59.282043 410.37487,58.754044 410.37487,58.028705 C 410.36954,57.959378 410.36687,57.898044 410.36687,57.844705 C 410.36687,57.706045 410.38287,57.594045 410.41487,57.508705 C 410.45221,57.423378 410.52687,57.380712 410.63887,57.380705 C 410.72954,57.380712 410.78554,57.420712 410.80687,57.500705 C 410.83354,57.575378 410.84687,57.719378 410.84687,57.932705 L 410.84687,58.372705 C 410.84687,58.82071 410.86021,59.215377 410.88687,59.556705 C 410.91887,59.892709 410.96687,60.258042 411.03087,60.652705 C 411.09487,60.924708 411.18821,61.306041 411.31087,61.796705 C 411.43354,62.287373 411.54821,62.759373 411.65487,63.212705 C 411.76687,63.660705 411.82287,63.900705 411.82287,63.932705 M 413.6505,57.284705 C 413.6505,57.498045 413.61583,57.639378 413.5465,57.708705 C 413.4825,57.772711 413.34916,57.834045 413.1465,57.892705 C 413.11983,57.844711 413.08783,57.740711 413.0505,57.580705 C 413.0185,57.415378 413.0025,57.276712 413.0025,57.164705 C 413.0025,57.068712 413.01317,56.996712 413.0345,56.948705 C 413.05583,56.900712 413.09317,56.876712 413.1465,56.876705 C 413.3385,56.876712 413.46916,56.900712 413.5385,56.948705 C 413.61316,56.991379 413.6505,57.103379 413.6505,57.284705 M 416.7865,62.148705 C 416.78649,62.623373 416.4345,63.044706 415.7305,63.412705 C 415.03183,63.780705 414.3705,63.964705 413.7465,63.964705 C 413.31983,63.964705 413.05583,63.892705 412.9545,63.748705 C 412.85317,63.604705 412.72783,63.271372 412.5785,62.748705 C 412.5145,62.764706 412.4505,62.79404 412.3865,62.836705 C 412.32783,62.87404 412.2745,62.914039 412.2265,62.956705 L 411.3145,62.956705 L 411.3145,62.452705 C 411.9225,62.292707 412.32517,62.09004 412.5225,61.844705 C 412.72517,61.599374 412.87183,61.255374 412.9625,60.812705 C 413.05317,60.370042 413.16516,60.034042 413.2985,59.804705 C 413.46916,59.874043 413.63983,59.940709 413.8105,60.004705 C 413.91716,60.052709 414.0505,60.154042 414.2105,60.308705 C 413.9385,60.644708 413.72516,61.020708 413.5705,61.436705 C 413.41583,61.852707 413.3385,62.25804 413.3385,62.652705 C 413.3385,62.903373 413.3945,63.100706 413.5065,63.244705 C 413.6185,63.388706 413.76516,63.460706 413.9465,63.460705 C 414.0585,63.460706 414.3305,63.410039 414.7625,63.308705 C 415.19983,63.207373 415.6105,63.044706 415.9945,62.820705 C 416.38383,62.596706 416.57849,62.303373 416.5785,61.940705 C 416.63716,61.924707 416.67983,61.916707 416.7065,61.916705 C 416.74383,61.916707 416.77049,61.924707 416.7865,61.940705 C 416.80249,61.956707 416.81049,61.983374 416.8105,62.020705 C 416.81049,62.052707 416.80783,62.079374 416.8025,62.100705 C 416.80249,62.116707 416.79716,62.132707 416.7865,62.148705 M 422.04375,63.924705 C 422.04374,64.020705 421.98774,64.130038 421.87575,64.252705 C 421.76374,64.380705 421.61174,64.444705 421.41975,64.444705 C 421.14241,64.444705 420.52375,64.346038 419.56375,64.148705 C 418.60908,63.946038 417.94241,63.756705 417.56375,63.580705 C 417.19042,63.399372 416.92908,63.247372 416.77975,63.124705 C 416.63042,62.996706 416.43308,62.783373 416.18775,62.484705 C 416.06508,62.500707 415.95308,62.508707 415.85175,62.508705 C 415.53708,62.508707 415.27575,62.428707 415.06775,62.268705 C 414.85975,62.103374 414.75575,61.927374 414.75575,61.740705 C 414.75575,61.628707 414.80375,61.538041 414.89975,61.468705 C 414.99042,61.394041 415.11575,61.346041 415.27575,61.324705 C 415.30775,61.356708 415.37175,61.420708 415.46775,61.516705 C 415.56375,61.607374 415.63842,61.674041 415.69175,61.716705 L 416.31575,61.740705 C 416.31575,61.202041 416.53442,60.770042 416.97175,60.444705 C 417.40908,60.114042 417.84641,59.884709 418.28375,59.756705 C 418.72108,59.623376 419.01975,59.551376 419.17975,59.540705 C 419.34508,59.52471 419.49441,59.514043 419.62775,59.508705 C 420.12908,59.50871 420.56908,59.623376 420.94775,59.852705 C 421.33174,60.076709 421.52374,60.359375 421.52375,60.700705 C 421.52374,60.876708 421.37441,61.095375 421.07575,61.356705 C 420.78241,61.612707 420.33175,61.839374 419.72375,62.036705 C 419.11575,62.23404 418.36641,62.332707 417.47575,62.332705 C 417.40108,62.32204 417.35042,62.316707 417.32375,62.316705 C 417.24908,62.316707 417.21175,62.335373 417.21175,62.372705 C 417.21175,62.41004 417.25708,62.471373 417.34775,62.556705 C 417.44375,62.64204 417.53175,62.716706 417.61175,62.780705 C 417.94241,62.983373 418.27308,63.183373 418.60375,63.380705 C 419.07308,63.540706 419.66241,63.620705 420.37175,63.620705 C 420.63308,63.620705 420.79574,63.564705 420.85975,63.452705 C 420.92374,63.335372 421.07574,63.250039 421.31575,63.196705 L 421.62775,63.196705 L 422.04375,63.924705 M 420.79575,60.852705 C 420.69975,60.575375 420.53708,60.394042 420.30775,60.308705 C 420.07841,60.223376 419.72108,60.180709 419.23575,60.180705 C 418.66508,60.180709 418.18508,60.324709 417.79575,60.612705 C 417.40642,60.895375 417.08642,61.306041 416.83575,61.844705 C 416.91575,61.812707 416.97708,61.796707 417.01975,61.796705 C 417.05175,61.796707 417.09175,61.804707 417.13975,61.820705 C 417.18775,61.836707 417.22508,61.844707 417.25175,61.844705 C 417.89708,61.844707 418.63308,61.735374 419.45975,61.516705 C 420.28641,61.298041 420.73175,61.076708 420.79575,60.852705 M 426.73562,63.524705 C 426.73562,63.679372 426.67429,63.802039 426.55162,63.892705 C 426.42895,63.978038 426.28495,64.020705 426.11962,64.020705 C 425.92229,64.020705 425.75962,63.930038 425.63162,63.748705 C 425.50362,63.562039 425.26895,63.183373 424.92762,62.612705 C 424.58629,62.04204 424.31695,61.682041 424.11962,61.532705 C 423.94362,62.119374 423.74629,62.62604 423.52762,63.052705 C 423.30896,63.479372 423.01029,63.887372 422.63162,64.276705 L 422.25562,64.276705 C 422.06896,63.812705 421.92496,63.146039 421.82362,62.276705 C 421.72762,61.402041 421.64229,60.794042 421.56762,60.452705 C 421.49296,60.111376 421.30629,59.847376 421.00762,59.660705 C 421.09296,59.410043 421.15696,59.234043 421.19962,59.132705 C 421.24229,59.031377 421.30362,58.91671 421.38362,58.788705 C 421.71429,58.94871 421.93296,59.223377 422.03962,59.612705 C 422.14629,59.996709 422.24496,60.580708 422.33562,61.364705 C 422.43162,62.148707 422.54896,62.703373 422.68762,63.028705 C 422.96496,62.895373 423.23162,62.567373 423.48762,62.044705 C 423.74362,61.522041 423.87162,60.770042 423.87162,59.788705 L 424.24762,59.788705 L 426.73562,63.524705 M 430.17275,62.716705 C 430.17275,62.812706 430.13008,62.906039 430.04475,62.996705 C 429.95941,63.087373 429.85808,63.132706 429.74075,63.132705 L 428.84475,62.772705 L 428.69275,62.772705 L 428.69275,64.260705 L 428.30875,64.260705 C 428.16475,64.228705 427.85542,63.983372 427.38075,63.524705 C 426.90608,63.066039 426.66875,62.756706 426.66875,62.596705 C 426.66875,62.41004 426.89275,62.30604 427.34075,62.284705 C 427.79408,62.263373 428.02075,62.17004 428.02075,62.004705 C 428.02075,61.828707 427.96742,61.530041 427.86075,61.108705 C 427.75942,60.682042 427.70875,60.428709 427.70875,60.348705 L 426.70875,57.580705 C 426.78875,57.447378 426.85275,57.356712 426.90075,57.308705 C 426.94875,57.260712 427.01275,57.236712 427.09275,57.236705 C 427.18342,57.236712 427.39142,57.668711 427.71675,58.532705 C 428.04208,59.39671 428.24475,60.047376 428.32475,60.484705 L 428.62075,62.076705 C 428.69541,62.14604 428.97275,62.23404 429.45275,62.340705 C 429.93275,62.447373 430.17275,62.572706 430.17275,62.716705 M 428.02875,63.644705 L 428.02075,62.732705 L 427.82875,62.716705 C 427.75408,62.716706 427.68475,62.72204 427.62075,62.732705 C 427.55675,62.73804 427.52475,62.767373 427.52475,62.820705 C 427.52475,62.900706 427.59408,63.026039 427.73275,63.196705 C 427.87675,63.367372 427.97542,63.516706 428.02875,63.644705"
       id="text1915"
       sodipodi:nodetypes="csssssssccscssscssccccssssscsssccssssssscsssssscccccssssssssccsssssssssssccsssssssssssccssssccscsssssccssscscccsscscsssssscssssccsssssccssssssssssccsssccsccsscsssccsccssscccscscscssssssccsssssssccssssscssssssccssssssssssssscssccccssscssssccsssssscsssssssscccsccsssccsssccsssccssccscsssssccssscscccsscscsssssscssssccssssssssccsssssssssssccssscscsssssssssssscccssccsssscccsssssssssssccsssssccssccccsssssssssssccssssccscsssssccssscscccsscscsssssscssssccssssscssssssccssssssssssssscssccccssscssssccsssscsccsscscsscsccccscccccsssssccsssccsccccsssc" />
    <rect
       style="opacity:1;fill:url(#linearGradient8169);fill-opacity:1;stroke:#2b0000;stroke-width:0.81055135;stroke-linecap:butt;stroke-linejoin:miter;stroke-miterlimit:4;stroke-dasharray:none;stroke-opacity:1"
       id="rect1919"
       width="36.385662"
       height="37.174137"
       x="-61.826527"
       y="158.46596"
       rx="0.38995832"
       ry="0.65073293"
       transform="matrix(0,-1,1,0,0,0)" />
    <g
       style="overflow:visible"
       id="g1884"
       transform="matrix(7.247721e-2,0,0,7.247721e-2,163.9977,30.04937)">
      <path
         id="path1873"
         d="M 177.783,374.859 C 177.783,374.859 117.397,344.296 70.518,276.416 C 23.641,208.519 13.132,154.143 7.885,121.513 C 2.638,88.891 0,33 0,0 L 177.783,0 L 355.553,0 C 355.553,33 352.927,88.891 347.682,121.513 C 342.419,154.143 331.939,208.519 285.047,276.415 C 238.157,344.296 177.783,374.859 177.783,374.859"
         style="fill:#df002a" />
      <polygon
         id="polygon1875"
         points="177.957,10.294 151.33,84.175 125.078,12.366 97.32,85.675 70.316,15.925 16.306,15.925 16.306,68.804 84.956,97.685 15.553,134.437 88.697,147.186 31.686,189.948 107.439,192.2 56.444,243.948 128.457,234.569 86.826,289.709 165.202,269.083 134.457,324.221 177.957,356.661 221.471,324.221 190.712,269.083 269.102,289.709 227.458,234.569 299.47,243.948 248.461,192.2 324.213,189.948 267.217,147.186 340.345,134.437 270.972,97.685 339.591,68.804 339.591,15.925 285.584,15.925 258.594,85.675 230.848,12.366 204.584,84.175 177.957,10.294 "
         style="fill:#ffffff" />
      <path
         id="path1877"
         d="M 151.071,177.434 C 141.107,174.734 130.138,171.977 122.045,166.756 C 129.65,175.417 140.592,184.378 151.059,188.828 L 151.071,177.434 z M 197.224,178.99 C 191.195,180.051 184.036,180.609 177.629,180.609 C 177.629,180.609 164.371,180.05 158.342,178.99 L 158.356,191.522 C 164.328,193.156 171.488,194.026 177.937,194.026 C 183.546,194.026 191.223,193.156 197.209,191.522 L 197.224,178.99 z M 174.225,174.232 C 160.953,173.751 146.467,170.707 135.274,166.605 L 135.302,153.214 C 146.409,157.275 160.798,160.198 174.21,160.673 L 174.225,174.232 z M 127.877,150.654 C 119.825,146.754 111.046,141.066 105.451,135.608 C 107.279,141.239 110.503,150.186 113.363,155.182 C 117.522,158.14 122.993,161.699 127.878,164.044 L 127.878,150.654 L 127.877,150.654 z M 197.098,153.102 C 191.153,153.925 184.286,154.373 177.909,154.373 C 171.517,154.373 164.414,153.925 158.454,153.102 L 158.454,141.462 C 164.386,142.251 171.503,142.663 177.909,142.663 C 184.315,142.663 191.167,142.251 197.098,141.462 L 197.098,153.102 L 197.098,153.102 z M 204.507,177.42 C 214.445,174.733 225.428,171.977 233.508,166.756 C 225.93,175.417 214.96,184.378 204.507,188.808 L 204.507,177.42 z M 181.342,174.232 C 194.613,173.751 209.085,170.707 220.279,166.605 L 220.251,153.214 C 209.157,157.275 194.769,160.198 181.371,160.673 L 181.342,174.232 z M 227.69,150.654 C 235.741,146.754 244.52,141.066 250.101,135.608 C 248.274,141.239 245.063,150.186 242.19,155.182 C 238.031,158.14 232.587,161.699 227.69,164.044 L 227.69,150.654 z M 204.592,151.881 L 204.592,140.34 C 209.49,139.32 215.017,137.611 219.344,136.104 L 219.344,118.485 L 228.484,118.485 L 228.484,132.376 C 243.557,125.19 253.032,114.843 253.103,103.35 L 264.687,103.35 C 264.853,105.778 264.812,107.642 264.812,110.126 C 264.812,163.06 226.727,206.658 177.797,206.736 C 129.37,206.371 90.754,163.06 90.754,110.126 C 90.754,107.642 90.713,105.778 90.88,103.35 L 102.463,103.35 C 102.532,114.844 112.008,125.19 127.082,132.376 L 127.082,118.485 L 136.208,118.485 L 136.208,136.104 C 140.549,137.612 146.075,139.321 150.988,140.34 L 150.988,151.881 C 143.996,150.353 136.585,147.839 130.655,145.28 C 130.655,145.28 128.085,144.183 126.831,143.535 C 124.695,142.495 122.616,141.38 120.662,140.207 C 105.045,131.358 98.011,122.19 97.328,121.458 C 102.324,165.487 136.488,199.93 177.783,200.015 C 219.789,199.93 253.228,165.488 258.252,121.458 C 257.555,122.19 250.534,131.358 234.903,140.207 C 232.935,141.38 230.884,142.495 228.734,143.535 C 227.478,144.183 226.181,144.825 224.841,145.482 C 224.842,145.483 211.556,150.353 204.592,151.881"
         style="fill:#3c474c" />
    </g>
    <text
       xml:space="preserve"
       style="font-size:12px;font-style:normal;font-weight:normal;fill:#000000;fill-opacity:1;stroke:none;stroke-width:1pt;stroke-linecap:butt;stroke-linejoin:miter;stroke-opacity:1;font-family:Bitstream Vera Sans"
       x="45.208107"
       y="48.286518"
       id="text1899"><tspan
         sodipodi:role="line"
         id="tspan1901"
         x="45.208107"
         y="48.286518"
         style="font-size:13px;font-weight:bold;font-family:Arial">KIEL</tspan></text>
    <path
       style="font-size:12px;font-style:normal;font-weight:normal;fill:#000000;fill-opacity:1;stroke:none;stroke-width:1pt;stroke-linecap:butt;stroke-linejoin:miter;stroke-opacity:1;font-family:Bitstream Vera Sans"
       d="M 120.69292,53.740247 C 120.37291,53.932256 120.08091,54.072256 119.81692,54.160247 C 119.55291,54.240256 119.31291,54.280256 119.09692,54.280247 C 119.08891,54.280256 118.76091,54.236256 118.11292,54.148247 C 117.47291,54.060256 116.93291,54.016256 116.49292,54.016247 C 116.06091,54.016256 115.69691,54.032256 115.40092,54.064247 C 115.11291,54.096256 114.88491,54.132256 114.71692,54.172247 C 114.55691,54.212256 114.22091,54.280256 113.70892,54.376247 C 113.19691,54.472256 112.55692,54.584255 111.78892,54.712247 C 110.93292,54.952255 110.50492,55.396255 110.50492,56.044247 C 110.40892,56.220254 110.31292,56.460254 110.21692,56.764247 C 110.12092,57.068253 110.07292,57.544252 110.07292,58.192247 C 110.02492,58.168252 109.97692,58.184252 109.92892,58.240247 C 109.88892,58.296252 109.86892,58.428252 109.86892,58.636247 C 109.86892,58.732251 109.87292,58.848251 109.88092,58.984247 C 109.88892,59.120251 109.90492,59.288251 109.92892,59.488247 C 110.49692,59.368251 110.91692,59.288251 111.18892,59.248247 C 111.46092,59.208251 111.66892,59.188251 111.81292,59.188247 C 111.86092,59.188251 111.90092,59.192251 111.93292,59.200247 L 116.96092,58.624247 L 117.53692,58.624247 C 117.35291,59.152251 116.58491,59.53225 115.23292,59.764247 C 114.04091,59.90025 112.83291,60.04025 111.60892,60.184247 C 110.39292,60.32025 109.78492,60.564249 109.78492,60.916247 C 109.78492,61.372249 110.13292,61.800248 110.82892,62.200247 C 111.52492,62.592247 112.51692,62.788247 113.80492,62.788247 C 114.44491,62.788247 115.25691,62.692247 116.24092,62.500247 C 117.22491,62.308248 117.84491,62.212248 118.10092,62.212247 C 117.96491,62.684247 117.72491,62.996247 117.38092,63.148247 C 117.04491,63.300247 116.58891,63.376247 116.01292,63.376247 C 115.89291,63.376247 115.69691,63.372247 115.42492,63.364247 C 115.15291,63.356247 114.94491,63.352247 114.80092,63.352247 L 113.08492,63.352247 C 111.50892,63.352247 110.37292,63.144247 109.67692,62.728247 C 108.98892,62.304248 108.64492,61.460249 108.64492,60.196247 C 108.64492,59.61225 108.71292,58.984251 108.84892,58.312247 C 108.99292,57.640252 109.06492,57.264253 109.06492,57.184247 C 109.06492,57.168253 109.08492,57.132253 109.12492,57.076247 C 109.17292,57.020253 109.19692,56.924253 109.19692,56.788247 C 109.19692,56.724253 109.19292,56.644253 109.18492,56.548247 C 109.17692,56.444254 109.16092,56.324254 109.13692,56.188247 C 108.65692,55.988254 108.38492,55.876254 108.32092,55.852247 C 108.24892,55.828254 108.21292,55.748254 108.21292,55.612247 C 108.21292,55.276255 108.62892,54.920255 109.46092,54.544247 C 110.30092,54.160256 111.27292,53.836256 112.37692,53.572247 C 113.48891,53.308257 114.39291,53.176257 115.08892,53.176247 C 116.24891,53.176257 117.16891,53.180257 117.84892,53.188247 C 118.52891,53.196257 119.16491,53.204257 119.75692,53.212247 L 119.92492,53.212247 C 120.27691,53.212257 120.53291,53.200257 120.69292,53.176247 L 120.69292,53.740247 M 129.88267,63.664247 C 129.88266,63.880246 129.85466,64.008246 129.79867,64.048247 C 129.74266,64.096246 129.61466,64.120246 129.41467,64.120247 C 129.28666,64.120246 128.74266,63.948246 127.78267,63.604247 C 126.82266,63.260247 126.29466,63.088247 126.19867,63.088247 C 126.15866,63.088247 125.87866,62.984247 125.35867,62.776247 C 124.83866,62.560247 124.27866,62.280248 123.67867,61.936247 C 123.08667,61.584248 122.54667,61.164249 122.05867,60.676247 C 122.71467,60.36425 123.31866,60.04025 123.87067,59.704247 C 124.43066,59.368251 124.71066,58.732251 124.71067,57.796247 C 124.71066,57.036253 124.40266,56.388254 123.78667,55.852247 C 123.17867,55.308255 122.64267,55.036255 122.17867,55.036247 C 121.85867,55.036255 121.58667,55.308255 121.36267,55.852247 C 121.13867,56.388254 121.02667,57.000253 121.02667,57.688247 C 121.02667,57.888252 121.11467,58.404252 121.29067,59.236247 C 121.46667,60.06825 121.65467,60.936249 121.85467,61.840247 C 122.06267,62.744247 122.17067,63.196247 122.17867,63.196247 L 122.17867,63.664247 L 121.49467,63.664247 C 121.13467,63.208247 120.86267,62.448248 120.67867,61.384247 C 120.49467,60.31225 120.32667,59.300251 120.17467,58.348247 C 119.95867,57.412253 119.63067,56.904253 119.19067,56.824247 C 119.22267,56.712253 119.26267,56.444254 119.31067,56.020247 C 119.35067,55.596254 119.54267,55.384255 119.88667,55.384247 C 119.91067,55.384255 119.98667,55.416255 120.11467,55.480247 C 120.24267,55.544254 120.39467,55.628254 120.57067,55.732247 C 120.75467,55.412255 120.94267,55.088255 121.13467,54.760247 C 121.42267,54.408256 121.81067,54.232256 122.29867,54.232247 C 123.05867,54.232256 123.78266,54.632255 124.47067,55.432247 C 125.16666,56.232254 125.51466,56.984253 125.51467,57.688247 C 125.51466,58.240252 125.31066,58.792251 124.90267,59.344247 C 124.45466,59.86425 124.00666,60.38425 123.55867,60.904247 C 123.55866,61.056249 123.95066,61.276249 124.73467,61.564247 C 125.51866,61.852248 126.21066,62.136248 126.81067,62.416247 C 127.41866,62.688247 127.91066,62.868247 128.28667,62.956247 C 128.67066,63.044247 129.06666,63.088247 129.47467,63.088247 L 129.88267,63.088247 C 130.05066,63.088247 130.13466,63.140247 130.13467,63.244247 C 130.13466,63.324247 130.10266,63.404247 130.03867,63.484247 C 129.97466,63.564246 129.92266,63.624246 129.88267,63.664247"
       id="text1903" />
    <path
       style="fill:none;fill-opacity:0.75;fill-rule:evenodd;stroke:#000000;stroke-width:0.98855317;stroke-linecap:butt;stroke-linejoin:miter;marker-end:url(#Arrow2Mend);stroke-miterlimit:4;stroke-dasharray:none;stroke-opacity:1"
       d="M 78.8906,49.769245 C 92.627561,49.769245 98.027595,49.769245 98.027595,49.769245"
       id="path1935"
       sodipodi:nodetypes="cc" />
    <path
       style="fill:none;fill-opacity:0.75;fill-rule:evenodd;stroke:#000000;stroke-width:0.99408239;stroke-linecap:butt;stroke-linejoin:miter;marker-end:url(#Arrow2Mend);stroke-miterlimit:4;stroke-dasharray:none;stroke-opacity:1"
       d="M 78.868279,31.552733 C 152.10981,31.239559 157.12317,31.415291 157.12317,31.415291"
       id="path1937"
       sodipodi:nodetypes="cc" />
    <path
       style="fill:none;fill-opacity:0.75;fill-rule:evenodd;stroke:#000000;stroke-width:1;stroke-linecap:butt;stroke-linejoin:miter;marker-end:url(#Arrow2Mend);stroke-miterlimit:4;stroke-dasharray:none;stroke-opacity:1"
       d="M 24.832251,68.303926 C 90.999821,68.303926 97.957271,68.303926 97.957271,68.303926"
       id="path1939"
       sodipodi:nodetypes="cc" />
    <path
       style="fill:none;fill-opacity:0.75;fill-rule:evenodd;stroke:#000000;stroke-width:1;stroke-linecap:butt;stroke-linejoin:miter;marker-end:url(#Arrow2Mend);stroke-miterlimit:4;stroke-dasharray:none;stroke-opacity:1"
       d="M 24.331138,43.643306 C 35.093864,43.643306 40.046621,43.643306 40.046621,43.643306"
       id="path1941"
       sodipodi:nodetypes="cc" />
    <path
       style="fill:none;fill-opacity:0.75;fill-rule:evenodd;stroke:#000000;stroke-width:0.98933399;stroke-linecap:butt;stroke-linejoin:miter;marker-end:url(#Arrow2Mend);stroke-miterlimit:4;stroke-dasharray:none;stroke-opacity:1"
       d="M 136.0104,58.674084 C 152.60664,58.674084 157.09547,58.792341 157.09547,58.792341"
       id="path1943"
       sodipodi:nodetypes="cc" />
    <path
       style="fill:none;fill-opacity:0.75;fill-rule:evenodd;stroke:#000000;stroke-width:0.98768646;stroke-linecap:butt;stroke-linejoin:miter;marker-end:url(#Arrow2Mend);stroke-miterlimit:4;stroke-dasharray:none;stroke-opacity:1"
       d="M 195.63928,43.647039 C 202.08263,43.647039 207.01331,43.765339 207.01331,43.765339"
       id="path1945"
       sodipodi:nodetypes="cc" />
    <text
       xml:space="preserve"
       style="font-size:12px;font-style:normal;font-weight:normal;fill:#5d3b16;fill-opacity:1;stroke:none;stroke-width:1pt;stroke-linecap:butt;stroke-linejoin:miter;stroke-opacity:1;font-family:Bitstream Vera Sans;opacity:0.44495413;filter:url(#filter3866)"
       x="213.7552"
       y="49.087051"
       id="text2918"><tspan
         sodipodi:role="line"
         x="213.7552"
         y="49.087051"
         id="tspan2920"><tspan
   style="font-weight:bold;fill:#5d3b16;fill-opacity:1"
   id="tspan2922">K</tspan>iel <tspan
   style="font-weight:bold;fill:#5d3b16;fill-opacity:1"
   id="tspan2924">I</tspan>ntegrated <tspan
   style="font-weight:bold;fill:#5d3b16;fill-opacity:1"
   id="tspan2926">E</tspan>nvironment for <tspan
   style="font-weight:bold;fill:#5d3b16;fill-opacity:1"
   id="tspan2928">L</tspan>ayout</tspan></text>
  </g>
</svg>
