<?xml version="1.0" encoding="utf-8"?>
<!-- Generator: Adobe Illustrator 12.0.0, SVG Export Plug-In . SVG Version: 6.00 Build 51448)  -->
<!DOCTYPE svg PUBLIC "-//W3C//DTD SVG 1.0//EN" "http://www.w3.org/TR/2001/REC-SVG-20010904/DTD/svg10.dtd" [
	<!ENTITY ns_svg "http://www.w3.org/2000/svg">
	<!ENTITY ns_xlink "http://www.w3.org/1999/xlink">
]>
<svg  version="1.0" id="Layer_1" xmlns="&ns_svg;" xmlns:xlink="&ns_xlink;" width="264.816" height="157.843"
	 viewBox="0 0 264.816 157.843" overflow="visible" enable-background="new 0 0 264.816 157.843" xml:space="preserve">
<g>
	<g>
		<g>
			<path fill-rule="evenodd" clip-rule="evenodd" fill="#2A3D89" d="M245.94,0.944c-0.558,3.172-1.481,6.282-2.316,9.38
				c-11.832,43.918-21.193,90.554-28.72,139.314c-0.265,1.714-0.731,5.087-0.872,5.406c-0.128,0.129-2.384,2.798-2.384,2.798
				l0.014-0.214c5.462-41.315,13.37-80.786,22.234-119.28c2.519-10.935,5.178-22.372,7.875-33.468
				c0.403-1.66,0.754-3.606,1.274-4.632C244.013-0.372,245.501,0.285,245.94,0.944z"/>
			<path fill-rule="evenodd" clip-rule="evenodd" fill="#2A3D89" d="M220.462,15.188c-8.708,30.408-16.326,63.016-22.582,96.583
				c-0.208,1.12-0.567,3.026-0.567,3.026l-2.443,2.185c0,0,0.012-0.061,0.018-0.091c5.852-32.672,12.928-65.039,20.827-96.144
				c0.527-2.075,0.907-4.25,1.622-6.138c0.004-0.013,0.104,0.01,0.115,0C218.383,14.025,219.88,14.672,220.462,15.188z"/>
			<path fill-rule="evenodd" clip-rule="evenodd" fill="#2A3D89" d="M264.816,15.999c-4.391,16.102-8.769,32.325-12.622,48.986
				c-3.837,16.589-10.506,50.61-10.506,50.61l-2.465,2.197c0,0,0.012-0.063,0.017-0.094c6.447-35.207,13.813-69.493,22.565-102.395
				C262.94,15.021,264.22,15.379,264.816,15.999z"/>
		</g>
	</g>
	<g>
		<path fill="#2A3D89" d="M91.004,62.457l4.417-21.014h4.329l-4.417,21.014H91.004z"/>
		<path fill="#2A3D89" d="M102.598,47.231h3.899l-0.39,1.982c0.984-0.852,1.902-1.458,2.755-1.821
			c0.853-0.362,1.752-0.544,2.698-0.544c1.263,0,2.258,0.362,2.986,1.087s1.092,1.686,1.092,2.884
			c-0.013,0.532-0.184,1.542-0.514,3.03l-1.85,8.607h-4.104l1.875-8.629c0.271-1.29,0.413-2.062,0.427-2.314
			c0-0.534-0.159-0.955-0.475-1.262c-0.317-0.307-0.758-0.459-1.323-0.459c-0.614,0-1.296,0.254-2.046,0.762
			s-1.339,1.179-1.768,2.013c-0.31,0.594-0.659,1.807-1.047,3.637l-1.312,6.253h-4.104L102.598,47.231z"/>
		<path fill="#2A3D89" d="M116.79,58.226l3.996-0.629c0.353,0.838,0.791,1.431,1.315,1.778s1.24,0.521,2.146,0.521
			c0.935,0,1.683-0.211,2.246-0.634c0.392-0.288,0.587-0.639,0.587-1.052c0-0.279-0.102-0.528-0.302-0.749
			c-0.21-0.211-0.778-0.47-1.705-0.776c-2.485-0.824-4.024-1.477-4.616-1.956c-0.928-0.748-1.391-1.726-1.391-2.934
			s0.449-2.248,1.35-3.121c1.252-1.218,3.113-1.826,5.582-1.826c1.961,0,3.443,0.359,4.447,1.077c1.006,0.72,1.642,1.692,1.91,2.918
			l-3.797,0.663c-0.201-0.557-0.527-0.975-0.977-1.253c-0.613-0.375-1.35-0.562-2.211-0.562c-0.862,0-1.482,0.144-1.86,0.432
			s-0.567,0.62-0.567,0.994c0,0.385,0.191,0.701,0.574,0.95c0.239,0.154,1.008,0.423,2.311,0.806
			c2.009,0.585,3.353,1.16,4.032,1.726c0.956,0.796,1.436,1.755,1.436,2.877c0,1.447-0.607,2.704-1.823,3.768
			c-1.215,1.064-2.926,1.597-5.137,1.597c-2.2,0-3.9-0.404-5.102-1.211C118.035,60.822,117.219,59.688,116.79,58.226z"/>
		<path fill="#2A3D89" d="M134.709,50.276l0.64-3.045h2.014l0.501-2.44l4.709-2.843l-1.09,5.283h2.498l-0.639,3.045h-2.488
			l-1.365,6.411c-0.245,1.158-0.367,1.817-0.367,1.98c0,0.316,0.1,0.563,0.301,0.74c0.203,0.178,0.566,0.266,1.094,0.266
			c0.183,0,0.639-0.033,1.367-0.101l-0.639,3.053c-0.71,0.143-1.439,0.215-2.186,0.215c-1.457,0-2.517-0.282-3.178-0.845
			c-0.662-0.563-0.992-1.347-0.992-2.349c0-0.468,0.181-1.547,0.543-3.238l1.324-6.133H134.709z"/>
		<path fill="#2A3D89" d="M146.668,47.231h4.104l-3.2,15.226h-4.104L146.668,47.231z M147.884,41.443h4.104l-0.784,3.731H147.1
			L147.884,41.443z"/>
		<path fill="#2A3D89" d="M152.68,50.276l0.64-3.045h2.014l0.501-2.44l4.709-2.843l-1.09,5.283h2.498l-0.639,3.045h-2.488
			l-1.365,6.411c-0.245,1.158-0.367,1.817-0.367,1.98c0,0.316,0.1,0.563,0.301,0.74c0.203,0.178,0.566,0.266,1.094,0.266
			c0.183,0,0.639-0.033,1.367-0.101l-0.639,3.053c-0.71,0.143-1.439,0.215-2.186,0.215c-1.457,0-2.517-0.282-3.178-0.845
			c-0.662-0.563-0.992-1.347-0.992-2.349c0-0.468,0.181-1.547,0.543-3.238l1.324-6.133H152.68z"/>
		<path fill="#2A3D89" d="M164.787,47.231h4.124l-2.045,9.032c-0.25,1.082-0.374,1.757-0.374,2.024c0,0.44,0.147,0.818,0.44,1.135
			c0.295,0.315,0.67,0.474,1.129,0.474c0.328,0,0.652-0.072,0.973-0.216c0.318-0.144,0.647-0.362,0.984-0.654
			c0.338-0.293,0.64-0.627,0.908-1.004c0.268-0.377,0.519-0.872,0.752-1.487c0.164-0.455,0.355-1.137,0.573-2.044l1.647-7.26h4.138
			l-3.468,15.226H170.7l0.441-2.002c-1.557,1.591-3.248,2.386-5.078,2.386c-1.158,0-2.068-0.361-2.73-1.082s-0.994-1.688-0.994-2.9
			c0-0.525,0.176-1.571,0.527-3.14L164.787,47.231z"/>
		<path fill="#2A3D89" d="M180.448,50.276l0.64-3.045h2.014l0.501-2.44l4.711-2.843l-1.092,5.283h2.499l-0.64,3.045h-2.488
			l-1.365,6.411c-0.244,1.158-0.367,1.817-0.367,1.98c0,0.316,0.101,0.563,0.302,0.74c0.201,0.178,0.565,0.266,1.095,0.266
			c0.182,0,0.637-0.033,1.365-0.101l-0.639,3.053c-0.71,0.143-1.438,0.215-2.186,0.215c-1.457,0-2.516-0.282-3.178-0.845
			c-0.66-0.563-0.992-1.347-0.992-2.349c0-0.468,0.182-1.547,0.544-3.238l1.323-6.133H180.448z"/>
		<path fill="#2A3D89" d="M10.231,80.122l-0.639,3.004H6.671L4.104,95.348H0l2.567-12.221H0.26l0.64-3.004H3.2l0.328-1.568
			c0.268-1.286,0.521-2.153,0.761-2.604c0.325-0.614,0.811-1.1,1.457-1.459c0.646-0.36,1.49-0.54,2.533-0.54
			c1.263,0,2.593,0.229,3.99,0.688l-0.804,2.939c-0.99-0.334-1.792-0.501-2.407-0.501c-0.471,0-0.822,0.149-1.052,0.448
			c-0.154,0.193-0.313,0.699-0.476,1.519l-0.227,1.079H10.231z"/>
		<path fill="#2A3D89" d="M12.746,80.122h4.124l-2.044,9.031c-0.25,1.082-0.375,1.756-0.375,2.025c0,0.439,0.146,0.818,0.44,1.134
			c0.294,0.315,0.67,0.474,1.128,0.474c0.328,0,0.652-0.072,0.972-0.216s0.648-0.363,0.985-0.654
			c0.337-0.293,0.64-0.628,0.908-1.004s0.519-0.872,0.752-1.486c0.165-0.456,0.355-1.138,0.573-2.045l1.648-7.259h4.138
			l-3.468,15.226h-3.869l0.441-2.003c-1.556,1.591-3.248,2.386-5.077,2.386c-1.158,0-2.068-0.361-2.73-1.082
			c-0.663-0.722-0.994-1.688-0.994-2.899c0-0.526,0.175-1.573,0.527-3.14L12.746,80.122z M15.992,74.636h3.537l-0.739,3.509h-3.537
			L15.992,74.636z M22.046,74.636h3.537l-0.739,3.509h-3.537L22.046,74.636z"/>
		<path fill="#2A3D89" d="M30.328,80.122h3.837l-0.598,2.89c1.434-2.183,2.988-3.273,4.662-3.273c0.593,0,1.229,0.147,1.908,0.444
			l-1.579,3.366c-0.375-0.133-0.775-0.2-1.198-0.2c-0.713,0-1.438,0.269-2.174,0.805c-0.736,0.537-1.311,1.254-1.725,2.152
			c-0.414,0.896-0.823,2.318-1.228,4.265l-1.002,4.777h-4.104L30.328,80.122z"/>
		<path fill="#2A3D89" d="M46.832,95.348l4.417-21.014h4.329L51.16,95.348H46.832z"/>
		<path fill="#2A3D89" d="M58.424,80.122h3.899l-0.39,1.981c0.983-0.851,1.902-1.458,2.755-1.821
			c0.853-0.362,1.752-0.544,2.697-0.544c1.263,0,2.258,0.361,2.986,1.086s1.092,1.686,1.092,2.884
			c-0.013,0.533-0.184,1.543-0.513,3.032L69.1,95.348h-4.104l1.875-8.63c0.271-1.29,0.413-2.061,0.427-2.314
			c0-0.535-0.158-0.956-0.475-1.262c-0.316-0.306-0.757-0.458-1.322-0.458c-0.614,0-1.296,0.253-2.046,0.761
			c-0.75,0.508-1.34,1.179-1.768,2.013c-0.311,0.594-0.659,1.807-1.047,3.638l-1.312,6.252h-4.104L58.424,80.122z"/>
		<path fill="#2A3D89" d="M83.767,80.122l-0.64,3.004h-2.92l-2.567,12.221h-4.104l2.566-12.221h-2.307l0.639-3.004h2.301
			l0.329-1.568c0.268-1.286,0.521-2.153,0.761-2.604c0.325-0.614,0.811-1.1,1.457-1.459c0.646-0.36,1.49-0.54,2.534-0.54
			c1.263,0,2.593,0.229,3.99,0.688l-0.804,2.939c-0.99-0.334-1.792-0.501-2.407-0.501c-0.471,0-0.822,0.149-1.052,0.448
			c-0.154,0.193-0.313,0.699-0.476,1.519l-0.227,1.079H83.767z"/>
		<path fill="#2A3D89" d="M83.532,89.029c0-2.828,0.797-5.085,2.392-6.767c1.595-1.683,3.69-2.523,6.286-2.523
			c2.25,0,4.008,0.621,5.272,1.862s1.896,2.912,1.896,5.012c0,2.474-0.791,4.612-2.371,6.415c-1.581,1.803-3.697,2.704-6.35,2.704
			c-1.437,0-2.711-0.288-3.822-0.863c-1.111-0.575-1.939-1.39-2.485-2.444C83.805,91.369,83.532,90.237,83.532,89.029z
			 M95.282,86.082c0-0.979-0.285-1.763-0.854-2.353s-1.305-0.884-2.205-0.884c-0.891,0-1.681,0.276-2.37,0.826
			c-0.689,0.553-1.226,1.354-1.609,2.404c-0.383,1.051-0.575,2.018-0.575,2.9c0,1.094,0.297,1.963,0.891,2.605
			s1.341,0.964,2.241,0.964c1.13,0,2.078-0.485,2.844-1.454C94.736,89.719,95.282,88.049,95.282,86.082z"/>
		<path fill="#2A3D89" d="M103.864,80.122h3.837l-0.598,2.89c1.435-2.183,2.989-3.273,4.662-3.273c0.592,0,1.229,0.147,1.907,0.444
			l-1.579,3.366c-0.375-0.133-0.774-0.2-1.198-0.2c-0.713,0-1.438,0.269-2.174,0.805c-0.736,0.537-1.312,1.254-1.726,2.152
			c-0.414,0.896-0.823,2.318-1.227,4.265l-1.002,4.777h-4.104L103.864,80.122z"/>
		<path fill="#2A3D89" d="M115.432,80.122h3.879l-0.379,1.836c1.514-1.479,3.106-2.219,4.775-2.219c1.151,0,2.038,0.239,2.661,0.718
			c0.624,0.479,1.021,1.141,1.194,1.984c0.527-0.766,1.285-1.409,2.273-1.926c0.987-0.518,2.014-0.776,3.078-0.776
			c1.217,0,2.168,0.328,2.849,0.984c0.681,0.656,1.021,1.526,1.021,2.608c-0.011,0.524-0.153,1.43-0.427,2.719l-1.996,9.298h-4.104
			l1.993-9.294c0.246-1.165,0.371-1.825,0.378-1.981c0-0.429-0.129-0.768-0.385-1.016c-0.257-0.249-0.642-0.373-1.155-0.373
			c-1.037,0-1.962,0.542-2.776,1.625c-0.591,0.777-1.095,2.153-1.511,4.129l-1.453,6.911h-4.104l1.935-9.219
			c0.22-1.063,0.331-1.751,0.331-2.067c0-0.402-0.138-0.732-0.411-0.991c-0.273-0.259-0.649-0.388-1.13-0.388
			c-0.451,0-0.917,0.133-1.397,0.402c-0.479,0.269-0.899,0.638-1.261,1.108c-0.359,0.47-0.67,1.074-0.929,1.812
			c-0.118,0.345-0.311,1.126-0.577,2.345l-1.469,6.999h-4.104L115.432,80.122z"/>
		<path fill="#2A3D89" d="M144.327,84.417l-4.018-0.344c0.461-1.359,1.262-2.421,2.406-3.187c1.145-0.766,2.658-1.148,4.545-1.148
			c1.963,0,3.412,0.395,4.352,1.185c0.938,0.789,1.406,1.754,1.406,2.893c0,0.46-0.04,0.948-0.121,1.465
			c-0.081,0.517-0.365,1.876-0.854,4.078c-0.402,1.819-0.604,3.092-0.604,3.82c0,0.651,0.115,1.374,0.346,2.168h-4.002
			c-0.162-0.554-0.262-1.127-0.301-1.72c-0.604,0.669-1.299,1.187-2.086,1.553c-0.785,0.366-1.577,0.55-2.373,0.55
			c-1.266,0-2.312-0.415-3.136-1.246c-0.825-0.83-1.237-1.899-1.237-3.205c0-1.458,0.453-2.625,1.359-3.499
			c0.906-0.873,2.523-1.401,4.854-1.584c1.965-0.162,3.279-0.359,3.94-0.59c0.172-0.573,0.258-1.032,0.258-1.376
			c0-0.44-0.178-0.808-0.532-1.104c-0.355-0.296-0.883-0.443-1.584-0.443c-0.738,0-1.321,0.15-1.748,0.451
			C144.77,83.436,144.48,83.863,144.327,84.417z M148.258,88.209c-0.25,0.067-0.58,0.129-0.993,0.188
			c-2.073,0.251-3.427,0.618-4.062,1.101c-0.45,0.348-0.676,0.816-0.676,1.405c0,0.483,0.173,0.891,0.519,1.224
			c0.345,0.333,0.801,0.5,1.368,0.5c0.623,0,1.211-0.153,1.764-0.457c0.552-0.303,0.965-0.695,1.238-1.174
			c0.273-0.477,0.516-1.223,0.727-2.237L148.258,88.209z"/>
		<path fill="#2A3D89" d="M155.913,83.167l0.639-3.045h2.015l0.501-2.44l4.709-2.844l-1.09,5.284h2.498l-0.639,3.045h-2.488
			l-1.365,6.411c-0.245,1.158-0.367,1.817-0.367,1.98c0,0.316,0.1,0.563,0.301,0.74c0.202,0.177,0.566,0.265,1.094,0.265
			c0.183,0,0.639-0.033,1.367-0.1l-0.64,3.052c-0.71,0.143-1.438,0.215-2.185,0.215c-1.458,0-2.518-0.282-3.178-0.846
			c-0.662-0.563-0.992-1.346-0.992-2.349c0-0.467,0.181-1.546,0.543-3.237l1.324-6.132H155.913z"/>
		<path fill="#2A3D89" d="M167.872,80.122h4.104l-3.201,15.226h-4.104L167.872,80.122z M169.087,74.333h4.104l-0.784,3.731h-4.104
			L169.087,74.333z"/>
		<path fill="#2A3D89" d="M172.764,95.348l4.417-21.014h4.104l-2.304,10.957l5.412-5.168h5.355l-6.137,5.523l3.259,9.703h-4.121
			l-2.109-7.04l-2.817,2.496l-0.956,4.544H172.764z"/>
	</g>
</g>
</svg>
