<?xml version="1.0" encoding="UTF-8"?>
<!-- Generator: Adobe Illustrator 12.0.0, SVG Export Plug-In . SVG Version: 6.00 Build 51448)  -->
<!DOCTYPE svg PUBLIC "-//W3C//DTD SVG 1.0//EN" "http://www.w3.org/TR/2001/REC-SVG-20010904/DTD/svg10.dtd" [
	<!ENTITY ns_svg "http://www.w3.org/2000/svg">
	<!ENTITY ns_xlink "http://www.w3.org/1999/xlink">
]>
<svg version="1.0" id="Layer_1" xmlns="http://www.w3.org/2000/svg" xmlns:xlink="http://www.w3.org/1999/xlink" width="306.445" height="157.843" viewBox="0 0 306.445 157.843" overflow="visible" enable-background="new 0 0 306.445 157.843" xml:space="preserve">
<g>
	<g>
		<g>
			<path fill-rule="evenodd" clip-rule="evenodd" fill="#2A3D89" d="M287.569,0.944c-0.558,3.172-1.481,6.282-2.316,9.38     c-11.832,43.918-21.193,90.554-28.72,139.314c-0.265,1.714-0.731,5.087-0.872,5.406c-0.128,0.129-2.384,2.798-2.384,2.798     l0.014-0.214c5.462-41.315,13.37-80.786,22.234-119.28c2.519-10.935,5.178-22.372,7.875-33.468     c0.403-1.66,0.754-3.606,1.274-4.632C285.642-0.372,287.13,0.285,287.569,0.944z"/>
			<path fill-rule="evenodd" clip-rule="evenodd" fill="#2A3D89" d="M262.091,15.188c-8.708,30.408-16.326,63.016-22.582,96.583     c-0.208,1.12-0.567,3.026-0.567,3.026l-2.443,2.185c0,0,0.012-0.061,0.018-0.091c5.852-32.672,12.928-65.039,20.827-96.144     c0.527-2.075,0.907-4.25,1.622-6.138c0.004-0.013,0.104,0.01,0.115,0C260.012,14.025,261.509,14.672,262.091,15.188z"/>
			<path fill-rule="evenodd" clip-rule="evenodd" fill="#2A3D89" d="M306.445,15.999c-4.391,16.102-8.769,32.325-12.622,48.986     c-3.837,16.589-10.506,50.61-10.506,50.61l-2.465,2.197c0,0,0.012-0.063,0.017-0.094c6.447-35.207,13.813-69.493,22.565-102.395     C304.569,15.021,305.849,15.379,306.445,15.999z"/>
		</g>
	</g>
	<g>
		<path fill="#2A3D89" d="M132.633,62.457l4.417-21.014h4.329l-4.417,21.014H132.633z"/>
		<path fill="#2A3D89" d="M144.227,47.231h3.899l-0.39,1.982c0.984-0.852,1.902-1.458,2.755-1.821    c0.853-0.362,1.752-0.544,2.698-0.544c1.263,0,2.258,0.362,2.986,1.087s1.092,1.686,1.092,2.884    c-0.013,0.532-0.184,1.542-0.514,3.03l-1.85,8.607h-4.104l1.875-8.629c0.271-1.29,0.413-2.062,0.427-2.314    c0-0.534-0.159-0.955-0.475-1.262c-0.317-0.307-0.758-0.459-1.323-0.459c-0.614,0-1.296,0.254-2.046,0.762    s-1.339,1.179-1.768,2.013c-0.31,0.594-0.659,1.807-1.047,3.637l-1.312,6.253h-4.104L144.227,47.231z"/>
		<path fill="#2A3D89" d="M158.418,58.226l3.996-0.629c0.353,0.838,0.791,1.431,1.315,1.778s1.24,0.521,2.146,0.521    c0.935,0,1.683-0.211,2.246-0.634c0.392-0.288,0.587-0.639,0.587-1.052c0-0.279-0.102-0.528-0.302-0.749    c-0.21-0.211-0.778-0.47-1.705-0.776c-2.485-0.824-4.024-1.477-4.616-1.956c-0.928-0.748-1.391-1.726-1.391-2.934    s0.449-2.248,1.35-3.121c1.252-1.218,3.113-1.826,5.582-1.826c1.961,0,3.443,0.359,4.447,1.077c1.006,0.72,1.642,1.692,1.91,2.918    l-3.797,0.663c-0.201-0.557-0.527-0.975-0.977-1.253c-0.613-0.375-1.35-0.562-2.211-0.562c-0.862,0-1.482,0.144-1.86,0.432    s-0.567,0.62-0.567,0.994c0,0.385,0.191,0.701,0.574,0.95c0.239,0.154,1.008,0.423,2.311,0.806    c2.009,0.585,3.353,1.16,4.032,1.726c0.956,0.796,1.436,1.755,1.436,2.877c0,1.447-0.607,2.704-1.823,3.768    c-1.215,1.064-2.926,1.597-5.137,1.597c-2.2,0-3.9-0.404-5.102-1.211C159.664,60.822,158.848,59.688,158.418,58.226z"/>
		<path fill="#2A3D89" d="M176.338,50.276l0.64-3.045h2.014l0.501-2.44l4.709-2.843l-1.09,5.283h2.498l-0.639,3.045h-2.488    l-1.365,6.411c-0.245,1.158-0.367,1.817-0.367,1.98c0,0.316,0.1,0.563,0.301,0.74c0.203,0.178,0.566,0.266,1.094,0.266    c0.183,0,0.639-0.033,1.367-0.101l-0.639,3.053c-0.71,0.143-1.439,0.215-2.186,0.215c-1.457,0-2.517-0.282-3.178-0.845    c-0.662-0.563-0.992-1.347-0.992-2.349c0-0.468,0.181-1.547,0.543-3.238l1.324-6.133H176.338z"/>
		<path fill="#2A3D89" d="M188.297,47.231h4.104l-3.2,15.226h-4.104L188.297,47.231z M189.513,41.443h4.104l-0.784,3.731h-4.104    L189.513,41.443z"/>
		<path fill="#2A3D89" d="M194.309,50.276l0.64-3.045h2.014l0.501-2.44l4.709-2.843l-1.09,5.283h2.498l-0.639,3.045h-2.488    l-1.365,6.411c-0.245,1.158-0.367,1.817-0.367,1.98c0,0.316,0.1,0.563,0.301,0.74c0.203,0.178,0.566,0.266,1.094,0.266    c0.183,0,0.639-0.033,1.367-0.101l-0.639,3.053c-0.71,0.143-1.439,0.215-2.186,0.215c-1.457,0-2.517-0.282-3.178-0.845    c-0.662-0.563-0.992-1.347-0.992-2.349c0-0.468,0.181-1.547,0.543-3.238l1.324-6.133H194.309z"/>
		<path fill="#2A3D89" d="M206.416,47.231h4.124l-2.045,9.032c-0.25,1.082-0.374,1.757-0.374,2.024c0,0.44,0.147,0.818,0.44,1.135    c0.295,0.315,0.67,0.474,1.129,0.474c0.328,0,0.652-0.072,0.973-0.216c0.318-0.144,0.647-0.362,0.984-0.654    c0.338-0.293,0.64-0.627,0.908-1.004c0.268-0.377,0.519-0.872,0.752-1.487c0.164-0.455,0.355-1.137,0.573-2.044l1.647-7.26h4.138    l-3.468,15.226h-3.869l0.441-2.002c-1.557,1.591-3.248,2.386-5.078,2.386c-1.158,0-2.068-0.361-2.73-1.082s-0.994-1.688-0.994-2.9    c0-0.525,0.176-1.571,0.527-3.14L206.416,47.231z"/>
		<path fill="#2A3D89" d="M222.077,50.276l0.64-3.045h2.014l0.501-2.44l4.711-2.843l-1.092,5.283h2.499l-0.64,3.045h-2.488    l-1.365,6.411c-0.244,1.158-0.367,1.817-0.367,1.98c0,0.316,0.101,0.563,0.302,0.74c0.201,0.178,0.565,0.266,1.095,0.266    c0.182,0,0.637-0.033,1.365-0.101l-0.639,3.053c-0.71,0.143-1.438,0.215-2.186,0.215c-1.457,0-2.516-0.282-3.178-0.845    c-0.66-0.563-0.992-1.347-0.992-2.349c0-0.468,0.182-1.547,0.544-3.238l1.323-6.133H222.077z"/>
		<path fill="#2A3D89" d="M51.86,80.122l-0.639,3.004H48.3l-2.567,12.221h-4.104l2.567-12.221h-2.307l0.64-3.004h2.301l0.328-1.568    c0.268-1.286,0.521-2.153,0.761-2.604c0.325-0.614,0.811-1.1,1.457-1.459c0.646-0.36,1.49-0.54,2.533-0.54    c1.263,0,2.593,0.229,3.99,0.688l-0.804,2.939c-0.99-0.334-1.792-0.501-2.407-0.501c-0.471,0-0.822,0.149-1.052,0.448    c-0.154,0.193-0.313,0.699-0.476,1.519l-0.227,1.079H51.86z"/>
		<path fill="#2A3D89" d="M54.375,80.122h4.124l-2.044,9.031c-0.25,1.082-0.375,1.756-0.375,2.025c0,0.439,0.146,0.818,0.44,1.134    c0.294,0.315,0.67,0.474,1.128,0.474c0.328,0,0.652-0.072,0.972-0.216s0.648-0.363,0.985-0.654    c0.337-0.293,0.64-0.628,0.908-1.004s0.519-0.872,0.752-1.486c0.165-0.456,0.355-1.138,0.573-2.045l1.648-7.259h4.138    l-3.468,15.226h-3.869l0.441-2.003c-1.556,1.591-3.248,2.386-5.077,2.386c-1.158,0-2.068-0.361-2.73-1.082    c-0.663-0.722-0.994-1.688-0.994-2.899c0-0.526,0.175-1.573,0.527-3.14L54.375,80.122z M57.621,74.636h3.537l-0.739,3.509h-3.537    L57.621,74.636z M63.675,74.636h3.537l-0.739,3.509h-3.537L63.675,74.636z"/>
		<path fill="#2A3D89" d="M71.957,80.122h3.837l-0.598,2.89c1.434-2.183,2.988-3.273,4.662-3.273c0.593,0,1.229,0.147,1.908,0.444    l-1.579,3.366c-0.375-0.133-0.775-0.2-1.198-0.2c-0.713,0-1.438,0.269-2.174,0.805c-0.736,0.537-1.311,1.254-1.725,2.152    c-0.414,0.896-0.823,2.318-1.228,4.265l-1.002,4.777h-4.104L71.957,80.122z"/>
		<path fill="#2A3D89" d="M88.46,95.348l4.417-21.014h4.329l-4.417,21.014H88.46z"/>
		<path fill="#2A3D89" d="M100.053,80.122h3.899l-0.39,1.981c0.983-0.851,1.902-1.458,2.755-1.821    c0.853-0.362,1.752-0.544,2.697-0.544c1.263,0,2.258,0.361,2.986,1.086s1.092,1.686,1.092,2.884    c-0.013,0.533-0.184,1.543-0.513,3.032l-1.851,8.607h-4.104l1.875-8.63c0.271-1.29,0.413-2.061,0.427-2.314    c0-0.535-0.158-0.956-0.475-1.262c-0.316-0.306-0.757-0.458-1.322-0.458c-0.614,0-1.296,0.253-2.046,0.761    c-0.75,0.508-1.34,1.179-1.768,2.013c-0.311,0.594-0.659,1.807-1.047,3.638l-1.312,6.252h-4.104L100.053,80.122z"/>
		<path fill="#2A3D89" d="M125.396,80.122l-0.64,3.004h-2.92l-2.567,12.221h-4.104l2.566-12.221h-2.307l0.639-3.004h2.301    l0.329-1.568c0.268-1.286,0.521-2.153,0.761-2.604c0.325-0.614,0.811-1.1,1.457-1.459c0.646-0.36,1.49-0.54,2.534-0.54    c1.263,0,2.593,0.229,3.99,0.688l-0.804,2.939c-0.99-0.334-1.792-0.501-2.407-0.501c-0.471,0-0.822,0.149-1.052,0.448    c-0.154,0.193-0.313,0.699-0.476,1.519l-0.227,1.079H125.396z"/>
		<path fill="#2A3D89" d="M125.161,89.029c0-2.828,0.797-5.085,2.392-6.767c1.595-1.683,3.69-2.523,6.286-2.523    c2.25,0,4.008,0.621,5.272,1.862s1.896,2.912,1.896,5.012c0,2.474-0.791,4.612-2.371,6.415c-1.581,1.803-3.697,2.704-6.35,2.704    c-1.437,0-2.711-0.288-3.822-0.863c-1.111-0.575-1.939-1.39-2.485-2.444C125.434,91.369,125.161,90.237,125.161,89.029z     M136.911,86.082c0-0.979-0.285-1.763-0.854-2.353s-1.305-0.884-2.205-0.884c-0.891,0-1.681,0.276-2.37,0.826    c-0.689,0.553-1.226,1.354-1.609,2.404c-0.383,1.051-0.575,2.018-0.575,2.9c0,1.094,0.297,1.963,0.891,2.605    s1.341,0.964,2.241,0.964c1.13,0,2.078-0.485,2.844-1.454C136.365,89.719,136.911,88.049,136.911,86.082z"/>
		<path fill="#2A3D89" d="M145.493,80.122h3.837l-0.598,2.89c1.435-2.183,2.989-3.273,4.662-3.273c0.592,0,1.229,0.147,1.907,0.444    l-1.579,3.366c-0.375-0.133-0.774-0.2-1.198-0.2c-0.713,0-1.438,0.269-2.174,0.805c-0.736,0.537-1.312,1.254-1.726,2.152    c-0.414,0.896-0.823,2.318-1.227,4.265l-1.002,4.777h-4.104L145.493,80.122z"/>
		<path fill="#2A3D89" d="M157.061,80.122h3.879l-0.379,1.836c1.514-1.479,3.106-2.219,4.775-2.219c1.151,0,2.038,0.239,2.661,0.718    c0.624,0.479,1.021,1.141,1.194,1.984c0.527-0.766,1.285-1.409,2.273-1.926c0.987-0.518,2.014-0.776,3.078-0.776    c1.217,0,2.168,0.328,2.849,0.984c0.681,0.656,1.021,1.526,1.021,2.608c-0.011,0.524-0.153,1.43-0.427,2.719l-1.996,9.298h-4.104    l1.993-9.294c0.246-1.165,0.371-1.825,0.378-1.981c0-0.429-0.129-0.768-0.385-1.016c-0.257-0.249-0.642-0.373-1.155-0.373    c-1.037,0-1.962,0.542-2.776,1.625c-0.591,0.777-1.095,2.153-1.511,4.129l-1.453,6.911h-4.104l1.935-9.219    c0.22-1.063,0.331-1.751,0.331-2.067c0-0.402-0.138-0.732-0.411-0.991c-0.273-0.259-0.649-0.388-1.13-0.388    c-0.451,0-0.917,0.133-1.397,0.402c-0.479,0.269-0.899,0.638-1.261,1.108c-0.359,0.47-0.67,1.074-0.929,1.812    c-0.118,0.345-0.311,1.126-0.577,2.345l-1.469,6.999h-4.104L157.061,80.122z"/>
		<path fill="#2A3D89" d="M185.956,84.417l-4.018-0.344c0.461-1.359,1.262-2.421,2.406-3.187c1.145-0.766,2.658-1.148,4.545-1.148    c1.963,0,3.412,0.395,4.352,1.185c0.938,0.789,1.406,1.754,1.406,2.893c0,0.46-0.04,0.948-0.121,1.465    c-0.081,0.517-0.365,1.876-0.854,4.078c-0.402,1.819-0.604,3.092-0.604,3.82c0,0.651,0.115,1.374,0.346,2.168h-4.002    c-0.162-0.554-0.262-1.127-0.301-1.72c-0.604,0.669-1.299,1.187-2.086,1.553c-0.785,0.366-1.577,0.55-2.373,0.55    c-1.266,0-2.312-0.415-3.136-1.246c-0.825-0.83-1.237-1.899-1.237-3.205c0-1.458,0.453-2.625,1.359-3.499    c0.906-0.873,2.523-1.401,4.854-1.584c1.965-0.162,3.279-0.359,3.94-0.59c0.172-0.573,0.258-1.032,0.258-1.376    c0-0.44-0.178-0.808-0.532-1.104c-0.355-0.296-0.883-0.443-1.584-0.443c-0.738,0-1.321,0.15-1.748,0.451    C186.399,83.436,186.109,83.863,185.956,84.417z M189.887,88.209c-0.25,0.067-0.58,0.129-0.993,0.188    c-2.073,0.251-3.427,0.618-4.062,1.101c-0.45,0.348-0.676,0.816-0.676,1.405c0,0.483,0.173,0.891,0.519,1.224    c0.345,0.333,0.801,0.5,1.368,0.5c0.623,0,1.211-0.153,1.764-0.457c0.552-0.303,0.965-0.695,1.238-1.174    c0.273-0.477,0.516-1.223,0.727-2.237L189.887,88.209z"/>
		<path fill="#2A3D89" d="M197.542,83.167l0.639-3.045h2.015l0.501-2.44l4.709-2.844l-1.09,5.284h2.498l-0.639,3.045h-2.488    l-1.365,6.411c-0.245,1.158-0.367,1.817-0.367,1.98c0,0.316,0.1,0.563,0.301,0.74c0.202,0.177,0.566,0.265,1.094,0.265    c0.183,0,0.639-0.033,1.367-0.1l-0.64,3.052c-0.71,0.143-1.438,0.215-2.185,0.215c-1.458,0-2.518-0.282-3.178-0.846    c-0.662-0.563-0.992-1.346-0.992-2.349c0-0.467,0.181-1.546,0.543-3.237l1.324-6.132H197.542z"/>
		<path fill="#2A3D89" d="M209.5,80.122h4.104l-3.201,15.226h-4.104L209.5,80.122z M210.716,74.333h4.104l-0.784,3.731h-4.104    L210.716,74.333z"/>
		<path fill="#2A3D89" d="M214.393,95.348l4.417-21.014h4.104l-2.304,10.957l5.412-5.168h5.355l-6.137,5.523l3.259,9.703h-4.121    l-2.109-7.04l-2.817,2.496l-0.956,4.544H214.393z"/>
	</g>
	<g>
		<path fill="#2A3D89" d="M5.844,112.85l1.859,0.282c-0.364,1.008-0.91,1.777-1.638,2.31c-0.728,0.532-1.58,0.799-2.557,0.799    c-1.1,0-1.96-0.331-2.579-0.993C0.31,114.585,0,113.626,0,112.367c0-1.021,0.208-1.956,0.622-2.804    c0.415-0.848,0.99-1.496,1.726-1.946c0.735-0.45,1.537-0.674,2.403-0.674c0.973,0,1.759,0.261,2.36,0.782    c0.601,0.521,0.954,1.232,1.061,2.132l-1.773,0.172c-0.098-0.524-0.287-0.903-0.566-1.14c-0.279-0.234-0.651-0.353-1.117-0.353    c-0.51,0-0.986,0.155-1.428,0.466c-0.443,0.311-0.797,0.797-1.062,1.457c-0.266,0.66-0.398,1.318-0.398,1.977    c0,0.72,0.172,1.275,0.518,1.668c0.345,0.393,0.775,0.589,1.291,0.589c0.478,0,0.917-0.155,1.315-0.466    S5.647,113.458,5.844,112.85z"/>
		<path fill="#2A3D89" d="M10.151,116.076H8.396l1.874-8.984h1.756l-0.667,3.2c0.399-0.31,0.772-0.531,1.119-0.668    c0.346-0.136,0.717-0.204,1.112-0.204c0.532,0,0.952,0.151,1.261,0.454s0.464,0.699,0.464,1.19    c-0.005,0.261-0.067,0.663-0.188,1.21l-0.818,3.802h-1.756l0.833-3.876c0.093-0.419,0.141-0.688,0.145-0.807    c0-0.216-0.068-0.389-0.206-0.52c-0.137-0.131-0.323-0.196-0.56-0.196c-0.299,0-0.585,0.103-0.858,0.306    c-0.356,0.27-0.628,0.6-0.815,0.99c-0.102,0.216-0.235,0.723-0.402,1.521L10.151,116.076z"/>
		<path fill="#2A3D89" d="M17.3,109.568h1.644l-0.268,1.276c0.612-0.95,1.276-1.425,1.991-1.425c0.253,0,0.525,0.063,0.815,0.19    l-0.672,1.442c-0.16-0.058-0.33-0.086-0.51-0.086c-0.303,0-0.611,0.114-0.924,0.343c-0.313,0.228-0.558,0.532-0.733,0.913    c-0.176,0.381-0.35,0.985-0.522,1.812l-0.423,2.042h-1.755L17.3,109.568z"/>
		<path fill="#2A3D89" d="M22.276,109.568h1.755l-1.358,6.508h-1.755L22.276,109.568z M22.792,107.092h1.755l-0.333,1.594H22.46    L22.792,107.092z"/>
		<path fill="#2A3D89" d="M24.177,114.259l1.703-0.269c0.151,0.358,0.339,0.612,0.563,0.761c0.225,0.149,0.531,0.224,0.919,0.224    c0.4,0,0.721-0.09,0.962-0.269c0.167-0.123,0.251-0.271,0.251-0.447c0-0.117-0.043-0.224-0.128-0.317    c-0.09-0.09-0.333-0.2-0.729-0.331c-1.061-0.352-1.718-0.629-1.971-0.833c-0.396-0.319-0.594-0.735-0.594-1.25    s0.192-0.958,0.576-1.329c0.535-0.52,1.329-0.778,2.383-0.778c0.837,0,1.47,0.153,1.898,0.459    c0.429,0.307,0.701,0.721,0.815,1.243l-1.625,0.282c-0.085-0.237-0.224-0.415-0.416-0.534c-0.261-0.159-0.575-0.239-0.942-0.239    s-0.631,0.062-0.792,0.185c-0.161,0.123-0.242,0.264-0.242,0.424c0,0.164,0.082,0.299,0.245,0.404    c0.102,0.065,0.431,0.18,0.986,0.344c0.857,0.249,1.43,0.494,1.72,0.734c0.408,0.34,0.612,0.748,0.612,1.226    c0,0.616-0.259,1.151-0.778,1.604c-0.519,0.454-1.25,0.681-2.194,0.681c-0.939,0-1.666-0.173-2.178-0.518    C24.709,115.369,24.361,114.884,24.177,114.259z"/>
		<path fill="#2A3D89" d="M31.826,110.873l0.273-1.305h0.86l0.213-1.039l2.004-1.211l-0.462,2.25h1.073l-0.273,1.305h-1.068    l-0.585,2.729c-0.1,0.494-0.149,0.776-0.149,0.846c0,0.135,0.043,0.24,0.129,0.315s0.243,0.113,0.469,0.113    c0.078,0,0.273-0.015,0.586-0.043l-0.273,1.307c-0.303,0.062-0.615,0.092-0.935,0.092c-0.623,0-1.076-0.12-1.359-0.359    c-0.283-0.239-0.424-0.571-0.424-0.997c0-0.201,0.076-0.662,0.228-1.385l0.568-2.618H31.826z"/>
		<path fill="#2A3D89" d="M36.917,109.568h1.755l-1.358,6.508h-1.755L36.917,109.568z M37.433,107.092h1.755l-0.333,1.594h-1.755    L37.433,107.092z"/>
		<path fill="#2A3D89" d="M41.528,111.42l-1.719-0.147c0.196-0.58,0.538-1.035,1.026-1.361c0.488-0.328,1.135-0.491,1.939-0.491    c0.837,0,1.456,0.169,1.856,0.505c0.4,0.337,0.601,0.748,0.601,1.234c0,0.195-0.017,0.404-0.052,0.625    c-0.034,0.22-0.155,0.8-0.363,1.738c-0.171,0.775-0.256,1.318-0.256,1.629c0,0.277,0.049,0.586,0.146,0.925h-1.708    c-0.067-0.237-0.109-0.481-0.125-0.735c-0.257,0.286-0.554,0.506-0.889,0.66c-0.335,0.154-0.673,0.231-1.012,0.231    c-0.54,0-0.985-0.177-1.337-0.53c-0.352-0.353-0.527-0.807-0.527-1.361c0-0.621,0.193-1.117,0.579-1.488s1.076-0.596,2.069-0.674    c0.838-0.069,1.397-0.152,1.68-0.251c0.073-0.245,0.11-0.441,0.11-0.589c0-0.188-0.076-0.345-0.227-0.471    c-0.151-0.127-0.376-0.19-0.674-0.19c-0.314,0-0.563,0.064-0.744,0.193S41.594,111.183,41.528,111.42z M43.202,113.045    c-0.106,0.028-0.247,0.056-0.423,0.079c-0.882,0.106-1.458,0.262-1.728,0.466c-0.192,0.147-0.288,0.345-0.288,0.594    c0,0.204,0.074,0.376,0.221,0.518c0.147,0.141,0.341,0.211,0.583,0.211c0.265,0,0.516-0.064,0.75-0.192    c0.235-0.129,0.411-0.295,0.527-0.496c0.117-0.202,0.22-0.518,0.31-0.946L43.202,113.045z"/>
		<path fill="#2A3D89" d="M47.402,109.568h1.675l-0.167,0.849c0.419-0.359,0.81-0.615,1.173-0.768s0.747-0.229,1.149-0.229    c0.538,0,0.962,0.153,1.272,0.46c0.31,0.308,0.465,0.715,0.465,1.222c-0.003,0.228-0.075,0.66-0.214,1.296l-0.792,3.679h-1.756    l0.794-3.69c0.115-0.552,0.176-0.88,0.183-0.986c0-0.225-0.067-0.4-0.201-0.529c-0.134-0.128-0.321-0.192-0.561-0.192    c-0.26,0-0.549,0.108-0.867,0.324c-0.318,0.216-0.568,0.501-0.75,0.855c-0.133,0.253-0.283,0.769-0.45,1.546l-0.557,2.673h-1.755    L47.402,109.568z"/>
		<path fill="#2A3D89" d="M54.021,111.99h3.414l-0.352,1.695h-3.414L54.021,111.99z"/>
		<path fill="#2A3D89" d="M63.771,114.092h-3.556l-1.087,1.984h-1.899l5.074-8.984h2.057l1.458,8.984h-1.752L63.771,114.092z     M63.542,112.592l-0.527-3.609l-1.978,3.609H63.542z"/>
		<path fill="#2A3D89" d="M66.914,116.076l1.875-8.984h1.755l-1.875,8.984H66.914z"/>
		<path fill="#2A3D89" d="M70.361,116.076l1.874-8.984h1.756l-0.633,3.009c0.323-0.246,0.625-0.42,0.906-0.524    s0.586-0.156,0.918-0.156c0.688,0,1.238,0.229,1.652,0.689c0.413,0.459,0.62,1.128,0.62,2.006c0,0.593-0.097,1.167-0.291,1.725    c-0.194,0.558-0.454,1.011-0.779,1.36c-0.325,0.35-0.667,0.608-1.024,0.777c-0.358,0.17-0.733,0.255-1.125,0.255    c-0.932,0-1.617-0.406-2.054-1.22l-0.225,1.063H70.361z M72.728,113.433c0,0.438,0.124,0.794,0.371,1.068    c0.247,0.274,0.539,0.411,0.874,0.411c0.294,0,0.575-0.106,0.843-0.319c0.268-0.213,0.491-0.552,0.669-1.019    c0.178-0.466,0.267-0.937,0.267-1.411c0-0.463-0.12-0.826-0.359-1.09s-0.528-0.396-0.868-0.396c-0.441,0-0.822,0.204-1.141,0.614    C72.947,111.853,72.728,112.565,72.728,113.433z"/>
		<path fill="#2A3D89" d="M79.335,109.568h1.644l-0.268,1.276c0.612-0.95,1.276-1.425,1.991-1.425c0.253,0,0.525,0.063,0.815,0.19    l-0.672,1.442c-0.16-0.058-0.33-0.086-0.51-0.086c-0.303,0-0.611,0.114-0.924,0.343c-0.313,0.228-0.558,0.532-0.733,0.913    c-0.176,0.381-0.35,0.985-0.522,1.812l-0.423,2.042h-1.755L79.335,109.568z"/>
		<path fill="#2A3D89" d="M89.292,113.373h-4.417c-0.004,0.069-0.006,0.122-0.006,0.159c0,0.432,0.124,0.78,0.372,1.045    c0.248,0.266,0.55,0.397,0.906,0.397c0.585,0,1.042-0.302,1.37-0.906l1.578,0.266c-0.307,0.633-0.717,1.107-1.23,1.424    c-0.514,0.316-1.089,0.475-1.727,0.475c-0.875,0-1.587-0.276-2.135-0.83c-0.548-0.554-0.822-1.286-0.822-2.196    c0-0.891,0.247-1.683,0.742-2.377c0.674-0.939,1.637-1.409,2.887-1.409c0.797,0,1.431,0.246,1.9,0.738    c0.47,0.493,0.705,1.183,0.705,2.069C89.414,112.651,89.373,113.034,89.292,113.373z M87.813,112.303    c0.004-0.077,0.006-0.137,0.006-0.178c0-0.482-0.109-0.845-0.326-1.085c-0.217-0.242-0.508-0.362-0.873-0.362    s-0.691,0.137-0.98,0.411c-0.289,0.273-0.484,0.678-0.587,1.214H87.813z"/>
		<path fill="#2A3D89" d="M94.336,113.631l1.711,0.276c-0.282,0.759-0.698,1.336-1.25,1.731s-1.19,0.594-1.917,0.594    c-0.829,0-1.486-0.247-1.972-0.741c-0.485-0.494-0.729-1.174-0.729-2.04c0-0.706,0.147-1.374,0.441-2.003s0.737-1.125,1.33-1.486    c0.592-0.361,1.241-0.542,1.948-0.542c0.768,0,1.38,0.2,1.837,0.601s0.715,0.928,0.772,1.58l-1.672,0.179    c-0.041-0.364-0.152-0.633-0.334-0.805s-0.42-0.258-0.714-0.258c-0.34,0-0.657,0.127-0.951,0.38    c-0.294,0.254-0.521,0.633-0.678,1.139c-0.158,0.505-0.236,0.979-0.236,1.42c0,0.385,0.094,0.681,0.282,0.889    c0.188,0.209,0.423,0.313,0.705,0.313s0.554-0.103,0.815-0.307S94.189,114.04,94.336,113.631z"/>
		<path fill="#2A3D89" d="M98.686,116.076h-1.755l1.875-8.984h1.755l-0.667,3.2c0.399-0.31,0.772-0.531,1.119-0.668    c0.346-0.136,0.717-0.204,1.112-0.204c0.532,0,0.952,0.151,1.261,0.454s0.464,0.699,0.464,1.19    c-0.005,0.261-0.067,0.663-0.187,1.21l-0.819,3.802h-1.755l0.833-3.876c0.093-0.419,0.142-0.688,0.146-0.807    c0-0.216-0.068-0.389-0.205-0.52c-0.137-0.131-0.324-0.196-0.56-0.196c-0.298,0-0.584,0.103-0.858,0.306    c-0.357,0.27-0.628,0.6-0.815,0.99c-0.102,0.216-0.235,0.723-0.402,1.521L98.686,116.076z"/>
		<path fill="#2A3D89" d="M105.016,110.873l0.273-1.305h0.86l0.213-1.039l2.004-1.211l-0.463,2.25h1.073l-0.273,1.305h-1.068    l-0.584,2.729c-0.1,0.494-0.15,0.776-0.15,0.846c0,0.135,0.043,0.24,0.13,0.315s0.243,0.113,0.469,0.113    c0.078,0,0.273-0.015,0.586-0.043l-0.273,1.307c-0.304,0.062-0.615,0.092-0.935,0.092c-0.623,0-1.076-0.12-1.359-0.359    c-0.283-0.239-0.424-0.571-0.424-0.997c0-0.201,0.076-0.662,0.228-1.385l0.568-2.618H105.016z"/>
		<path fill="#2A3D89" d="M108.522,114.259l1.703-0.269c0.151,0.358,0.339,0.612,0.563,0.761c0.225,0.149,0.531,0.224,0.919,0.224    c0.4,0,0.721-0.09,0.962-0.269c0.167-0.123,0.251-0.271,0.251-0.447c0-0.117-0.043-0.224-0.128-0.317    c-0.09-0.09-0.333-0.2-0.729-0.331c-1.061-0.352-1.718-0.629-1.971-0.833c-0.396-0.319-0.594-0.735-0.594-1.25    s0.192-0.958,0.576-1.329c0.535-0.52,1.329-0.778,2.383-0.778c0.837,0,1.47,0.153,1.899,0.459c0.429,0.307,0.7,0.721,0.814,1.243    l-1.625,0.282c-0.086-0.237-0.224-0.415-0.416-0.534c-0.261-0.159-0.574-0.239-0.941-0.239c-0.367,0-0.631,0.062-0.792,0.185    c-0.161,0.123-0.241,0.264-0.241,0.424c0,0.164,0.082,0.299,0.245,0.404c0.102,0.065,0.43,0.18,0.985,0.344    c0.857,0.249,1.43,0.494,1.72,0.734c0.408,0.34,0.612,0.748,0.612,1.226c0,0.616-0.26,1.151-0.778,1.604    c-0.519,0.454-1.25,0.681-2.194,0.681c-0.939,0-1.666-0.173-2.178-0.518C109.054,115.369,108.706,114.884,108.522,114.259z"/>
		<path fill="#2A3D89" d="M116.062,111.99h3.414l-0.352,1.695h-3.414L116.062,111.99z"/>
		<path fill="#2A3D89" d="M121.884,107.092h1.849l-1.079,4.886l-0.259,1.199c-0.022,0.101-0.042,0.231-0.061,0.392    c0,0.324,0.141,0.591,0.423,0.802c0.282,0.211,0.692,0.315,1.229,0.315c0.484,0,0.884-0.084,1.2-0.251    c0.315-0.168,0.56-0.417,0.733-0.748c0.173-0.33,0.349-0.893,0.526-1.685l1.024-4.91h1.835l-1.052,5.085    c-0.224,0.992-0.482,1.752-0.774,2.277c-0.292,0.526-0.735,0.954-1.327,1.283c-0.593,0.33-1.342,0.495-2.248,0.495    c-1.083,0-1.914-0.257-2.489-0.77s-0.863-1.173-0.863-1.978c0.002-0.167,0.022-0.348,0.057-0.543    c0.017-0.131,0.091-0.501,0.224-1.112L121.884,107.092z"/>
		<path fill="#2A3D89" d="M130.345,109.568h1.675l-0.167,0.849c0.419-0.359,0.81-0.615,1.173-0.768s0.747-0.229,1.149-0.229    c0.538,0,0.962,0.153,1.272,0.46c0.31,0.308,0.465,0.715,0.465,1.222c-0.003,0.228-0.075,0.66-0.214,1.296l-0.792,3.679h-1.756    l0.794-3.69c0.115-0.552,0.176-0.88,0.183-0.986c0-0.225-0.067-0.4-0.201-0.529c-0.134-0.128-0.321-0.192-0.561-0.192    c-0.26,0-0.549,0.108-0.867,0.324c-0.318,0.216-0.568,0.501-0.75,0.855c-0.133,0.253-0.283,0.769-0.45,1.546l-0.557,2.673h-1.755    L130.345,109.568z"/>
		<path fill="#2A3D89" d="M137.984,109.568h1.755l-1.358,6.508h-1.755L137.984,109.568z M138.5,107.092h1.756l-0.333,1.594h-1.755    L138.5,107.092z"/>
		<path fill="#2A3D89" d="M143.365,116.076h-1.511l-1.304-6.508h1.727l0.452,2.839c0.13,0.768,0.208,1.277,0.231,1.528    c0.039-0.065,0.184-0.328,0.436-0.787c0.251-0.459,0.405-0.736,0.46-0.831l1.616-2.749h1.898L143.365,116.076z"/>
		<path fill="#2A3D89" d="M153.428,113.373h-4.417c-0.004,0.069-0.006,0.122-0.006,0.159c0,0.432,0.124,0.78,0.371,1.045    c0.248,0.266,0.55,0.397,0.906,0.397c0.585,0,1.042-0.302,1.369-0.906l1.578,0.266c-0.307,0.633-0.717,1.107-1.23,1.424    s-1.089,0.475-1.727,0.475c-0.875,0-1.587-0.276-2.135-0.83c-0.548-0.554-0.822-1.286-0.822-2.196    c0-0.891,0.247-1.683,0.742-2.377c0.674-0.939,1.637-1.409,2.887-1.409c0.797,0,1.431,0.246,1.9,0.738    c0.47,0.493,0.705,1.183,0.705,2.069C153.55,112.651,153.509,113.034,153.428,113.373z M151.949,112.303    c0.004-0.077,0.006-0.137,0.006-0.178c0-0.482-0.108-0.845-0.325-1.085c-0.217-0.242-0.508-0.362-0.873-0.362    s-0.691,0.137-0.98,0.411c-0.289,0.273-0.485,0.678-0.587,1.214H151.949z"/>
		<path fill="#2A3D89" d="M155.331,109.568h1.644l-0.269,1.276c0.613-0.95,1.276-1.425,1.991-1.425c0.253,0,0.524,0.063,0.815,0.19    l-0.672,1.442c-0.16-0.058-0.33-0.086-0.51-0.086c-0.303,0-0.611,0.114-0.924,0.343c-0.313,0.228-0.559,0.532-0.734,0.913    s-0.35,0.985-0.521,1.812l-0.423,2.042h-1.755L155.331,109.568z"/>
		<path fill="#2A3D89" d="M158.722,114.259l1.703-0.269c0.151,0.358,0.339,0.612,0.563,0.761c0.225,0.149,0.531,0.224,0.919,0.224    c0.4,0,0.721-0.09,0.962-0.269c0.167-0.123,0.251-0.271,0.251-0.447c0-0.117-0.043-0.224-0.129-0.317    c-0.09-0.09-0.332-0.2-0.729-0.331c-1.061-0.352-1.718-0.629-1.971-0.833c-0.396-0.319-0.594-0.735-0.594-1.25    s0.192-0.958,0.576-1.329c0.534-0.52,1.329-0.778,2.382-0.778c0.838,0,1.471,0.153,1.899,0.459c0.429,0.307,0.7,0.721,0.814,1.243    l-1.625,0.282c-0.086-0.237-0.225-0.415-0.416-0.534c-0.261-0.159-0.574-0.239-0.941-0.239s-0.631,0.062-0.792,0.185    s-0.241,0.264-0.241,0.424c0,0.164,0.081,0.299,0.245,0.404c0.102,0.065,0.43,0.18,0.985,0.344    c0.856,0.249,1.431,0.494,1.72,0.734c0.408,0.34,0.612,0.748,0.612,1.226c0,0.616-0.26,1.151-0.778,1.604    c-0.519,0.454-1.25,0.681-2.193,0.681c-0.94,0-1.666-0.173-2.179-0.518C159.254,115.369,158.906,114.884,158.722,114.259z"/>
		<path fill="#2A3D89" d="M167.284,109.568h1.756l-1.357,6.508h-1.756L167.284,109.568z M167.8,107.092h1.756l-0.333,1.594h-1.755    L167.8,107.092z"/>
		<path fill="#2A3D89" d="M169.857,110.873l0.273-1.305h0.86l0.213-1.039l2.004-1.211l-0.463,2.25h1.073l-0.273,1.305h-1.067    l-0.585,2.729c-0.101,0.494-0.15,0.776-0.15,0.846c0,0.135,0.044,0.24,0.13,0.315s0.243,0.113,0.469,0.113    c0.078,0,0.274-0.015,0.587-0.043l-0.273,1.307c-0.304,0.062-0.615,0.092-0.935,0.092c-0.624,0-1.077-0.12-1.359-0.359    c-0.283-0.239-0.425-0.571-0.425-0.997c0-0.201,0.076-0.662,0.228-1.385l0.568-2.618H169.857z"/>
		<path fill="#2A3D89" d="M176.074,111.42l-1.719-0.147c0.196-0.58,0.538-1.035,1.026-1.361c0.488-0.328,1.134-0.491,1.938-0.491    c0.838,0,1.456,0.169,1.856,0.505c0.4,0.337,0.601,0.748,0.601,1.234c0,0.195-0.018,0.404-0.052,0.625    c-0.035,0.22-0.156,0.8-0.363,1.738c-0.172,0.775-0.257,1.318-0.257,1.629c0,0.277,0.049,0.586,0.146,0.925h-1.709    c-0.067-0.237-0.109-0.481-0.125-0.735c-0.258,0.286-0.554,0.506-0.89,0.66c-0.335,0.154-0.672,0.231-1.012,0.231    c-0.54,0-0.985-0.177-1.337-0.53c-0.352-0.353-0.527-0.807-0.527-1.361c0-0.621,0.193-1.117,0.579-1.488    c0.387-0.371,1.076-0.596,2.068-0.674c0.838-0.069,1.398-0.152,1.68-0.251c0.073-0.245,0.11-0.441,0.11-0.589    c0-0.188-0.075-0.345-0.227-0.471c-0.151-0.127-0.376-0.19-0.674-0.19c-0.314,0-0.563,0.064-0.745,0.193    C176.262,111,176.139,111.183,176.074,111.42z M177.748,113.045c-0.106,0.028-0.247,0.056-0.423,0.079    c-0.883,0.106-1.459,0.262-1.729,0.466c-0.192,0.147-0.288,0.345-0.288,0.594c0,0.204,0.073,0.376,0.221,0.518    c0.147,0.141,0.341,0.211,0.582,0.211c0.266,0,0.516-0.064,0.751-0.192c0.234-0.129,0.41-0.295,0.527-0.496    c0.116-0.202,0.22-0.518,0.31-0.946L177.748,113.045z M176.074,107.225h1.508l-0.313,1.5h-1.508L176.074,107.225z     M178.652,107.225h1.508l-0.313,1.5h-1.508L178.652,107.225z"/>
		<path fill="#2A3D89" d="M181.011,110.873l0.273-1.305h0.86l0.213-1.039l2.004-1.211l-0.463,2.25h1.073l-0.273,1.305h-1.067    l-0.585,2.729c-0.101,0.494-0.15,0.776-0.15,0.846c0,0.135,0.044,0.24,0.13,0.315s0.243,0.113,0.469,0.113    c0.078,0,0.274-0.015,0.587-0.043l-0.273,1.307c-0.304,0.062-0.615,0.092-0.935,0.092c-0.624,0-1.077-0.12-1.359-0.359    c-0.283-0.239-0.425-0.571-0.425-0.997c0-0.201,0.076-0.662,0.228-1.385l0.568-2.618H181.011z"/>
		<path fill="#2A3D89" d="M187.941,116.076l0.25-1.188l3.571-3.945h-2.915l0.289-1.375h5.102l-0.211,1.047l-3.603,4.039h3.134    l-0.297,1.422H187.941z"/>
		<path fill="#2A3D89" d="M195.918,109.568h1.757l-0.865,3.855c-0.105,0.462-0.159,0.75-0.159,0.864c0,0.188,0.063,0.35,0.188,0.484    s0.286,0.202,0.481,0.202c0.14,0,0.278-0.03,0.415-0.092c0.136-0.062,0.276-0.153,0.42-0.278s0.273-0.268,0.388-0.428    s0.221-0.371,0.32-0.633c0.07-0.193,0.148-0.484,0.234-0.873l0.703-3.103h1.756l-1.47,6.508h-1.644l0.188-0.864    c-0.663,0.681-1.385,1.021-2.164,1.021c-0.494,0-0.882-0.153-1.164-0.46c-0.283-0.307-0.424-0.719-0.424-1.234    c0-0.225,0.074-0.672,0.224-1.342L195.918,109.568z"/>
		<path fill="#2A3D89" d="M205.651,116.076l1.874-8.984h1.856l-0.795,3.811l4.135-3.811h2.477l-4.019,3.522l2.948,5.462h-2.086    l-2.211-4.28l-1.75,1.53l-0.573,2.75H205.651z"/>
		<path fill="#2A3D89" d="M216.069,109.568h1.756l-1.357,6.508h-1.756L216.069,109.568z M216.585,107.092h1.756l-0.333,1.594h-1.755    L216.585,107.092z"/>
		<path fill="#2A3D89" d="M224.535,113.373h-4.416c-0.004,0.069-0.006,0.122-0.006,0.159c0,0.432,0.124,0.78,0.371,1.045    c0.248,0.266,0.55,0.397,0.906,0.397c0.585,0,1.042-0.302,1.369-0.906l1.578,0.266c-0.307,0.633-0.717,1.107-1.23,1.424    c-0.513,0.316-1.089,0.475-1.727,0.475c-0.875,0-1.587-0.276-2.135-0.83s-0.822-1.286-0.822-2.196    c0-0.891,0.247-1.683,0.741-2.377c0.675-0.939,1.637-1.409,2.888-1.409c0.797,0,1.431,0.246,1.9,0.738    c0.47,0.493,0.705,1.183,0.705,2.069C224.658,112.651,224.617,113.034,224.535,113.373z M223.056,112.303    c0.004-0.077,0.006-0.137,0.006-0.178c0-0.482-0.108-0.845-0.325-1.085c-0.218-0.242-0.508-0.362-0.873-0.362    c-0.364,0-0.691,0.137-0.98,0.411c-0.288,0.273-0.484,0.678-0.587,1.214H223.056z"/>
		<path fill="#2A3D89" d="M225.166,116.076l1.874-8.984h1.756l-1.874,8.984H225.166z"/>
	</g>
</g>
</svg>