<?xml version="1.0" encoding="UTF-8"?>
<svg xmlns="http://www.w3.org/2000/svg" xmlns:xlink="http://www.w3.org/1999/xlink" stroke-dasharray="none" shape-rendering="auto" font-family="'Dialog'" width="186" text-rendering="auto" fill-opacity="1" contentScriptType="text/ecmascript" color-interpolation="auto" color-rendering="auto" preserveAspectRatio="xMidYMid meet" font-size="12" viewBox="0 0 186 139" fill="black" stroke="black" image-rendering="auto" stroke-miterlimit="10" zoomAndPan="magnify" version="1.0" stroke-linecap="square" stroke-linejoin="miter" contentStyleType="text/css" font-style="normal" height="139" stroke-width="1" stroke-dashoffset="0" font-weight="normal" stroke-opacity="1">
<!--Generated by the Batik Graphics2D SVG Generator-->
<defs id="genericDefs"/>
<g>
<defs id="defs1">
<clipPath clipPathUnits="userSpaceOnUse" id="clipPath1">
<path d="M59 14 L127 14 L127 33 L59 33 L59 14 Z"/>
</clipPath>
<clipPath clipPathUnits="userSpaceOnUse" id="clipPath2">
<path d="M10 36 L177 36 L177 39 L10 39 L10 36 Z"/>
</clipPath>
<clipPath clipPathUnits="userSpaceOnUse" id="clipPath3">
<path d="M47 65 L86 65 L86 84 L47 84 L47 65 Z"/>
</clipPath>
<clipPath clipPathUnits="userSpaceOnUse" id="clipPath4">
<path d="M37 62 L96 62 L96 86 L37 86 L37 62 Z"/>
</clipPath>
<clipPath clipPathUnits="userSpaceOnUse" id="clipPath5">
<path d="M126 63 L148 63 L148 85 L126 85 L126 63 Z"/>
</clipPath>
<clipPath clipPathUnits="userSpaceOnUse" id="clipPath6">
<path d="M9 9 L177 9 L177 115 L9 115 L9 9 Z"/>
</clipPath>
<clipPath clipPathUnits="userSpaceOnUse" id="clipPath7">
<path d="M-1 -1 L187 -1 L187 140 L-1 140 L-1 -1 Z"/>
</clipPath>
<clipPath clipPathUnits="userSpaceOnUse" id="clipPath8">
<path d="M94 74 L97 74 L97 77 L94 77 L94 74 Z"/>
</clipPath>
<clipPath clipPathUnits="userSpaceOnUse" id="clipPath9">
<path d="M116 69 L130 69 L130 82 L116 82 L116 69 Z"/>
</clipPath>
</defs>
<g stroke-width="1.1" font-size="13" stroke-miterlimit="0" stroke-linejoin="round">
<text xml:space="preserve" x="60" y="28" clip-path="url(#clipPath1)" stroke="none">SyncChart</text>
<line clip-path="url(#clipPath2)" fill="none" x1="11" x2="175" y1="37" y2="37"/>
<text xml:space="preserve" x="48" y="79" clip-path="url(#clipPath3)" stroke="none">Initial</text>
<rect x="40" y="65" clip-path="url(#clipPath4)" fill="none" width="53" rx="9.5" ry="9.5" height="18" stroke-width="3.1"/>
<rect x="128" y="65" clip-path="url(#clipPath5)" fill="none" width="18" rx="10" ry="10" height="18"/>
<rect x="11" y="11" clip-path="url(#clipPath6)" fill="none" width="164" rx="10" ry="10" height="102"/>
<line clip-path="url(#clipPath7)" fill="none" x1="95" x2="106" y1="75" y2="75" stroke-width="2.1"/>
<line clip-path="url(#clipPath7)" fill="none" x1="106" x2="117" y1="75" y2="75" stroke-width="2.1"/>
<line clip-path="url(#clipPath7)" fill="none" x1="117" x2="127" y1="75" y2="75" stroke-width="2.1"/>
<polygon clip-path="url(#clipPath8)" points=" 95 75" stroke="none"/>
<polygon fill="none" clip-path="url(#clipPath8)" points=" 95 75"/>
<polygon clip-path="url(#clipPath9)" points=" 117 80 128 75 117 70 122 75 117 80" stroke="none"/>
<polygon fill="none" clip-path="url(#clipPath9)" points=" 117 80 128 75 117 70 122 75 117 80"/>
<line clip-path="url(#clipPath7)" fill="none" x1="95" x2="106" y1="75" y2="75" stroke-width="2.1"/>
<line clip-path="url(#clipPath7)" fill="none" x1="106" x2="117" y1="75" y2="75" stroke-width="2.1"/>
<line clip-path="url(#clipPath7)" fill="none" x1="117" x2="127" y1="75" y2="75" stroke-width="2.1"/>
<polygon clip-path="url(#clipPath8)" points=" 95 75" stroke="none"/>
<polygon fill="none" clip-path="url(#clipPath8)" points=" 95 75"/>
<polygon clip-path="url(#clipPath9)" points=" 117 80 128 75 117 70 122 75 117 80" stroke="none"/>
<polygon fill="none" clip-path="url(#clipPath9)" points=" 117 80 128 75 117 70 122 75 117 80"/>
</g>
</g>
</svg>
