<?xml version="1.0" encoding="UTF-8"?>
<svg xmlns="http://www.w3.org/2000/svg" xmlns:xlink="http://www.w3.org/1999/xlink" stroke-dasharray="none" shape-rendering="auto" font-family="'Dialog'" width="306" text-rendering="auto" fill-opacity="1" contentScriptType="text/ecmascript" color-interpolation="auto" color-rendering="auto" preserveAspectRatio="xMidYMid meet" font-size="12" viewBox="0 0 306 165" fill="black" stroke="black" image-rendering="auto" stroke-miterlimit="10" zoomAndPan="magnify" version="1.0" stroke-linecap="square" stroke-linejoin="miter" contentStyleType="text/css" font-style="normal" height="165" stroke-width="1" stroke-dashoffset="0" font-weight="normal" stroke-opacity="1">
<!--Generated by the Batik Graphics2D SVG Generator-->
<defs id="genericDefs"/>
<g>
<defs id="defs1">
<clipPath clipPathUnits="userSpaceOnUse" id="clipPath1">
<path d="M119 14 L187 14 L187 33 L119 33 L119 14 Z"/>
</clipPath>
<clipPath clipPathUnits="userSpaceOnUse" id="clipPath2">
<path d="M10 36 L297 36 L297 39 L10 39 L10 36 Z"/>
</clipPath>
<clipPath clipPathUnits="userSpaceOnUse" id="clipPath3">
<path d="M47 85 L86 85 L86 104 L47 104 L47 85 Z"/>
</clipPath>
<clipPath clipPathUnits="userSpaceOnUse" id="clipPath4">
<path d="M37 82 L96 82 L96 106 L37 106 L37 82 Z"/>
</clipPath>
<clipPath clipPathUnits="userSpaceOnUse" id="clipPath5">
<path d="M126 83 L148 83 L148 105 L126 105 L126 83 Z"/>
</clipPath>
<clipPath clipPathUnits="userSpaceOnUse" id="clipPath6">
<path d="M178 83 L191 83 L191 96 L178 96 L178 83 Z"/>
</clipPath>
<clipPath clipPathUnits="userSpaceOnUse" id="clipPath7">
<path d="M178 83 L200 83 L200 105 L178 105 L178 83 Z"/>
</clipPath>
<clipPath clipPathUnits="userSpaceOnUse" id="clipPath8">
<path d="M241 105 L259 105 L259 124 L241 124 L241 105 Z"/>
</clipPath>
<clipPath clipPathUnits="userSpaceOnUse" id="clipPath9">
<path d="M231 102 L269 102 L269 126 L231 126 L231 102 Z"/>
</clipPath>
<clipPath clipPathUnits="userSpaceOnUse" id="clipPath10">
<path d="M241 65 L259 65 L259 84 L241 84 L241 65 Z"/>
</clipPath>
<clipPath clipPathUnits="userSpaceOnUse" id="clipPath11">
<path d="M231 62 L269 62 L269 86 L231 86 L231 62 Z"/>
</clipPath>
<clipPath clipPathUnits="userSpaceOnUse" id="clipPath12">
<path d="M9 9 L297 9 L297 155 L9 155 L9 9 Z"/>
</clipPath>
<clipPath clipPathUnits="userSpaceOnUse" id="clipPath13">
<path d="M-1 -1 L307 -1 L307 166 L-1 166 L-1 -1 Z"/>
</clipPath>
<clipPath clipPathUnits="userSpaceOnUse" id="clipPath14">
<path d="M94 94 L97 94 L97 97 L94 97 L94 94 Z"/>
</clipPath>
<clipPath clipPathUnits="userSpaceOnUse" id="clipPath15">
<path d="M116 89 L130 89 L130 102 L116 102 L116 89 Z"/>
</clipPath>
<clipPath clipPathUnits="userSpaceOnUse" id="clipPath16">
<path d="M198 97 L201 97 L201 100 L198 100 L198 97 Z"/>
</clipPath>
<clipPath clipPathUnits="userSpaceOnUse" id="clipPath17">
<path d="M220 100 L235 100 L235 113 L220 113 L220 100 Z"/>
</clipPath>
<clipPath clipPathUnits="userSpaceOnUse" id="clipPath18">
<path d="M146 94 L149 94 L149 97 L146 97 L146 94 Z"/>
</clipPath>
<clipPath clipPathUnits="userSpaceOnUse" id="clipPath19">
<path d="M168 89 L182 89 L182 102 L168 102 L168 89 Z"/>
</clipPath>
<clipPath clipPathUnits="userSpaceOnUse" id="clipPath20">
<path d="M198 91 L201 91 L201 94 L198 94 L198 91 Z"/>
</clipPath>
<clipPath clipPathUnits="userSpaceOnUse" id="clipPath21">
<path d="M220 77 L235 77 L235 90 L220 90 L220 77 Z"/>
</clipPath>
</defs>
<g stroke-width="1.1" font-size="13" stroke-miterlimit="0" stroke-linejoin="round">
<text xml:space="preserve" x="120" y="28" clip-path="url(#clipPath1)" stroke="none">SyncChart</text>
<line clip-path="url(#clipPath2)" fill="none" x1="11" x2="295" y1="37" y2="37"/>
<text xml:space="preserve" x="48" y="99" clip-path="url(#clipPath3)" stroke="none">Initial</text>
<rect x="40" y="85" clip-path="url(#clipPath4)" fill="none" width="53" rx="9.5" ry="9.5" height="18" stroke-width="3.1"/>
<rect x="128" y="85" clip-path="url(#clipPath5)" fill="none" width="18" rx="10" ry="10" height="18"/>
<text xml:space="preserve" x="173" y="91" clip-path="url(#clipPath6)" stroke="none">C1</text>
<circle clip-path="url(#clipPath7)" fill="white" r="9" cx="189" cy="94" stroke="none"/>
<circle fill="none" r="9" clip-path="url(#clipPath7)" cx="189" cy="94"/>
<text xml:space="preserve" x="242" y="119" clip-path="url(#clipPath8)" stroke="none">S0</text>
<rect x="233" y="104" clip-path="url(#clipPath9)" fill="none" width="34" rx="10" ry="10" height="20"/>
<text xml:space="preserve" x="242" y="79" clip-path="url(#clipPath10)" stroke="none">S1</text>
<rect x="233" y="64" clip-path="url(#clipPath11)" fill="none" width="34" rx="10" ry="10" height="20"/>
<rect x="11" y="11" clip-path="url(#clipPath12)" fill="none" width="284" rx="10" ry="10" height="142"/>
<line clip-path="url(#clipPath13)" fill="none" x1="95" x2="106" y1="95" y2="95" stroke-width="2.1"/>
<line clip-path="url(#clipPath13)" fill="none" x1="106" x2="117" y1="95" y2="95" stroke-width="2.1"/>
<line clip-path="url(#clipPath13)" fill="none" x1="117" x2="127" y1="95" y2="95" stroke-width="2.1"/>
<polygon clip-path="url(#clipPath14)" points=" 95 95" stroke="none"/>
<polygon fill="none" clip-path="url(#clipPath14)" points=" 95 95"/>
<polygon clip-path="url(#clipPath15)" points=" 117 100 128 95 117 90 122 95 117 100" stroke="none"/>
<polygon fill="none" clip-path="url(#clipPath15)" points=" 117 100 128 95 117 90 122 95 117 100"/>
<line clip-path="url(#clipPath13)" fill="none" x1="199" x2="208" y1="98" y2="101" stroke-width="2.1"/>
<line clip-path="url(#clipPath13)" fill="none" x1="208" x2="219" y1="101" y2="105" stroke-width="2.1"/>
<line clip-path="url(#clipPath13)" fill="none" x1="219" x2="232" y1="105" y2="109" stroke-width="2.1"/>
<polygon clip-path="url(#clipPath16)" points=" 199 98" stroke="none"/>
<polygon fill="none" clip-path="url(#clipPath16)" points=" 199 98"/>
<polygon clip-path="url(#clipPath17)" points=" 221 111 233 109 224 101 227 108 221 111" stroke="none"/>
<polygon fill="none" clip-path="url(#clipPath17)" points=" 221 111 233 109 224 101 227 108 221 111"/>
<line clip-path="url(#clipPath13)" fill="none" x1="147" x2="157" y1="95" y2="95" stroke-width="2.1"/>
<line clip-path="url(#clipPath13)" fill="none" x1="157" x2="168" y1="95" y2="95" stroke-width="2.1"/>
<line clip-path="url(#clipPath13)" fill="none" x1="168" x2="179" y1="95" y2="95" stroke-width="2.1"/>
<polygon clip-path="url(#clipPath18)" points=" 147 95" stroke="none"/>
<polygon fill="none" clip-path="url(#clipPath18)" points=" 147 95"/>
<polygon clip-path="url(#clipPath19)" points=" 169 100 180 95 169 90 174 95 169 100" stroke="none"/>
<polygon fill="none" clip-path="url(#clipPath19)" points=" 169 100 180 95 169 90 174 95 169 100"/>
<line clip-path="url(#clipPath13)" fill="none" x1="199" x2="208" y1="92" y2="88" stroke-width="2.1"/>
<line clip-path="url(#clipPath13)" fill="none" x1="208" x2="219" y1="88" y2="84" stroke-width="2.1"/>
<line clip-path="url(#clipPath13)" fill="none" x1="219" x2="232" y1="84" y2="81" stroke-width="2.1"/>
<polygon clip-path="url(#clipPath20)" points=" 199 92" stroke="none"/>
<polygon fill="none" clip-path="url(#clipPath20)" points=" 199 92"/>
<polygon clip-path="url(#clipPath21)" points=" 223 88 233 81 221 78 227 82 223 88" stroke="none"/>
<polygon fill="none" clip-path="url(#clipPath21)" points=" 223 88 233 81 221 78 227 82 223 88"/>
<line clip-path="url(#clipPath13)" fill="none" x1="95" x2="106" y1="95" y2="95" stroke-width="2.1"/>
<line clip-path="url(#clipPath13)" fill="none" x1="106" x2="117" y1="95" y2="95" stroke-width="2.1"/>
<line clip-path="url(#clipPath13)" fill="none" x1="117" x2="127" y1="95" y2="95" stroke-width="2.1"/>
<polygon clip-path="url(#clipPath14)" points=" 95 95" stroke="none"/>
<polygon fill="none" clip-path="url(#clipPath14)" points=" 95 95"/>
<polygon clip-path="url(#clipPath15)" points=" 117 100 128 95 117 90 122 95 117 100" stroke="none"/>
<polygon fill="none" clip-path="url(#clipPath15)" points=" 117 100 128 95 117 90 122 95 117 100"/>
<line clip-path="url(#clipPath13)" fill="none" x1="147" x2="157" y1="95" y2="95" stroke-width="2.1"/>
<line clip-path="url(#clipPath13)" fill="none" x1="157" x2="168" y1="95" y2="95" stroke-width="2.1"/>
<line clip-path="url(#clipPath13)" fill="none" x1="168" x2="179" y1="95" y2="95" stroke-width="2.1"/>
<polygon clip-path="url(#clipPath18)" points=" 147 95" stroke="none"/>
<polygon fill="none" clip-path="url(#clipPath18)" points=" 147 95"/>
<polygon clip-path="url(#clipPath19)" points=" 169 100 180 95 169 90 174 95 169 100" stroke="none"/>
<polygon fill="none" clip-path="url(#clipPath19)" points=" 169 100 180 95 169 90 174 95 169 100"/>
<line clip-path="url(#clipPath13)" fill="none" x1="199" x2="208" y1="98" y2="101" stroke-width="2.1"/>
<line clip-path="url(#clipPath13)" fill="none" x1="208" x2="219" y1="101" y2="105" stroke-width="2.1"/>
<line clip-path="url(#clipPath13)" fill="none" x1="219" x2="232" y1="105" y2="109" stroke-width="2.1"/>
<polygon clip-path="url(#clipPath16)" points=" 199 98" stroke="none"/>
<polygon fill="none" clip-path="url(#clipPath16)" points=" 199 98"/>
<polygon clip-path="url(#clipPath17)" points=" 221 111 233 109 224 101 227 108 221 111" stroke="none"/>
<polygon fill="none" clip-path="url(#clipPath17)" points=" 221 111 233 109 224 101 227 108 221 111"/>
<line clip-path="url(#clipPath13)" fill="none" x1="199" x2="208" y1="92" y2="88" stroke-width="2.1"/>
<line clip-path="url(#clipPath13)" fill="none" x1="208" x2="219" y1="88" y2="84" stroke-width="2.1"/>
<line clip-path="url(#clipPath13)" fill="none" x1="219" x2="232" y1="84" y2="81" stroke-width="2.1"/>
<polygon clip-path="url(#clipPath20)" points=" 199 92" stroke="none"/>
<polygon fill="none" clip-path="url(#clipPath20)" points=" 199 92"/>
<polygon clip-path="url(#clipPath21)" points=" 223 88 233 81 221 78 227 82 223 88" stroke="none"/>
<polygon fill="none" clip-path="url(#clipPath21)" points=" 223 88 233 81 221 78 227 82 223 88"/>
</g>
</g>
</svg>
