<?xml version="1.0" encoding="UTF-8"?>
<svg xmlns="http://www.w3.org/2000/svg" xmlns:xlink="http://www.w3.org/1999/xlink" stroke-dasharray="none" shape-rendering="auto" font-family="'Dialog'" width="170" text-rendering="auto" fill-opacity="1" contentScriptType="text/ecmascript" color-interpolation="auto" color-rendering="auto" preserveAspectRatio="xMidYMid meet" font-size="12" viewBox="0 0 170 137" fill="black" stroke="black" image-rendering="auto" stroke-miterlimit="10" zoomAndPan="magnify" version="1.0" stroke-linecap="square" stroke-linejoin="miter" contentStyleType="text/css" font-style="normal" height="137" stroke-width="1" stroke-dashoffset="0" font-weight="normal" stroke-opacity="1">
<!--Generated by the Batik Graphics2D SVG Generator-->
<defs id="genericDefs"/>
<g>
<defs id="defs1">
<clipPath clipPathUnits="userSpaceOnUse" id="clipPath1">
<path d="M9 13 L51 13 L51 59 L9 59 L9 13 Z"/>
</clipPath>
<clipPath clipPathUnits="userSpaceOnUse" id="clipPath2">
<path d="M14 33 L46 33 L46 54 L14 54 L14 33 Z"/>
</clipPath>
<clipPath clipPathUnits="userSpaceOnUse" id="clipPath3">
<path d="M48 33 L56 33 L56 41 L48 41 L48 33 Z"/>
</clipPath>
<clipPath clipPathUnits="userSpaceOnUse" id="clipPath4">
<path d="M48 19 L56 19 L56 27 L48 27 L48 19 Z"/>
</clipPath>
<clipPath clipPathUnits="userSpaceOnUse" id="clipPath5">
<path d="M48 46 L56 46 L56 54 L48 54 L48 46 Z"/>
</clipPath>
<clipPath clipPathUnits="userSpaceOnUse" id="clipPath6">
<path d="M119 10 L161 10 L161 52 L119 52 L119 10 Z"/>
</clipPath>
<clipPath clipPathUnits="userSpaceOnUse" id="clipPath7">
<path d="M124 30 L156 30 L156 47 L124 47 L124 30 Z"/>
</clipPath>
<clipPath clipPathUnits="userSpaceOnUse" id="clipPath8">
<path d="M114 30 L122 30 L122 38 L114 38 L114 30 Z"/>
</clipPath>
<clipPath clipPathUnits="userSpaceOnUse" id="clipPath9">
<path d="M9 78 L51 78 L51 120 L9 120 L9 78 Z"/>
</clipPath>
<clipPath clipPathUnits="userSpaceOnUse" id="clipPath10">
<path d="M14 98 L46 98 L46 115 L14 115 L14 98 Z"/>
</clipPath>
<clipPath clipPathUnits="userSpaceOnUse" id="clipPath11">
<path d="M48 100 L56 100 L56 108 L48 108 L48 100 Z"/>
</clipPath>
<clipPath clipPathUnits="userSpaceOnUse" id="clipPath12">
<path d="M119 71 L161 71 L161 109 L119 109 L119 71 Z"/>
</clipPath>
<clipPath clipPathUnits="userSpaceOnUse" id="clipPath13">
<path d="M124 91 L156 91 L156 104 L124 104 L124 91 Z"/>
</clipPath>
<clipPath clipPathUnits="userSpaceOnUse" id="clipPath14">
<path d="M114 85 L122 85 L122 93 L114 93 L114 85 Z"/>
</clipPath>
<clipPath clipPathUnits="userSpaceOnUse" id="clipPath15">
<path d="M114 100 L122 100 L122 108 L114 108 L114 100 Z"/>
</clipPath>
<clipPath clipPathUnits="userSpaceOnUse" id="clipPath16">
<path d="M114 74 L122 74 L122 82 L114 82 L114 74 Z"/>
</clipPath>
<clipPath clipPathUnits="userSpaceOnUse" id="clipPath17">
<path d="M-1 -1 L171 -1 L171 138 L-1 138 L-1 -1 Z"/>
</clipPath>
<clipPath clipPathUnits="userSpaceOnUse" id="clipPath18">
<path d="M107 30 L117 30 L117 39 L107 39 L107 30 Z"/>
</clipPath>
<clipPath clipPathUnits="userSpaceOnUse" id="clipPath19">
<path d="M107 100 L117 100 L117 109 L107 109 L107 100 Z"/>
</clipPath>
</defs>
<g font-size="11" fill="rgb(199,240,255)" stroke-linejoin="round" stroke="rgb(199,240,255)" stroke-width="1.1" stroke-miterlimit="0">
<rect x="10" y="14" clip-path="url(#clipPath1)" width="40" height="44" stroke="none"/>
<rect x="10" y="14" clip-path="url(#clipPath1)" fill="none" width="39" height="43" stroke="rgb(16,54,68)"/>
<line clip-path="url(#clipPath2)" fill="none" x1="15" x2="44" y1="34" y2="34" stroke="rgb(16,54,68)"/>
<rect x="49" y="34" clip-path="url(#clipPath3)" fill="rgb(68,4,4)" width="6" height="6" stroke="none"/>
<rect x="49" y="34" clip-path="url(#clipPath3)" fill="none" width="5" height="5" stroke="black"/>
<rect x="49" y="20" clip-path="url(#clipPath4)" fill="rgb(68,4,4)" width="6" height="6" stroke="none"/>
<rect x="49" y="20" clip-path="url(#clipPath4)" fill="none" width="5" height="5" stroke="black"/>
<rect x="49" y="47" clip-path="url(#clipPath5)" fill="rgb(68,4,4)" width="6" height="6" stroke="none"/>
<rect x="49" y="47" clip-path="url(#clipPath5)" fill="none" width="5" height="5" stroke="black"/>
<rect x="120" y="11" clip-path="url(#clipPath6)" width="40" height="40" stroke="none"/>
<rect x="120" y="11" clip-path="url(#clipPath6)" fill="none" width="39" height="39" stroke="rgb(16,54,68)"/>
<line clip-path="url(#clipPath7)" fill="none" x1="125" x2="154" y1="31" y2="31" stroke="rgb(16,54,68)"/>
<rect x="115" y="31" clip-path="url(#clipPath8)" fill="rgb(68,4,4)" width="6" height="6" stroke="none"/>
<rect x="115" y="31" clip-path="url(#clipPath8)" fill="none" width="5" height="5" stroke="black"/>
<rect x="10" y="79" clip-path="url(#clipPath9)" width="40" height="40" stroke="none"/>
<rect x="10" y="79" clip-path="url(#clipPath9)" fill="none" width="39" height="39" stroke="rgb(16,54,68)"/>
<line clip-path="url(#clipPath10)" fill="none" x1="15" x2="44" y1="99" y2="99" stroke="rgb(16,54,68)"/>
<rect x="49" y="101" clip-path="url(#clipPath11)" fill="rgb(68,4,4)" width="6" height="6" stroke="none"/>
<rect x="49" y="101" clip-path="url(#clipPath11)" fill="none" width="5" height="5" stroke="black"/>
<rect x="120" y="72" clip-path="url(#clipPath12)" width="40" height="36" stroke="none"/>
<rect x="120" y="72" clip-path="url(#clipPath12)" fill="none" width="39" height="35" stroke="rgb(16,54,68)"/>
<line clip-path="url(#clipPath13)" fill="none" x1="125" x2="154" y1="92" y2="92" stroke="rgb(16,54,68)"/>
<rect x="115" y="86" clip-path="url(#clipPath14)" fill="rgb(68,4,4)" width="6" height="6" stroke="none"/>
<rect x="115" y="86" clip-path="url(#clipPath14)" fill="none" width="5" height="5" stroke="black"/>
<rect x="115" y="101" clip-path="url(#clipPath15)" fill="rgb(68,4,4)" width="6" height="6" stroke="none"/>
<rect x="115" y="101" clip-path="url(#clipPath15)" fill="none" width="5" height="5" stroke="black"/>
<rect x="115" y="75" clip-path="url(#clipPath16)" fill="rgb(68,4,4)" width="6" height="6" stroke="none"/>
<rect x="115" y="75" clip-path="url(#clipPath16)" fill="none" width="5" height="5" stroke="black"/>
<line clip-path="url(#clipPath17)" fill="none" x1="55" x2="100" y1="23" y2="23" stroke="rgb(22,64,45)"/>
<line clip-path="url(#clipPath17)" fill="none" x1="100" x2="100" y1="23" y2="34" stroke="rgb(22,64,45)"/>
<line clip-path="url(#clipPath17)" fill="none" x1="100" x2="115" y1="34" y2="34" stroke="rgb(22,64,45)"/>
<polygon fill="rgb(22,64,45)" clip-path="url(#clipPath18)" points=" 115 34 108 37 108 31" stroke="none"/>
<polygon fill="none" clip-path="url(#clipPath18)" points=" 115 34 108 37 108 31" stroke="rgb(22,64,45)"/>
<line clip-path="url(#clipPath17)" fill="none" x1="55" x2="115" y1="104" y2="104" stroke="rgb(22,64,45)"/>
<polygon fill="rgb(22,64,45)" clip-path="url(#clipPath19)" points=" 115 104 108 107 108 101" stroke="none"/>
<polygon fill="none" clip-path="url(#clipPath19)" points=" 115 104 108 107 108 101" stroke="rgb(22,64,45)"/>
</g>
</g>
</svg>
