<?xml version="1.0" encoding="UTF-8" standalone="no"?>
<svg
   xmlns:dc="http://purl.org/dc/elements/1.1/"
   xmlns:cc="http://creativecommons.org/ns#"
   xmlns:rdf="http://www.w3.org/1999/02/22-rdf-syntax-ns#"
   xmlns:svg="http://www.w3.org/2000/svg"
   xmlns="http://www.w3.org/2000/svg"
   xmlns:sodipodi="http://sodipodi.sourceforge.net/DTD/sodipodi-0.dtd"
   xmlns:inkscape="http://www.inkscape.org/namespaces/inkscape"
   stroke-dasharray="none"
   shape-rendering="auto"
   font-family="'Dialog'"
   width="308"
   text-rendering="auto"
   fill-opacity="1"
   contentScriptType="text/ecmascript"
   color-rendering="auto"
   color-interpolation="auto"
   preserveAspectRatio="xMidYMid meet"
   font-size="12"
   viewBox="0 0 308 230"
   fill="black"
   stroke="black"
   image-rendering="auto"
   stroke-miterlimit="10"
   zoomAndPan="magnify"
   version="1.0"
   stroke-linecap="square"
   stroke-linejoin="miter"
   contentStyleType="text/css"
   font-style="normal"
   height="230"
   stroke-width="1"
   stroke-dashoffset="0"
   font-weight="normal"
   stroke-opacity="1"
   id="svg3187"
   sodipodi:version="0.32"
   inkscape:version="0.46"
   sodipodi:docname="model05.svg"
   inkscape:output_extension="org.inkscape.output.svg.inkscape">
  <metadata
     id="metadata3436">
    <rdf:RDF>
      <cc:Work
         rdf:about="">
        <dc:format>image/svg+xml</dc:format>
        <dc:type
           rdf:resource="http://purl.org/dc/dcmitype/StillImage" />
      </cc:Work>
    </rdf:RDF>
  </metadata>
  <sodipodi:namedview
     inkscape:window-height="976"
     inkscape:window-width="1280"
     inkscape:pageshadow="2"
     inkscape:pageopacity="0.0"
     guidetolerance="10.0"
     gridtolerance="10.0"
     objecttolerance="10.0"
     borderopacity="1.0"
     bordercolor="#666666"
     pagecolor="#ffffff"
     id="base"
     showgrid="false"
     inkscape:zoom="1.75"
     inkscape:cx="68.857143"
     inkscape:cy="115"
     inkscape:window-x="0"
     inkscape:window-y="0"
     inkscape:current-layer="g3190" />
<!--Generated by the Batik Graphics2D SVG Generator-->  <defs
     id="genericDefs">
    <inkscape:perspective
       sodipodi:type="inkscape:persp3d"
       inkscape:vp_x="0 : 115 : 1"
       inkscape:vp_y="0 : 1000 : 0"
       inkscape:vp_z="308 : 115 : 1"
       inkscape:persp3d-origin="154 : 76.666667 : 1"
       id="perspective3438" />
  </defs>
  <g
     id="g3190">
    <defs
       id="defs1">
      <clipPath
         clipPathUnits="userSpaceOnUse"
         id="clipPath1">
        <path
           d="M126 14 L181 14 L181 29 L126 29 L126 14 Z"
           id="path3194" />
      </clipPath>
      <clipPath
         clipPathUnits="userSpaceOnUse"
         id="clipPath2">
        <path
           d="M10 32 L299 32 L299 35 L10 35 L10 32 Z"
           id="path3197" />
      </clipPath>
      <clipPath
         clipPathUnits="userSpaceOnUse"
         id="clipPath3">
        <path
           d="M41 118 L48 118 L48 133 L41 133 L41 118 Z"
           id="path3200" />
      </clipPath>
      <clipPath
         clipPathUnits="userSpaceOnUse"
         id="clipPath4">
        <path
           d="M28 109 L60 109 L60 141 L28 141 L28 109 Z"
           id="path3203" />
      </clipPath>
      <clipPath
         clipPathUnits="userSpaceOnUse"
         id="clipPath5">
        <path
           d="M120 55 L134 55 L134 70 L120 70 L120 55 Z"
           id="path3206" />
      </clipPath>
      <clipPath
         clipPathUnits="userSpaceOnUse"
         id="clipPath6">
        <path
           d="M92 73 L163 73 L163 76 L92 76 L92 73 Z"
           id="path3209" />
      </clipPath>
      <clipPath
         clipPathUnits="userSpaceOnUse"
         id="clipPath7">
        <path
           d="M98 79 L156 79 L156 137 L98 137 L98 79 Z"
           id="path3212" />
      </clipPath>
      <clipPath
         clipPathUnits="userSpaceOnUse"
         id="clipPath8">
        <path
           d="M123 100 L130 100 L130 115 L123 115 L123 100 Z"
           id="path3215" />
      </clipPath>
      <clipPath
         clipPathUnits="userSpaceOnUse"
         id="clipPath9">
        <path
           d="M110 91 L142 91 L142 123 L110 123 L110 91 Z"
           id="path3218" />
      </clipPath>
      <clipPath
         clipPathUnits="userSpaceOnUse"
         id="clipPath10">
        <path
           d="M123 157 L130 157 L130 172 L123 172 L123 157 Z"
           id="path3221" />
      </clipPath>
      <clipPath
         clipPathUnits="userSpaceOnUse"
         id="clipPath11">
        <path
           d="M110 148 L142 148 L142 180 L110 180 L110 148 Z"
           id="path3224" />
      </clipPath>
      <clipPath
         clipPathUnits="userSpaceOnUse"
         id="clipPath12">
        <path
           d="M91 50 L163 50 L163 201 L91 201 L91 50 Z"
           id="path3227" />
      </clipPath>
      <clipPath
         clipPathUnits="userSpaceOnUse"
         id="clipPath13">
        <path
           d="M195 118 L211 118 L211 133 L195 133 L195 118 Z"
           id="path3230" />
      </clipPath>
      <clipPath
         clipPathUnits="userSpaceOnUse"
         id="clipPath14">
        <path
           d="M192 114 L214 114 L214 136 L192 136 L192 114 Z"
           id="path3233" />
      </clipPath>
      <clipPath
         clipPathUnits="userSpaceOnUse"
         id="clipPath15">
        <path
           d="M255 142 L269 142 L269 157 L255 157 L255 142 Z"
           id="path3236" />
      </clipPath>
      <clipPath
         clipPathUnits="userSpaceOnUse"
         id="clipPath16">
        <path
           d="M245 133 L279 133 L279 165 L245 165 L245 133 Z"
           id="path3239" />
      </clipPath>
      <clipPath
         clipPathUnits="userSpaceOnUse"
         id="clipPath17">
        <path
           d="M255 94 L269 94 L269 109 L255 109 L255 94 Z"
           id="path3242" />
      </clipPath>
      <clipPath
         clipPathUnits="userSpaceOnUse"
         id="clipPath18">
        <path
           d="M245 85 L279 85 L279 117 L245 117 L245 85 Z"
           id="path3245" />
      </clipPath>
      <clipPath
         clipPathUnits="userSpaceOnUse"
         id="clipPath19">
        <path
           d="M9 9 L299 9 L299 221 L9 221 L9 9 Z"
           id="path3248" />
      </clipPath>
      <clipPath
         clipPathUnits="userSpaceOnUse"
         id="clipPath20">
        <path
           d="M-1 -1 L309 -1 L309 231 L-1 231 L-1 -1 Z"
           id="path3251" />
      </clipPath>
      <clipPath
         clipPathUnits="userSpaceOnUse"
         id="clipPath21">
        <path
           d="M58 125 L61 125 L61 128 L58 128 L58 125 Z"
           id="path3254" />
      </clipPath>
      <clipPath
         clipPathUnits="userSpaceOnUse"
         id="clipPath22">
        <path
           d="M81 120 L95 120 L95 133 L81 133 L81 120 Z"
           id="path3257" />
      </clipPath>
      <clipPath
         clipPathUnits="userSpaceOnUse"
         id="clipPath23">
        <path
           d="M212 121 L215 121 L215 124 L212 124 L212 121 Z"
           id="path3260" />
      </clipPath>
      <clipPath
         clipPathUnits="userSpaceOnUse"
         id="clipPath24">
        <path
           d="M234 106 L249 106 L249 119 L234 119 L234 106 Z"
           id="path3263" />
      </clipPath>
      <clipPath
         clipPathUnits="userSpaceOnUse"
         id="clipPath25">
        <path
           d="M212 129 L215 129 L215 132 L212 132 L212 129 Z"
           id="path3266" />
      </clipPath>
      <clipPath
         clipPathUnits="userSpaceOnUse"
         id="clipPath26">
        <path
           d="M234 134 L249 134 L249 146 L234 146 L234 134 Z"
           id="path3269" />
      </clipPath>
      <clipPath
         clipPathUnits="userSpaceOnUse"
         id="clipPath27">
        <path
           d="M161 125 L164 125 L164 128 L161 128 L161 125 Z"
           id="path3272" />
      </clipPath>
      <clipPath
         clipPathUnits="userSpaceOnUse"
         id="clipPath28">
        <path
           d="M182 120 L196 120 L196 133 L182 133 L182 120 Z"
           id="path3275" />
      </clipPath>
    </defs>
    <g
       font-size="11"
       stroke-width="1.1"
       font-family="'Lucida Grande'"
       stroke-linecap="butt"
       id="g3281">
      <rect
         x="11"
         y="11"
         clip-path="url(#clipPath19)"
         fill="none"
         width="286"
         rx="15"
         ry="15"
         height="208"
         id="rect3321"
         style="fill:#ffffff" />
      <line
         clip-path="url(#clipPath2)"
         fill="none"
         x1="11"
         x2="297"
         y1="33"
         y2="33"
         id="line3283" />
      <text
         xml:space="preserve"
         x="42"
         y="130"
         clip-path="url(#clipPath3)"
         stroke="none"
         id="text3285"
         style="-inkscape-font-specification:Arial;font-family:Arial;font-weight:normal;font-style:normal;font-stretch:normal;font-variant:normal;font-size:10px;text-anchor:start;text-align:start;writing-mode:lr;line-height:125%"
         sodipodi:linespacing="125%">S</text>
      <rect
         x="31"
         y="112"
         clip-path="url(#clipPath4)"
         width="26"
         rx="14.5"
         ry="14.5"
         height="26"
         id="rect3287"
         transform="translate(1.2246094,1.4208984)"
         style="fill:none;stroke-width:3.0999999" />
      <text
         x="121"
         y="67"
         clip-path="url(#clipPath5)"
         xml:space="preserve"
         id="text3289"
         style="font-size:10px;font-style:normal;font-variant:normal;font-weight:normal;font-stretch:normal;text-align:start;line-height:125%;writing-mode:lr-tb;text-anchor:start;stroke:none;stroke-width:3.0999999;font-family:Arial;-inkscape-font-specification:Arial"
         sodipodi:linespacing="125%"
         transform="translate(0.8071289,0)">S1</text>
      <line
         clip-path="url(#clipPath6)"
         fill="none"
         x1="93"
         x2="161"
         y1="74"
         y2="74"
         id="line3291" />
      <line
         clip-path="url(#clipPath7)"
         fill="none"
         x1="154"
         x2="99"
         y1="135"
         y2="135"
         stroke-dasharray="10,5"
         id="line3293" />
      <text
         x="124"
         y="112"
         clip-path="url(#clipPath8)"
         stroke-dasharray="10,5"
         stroke="none"
         xml:space="preserve"
         id="text3295"
         style="-inkscape-font-specification:Arial;font-family:Arial;font-weight:normal;font-style:normal;font-stretch:normal;font-variant:normal;font-size:10px;text-anchor:start;text-align:start;writing-mode:lr;line-height:125%"
         sodipodi:linespacing="125%">S</text>
      <rect
         x="113"
         y="94"
         clip-path="url(#clipPath9)"
         width="26"
         rx="14.5"
         ry="14.5"
         height="26"
         id="rect3297"
         transform="translate(1.2246094,0)"
         style="fill:none;stroke-width:3.0999999" />
      <text
         x="124"
         y="169"
         clip-path="url(#clipPath10)"
         stroke="none"
         stroke-width="3.1"
         xml:space="preserve"
         id="text3299"
         style="-inkscape-font-specification:Arial;font-family:Arial;font-weight:normal;font-style:normal;font-stretch:normal;font-variant:normal;font-size:10px;text-anchor:start;text-align:start;writing-mode:lr;line-height:125%"
         sodipodi:linespacing="125%">S</text>
      <rect
         x="113"
         y="151"
         clip-path="url(#clipPath11)"
         width="26"
         rx="14.5"
         ry="14.5"
         height="26"
         id="rect3301"
         transform="translate(1.2246094,0)"
         style="fill:none;stroke-width:3.0999999" />
      <rect
         x="93"
         y="52"
         clip-path="url(#clipPath12)"
         width="68"
         rx="15"
         ry="15"
         height="147"
         id="rect3303"
         transform="translate(0.2246094,0)"
         style="fill:none" />
      <text
         xml:space="preserve"
         x="196"
         y="130"
         clip-path="url(#clipPath13)"
         stroke="none"
         id="text3305">C1</text>
      <circle
         r="9"
         clip-path="url(#clipPath14)"
         cx="203"
         cy="125"
         stroke="none"
         id="circle3307" />
      <circle
         fill="none"
         r="9"
         clip-path="url(#clipPath14)"
         cx="203"
         cy="125"
         id="circle3309" />
      <path
         fill="none"
         d="M204.2678 122.8787 A2.5 3 0 1 0 204.2678 127.1213"
         clip-path="url(#clipPath14)"
         stroke="white"
         id="path3311" />
      <text
         xml:space="preserve"
         x="256"
         y="154"
         clip-path="url(#clipPath15)"
         stroke="none"
         id="text3313"
         style="-inkscape-font-specification:Arial;font-family:Arial;font-weight:normal;font-style:normal;font-stretch:normal;font-variant:normal;font-size:10px;text-anchor:start;text-align:start;writing-mode:lr;line-height:125%"
         sodipodi:linespacing="125%">S3</text>
      <rect
         x="247"
         y="135"
         clip-path="url(#clipPath16)"
         width="30"
         rx="15"
         ry="15"
         height="28"
         id="rect3315"
         transform="translate(0.1083984,1.4233398)"
         style="fill:none" />
      <text
         xml:space="preserve"
         x="256"
         y="106"
         clip-path="url(#clipPath17)"
         id="text3317"
         style="font-size:10px;font-style:normal;font-variant:normal;font-weight:normal;font-stretch:normal;text-align:start;line-height:125%;writing-mode:lr-tb;text-anchor:start;stroke:none;font-family:Arial;-inkscape-font-specification:Arial"
         sodipodi:linespacing="125%"
         transform="translate(3.6621094e-2,0)">S2</text>
      <rect
         x="247"
         y="87"
         clip-path="url(#clipPath18)"
         width="30"
         rx="15"
         ry="15"
         height="28"
         id="rect3319"
         transform="translate(0.1083984,1.4208984)"
         style="fill:none" />
      <line
         clip-path="url(#clipPath20)"
         fill="none"
         x1="59"
         x2="68"
         y1="126"
         y2="126"
         stroke-width="2.1"
         id="line3323" />
      <line
         clip-path="url(#clipPath20)"
         fill="none"
         x1="68"
         x2="79"
         y1="126"
         y2="126"
         stroke-width="2.1"
         id="line3325" />
      <line
         clip-path="url(#clipPath20)"
         fill="none"
         x1="79"
         x2="92"
         y1="126"
         y2="126"
         stroke-width="2.1"
         id="line3327" />
      <polygon
         clip-path="url(#clipPath21)"
         points="59,126 59,126 "
         id="polygon3329"
         transform="translate(-13.775391,0.4208984)"
         style="stroke:none;stroke-width:2.0999999" />
      <polygon
         clip-path="url(#clipPath21)"
         points="59,126 59,126 "
         id="polygon3331"
         transform="translate(-13.775391,0.4208984)"
         style="fill:none" />
      <polygon
         clip-path="url(#clipPath22)"
         points=" 82 131 93 126 82 121 87 126 82 131"
         stroke="none"
         id="polygon3333" />
      <polygon
         fill="none"
         clip-path="url(#clipPath22)"
         points=" 82 131 93 126 82 121 87 126 82 131"
         id="polygon3335" />
      <line
         clip-path="url(#clipPath20)"
         fill="none"
         x1="213"
         x2="223"
         y1="122"
         y2="117"
         stroke-width="2.1"
         id="line3337" />
      <line
         clip-path="url(#clipPath20)"
         fill="none"
         x1="223"
         x2="234"
         y1="117"
         y2="113"
         stroke-width="2.1"
         id="line3339" />
      <line
         clip-path="url(#clipPath20)"
         fill="none"
         x1="234"
         x2="246"
         y1="113"
         y2="109"
         stroke-width="2.1"
         id="line3341" />
      <polygon
         stroke-width="2.1"
         clip-path="url(#clipPath23)"
         points=" 213 122"
         stroke="none"
         id="polygon3343" />
      <polygon
         fill="none"
         clip-path="url(#clipPath23)"
         points=" 213 122"
         id="polygon3345" />
      <polygon
         clip-path="url(#clipPath24)"
         points=" 238 117 247 109 235 107 241 111 238 117"
         stroke="none"
         id="polygon3347" />
      <polygon
         fill="none"
         clip-path="url(#clipPath24)"
         points=" 238 117 247 109 235 107 241 111 238 117"
         id="polygon3349" />
      <line
         clip-path="url(#clipPath20)"
         fill="none"
         x1="213"
         x2="223"
         y1="130"
         y2="134"
         stroke-width="2.1"
         id="line3351" />
      <line
         clip-path="url(#clipPath20)"
         fill="none"
         x1="223"
         x2="234"
         y1="134"
         y2="138"
         stroke-width="2.1"
         id="line3353" />
      <line
         clip-path="url(#clipPath20)"
         fill="none"
         x1="234"
         x2="246"
         y1="138"
         y2="143"
         stroke-width="2.1"
         id="line3355" />
      <polygon
         stroke-width="2.1"
         clip-path="url(#clipPath25)"
         points=" 213 130"
         stroke="none"
         id="polygon3357" />
      <polygon
         fill="none"
         clip-path="url(#clipPath25)"
         points=" 213 130"
         id="polygon3359" />
      <polygon
         clip-path="url(#clipPath26)"
         points=" 235 144 247 143 239 135 241 141 235 144"
         stroke="none"
         id="polygon3361" />
      <polygon
         fill="none"
         clip-path="url(#clipPath26)"
         points=" 235 144 247 143 239 135 241 141 235 144"
         id="polygon3363" />
      <line
         clip-path="url(#clipPath20)"
         fill="none"
         x1="162"
         x2="173"
         y1="126"
         y2="126"
         stroke-width="2.1"
         id="line3365" />
      <line
         clip-path="url(#clipPath20)"
         fill="none"
         x1="173"
         x2="184"
         y1="126"
         y2="126"
         stroke-width="2.1"
         id="line3367" />
      <line
         clip-path="url(#clipPath20)"
         fill="none"
         x1="184"
         x2="193"
         y1="126"
         y2="126"
         stroke-width="2.1"
         id="line3369" />
      <polygon
         stroke-width="2.1"
         clip-path="url(#clipPath27)"
         points=" 162 126"
         stroke="none"
         id="polygon3371" />
      <polygon
         fill="none"
         clip-path="url(#clipPath27)"
         points=" 162 126"
         id="polygon3373" />
      <polygon
         clip-path="url(#clipPath28)"
         points=" 183 131 194 126 183 121 188 126 183 131"
         stroke="none"
         id="polygon3375" />
      <polygon
         fill="none"
         clip-path="url(#clipPath28)"
         points=" 183 131 194 126 183 121 188 126 183 131"
         id="polygon3377" />
      <line
         clip-path="url(#clipPath20)"
         fill="none"
         x1="59"
         x2="68"
         y1="126"
         y2="126"
         stroke-width="2.1"
         id="line3379" />
      <line
         clip-path="url(#clipPath20)"
         fill="none"
         x1="68"
         x2="79"
         y1="126"
         y2="126"
         stroke-width="2.1"
         id="line3381" />
      <line
         clip-path="url(#clipPath20)"
         fill="none"
         x1="79"
         x2="92"
         y1="126"
         y2="126"
         stroke-width="2.1"
         id="line3383" />
      <polygon
         clip-path="url(#clipPath21)"
         points="59,126 59,126 "
         id="polygon3385"
         transform="translate(-13.775391,0.4208984)"
         style="stroke:none;stroke-width:2.0999999" />
      <polygon
         clip-path="url(#clipPath21)"
         points="59,126 59,126 "
         id="polygon3387"
         transform="translate(-13.775391,0.4208984)"
         style="fill:none" />
      <polygon
         clip-path="url(#clipPath22)"
         points=" 82 131 93 126 82 121 87 126 82 131"
         stroke="none"
         id="polygon3389" />
      <polygon
         fill="none"
         clip-path="url(#clipPath22)"
         points=" 82 131 93 126 82 121 87 126 82 131"
         id="polygon3391" />
      <line
         clip-path="url(#clipPath20)"
         fill="none"
         x1="162"
         x2="173"
         y1="126"
         y2="126"
         stroke-width="2.1"
         id="line3393" />
      <line
         clip-path="url(#clipPath20)"
         fill="none"
         x1="173"
         x2="184"
         y1="126"
         y2="126"
         stroke-width="2.1"
         id="line3395" />
      <line
         clip-path="url(#clipPath20)"
         fill="none"
         x1="184"
         x2="193"
         y1="126"
         y2="126"
         stroke-width="2.1"
         id="line3397" />
      <polygon
         stroke-width="2.1"
         clip-path="url(#clipPath27)"
         points=" 162 126"
         stroke="none"
         id="polygon3399" />
      <polygon
         fill="none"
         clip-path="url(#clipPath27)"
         points=" 162 126"
         id="polygon3401" />
      <polygon
         clip-path="url(#clipPath28)"
         points=" 183 131 194 126 183 121 188 126 183 131"
         stroke="none"
         id="polygon3403" />
      <polygon
         fill="none"
         clip-path="url(#clipPath28)"
         points=" 183 131 194 126 183 121 188 126 183 131"
         id="polygon3405" />
      <line
         clip-path="url(#clipPath20)"
         fill="none"
         x1="213"
         x2="223"
         y1="130"
         y2="134"
         stroke-width="2.1"
         id="line3407" />
      <line
         clip-path="url(#clipPath20)"
         fill="none"
         x1="223"
         x2="234"
         y1="134"
         y2="138"
         stroke-width="2.1"
         id="line3409" />
      <line
         clip-path="url(#clipPath20)"
         fill="none"
         x1="234"
         x2="246"
         y1="138"
         y2="143"
         stroke-width="2.1"
         id="line3411" />
      <polygon
         stroke-width="2.1"
         clip-path="url(#clipPath25)"
         points=" 213 130"
         stroke="none"
         id="polygon3413" />
      <polygon
         fill="none"
         clip-path="url(#clipPath25)"
         points=" 213 130"
         id="polygon3415" />
      <polygon
         clip-path="url(#clipPath26)"
         points=" 235 144 247 143 239 135 241 141 235 144"
         stroke="none"
         id="polygon3417" />
      <polygon
         fill="none"
         clip-path="url(#clipPath26)"
         points=" 235 144 247 143 239 135 241 141 235 144"
         id="polygon3419" />
      <line
         clip-path="url(#clipPath20)"
         fill="none"
         x1="213"
         x2="223"
         y1="122"
         y2="117"
         stroke-width="2.1"
         id="line3421" />
      <line
         clip-path="url(#clipPath20)"
         fill="none"
         x1="223"
         x2="234"
         y1="117"
         y2="113"
         stroke-width="2.1"
         id="line3423" />
      <line
         clip-path="url(#clipPath20)"
         fill="none"
         x1="234"
         x2="246"
         y1="113"
         y2="109"
         stroke-width="2.1"
         id="line3425" />
      <polygon
         stroke-width="2.1"
         clip-path="url(#clipPath23)"
         points=" 213 122"
         stroke="none"
         id="polygon3427" />
      <polygon
         fill="none"
         clip-path="url(#clipPath23)"
         points=" 213 122"
         id="polygon3429" />
      <polygon
         clip-path="url(#clipPath24)"
         points=" 238 117 247 109 235 107 241 111 238 117"
         stroke="none"
         id="polygon3431" />
      <polygon
         fill="none"
         clip-path="url(#clipPath24)"
         points=" 238 117 247 109 235 107 241 111 238 117"
         id="polygon3433" />
    </g>
    <g
       stroke-miterlimit="0"
       font-size="11"
       stroke-width="0"
       font-family="'Lucida Grande'"
       stroke-linejoin="round"
       id="g3277"
       style="-inkscape-font-specification:Arial;font-family:Arial;font-weight:normal;font-style:normal;font-stretch:normal;font-variant:normal;font-size:10px;text-anchor:start;text-align:start;writing-mode:lr;line-height:125%">
      <text
         xml:space="preserve"
         x="127"
         y="26"
         clip-path="url(#clipPath1)"
         stroke="none"
         id="text3279"
         style="-inkscape-font-specification:Arial;font-family:Arial;font-weight:normal;font-style:normal;font-stretch:normal;font-variant:normal;font-size:10px;text-anchor:start;text-align:start;writing-mode:lr;line-height:125%">SyncChart</text>
    </g>
  </g>
</svg>
