<?xml version="1.0" encoding="UTF-8" standalone="no"?>
<!-- Created with Inkscape (http://www.inkscape.org/) -->
<svg
   xmlns:dc="http://purl.org/dc/elements/1.1/"
   xmlns:cc="http://creativecommons.org/ns#"
   xmlns:rdf="http://www.w3.org/1999/02/22-rdf-syntax-ns#"
   xmlns:svg="http://www.w3.org/2000/svg"
   xmlns="http://www.w3.org/2000/svg"
   xmlns:sodipodi="http://sodipodi.sourceforge.net/DTD/sodipodi-0.dtd"
   xmlns:inkscape="http://www.inkscape.org/namespaces/inkscape"
   width="431.78528"
   height="53.715294"
   id="svg2"
   sodipodi:version="0.32"
   inkscape:version="0.46"
   sodipodi:docbase="/home/haf/shared/kieler/trunk/common/doc/images"
   sodipodi:docname="kieler-trac-logo.svg"
   inkscape:export-filename="/home/haf/shared/kieler/trunk/common/doc/images/kieler-trac-logo.png"
   inkscape:export-xdpi="149.98"
   inkscape:export-ydpi="149.98"
   inkscape:output_extension="org.inkscape.output.svg.inkscape"
   version="1.0">
  <defs
     id="defs4">
    <inkscape:perspective
       sodipodi:type="inkscape:persp3d"
       inkscape:vp_x="0 : 526.18109 : 1"
       inkscape:vp_y="0 : 1000 : 0"
       inkscape:vp_z="744.09448 : 526.18109 : 1"
       inkscape:persp3d-origin="372.04724 : 350.78739 : 1"
       id="perspective38" />
    <marker
       inkscape:stockid="Arrow1Mend"
       orient="auto"
       refY="0"
       refX="0"
       id="Arrow1Mend"
       style="overflow:visible">
      <path
         id="path2998"
         d="M 0,0 L 5,-5 L -12.5,0 L 5,5 L 0,0 z"
         style="fill-rule:evenodd;stroke:#000000;stroke-width:1pt;marker-start:none"
         transform="matrix(-0.4,0,0,-0.4,-4,0)" />
    </marker>
    <marker
       inkscape:stockid="Arrow2Mend"
       orient="auto"
       refY="0"
       refX="0"
       id="Arrow2Mend"
       style="overflow:visible">
      <path
         id="path2980"
         style="font-size:12px;fill-rule:evenodd;stroke-width:0.625;stroke-linejoin:round"
         d="M 8.7185878,4.0337352 L -2.2072895,0.016013256 L 8.7185884,-4.0017078 C 6.97309,-1.6296469 6.9831476,1.6157441 8.7185878,4.0337352 z"
         transform="scale(-0.6,-0.6)" />
    </marker>
    <marker
       inkscape:stockid="Arrow2Lend"
       orient="auto"
       refY="0"
       refX="0"
       id="Arrow2Lend"
       style="overflow:visible">
      <path
         id="path2986"
         style="font-size:12px;fill-rule:evenodd;stroke-width:0.625;stroke-linejoin:round"
         d="M 8.7185878,4.0337352 L -2.2072895,0.016013256 L 8.7185884,-4.0017078 C 6.97309,-1.6296469 6.9831476,1.6157441 8.7185878,4.0337352 z"
         transform="matrix(-1.1,0,0,-1.1,-1.1,0)" />
    </marker>
  </defs>
  <sodipodi:namedview
     id="base"
     pagecolor="#ffffff"
     bordercolor="#666666"
     borderopacity="1.0"
     gridtolerance="10000"
     guidetolerance="10"
     objecttolerance="10"
     inkscape:pageopacity="0.0"
     inkscape:pageshadow="2"
     inkscape:zoom="2.793113"
     inkscape:cx="219.82762"
     inkscape:cy="-11.559822"
     inkscape:document-units="px"
     inkscape:current-layer="layer1"
     inkscape:window-width="1272"
     inkscape:window-height="995"
     inkscape:window-x="0"
     inkscape:window-y="0"
     showgrid="false" />
  <metadata
     id="metadata7">
    <rdf:RDF>
      <cc:Work
         rdf:about="">
        <dc:format>image/svg+xml</dc:format>
        <dc:type
           rdf:resource="http://purl.org/dc/dcmitype/StillImage" />
      </cc:Work>
    </rdf:RDF>
  </metadata>
  <g
     inkscape:label="Layer 1"
     inkscape:groupmode="layer"
     id="layer1"
     transform="translate(-23.831138,-24.283325)">
    <rect
       style="opacity:1;fill:#d5e5ff;fill-opacity:1;stroke:#2b0000;stroke-width:0.81815296;stroke-linecap:butt;stroke-linejoin:miter;stroke-miterlimit:4;stroke-dasharray:none;stroke-opacity:1"
       id="rect1927"
       width="36.378059"
       height="37.882584"
       x="99.648628"
       y="39.706959"
       rx="0.38987687"
       ry="0.66313428" />
    <rect
       style="opacity:1;fill:#d5e5ff;fill-opacity:1;stroke:#2b0000;stroke-width:0.81815296;stroke-linecap:butt;stroke-linejoin:miter;stroke-miterlimit:4;stroke-dasharray:none;stroke-opacity:1"
       id="rect1925"
       width="36.378059"
       height="37.882584"
       x="41.647469"
       y="24.692402"
       rx="0.38987687"
       ry="0.66313428" />
    <text
       xml:space="preserve"
       style="font-size:12px;font-style:normal;font-weight:normal;fill:#000000;fill-opacity:1;stroke:none;stroke-width:1pt;stroke-linecap:butt;stroke-linejoin:miter;stroke-opacity:1;font-family:Bitstream Vera Sans"
       x="213.1297"
       y="49.278538"
       id="text1907"><tspan
         sodipodi:role="line"
         x="213.1297"
         y="49.278538"
         id="tspan1911"><tspan
   style="font-weight:bold"
   id="tspan3018">K</tspan>iel <tspan
   style="font-weight:bold"
   id="tspan3020">I</tspan>ntegrated <tspan
   style="font-weight:bold"
   id="tspan3022">E</tspan>nvironment for <tspan
   style="font-weight:bold"
   id="tspan3024">L</tspan>ayout</tspan></text>
    <text
       xml:space="preserve"
       style="font-size:12px;font-style:normal;font-weight:normal;fill:#000000;fill-opacity:1;stroke:none;stroke-width:1pt;stroke-linecap:butt;stroke-linejoin:miter;stroke-opacity:1;font-family:Bitstream Vera Sans"
       x="292.6008"
       y="62.756611"
       id="text1915"><tspan
         sodipodi:role="line"
         id="tspan1917"
         x="292.6008"
         y="62.756611"
         style="font-size:8px;fill:#808080;font-family:Steve">f<tspan
   style="font-style:normal;font-variant:normal;font-weight:normal;font-stretch:normal;font-family:SteveHandwriting;-inkscape-font-specification:SteveHandwriting"
   id="tspan2411">or the Eclipse Rich Client Platform  </tspan></tspan></text>
    <rect
       style="opacity:1;fill:#d5e5ff;fill-opacity:1;stroke:#2b0000;stroke-width:0.81815296;stroke-linecap:butt;stroke-linejoin:miter;stroke-miterlimit:4;stroke-dasharray:none;stroke-opacity:1"
       id="rect1919"
       width="36.378059"
       height="37.882584"
       x="158.77449"
       y="24.692402"
       rx="0.38987687"
       ry="0.66313428" />
    <g
       style="overflow:visible"
       id="g1884"
       transform="matrix(7.247721e-2,0,0,7.247721e-2,163.9977,30.04937)">
      <path
         id="path1873"
         d="M 177.783,374.859 C 177.783,374.859 117.397,344.296 70.518,276.416 C 23.641,208.519 13.132,154.143 7.885,121.513 C 2.638,88.891 0,33 0,0 L 177.783,0 L 355.553,0 C 355.553,33 352.927,88.891 347.682,121.513 C 342.419,154.143 331.939,208.519 285.047,276.415 C 238.157,344.296 177.783,374.859 177.783,374.859"
         style="fill:#df002a" />
      <polygon
         id="polygon1875"
         points="177.957,10.294 151.33,84.175 125.078,12.366 97.32,85.675 70.316,15.925 16.306,15.925 16.306,68.804 84.956,97.685 15.553,134.437 88.697,147.186 31.686,189.948 107.439,192.2 56.444,243.948 128.457,234.569 86.826,289.709 165.202,269.083 134.457,324.221 177.957,356.661 221.471,324.221 190.712,269.083 269.102,289.709 227.458,234.569 299.47,243.948 248.461,192.2 324.213,189.948 267.217,147.186 340.345,134.437 270.972,97.685 339.591,68.804 339.591,15.925 285.584,15.925 258.594,85.675 230.848,12.366 204.584,84.175 177.957,10.294 "
         style="fill:#ffffff" />
      <path
         id="path1877"
         d="M 151.071,177.434 C 141.107,174.734 130.138,171.977 122.045,166.756 C 129.65,175.417 140.592,184.378 151.059,188.828 L 151.071,177.434 z M 197.224,178.99 C 191.195,180.051 184.036,180.609 177.629,180.609 C 177.629,180.609 164.371,180.05 158.342,178.99 L 158.356,191.522 C 164.328,193.156 171.488,194.026 177.937,194.026 C 183.546,194.026 191.223,193.156 197.209,191.522 L 197.224,178.99 z M 174.225,174.232 C 160.953,173.751 146.467,170.707 135.274,166.605 L 135.302,153.214 C 146.409,157.275 160.798,160.198 174.21,160.673 L 174.225,174.232 z M 127.877,150.654 C 119.825,146.754 111.046,141.066 105.451,135.608 C 107.279,141.239 110.503,150.186 113.363,155.182 C 117.522,158.14 122.993,161.699 127.878,164.044 L 127.878,150.654 L 127.877,150.654 z M 197.098,153.102 C 191.153,153.925 184.286,154.373 177.909,154.373 C 171.517,154.373 164.414,153.925 158.454,153.102 L 158.454,141.462 C 164.386,142.251 171.503,142.663 177.909,142.663 C 184.315,142.663 191.167,142.251 197.098,141.462 L 197.098,153.102 L 197.098,153.102 z M 204.507,177.42 C 214.445,174.733 225.428,171.977 233.508,166.756 C 225.93,175.417 214.96,184.378 204.507,188.808 L 204.507,177.42 z M 181.342,174.232 C 194.613,173.751 209.085,170.707 220.279,166.605 L 220.251,153.214 C 209.157,157.275 194.769,160.198 181.371,160.673 L 181.342,174.232 z M 227.69,150.654 C 235.741,146.754 244.52,141.066 250.101,135.608 C 248.274,141.239 245.063,150.186 242.19,155.182 C 238.031,158.14 232.587,161.699 227.69,164.044 L 227.69,150.654 z M 204.592,151.881 L 204.592,140.34 C 209.49,139.32 215.017,137.611 219.344,136.104 L 219.344,118.485 L 228.484,118.485 L 228.484,132.376 C 243.557,125.19 253.032,114.843 253.103,103.35 L 264.687,103.35 C 264.853,105.778 264.812,107.642 264.812,110.126 C 264.812,163.06 226.727,206.658 177.797,206.736 C 129.37,206.371 90.754,163.06 90.754,110.126 C 90.754,107.642 90.713,105.778 90.88,103.35 L 102.463,103.35 C 102.532,114.844 112.008,125.19 127.082,132.376 L 127.082,118.485 L 136.208,118.485 L 136.208,136.104 C 140.549,137.612 146.075,139.321 150.988,140.34 L 150.988,151.881 C 143.996,150.353 136.585,147.839 130.655,145.28 C 130.655,145.28 128.085,144.183 126.831,143.535 C 124.695,142.495 122.616,141.38 120.662,140.207 C 105.045,131.358 98.011,122.19 97.328,121.458 C 102.324,165.487 136.488,199.93 177.783,200.015 C 219.789,199.93 253.228,165.488 258.252,121.458 C 257.555,122.19 250.534,131.358 234.903,140.207 C 232.935,141.38 230.884,142.495 228.734,143.535 C 227.478,144.183 226.181,144.825 224.841,145.482 C 224.842,145.483 211.556,150.353 204.592,151.881"
         style="fill:#3c474c" />
    </g>
    <text
       xml:space="preserve"
       style="font-size:12px;font-style:normal;font-weight:normal;fill:#000000;fill-opacity:1;stroke:none;stroke-width:1pt;stroke-linecap:butt;stroke-linejoin:miter;stroke-opacity:1;font-family:Bitstream Vera Sans"
       x="45.208107"
       y="48.286518"
       id="text1899"><tspan
         sodipodi:role="line"
         id="tspan1901"
         x="45.208107"
         y="48.286518"
         style="font-size:13px;font-weight:bold;font-family:Arial">KIEL</tspan></text>
    <text
       xml:space="preserve"
       style="font-size:12px;font-style:normal;font-weight:normal;fill:#000000;fill-opacity:1;stroke:none;stroke-width:1pt;stroke-linecap:butt;stroke-linejoin:miter;stroke-opacity:1;font-family:Bitstream Vera Sans"
       x="108.71692"
       y="63.280247"
       id="text1903"><tspan
         sodipodi:role="line"
         id="tspan1905"
         x="108.71692"
         y="63.280247"
         style="font-style:normal;font-variant:normal;font-weight:normal;font-stretch:normal;font-family:SteveHandwriting;-inkscape-font-specification:SteveHandwriting">ER</tspan></text>
    <path
       style="fill:none;fill-opacity:0.75;fill-rule:evenodd;stroke:#000000;stroke-width:1;stroke-linecap:butt;stroke-linejoin:miter;marker-end:url(#Arrow2Mend);stroke-miterlimit:4;stroke-dasharray:none;stroke-opacity:1"
       d="M 78.359288,49.769216 C 92.458331,49.769216 98.000701,49.769216 98.000701,49.769216"
       id="path1935"
       sodipodi:nodetypes="cc" />
    <path
       style="fill:none;fill-opacity:0.75;fill-rule:evenodd;stroke:#000000;stroke-width:1;stroke-linecap:butt;stroke-linejoin:miter;marker-end:url(#Arrow2Mend);stroke-miterlimit:4;stroke-dasharray:none;stroke-opacity:1"
       d="M 77.797167,31.552226 C 152.02814,31.239536 157.10923,31.414996 157.10923,31.414996"
       id="path1937"
       sodipodi:nodetypes="cc" />
    <path
       style="fill:none;fill-opacity:0.75;fill-rule:evenodd;stroke:#000000;stroke-width:1;stroke-linecap:butt;stroke-linejoin:miter;marker-end:url(#Arrow2Mend);stroke-miterlimit:4;stroke-dasharray:none;stroke-opacity:1"
       d="M 24.832251,68.303926 C 90.999821,68.303926 97.957271,68.303926 97.957271,68.303926"
       id="path1939"
       sodipodi:nodetypes="cc" />
    <path
       style="fill:none;fill-opacity:0.75;fill-rule:evenodd;stroke:#000000;stroke-width:1;stroke-linecap:butt;stroke-linejoin:miter;marker-end:url(#Arrow2Mend);stroke-miterlimit:4;stroke-dasharray:none;stroke-opacity:1"
       d="M 24.331138,43.643306 C 35.093864,43.643306 40.046621,43.643306 40.046621,43.643306"
       id="path1941"
       sodipodi:nodetypes="cc" />
    <path
       style="fill:none;fill-opacity:0.75;fill-rule:evenodd;stroke:#000000;stroke-width:0.99631989;stroke-linecap:butt;stroke-linejoin:miter;marker-end:url(#Arrow2Mend);stroke-miterlimit:4;stroke-dasharray:none;stroke-opacity:1"
       d="M 135.65587,58.674036 C 152.51821,58.674036 157.07902,58.792076 157.07902,58.792076"
       id="path1943"
       sodipodi:nodetypes="cc" />
    <path
       style="fill:none;fill-opacity:0.75;fill-rule:evenodd;stroke:#000000;stroke-width:1;stroke-linecap:butt;stroke-linejoin:miter;marker-end:url(#Arrow2Mend);stroke-miterlimit:4;stroke-dasharray:none;stroke-opacity:1"
       d="M 195.28741,43.646996 C 201.91372,43.646996 206.9844,43.764916 206.9844,43.764916"
       id="path1945"
       sodipodi:nodetypes="cc" />
  </g>
</svg>
