<?xml version="1.0" encoding="UTF-8" standalone="no"?>
<!-- Created with Inkscape (http://www.inkscape.org/) -->
<svg
   xmlns:dc="http://purl.org/dc/elements/1.1/"
   xmlns:cc="http://creativecommons.org/ns#"
   xmlns:rdf="http://www.w3.org/1999/02/22-rdf-syntax-ns#"
   xmlns:svg="http://www.w3.org/2000/svg"
   xmlns="http://www.w3.org/2000/svg"
   xmlns:xlink="http://www.w3.org/1999/xlink"
   xmlns:sodipodi="http://sodipodi.sourceforge.net/DTD/sodipodi-0.dtd"
   xmlns:inkscape="http://www.inkscape.org/namespaces/inkscape"
   width="250"
   height="165"
   id="svg2"
   sodipodi:version="0.32"
   inkscape:version="0.46"
   sodipodi:docbase="/home/haf/shared/kieler/trunk/common/doc/images"
   sodipodi:docname="kieler-splash.svg"
   inkscape:export-filename="/Users/haf/shared/kieler/trunk/common/doc/images/kieler-trac-logo.png"
   inkscape:export-xdpi="150"
   inkscape:export-ydpi="150"
   inkscape:output_extension="org.inkscape.output.svg.inkscape"
   version="1.0">
  <defs
     id="defs4">
    <linearGradient
       id="linearGradient3200">
      <stop
         style="stop-color:#ffffff;stop-opacity:1;"
         offset="0"
         id="stop3212" />
      <stop
         style="stop-color:#9e9eff;stop-opacity:1;"
         offset="1"
         id="stop3210" />
    </linearGradient>
    <inkscape:perspective
       sodipodi:type="inkscape:persp3d"
       inkscape:vp_x="0 : 526.18109 : 1"
       inkscape:vp_y="0 : 1000 : 0"
       inkscape:vp_z="744.09448 : 526.18109 : 1"
       inkscape:persp3d-origin="372.04724 : 350.78739 : 1"
       id="perspective38" />
    <marker
       inkscape:stockid="Arrow1Mend"
       orient="auto"
       refY="0"
       refX="0"
       id="Arrow1Mend"
       style="overflow:visible">
      <path
         id="path2998"
         d="M 0,0 L 5,-5 L -12.5,0 L 5,5 L 0,0 z"
         style="fill-rule:evenodd;stroke:#000000;stroke-width:1pt;marker-start:none"
         transform="matrix(-0.4,0,0,-0.4,-4,0)" />
    </marker>
    <marker
       inkscape:stockid="Arrow2Mend"
       orient="auto"
       refY="0"
       refX="0"
       id="Arrow2Mend"
       style="overflow:visible">
      <path
         id="path2980"
         style="font-size:12px;fill-rule:evenodd;stroke-width:0.625;stroke-linejoin:round"
         d="M 8.7185878,4.0337352 L -2.2072895,0.016013256 L 8.7185884,-4.0017078 C 6.97309,-1.6296469 6.9831476,1.6157441 8.7185878,4.0337352 z"
         transform="scale(-0.6,-0.6)" />
    </marker>
    <marker
       inkscape:stockid="Arrow2Lend"
       orient="auto"
       refY="0"
       refX="0"
       id="Arrow2Lend"
       style="overflow:visible">
      <path
         id="path2986"
         style="font-size:12px;fill-rule:evenodd;stroke-width:0.625;stroke-linejoin:round"
         d="M 8.7185878,4.0337352 L -2.2072895,0.016013256 L 8.7185884,-4.0017078 C 6.97309,-1.6296469 6.9831476,1.6157441 8.7185878,4.0337352 z"
         transform="matrix(-1.1,0,0,-1.1,-1.1,0)" />
    </marker>
    <radialGradient
       inkscape:collect="always"
       xlink:href="#linearGradient3200"
       id="radialGradient3204"
       cx="149.13931"
       cy="74.339027"
       fx="149.13931"
       fy="74.339027"
       r="124.95019"
       gradientTransform="matrix(1,0,0,0.855301,3.4012354e-8,67.682524)"
       gradientUnits="userSpaceOnUse" />
  </defs>
  <sodipodi:namedview
     id="base"
     pagecolor="#ffffff"
     bordercolor="#666666"
     borderopacity="1.0"
     gridtolerance="10000"
     guidetolerance="10"
     objecttolerance="10"
     inkscape:pageopacity="0.0"
     inkscape:pageshadow="2"
     inkscape:zoom="2.793113"
     inkscape:cx="124.06679"
     inkscape:cy="70.835371"
     inkscape:document-units="px"
     inkscape:current-layer="layer1"
     inkscape:window-width="1270"
     inkscape:window-height="945"
     inkscape:window-x="0"
     inkscape:window-y="25"
     showgrid="false" />
  <metadata
     id="metadata7">
    <rdf:RDF>
      <cc:Work
         rdf:about="">
        <dc:format>image/svg+xml</dc:format>
        <dc:type
           rdf:resource="http://purl.org/dc/dcmitype/StillImage" />
      </cc:Work>
    </rdf:RDF>
  </metadata>
  <g
     inkscape:label="Layer 1"
     inkscape:groupmode="layer"
     id="layer1"
     transform="translate(-23.8311,-24.2833)">
    <rect
       style="opacity:1;fill:url(#radialGradient3204);fill-opacity:1;fill-rule:nonzero;stroke:#9b0000;stroke-width:0;stroke-miterlimit:4;stroke-dasharray:none;stroke-opacity:1"
       id="rect2408"
       width="249.90038"
       height="213.73999"
       x="24.189129"
       y="24.394753"
       rx="0.30203557"
       ry="0.90592945" />
    <rect
       style="opacity:1;fill:#d5e5ff;fill-opacity:1;stroke:#2b0000;stroke-width:0.81815302;stroke-linecap:butt;stroke-linejoin:miter;stroke-miterlimit:4;stroke-dasharray:none;stroke-opacity:1"
       id="rect1927"
       width="36.378059"
       height="37.882584"
       x="131.15471"
       y="72.645111"
       rx="0.38987687"
       ry="0.66313428" />
    <rect
       style="opacity:1;fill:#d5e5ff;fill-opacity:1;stroke:#2b0000;stroke-width:0.81815302;stroke-linecap:butt;stroke-linejoin:miter;stroke-miterlimit:4;stroke-dasharray:none;stroke-opacity:1"
       id="rect1925"
       width="36.378059"
       height="37.882584"
       x="73.153526"
       y="57.630562"
       rx="0.38987687"
       ry="0.66313428" />
    <text
       xml:space="preserve"
       style="font-size:12px;font-style:normal;font-weight:normal;fill:#000000;fill-opacity:1;stroke:none;stroke-width:1pt;stroke-linecap:butt;stroke-linejoin:miter;stroke-opacity:1;font-family:Bitstream Vera Sans"
       x="29.821993"
       y="126.96958"
       id="text1907"><tspan
         sodipodi:role="line"
         x="29.821993"
         y="126.96958"
         id="tspan1911"><tspan
   style="font-weight:bold"
   id="tspan3018">K</tspan>iel <tspan
   style="font-weight:bold"
   id="tspan3020">I</tspan>ntegrated <tspan
   style="font-weight:bold"
   id="tspan3022">E</tspan>nvironment for <tspan
   style="font-weight:bold"
   id="tspan3024">L</tspan>ayout</tspan></text>
    <path
       style="font-size:12px;font-style:normal;font-weight:normal;fill:#8a8a8a;fill-opacity:1;stroke:none;stroke-width:1pt;stroke-linecap:butt;stroke-linejoin:miter;stroke-opacity:1;font-family:Bitstream Vera Sans"
       d="M 95.434423,134.7276 L 95.434423,135.32526 L 94.746923,135.32526 C 94.489113,135.32526 94.309423,135.37735 94.207863,135.4815 C 94.108903,135.58568 94.059423,135.77318 94.059423,136.044 L 94.059423,136.43072 L 95.243013,136.43072 L 95.243013,136.98932 L 94.059423,136.98932 L 94.059423,140.80573 L 93.336763,140.80573 L 93.336763,136.98932 L 92.649263,136.98932 L 92.649263,136.43072 L 93.336763,136.43072 L 93.336763,136.12604 C 93.336763,135.63906 93.450043,135.2849 93.676613,135.06354 C 93.903173,134.83959 94.262543,134.72761 94.754733,134.7276 L 95.434423,134.7276 M 101.3818,139.04573 C 101.3978,139.14173 101.4058,139.23506 101.4058,139.32573 C 101.4058,139.72573 101.2218,140.03773 100.8538,140.26173 C 100.48579,140.48039 100.04846,140.62706 99.541793,140.70173 C 99.040463,140.77639 98.525793,140.81373 97.997793,140.81373 C 97.325793,140.81373 96.704463,140.63506 96.133793,140.27773 C 95.563133,139.91506 95.277793,139.48839 95.277793,138.99773 C 95.277793,138.86439 95.339133,138.6324 95.461793,138.30173 C 95.589793,137.96573 95.763133,137.65906 95.981793,137.38173 C 96.200463,137.09906 96.720463,136.84839 97.541793,136.62972 C 97.568463,136.55506 97.597793,136.47239 97.629793,136.38172 C 97.661793,136.28573 97.720463,136.17639 97.805793,136.05372 C 98.125793,136.18706 98.563123,136.44039 99.117793,136.81372 C 99.672463,137.18173 100.17379,137.5764 100.62179,137.99773 C 101.0698,138.41373 101.32313,138.76306 101.3818,139.04573 M 100.8698,139.65373 C 100.8698,139.37639 100.68579,139.07506 100.31779,138.74973 C 99.955123,138.41906 99.544463,138.10973 99.085793,137.82173 C 98.627123,137.53373 98.387123,137.38973 98.365793,137.38973 C 98.365793,137.59773 98.307123,137.77106 98.189793,137.90973 C 98.072463,138.04306 97.845793,138.10973 97.509793,138.10973 C 97.376463,138.10973 97.283133,138.0964 97.229793,138.06973 C 97.176463,138.03773 97.107133,137.95506 97.021793,137.82173 C 96.707133,137.9444 96.477793,138.12573 96.333793,138.36573 C 96.189793,138.60573 96.072463,138.83773 95.981793,139.06173 C 95.981793,139.50439 96.256463,139.83773 96.805793,140.06173 C 97.355133,140.28573 97.907133,140.39773 98.461793,140.39773 C 99.245793,140.39773 99.800463,140.34973 100.12579,140.25373 C 100.45646,140.15239 100.70446,139.95239 100.8698,139.65373 M 105.37118,136.62972 C 105.16851,136.67239 105.00051,136.73106 104.86718,136.80572 C 104.73918,136.87506 104.63518,136.90973 104.55518,136.90972 C 104.44851,136.90973 104.35784,136.83506 104.28318,136.68572 C 104.20851,136.53106 104.12051,136.45373 104.01918,136.45372 C 103.76851,136.45373 103.48051,136.69373 103.15518,137.17372 C 102.82984,137.6484 102.66718,138.1444 102.66718,138.66173 C 102.66718,138.86439 102.69918,139.06173 102.76318,139.25373 L 102.76318,140.86973 L 102.30718,140.86973 C 102.18985,140.86973 102.02451,140.58173 101.81118,140.00573 C 101.60318,139.42973 101.49918,138.75773 101.49918,137.98973 C 101.49918,137.90973 101.49651,137.81106 101.49118,137.69373 C 101.48585,137.57106 101.48318,137.4884 101.48318,137.44573 C 101.48318,137.28573 101.50451,137.15773 101.54718,137.06172 C 101.59518,136.96573 101.69918,136.85373 101.85918,136.72572 L 102.12318,136.72572 C 102.14985,136.81106 102.16585,136.88039 102.17118,136.93372 C 102.17651,136.98706 102.17918,137.05106 102.17918,137.12572 C 102.17918,137.20039 102.16851,137.2884 102.14718,137.38973 C 102.12585,137.49106 102.11518,137.5604 102.11518,137.59773 C 102.11518,137.67773 102.14985,137.7764 102.21918,137.89373 C 102.50718,137.16306 102.82984,136.63773 103.18718,136.31772 C 103.54984,135.99239 103.91784,135.82973 104.29118,135.82972 C 104.30184,135.82973 104.43251,135.88039 104.68318,135.98172 C 104.93384,136.07773 105.16318,136.14439 105.37118,136.18172 L 105.37118,136.62972 M 112.5128,139.33373 C 112.5128,139.42973 112.47013,139.52306 112.3848,139.61373 C 112.29947,139.70439 112.19813,139.74973 112.0808,139.74973 L 111.1848,139.38973 L 111.0328,139.38973 L 111.0328,140.87773 L 110.6488,140.87773 C 110.5048,140.84573 110.19547,140.60039 109.7208,140.14173 C 109.24614,139.68306 109.0088,139.37373 109.0088,139.21373 C 109.0088,139.02706 109.2328,138.92306 109.6808,138.90173 C 110.13414,138.88039 110.3608,138.78706 110.3608,138.62173 C 110.3608,138.44573 110.30747,138.14706 110.2008,137.72573 C 110.09947,137.29906 110.0488,137.04573 110.0488,136.96572 L 109.0488,134.19773 C 109.1288,134.0644 109.1928,133.97373 109.2408,133.92573 C 109.2888,133.87773 109.3528,133.85373 109.4328,133.85373 C 109.52347,133.85373 109.73147,134.28573 110.0568,135.14973 C 110.38214,136.01373 110.5848,136.66439 110.6648,137.10172 L 110.9608,138.69373 C 111.03547,138.76306 111.3128,138.85106 111.7928,138.95773 C 112.2728,139.06439 112.5128,139.18973 112.5128,139.33373 M 110.3688,140.26173 L 110.3608,139.34973 L 110.1688,139.33373 C 110.09414,139.33373 110.0248,139.33906 109.9608,139.34973 C 109.8968,139.35506 109.8648,139.38439 109.8648,139.43773 C 109.8648,139.51773 109.93414,139.64306 110.0728,139.81373 C 110.2168,139.98439 110.31547,140.13373 110.3688,140.26173 M 115.27955,141.10173 C 115.10355,141.18706 114.95422,141.26706 114.83155,141.34173 C 114.70889,141.41639 114.64489,141.45373 114.63955,141.45373 C 114.34622,141.45373 114.12222,141.20573 113.96755,140.70973 C 113.81822,140.21373 113.67422,139.89373 113.53555,139.74973 C 113.43955,139.82439 113.30889,139.98173 113.14355,140.22173 C 112.97822,140.45639 112.74089,140.65373 112.43155,140.81373 C 112.37822,140.69106 112.33822,140.54439 112.31155,140.37373 C 112.28489,140.20306 112.27155,140.04306 112.27155,139.89373 C 112.27155,139.70173 112.28222,139.53906 112.30355,139.40573 C 112.32489,139.26706 112.34622,139.14706 112.36755,139.04573 C 112.33022,139.03506 112.29022,139.01906 112.24755,138.99773 C 112.21022,138.97106 112.17822,138.91506 112.15155,138.82973 C 112.09822,138.5204 112.03155,138.14173 111.95155,137.69373 C 111.87689,137.24573 111.78622,136.70973 111.67955,136.08572 C 111.56755,135.4564 111.51155,135.11773 111.51155,135.06973 C 111.51155,135.0324 111.49555,134.95507 111.46355,134.83773 C 111.42622,134.71507 111.40756,134.62973 111.40755,134.58173 C 111.40756,134.5124 111.42089,134.44307 111.44755,134.37373 C 111.46889,134.3044 111.51422,134.22707 111.58355,134.14173 C 111.79689,134.18973 111.94089,134.3764 112.01555,134.70173 C 112.10622,135.4164 112.19955,136.12839 112.29555,136.83772 C 112.36489,137.13639 112.43422,137.55506 112.50355,138.09373 C 112.57822,138.62706 112.61555,139.06706 112.61555,139.41373 C 112.61555,139.63239 112.60222,139.79239 112.57555,139.89373 L 112.79155,139.89373 C 112.95689,139.79773 113.10355,139.59773 113.23155,139.29373 C 113.35955,138.98439 113.51955,138.82973 113.71155,138.82973 C 113.89822,138.82973 114.03155,139.05639 114.11155,139.50973 C 114.19689,139.95773 114.29555,140.29906 114.40755,140.53373 C 114.52489,140.76839 114.81555,140.88573 115.27955,140.88573 L 115.27955,141.10173 M 120.86818,140.54173 C 120.86817,140.63773 120.81217,140.74706 120.70018,140.86973 C 120.58817,140.99773 120.43617,141.06173 120.24418,141.06173 C 119.96684,141.06173 119.34818,140.96306 118.38818,140.76573 C 117.43351,140.56306 116.76684,140.37373 116.38818,140.19773 C 116.01485,140.01639 115.75351,139.86439 115.60418,139.74173 C 115.45485,139.61373 115.25751,139.40039 115.01218,139.10173 C 114.88951,139.11773 114.77751,139.12573 114.67618,139.12573 C 114.36151,139.12573 114.10018,139.04573 113.89218,138.88573 C 113.68418,138.7204 113.58018,138.5444 113.58018,138.35773 C 113.58018,138.24573 113.62818,138.15506 113.72418,138.08573 C 113.81485,138.01106 113.94018,137.96306 114.10018,137.94173 C 114.13218,137.97373 114.19618,138.03773 114.29218,138.13373 C 114.38818,138.2244 114.46285,138.29106 114.51618,138.33373 L 115.14018,138.35773 C 115.14018,137.81906 115.35885,137.38706 115.79618,137.06172 C 116.23351,136.73106 116.67084,136.50173 117.10818,136.37372 C 117.54551,136.24039 117.84418,136.16839 118.00418,136.15772 C 118.16951,136.14173 118.31884,136.13106 118.45218,136.12572 C 118.95351,136.12573 119.39351,136.24039 119.77218,136.46972 C 120.15617,136.69373 120.34817,136.97639 120.34818,137.31773 C 120.34817,137.49373 120.19884,137.7124 119.90018,137.97373 C 119.60684,138.22973 119.15618,138.4564 118.54818,138.65373 C 117.94018,138.85106 117.19084,138.94973 116.30018,138.94973 C 116.22551,138.93906 116.17485,138.93373 116.14818,138.93373 C 116.07351,138.93373 116.03618,138.95239 116.03618,138.98973 C 116.03618,139.02706 116.08151,139.08839 116.17218,139.17373 C 116.26818,139.25906 116.35618,139.33373 116.43618,139.39773 C 116.76684,139.60039 117.09751,139.80039 117.42818,139.99773 C 117.89751,140.15773 118.48684,140.23773 119.19618,140.23773 C 119.45751,140.23773 119.62017,140.18173 119.68418,140.06973 C 119.74817,139.95239 119.90017,139.86706 120.14018,139.81373 L 120.45218,139.81373 L 120.86818,140.54173 M 119.62018,137.46973 C 119.52418,137.19239 119.36151,137.01106 119.13218,136.92572 C 118.90284,136.84039 118.54551,136.79773 118.06018,136.79772 C 117.48951,136.79773 117.00951,136.94173 116.62018,137.22972 C 116.23085,137.5124 115.91085,137.92306 115.66018,138.46173 C 115.74018,138.42973 115.80151,138.41373 115.84418,138.41373 C 115.87618,138.41373 115.91618,138.42173 115.96418,138.43773 C 116.01218,138.45373 116.04951,138.46173 116.07618,138.46173 C 116.72151,138.46173 117.45751,138.3524 118.28418,138.13373 C 119.11084,137.91506 119.55618,137.69373 119.62018,137.46973 M 132.18405,134.44573 C 131.97071,134.57373 131.77605,134.66707 131.60005,134.72573 C 131.42405,134.77907 131.26405,134.80573 131.12005,134.80573 C 131.11471,134.80573 130.89605,134.7764 130.46405,134.71773 C 130.03738,134.65907 129.67738,134.62973 129.38405,134.62973 C 129.09605,134.62973 128.85338,134.6404 128.65605,134.66173 C 128.46405,134.68307 128.31205,134.70707 128.20005,134.73373 C 128.09338,134.7604 127.86938,134.80573 127.52805,134.86973 C 127.18672,134.93373 126.76005,135.0084 126.24805,135.09373 C 125.67739,135.25373 125.39205,135.54973 125.39205,135.98172 C 125.32805,136.09906 125.26405,136.25906 125.20005,136.46172 C 125.13605,136.66439 125.10405,136.98173 125.10405,137.41373 C 125.07205,137.39773 125.04005,137.4084 125.00805,137.44573 C 124.98139,137.48306 124.96805,137.57106 124.96805,137.70973 C 124.96805,137.77373 124.97072,137.85106 124.97605,137.94173 C 124.98139,138.0324 124.99205,138.1444 125.00805,138.27773 C 125.38672,138.19773 125.66672,138.1444 125.84805,138.11773 C 126.02939,138.09106 126.16805,138.07773 126.26405,138.07773 C 126.29605,138.07773 126.32272,138.0804 126.34405,138.08573 L 129.69605,137.70173 L 130.08005,137.70173 C 129.95738,138.05373 129.44538,138.30706 128.54405,138.46173 C 127.74938,138.5524 126.94405,138.64573 126.12805,138.74173 C 125.31739,138.8324 124.91205,138.99506 124.91205,139.22973 C 124.91205,139.53373 125.14405,139.81906 125.60805,140.08573 C 126.07205,140.34706 126.73339,140.47773 127.59205,140.47773 C 128.01872,140.47773 128.56005,140.41373 129.21605,140.28573 C 129.87205,140.15773 130.28538,140.09373 130.45605,140.09373 C 130.36538,140.40839 130.20538,140.61639 129.97605,140.71773 C 129.75205,140.81906 129.44805,140.86973 129.06405,140.86973 C 128.98405,140.86973 128.85338,140.86706 128.67205,140.86173 C 128.49072,140.85639 128.35205,140.85373 128.25605,140.85373 L 127.11205,140.85373 C 126.06139,140.85373 125.30405,140.71506 124.84005,140.43773 C 124.38139,140.15506 124.15205,139.59239 124.15205,138.74973 C 124.15205,138.3604 124.19739,137.94173 124.28805,137.49373 C 124.38405,137.04573 124.43205,136.79506 124.43205,136.74172 C 124.43205,136.73106 124.44539,136.70706 124.47205,136.66972 C 124.50405,136.63239 124.52005,136.56839 124.52005,136.47772 C 124.52005,136.43506 124.51739,136.38173 124.51205,136.31772 C 124.50672,136.24839 124.49605,136.16839 124.48005,136.07772 C 124.16005,135.94439 123.97872,135.86973 123.93605,135.85372 C 123.88805,135.83773 123.86405,135.7844 123.86405,135.69372 C 123.86405,135.46973 124.14139,135.2324 124.69605,134.98173 C 125.25605,134.72573 125.90405,134.50973 126.64005,134.33373 C 127.38138,134.15773 127.98405,134.06973 128.44805,134.06973 C 129.22138,134.06973 129.83472,134.0724 130.28805,134.07773 C 130.74138,134.08307 131.16538,134.0884 131.56005,134.09373 L 131.67205,134.09373 C 131.90671,134.09373 132.07738,134.08573 132.18405,134.06973 L 132.18405,134.44573 M 138.35055,139.86973 C 137.39055,140.33906 136.77988,140.63239 136.51855,140.74973 C 136.26255,140.86706 135.73188,140.92573 134.92655,140.92573 C 133.89189,140.92573 133.03322,140.77106 132.35055,140.46173 C 131.66789,140.14706 131.32655,139.59773 131.32655,138.81373 C 131.32655,138.68573 131.45989,138.4084 131.72655,137.98173 C 131.99855,137.55506 132.37989,137.16306 132.87055,136.80572 C 133.36122,136.44839 133.93989,136.26973 134.60655,136.26972 C 134.72922,136.26973 134.90255,136.31773 135.12655,136.41372 C 135.35055,136.50439 135.52922,136.59773 135.66255,136.69372 L 135.66255,137.01372 C 135.58255,137.02973 135.51322,137.03773 135.45455,137.03772 C 135.40122,137.03773 135.25188,137.03506 135.00655,137.02972 C 134.76122,137.01906 134.55588,137.01373 134.39055,137.01372 C 133.76655,137.01373 133.22255,137.20839 132.75855,137.59773 C 132.29989,137.98706 132.07055,138.42706 132.07055,138.91773 C 132.07055,139.26439 132.33989,139.59773 132.87855,139.91773 C 133.42255,140.23773 134.06789,140.39773 134.81455,140.39773 C 135.35322,140.39773 135.81455,140.33106 136.19855,140.19773 C 136.58788,140.05906 136.92122,139.89106 137.19855,139.69373 C 137.29988,139.61373 137.40122,139.53106 137.50255,139.44573 C 137.51855,139.44573 137.59588,139.49106 137.73455,139.58173 C 137.87321,139.66706 138.07855,139.76306 138.35055,139.86973 M 138.2723,140.54973 C 138.25097,140.60839 138.2243,140.66706 138.1923,140.72573 C 138.1603,140.78439 138.1203,140.81373 138.0723,140.81373 C 137.98164,140.81373 137.89897,140.71506 137.8243,140.51773 C 137.74964,140.31506 137.6723,140.02439 137.5923,139.64573 C 137.5123,139.26706 137.3923,138.68573 137.2323,137.90173 C 137.07764,137.11239 136.97097,136.55506 136.9123,136.22972 C 136.85364,135.89906 136.8243,135.37107 136.8243,134.64573 C 136.81897,134.5764 136.8163,134.51507 136.8163,134.46173 C 136.8163,134.32307 136.8323,134.21107 136.8643,134.12573 C 136.90164,134.0404 136.9763,133.99773 137.0883,133.99773 C 137.17897,133.99773 137.23497,134.03773 137.2563,134.11773 C 137.28297,134.1924 137.2963,134.3364 137.2963,134.54973 L 137.2963,134.98973 C 137.2963,135.43773 137.30964,135.8324 137.3363,136.17372 C 137.3683,136.50973 137.4163,136.87506 137.4803,137.26973 C 137.5443,137.54173 137.63764,137.92306 137.7603,138.41373 C 137.88297,138.90439 137.99764,139.37639 138.1043,139.82973 C 138.2163,140.27773 138.2723,140.51773 138.2723,140.54973 M 140.09993,133.90173 C 140.09993,134.11507 140.06526,134.2564 139.99593,134.32573 C 139.93193,134.38973 139.79859,134.45107 139.59593,134.50973 C 139.56926,134.46173 139.53726,134.35773 139.49993,134.19773 C 139.46793,134.0324 139.45193,133.89373 139.45193,133.78173 C 139.45193,133.68573 139.4626,133.61373 139.48393,133.56573 C 139.50526,133.51773 139.5426,133.49373 139.59593,133.49373 C 139.78793,133.49373 139.91859,133.51773 139.98793,133.56573 C 140.06259,133.6084 140.09993,133.7204 140.09993,133.90173 M 143.23593,138.76573 C 143.23592,139.24039 142.88393,139.66173 142.17993,140.02973 C 141.48126,140.39773 140.81993,140.58173 140.19593,140.58173 C 139.76926,140.58173 139.50526,140.50973 139.40393,140.36573 C 139.3026,140.22173 139.17726,139.88839 139.02793,139.36573 C 138.96393,139.38173 138.89993,139.41106 138.83593,139.45373 C 138.77726,139.49106 138.72393,139.53106 138.67593,139.57373 L 137.76393,139.57373 L 137.76393,139.06973 C 138.37193,138.90973 138.7746,138.70706 138.97193,138.46173 C 139.1746,138.2164 139.32126,137.8724 139.41193,137.42973 C 139.5026,136.98706 139.61459,136.65106 139.74793,136.42172 C 139.91859,136.49106 140.08926,136.55773 140.25993,136.62172 C 140.36659,136.66973 140.49993,136.77106 140.65993,136.92572 C 140.38793,137.26173 140.17459,137.63773 140.01993,138.05373 C 139.86526,138.46973 139.78793,138.87506 139.78793,139.26973 C 139.78793,139.52039 139.84393,139.71773 139.95593,139.86173 C 140.06793,140.00573 140.21459,140.07773 140.39593,140.07773 C 140.50793,140.07773 140.77993,140.02706 141.21193,139.92573 C 141.64926,139.82439 142.05993,139.66173 142.44393,139.43773 C 142.83326,139.21373 143.02792,138.92039 143.02793,138.55773 C 143.08659,138.54173 143.12926,138.53373 143.15593,138.53373 C 143.19326,138.53373 143.21992,138.54173 143.23593,138.55773 C 143.25192,138.57373 143.25992,138.6004 143.25993,138.63773 C 143.25992,138.66973 143.25726,138.6964 143.25193,138.71773 C 143.25192,138.73373 143.24659,138.74973 143.23593,138.76573 M 146.34918,138.30173 C 146.34918,138.63773 146.19984,138.92039 145.90118,139.14973 C 145.60784,139.37906 145.19984,139.49373 144.67718,139.49373 C 144.54384,139.49373 144.39718,139.47773 144.23718,139.44573 C 144.07718,139.41373 143.96251,139.39773 143.89318,139.39773 C 143.82385,139.39773 143.75985,139.40573 143.70118,139.42173 C 143.64785,139.43239 143.57585,139.45639 143.48518,139.49373 L 143.48518,139.81373 C 143.50651,139.87773 143.57051,140.21639 143.67718,140.82973 C 143.78385,141.44839 143.85051,141.82439 143.87718,141.95773 C 143.93584,142.18172 143.99451,142.40839 144.05318,142.63773 C 144.04784,142.69106 144.04251,142.74706 144.03718,142.80573 C 144.05318,142.82172 144.06918,142.83772 144.08518,142.85373 C 144.10118,142.87506 144.10918,142.89639 144.10918,142.91773 C 144.10918,142.96039 144.06918,142.99506 143.98918,143.02173 C 143.91451,143.05372 143.77318,143.06972 143.56518,143.06973 C 143.54385,143.06972 143.45585,142.96039 143.30118,142.74173 C 143.15185,142.52839 143.01051,142.22972 142.87718,141.84573 C 142.74918,141.46706 142.68518,141.02706 142.68518,140.52573 L 142.68518,139.81373 C 142.68518,138.7204 142.75185,137.85106 142.88518,137.20572 C 143.02385,136.55506 143.40785,136.22973 144.03718,136.22972 C 144.51718,136.22973 145.02118,136.45639 145.54918,136.90972 C 146.08251,137.36306 146.34918,137.82706 146.34918,138.30173 M 145.78918,138.38173 C 145.78918,138.0084 145.59184,137.6724 145.19718,137.37373 C 144.80251,137.07506 144.44251,136.90706 144.11718,136.86972 L 143.56518,137.06172 C 143.52251,137.22706 143.50118,137.36573 143.50118,137.47773 C 143.51718,137.66973 143.53051,137.8724 143.54118,138.08573 C 143.55718,138.29373 143.56518,138.49906 143.56518,138.70173 C 143.68251,138.71773 143.87451,138.7604 144.14118,138.82973 C 144.40784,138.89906 144.66651,138.93373 144.91718,138.93373 C 145.27451,138.93373 145.50918,138.90173 145.62118,138.83773 C 145.73318,138.7684 145.78918,138.6164 145.78918,138.38173 M 152.16893,139.90973 C 152.16892,140.03773 152.03292,140.20839 151.76093,140.42173 C 151.48892,140.63506 151.16359,140.74173 150.78493,140.74173 L 148.75293,140.74173 C 148.19826,140.67773 147.6436,140.59773 147.08893,140.50173 C 146.53426,140.40039 146.25693,140.26706 146.25693,140.10173 C 146.25693,139.95773 146.30226,139.85373 146.39293,139.78973 C 146.47826,139.72573 146.86493,139.52306 147.55293,139.18173 L 147.92893,139.18173 L 147.92893,139.45373 C 147.67293,139.57106 147.51826,139.64839 147.46493,139.68573 C 147.4116,139.73906 147.35026,139.79773 147.28093,139.86173 C 147.41426,139.99506 147.69693,140.11506 148.12893,140.22173 C 148.56626,140.32306 149.08359,140.37373 149.68093,140.37373 C 150.00626,140.35239 150.35026,140.31506 150.71293,140.26173 C 151.07559,140.20306 151.34759,140.08573 151.52893,139.90973 C 151.27826,139.72306 150.65693,139.48306 149.66493,139.18973 C 148.67293,138.89639 147.90493,138.59773 147.36093,138.29373 C 146.81693,137.98973 146.54493,137.5444 146.54493,136.95772 C 146.54493,136.53106 146.63826,136.27239 146.82493,136.18172 C 147.0116,136.08573 147.3476,136.03773 147.83293,136.03772 C 148.17426,136.03773 148.42493,136.05639 148.58493,136.09372 C 148.74493,136.13106 148.89159,136.20573 149.02493,136.31772 L 149.02493,136.59772 C 148.75293,136.70973 148.57693,136.76573 148.49693,136.76572 C 148.45959,136.76573 148.43559,136.73906 148.42493,136.68572 C 148.41426,136.62706 148.36893,136.59773 148.28893,136.59772 C 148.04359,136.68306 147.79559,136.77639 147.54493,136.87772 C 147.2996,136.97373 147.17693,137.06173 147.17693,137.14172 C 147.17693,137.5524 147.40893,137.85906 147.87293,138.06173 C 148.34226,138.25906 149.17426,138.56306 150.36893,138.97373 C 151.56892,139.37906 152.16892,139.69106 152.16893,139.90973 M 157.8838,140.54173 C 157.8838,140.63773 157.8278,140.74706 157.7158,140.86973 C 157.6038,140.99773 157.4518,141.06173 157.2598,141.06173 C 156.98247,141.06173 156.3638,140.96306 155.4038,140.76573 C 154.44914,140.56306 153.78247,140.37373 153.4038,140.19773 C 153.03047,140.01639 152.76914,139.86439 152.6198,139.74173 C 152.47047,139.61373 152.27314,139.40039 152.0278,139.10173 C 151.90514,139.11773 151.79314,139.12573 151.6918,139.12573 C 151.37714,139.12573 151.11581,139.04573 150.9078,138.88573 C 150.69981,138.7204 150.59581,138.5444 150.5958,138.35773 C 150.59581,138.24573 150.64381,138.15506 150.7398,138.08573 C 150.83047,138.01106 150.95581,137.96306 151.1158,137.94173 C 151.14781,137.97373 151.21181,138.03773 151.3078,138.13373 C 151.40381,138.2244 151.47847,138.29106 151.5318,138.33373 L 152.1558,138.35773 C 152.1558,137.81906 152.37447,137.38706 152.8118,137.06172 C 153.24914,136.73106 153.68647,136.50173 154.1238,136.37372 C 154.56114,136.24039 154.8598,136.16839 155.0198,136.15772 C 155.18513,136.14173 155.33447,136.13106 155.4678,136.12572 C 155.96913,136.12573 156.40913,136.24039 156.7878,136.46972 C 157.1718,136.69373 157.3638,136.97639 157.3638,137.31773 C 157.3638,137.49373 157.21447,137.7124 156.9158,137.97373 C 156.62247,138.22973 156.1718,138.4564 155.5638,138.65373 C 154.9558,138.85106 154.20647,138.94973 153.3158,138.94973 C 153.24114,138.93906 153.19047,138.93373 153.1638,138.93373 C 153.08914,138.93373 153.0518,138.95239 153.0518,138.98973 C 153.0518,139.02706 153.09714,139.08839 153.1878,139.17373 C 153.2838,139.25906 153.3718,139.33373 153.4518,139.39773 C 153.78247,139.60039 154.11314,139.80039 154.4438,139.99773 C 154.91314,140.15773 155.50247,140.23773 156.2118,140.23773 C 156.47313,140.23773 156.6358,140.18173 156.6998,140.06973 C 156.7638,139.95239 156.9158,139.86706 157.1558,139.81373 L 157.4678,139.81373 L 157.8838,140.54173 M 156.6358,137.46973 C 156.5398,137.19239 156.37713,137.01106 156.1478,136.92572 C 155.91847,136.84039 155.56113,136.79773 155.0758,136.79772 C 154.50514,136.79773 154.02514,136.94173 153.6358,137.22972 C 153.24647,137.5124 152.92647,137.92306 152.6758,138.46173 C 152.7558,138.42973 152.81714,138.41373 152.8598,138.41373 C 152.8918,138.41373 152.9318,138.42173 152.9798,138.43773 C 153.0278,138.45373 153.06514,138.46173 153.0918,138.46173 C 153.73714,138.46173 154.47314,138.3524 155.2998,138.13373 C 156.12647,137.91506 156.5718,137.69373 156.6358,137.46973 M 168.26368,141.06173 C 168.26367,141.20573 168.24501,141.29106 168.20768,141.31773 C 168.17034,141.34973 168.08501,141.36573 167.95168,141.36573 C 167.86634,141.36573 167.50367,141.25106 166.86368,141.02173 C 166.22367,140.79239 165.87167,140.67773 165.80768,140.67773 C 165.78101,140.67773 165.59434,140.60839 165.24768,140.46973 C 164.90101,140.32573 164.52768,140.13906 164.12768,139.90973 C 163.73301,139.67506 163.37301,139.39506 163.04768,139.06973 C 163.48501,138.86173 163.88768,138.64573 164.25568,138.42173 C 164.62901,138.19773 164.81568,137.77373 164.81568,137.14972 C 164.81568,136.64306 164.61034,136.21106 164.19968,135.85372 C 163.79434,135.49106 163.43701,135.30973 163.12768,135.30973 C 162.91434,135.30973 162.73301,135.49106 162.58368,135.85372 C 162.43435,136.21106 162.35968,136.61906 162.35968,137.07772 C 162.35968,137.21106 162.41835,137.55506 162.53568,138.10973 C 162.65301,138.6644 162.77834,139.24306 162.91168,139.84573 C 163.05034,140.44839 163.12234,140.74973 163.12768,140.74973 L 163.12768,141.06173 L 162.67168,141.06173 C 162.43168,140.75773 162.25035,140.25106 162.12768,139.54173 C 162.00501,138.82706 161.89301,138.1524 161.79168,137.51773 C 161.64768,136.89373 161.42901,136.55506 161.13568,136.50172 C 161.15701,136.42706 161.18368,136.24839 161.21568,135.96572 C 161.24235,135.68306 161.37035,135.54173 161.59968,135.54172 C 161.61568,135.54173 161.66635,135.56306 161.75168,135.60572 C 161.83701,135.6484 161.93835,135.7044 162.05568,135.77372 C 162.17835,135.5604 162.30368,135.3444 162.43168,135.12573 C 162.62368,134.89107 162.88234,134.77373 163.20768,134.77373 C 163.71434,134.77373 164.19701,135.0404 164.65568,135.57372 C 165.11968,136.10706 165.35168,136.60839 165.35168,137.07772 C 165.35168,137.44573 165.21568,137.81373 164.94368,138.18173 C 164.64501,138.5284 164.34634,138.87506 164.04768,139.22173 C 164.04768,139.32306 164.30901,139.46973 164.83168,139.66173 C 165.35434,139.85373 165.81567,140.04306 166.21568,140.22973 C 166.62101,140.41106 166.94901,140.53106 167.19968,140.58973 C 167.45567,140.64839 167.71967,140.67773 167.99168,140.67773 L 168.26368,140.67773 C 168.37567,140.67773 168.43167,140.71239 168.43168,140.78173 C 168.43167,140.83506 168.41034,140.88839 168.36768,140.94173 C 168.32501,140.99506 168.29034,141.03506 168.26368,141.06173 M 168.94368,133.90173 C 168.94368,134.11507 168.90901,134.2564 168.83968,134.32573 C 168.77568,134.38973 168.64234,134.45107 168.43968,134.50973 C 168.41301,134.46173 168.38101,134.35773 168.34368,134.19773 C 168.31168,134.0324 168.29568,133.89373 168.29568,133.78173 C 168.29568,133.68573 168.30635,133.61373 168.32768,133.56573 C 168.34901,133.51773 168.38635,133.49373 168.43968,133.49373 C 168.63168,133.49373 168.76234,133.51773 168.83168,133.56573 C 168.90634,133.6084 168.94368,133.7204 168.94368,133.90173 M 172.07968,138.76573 C 172.07967,139.24039 171.72768,139.66173 171.02368,140.02973 C 170.32501,140.39773 169.66368,140.58173 169.03968,140.58173 C 168.61301,140.58173 168.34901,140.50973 168.24768,140.36573 C 168.14635,140.22173 168.02101,139.88839 167.87168,139.36573 C 167.80768,139.38173 167.74368,139.41106 167.67968,139.45373 C 167.62101,139.49106 167.56768,139.53106 167.51968,139.57373 L 166.60768,139.57373 L 166.60768,139.06973 C 167.21568,138.90973 167.61835,138.70706 167.81568,138.46173 C 168.01835,138.2164 168.16501,137.8724 168.25568,137.42973 C 168.34635,136.98706 168.45834,136.65106 168.59168,136.42172 C 168.76234,136.49106 168.93301,136.55773 169.10368,136.62172 C 169.21034,136.66973 169.34368,136.77106 169.50368,136.92572 C 169.23168,137.26173 169.01834,137.63773 168.86368,138.05373 C 168.70901,138.46973 168.63168,138.87506 168.63168,139.26973 C 168.63168,139.52039 168.68768,139.71773 168.79968,139.86173 C 168.91168,140.00573 169.05834,140.07773 169.23968,140.07773 C 169.35168,140.07773 169.62368,140.02706 170.05568,139.92573 C 170.49301,139.82439 170.90368,139.66173 171.28768,139.43773 C 171.67701,139.21373 171.87167,138.92039 171.87168,138.55773 C 171.93034,138.54173 171.97301,138.53373 171.99968,138.53373 C 172.03701,138.53373 172.06367,138.54173 172.07968,138.55773 C 172.09567,138.57373 172.10367,138.6004 172.10368,138.63773 C 172.10367,138.66973 172.10101,138.6964 172.09568,138.71773 C 172.09567,138.73373 172.09034,138.74973 172.07968,138.76573 M 178.58493,139.86973 C 177.62492,140.33906 177.01426,140.63239 176.75293,140.74973 C 176.49692,140.86706 175.96626,140.92573 175.16093,140.92573 C 174.12626,140.92573 173.26759,140.77106 172.58493,140.46173 C 171.90226,140.14706 171.56093,139.59773 171.56093,138.81373 C 171.56093,138.68573 171.69426,138.4084 171.96093,137.98173 C 172.23293,137.55506 172.61426,137.16306 173.10493,136.80572 C 173.59559,136.44839 174.17426,136.26973 174.84093,136.26972 C 174.96359,136.26973 175.13693,136.31773 175.36093,136.41372 C 175.58493,136.50439 175.76359,136.59773 175.89693,136.69372 L 175.89693,137.01372 C 175.81693,137.02973 175.74759,137.03773 175.68893,137.03772 C 175.63559,137.03773 175.48626,137.03506 175.24093,137.02972 C 174.99559,137.01906 174.79026,137.01373 174.62493,137.01372 C 174.00093,137.01373 173.45693,137.20839 172.99293,137.59773 C 172.53426,137.98706 172.30493,138.42706 172.30493,138.91773 C 172.30493,139.26439 172.57426,139.59773 173.11293,139.91773 C 173.65693,140.23773 174.30226,140.39773 175.04893,140.39773 C 175.58759,140.39773 176.04893,140.33106 176.43293,140.19773 C 176.82226,140.05906 177.15559,139.89106 177.43293,139.69373 C 177.53426,139.61373 177.63559,139.53106 177.73693,139.44573 C 177.75292,139.44573 177.83026,139.49106 177.96893,139.58173 C 178.10759,139.66706 178.31292,139.76306 178.58493,139.86973 M 180.48268,141.10173 C 180.30668,141.18706 180.15734,141.26706 180.03468,141.34173 C 179.91201,141.41639 179.84801,141.45373 179.84268,141.45373 C 179.54934,141.45373 179.32534,141.20573 179.17068,140.70973 C 179.02134,140.21373 178.87734,139.89373 178.73868,139.74973 C 178.64268,139.82439 178.51201,139.98173 178.34668,140.22173 C 178.18135,140.45639 177.94401,140.65373 177.63468,140.81373 C 177.58135,140.69106 177.54135,140.54439 177.51468,140.37373 C 177.48801,140.20306 177.47468,140.04306 177.47468,139.89373 C 177.47468,139.70173 177.48535,139.53906 177.50668,139.40573 C 177.52801,139.26706 177.54935,139.14706 177.57068,139.04573 C 177.53335,139.03506 177.49335,139.01906 177.45068,138.99773 C 177.41335,138.97106 177.38135,138.91506 177.35468,138.82973 C 177.30135,138.5204 177.23468,138.14173 177.15468,137.69373 C 177.08001,137.24573 176.98935,136.70973 176.88268,136.08572 C 176.77068,135.4564 176.71468,135.11773 176.71468,135.06973 C 176.71468,135.0324 176.69868,134.95507 176.66668,134.83773 C 176.62935,134.71507 176.61068,134.62973 176.61068,134.58173 C 176.61068,134.5124 176.62401,134.44307 176.65068,134.37373 C 176.67201,134.3044 176.71735,134.22707 176.78668,134.14173 C 177.00001,134.18973 177.14401,134.3764 177.21868,134.70173 C 177.30935,135.4164 177.40268,136.12839 177.49868,136.83772 C 177.56801,137.13639 177.63735,137.55506 177.70668,138.09373 C 177.78135,138.62706 177.81868,139.06706 177.81868,139.41373 C 177.81868,139.63239 177.80535,139.79239 177.77868,139.89373 L 177.99468,139.89373 C 178.16001,139.79773 178.30668,139.59773 178.43468,139.29373 C 178.56268,138.98439 178.72268,138.82973 178.91468,138.82973 C 179.10134,138.82973 179.23468,139.05639 179.31468,139.50973 C 179.40001,139.95773 179.49868,140.29906 179.61068,140.53373 C 179.72801,140.76839 180.01868,140.88573 180.48268,140.88573 L 180.48268,141.10173 M 193.2953,140.22173 C 193.22063,140.26439 192.7753,140.35506 191.9593,140.49373 C 191.14863,140.63239 190.3273,140.75506 189.4953,140.86173 C 188.6633,140.97373 188.1033,141.02973 187.8153,141.02973 C 186.78597,141.02973 186.0073,140.85373 185.4793,140.50173 C 184.95664,140.14973 184.6233,139.72839 184.4793,139.23773 C 184.3353,138.74706 184.2633,138.1604 184.2633,137.47773 C 184.2633,136.18173 184.65264,135.18173 185.4313,134.47773 C 186.2153,133.77373 187.21263,133.42173 188.4233,133.42173 C 189.1113,133.42173 189.62063,133.53373 189.9513,133.75773 C 190.2873,133.98173 190.4553,134.30973 190.4553,134.74173 C 190.4553,134.82173 190.4153,134.8964 190.3353,134.96573 C 190.26063,135.02973 190.18063,135.0884 190.0953,135.14173 C 189.96197,134.85907 189.8313,134.5764 189.7033,134.29373 C 189.4953,134.0484 189.06863,133.92573 188.4233,133.92573 C 187.3673,133.92573 186.5273,134.26973 185.9033,134.95773 C 185.28464,135.6404 184.9753,136.51506 184.9753,137.58173 C 184.9753,138.44573 185.1033,139.08039 185.3593,139.48573 C 185.6153,139.89106 185.96997,140.14973 186.4233,140.26173 C 186.88197,140.36839 187.51663,140.42173 188.3273,140.42173 L 189.6393,140.42173 C 189.85797,140.42173 190.21797,140.34706 190.7193,140.19773 C 191.22063,140.04306 191.66596,139.89639 192.0553,139.75773 C 192.44463,139.61373 192.75663,139.49639 192.9913,139.40573 L 193.2953,139.40573 L 193.2953,140.22173 M 193.42855,140.54973 C 193.40722,140.60839 193.38055,140.66706 193.34855,140.72573 C 193.31655,140.78439 193.27655,140.81373 193.22855,140.81373 C 193.13789,140.81373 193.05522,140.71506 192.98055,140.51773 C 192.90589,140.31506 192.82855,140.02439 192.74855,139.64573 C 192.66855,139.26706 192.54855,138.68573 192.38855,137.90173 C 192.23389,137.11239 192.12722,136.55506 192.06855,136.22972 C 192.00989,135.89906 191.98055,135.37107 191.98055,134.64573 C 191.97522,134.5764 191.97255,134.51507 191.97255,134.46173 C 191.97255,134.32307 191.98855,134.21107 192.02055,134.12573 C 192.05789,134.0404 192.13255,133.99773 192.24455,133.99773 C 192.33522,133.99773 192.39122,134.03773 192.41255,134.11773 C 192.43922,134.1924 192.45255,134.3364 192.45255,134.54973 L 192.45255,134.98973 C 192.45255,135.43773 192.46589,135.8324 192.49255,136.17372 C 192.52455,136.50973 192.57255,136.87506 192.63655,137.26973 C 192.70055,137.54173 192.79389,137.92306 192.91655,138.41373 C 193.03922,138.90439 193.15389,139.37639 193.26055,139.82973 C 193.37255,140.27773 193.42855,140.51773 193.42855,140.54973 M 195.25618,133.90173 C 195.25618,134.11507 195.22151,134.2564 195.15218,134.32573 C 195.08818,134.38973 194.95484,134.45107 194.75218,134.50973 C 194.72551,134.46173 194.69351,134.35773 194.65618,134.19773 C 194.62418,134.0324 194.60818,133.89373 194.60818,133.78173 C 194.60818,133.68573 194.61885,133.61373 194.64018,133.56573 C 194.66151,133.51773 194.69885,133.49373 194.75218,133.49373 C 194.94418,133.49373 195.07484,133.51773 195.14418,133.56573 C 195.21884,133.6084 195.25618,133.7204 195.25618,133.90173 M 198.39218,138.76573 C 198.39217,139.24039 198.04018,139.66173 197.33618,140.02973 C 196.63751,140.39773 195.97618,140.58173 195.35218,140.58173 C 194.92551,140.58173 194.66151,140.50973 194.56018,140.36573 C 194.45885,140.22173 194.33351,139.88839 194.18418,139.36573 C 194.12018,139.38173 194.05618,139.41106 193.99218,139.45373 C 193.93351,139.49106 193.88018,139.53106 193.83218,139.57373 L 192.92018,139.57373 L 192.92018,139.06973 C 193.52818,138.90973 193.93085,138.70706 194.12818,138.46173 C 194.33085,138.2164 194.47751,137.8724 194.56818,137.42973 C 194.65885,136.98706 194.77084,136.65106 194.90418,136.42172 C 195.07484,136.49106 195.24551,136.55773 195.41618,136.62172 C 195.52284,136.66973 195.65618,136.77106 195.81618,136.92572 C 195.54418,137.26173 195.33084,137.63773 195.17618,138.05373 C 195.02151,138.46973 194.94418,138.87506 194.94418,139.26973 C 194.94418,139.52039 195.00018,139.71773 195.11218,139.86173 C 195.22418,140.00573 195.37084,140.07773 195.55218,140.07773 C 195.66418,140.07773 195.93618,140.02706 196.36818,139.92573 C 196.80551,139.82439 197.21618,139.66173 197.60018,139.43773 C 197.98951,139.21373 198.18417,138.92039 198.18418,138.55773 C 198.24284,138.54173 198.28551,138.53373 198.31218,138.53373 C 198.34951,138.53373 198.37617,138.54173 198.39218,138.55773 C 198.40817,138.57373 198.41617,138.6004 198.41618,138.63773 C 198.41617,138.66973 198.41351,138.6964 198.40818,138.71773 C 198.40817,138.73373 198.40284,138.74973 198.39218,138.76573 M 203.64943,140.54173 C 203.64942,140.63773 203.59342,140.74706 203.48143,140.86973 C 203.36942,140.99773 203.21742,141.06173 203.02543,141.06173 C 202.74809,141.06173 202.12943,140.96306 201.16943,140.76573 C 200.21476,140.56306 199.54809,140.37373 199.16943,140.19773 C 198.7961,140.01639 198.53476,139.86439 198.38543,139.74173 C 198.2361,139.61373 198.03876,139.40039 197.79343,139.10173 C 197.67076,139.11773 197.55876,139.12573 197.45743,139.12573 C 197.14276,139.12573 196.88143,139.04573 196.67343,138.88573 C 196.46543,138.7204 196.36143,138.5444 196.36143,138.35773 C 196.36143,138.24573 196.40943,138.15506 196.50543,138.08573 C 196.5961,138.01106 196.72143,137.96306 196.88143,137.94173 C 196.91343,137.97373 196.97743,138.03773 197.07343,138.13373 C 197.16943,138.2244 197.2441,138.29106 197.29743,138.33373 L 197.92143,138.35773 C 197.92143,137.81906 198.1401,137.38706 198.57743,137.06172 C 199.01476,136.73106 199.45209,136.50173 199.88943,136.37372 C 200.32676,136.24039 200.62543,136.16839 200.78543,136.15772 C 200.95076,136.14173 201.10009,136.13106 201.23343,136.12572 C 201.73476,136.12573 202.17476,136.24039 202.55343,136.46972 C 202.93742,136.69373 203.12942,136.97639 203.12943,137.31773 C 203.12942,137.49373 202.98009,137.7124 202.68143,137.97373 C 202.38809,138.22973 201.93743,138.4564 201.32943,138.65373 C 200.72143,138.85106 199.97209,138.94973 199.08143,138.94973 C 199.00676,138.93906 198.9561,138.93373 198.92943,138.93373 C 198.85476,138.93373 198.81743,138.95239 198.81743,138.98973 C 198.81743,139.02706 198.86276,139.08839 198.95343,139.17373 C 199.04943,139.25906 199.13743,139.33373 199.21743,139.39773 C 199.54809,139.60039 199.87876,139.80039 200.20943,139.99773 C 200.67876,140.15773 201.26809,140.23773 201.97743,140.23773 C 202.23876,140.23773 202.40142,140.18173 202.46543,140.06973 C 202.52942,139.95239 202.68142,139.86706 202.92143,139.81373 L 203.23343,139.81373 L 203.64943,140.54173 M 202.40143,137.46973 C 202.30543,137.19239 202.14276,137.01106 201.91343,136.92572 C 201.68409,136.84039 201.32676,136.79773 200.84143,136.79772 C 200.27076,136.79773 199.79076,136.94173 199.40143,137.22972 C 199.0121,137.5124 198.6921,137.92306 198.44143,138.46173 C 198.52143,138.42973 198.58276,138.41373 198.62543,138.41373 C 198.65743,138.41373 198.69743,138.42173 198.74543,138.43773 C 198.79343,138.45373 198.83076,138.46173 198.85743,138.46173 C 199.50276,138.46173 200.23876,138.3524 201.06543,138.13373 C 201.89209,137.91506 202.33743,137.69373 202.40143,137.46973 M 208.3413,140.14173 C 208.3413,140.29639 208.27997,140.41906 208.1573,140.50973 C 208.03463,140.59506 207.89063,140.63773 207.7253,140.63773 C 207.52797,140.63773 207.3653,140.54706 207.2373,140.36573 C 207.1093,140.17906 206.87463,139.80039 206.5333,139.22973 C 206.19197,138.65906 205.92263,138.29906 205.7253,138.14973 C 205.5493,138.7364 205.35197,139.24306 205.1333,139.66973 C 204.91464,140.09639 204.61597,140.50439 204.2373,140.89373 L 203.8613,140.89373 C 203.67464,140.42973 203.53064,139.76306 203.4293,138.89373 C 203.3333,138.01906 203.24797,137.41106 203.1733,137.06972 C 203.09864,136.72839 202.91197,136.46439 202.6133,136.27772 C 202.69864,136.02706 202.76264,135.85106 202.8053,135.74972 C 202.84797,135.6484 202.9093,135.53373 202.9893,135.40573 C 203.31997,135.56573 203.53864,135.8404 203.6453,136.22972 C 203.75197,136.61373 203.85064,137.19773 203.9413,137.98173 C 204.0373,138.76573 204.15464,139.32039 204.2933,139.64573 C 204.57064,139.51239 204.8373,139.18439 205.0933,138.66173 C 205.3493,138.13906 205.4773,137.38706 205.4773,136.40572 L 205.8533,136.40572 L 208.3413,140.14173 M 211.77843,139.33373 C 211.77843,139.42973 211.73576,139.52306 211.65043,139.61373 C 211.56509,139.70439 211.46376,139.74973 211.34643,139.74973 L 210.45043,139.38973 L 210.29843,139.38973 L 210.29843,140.87773 L 209.91443,140.87773 C 209.77043,140.84573 209.4611,140.60039 208.98643,140.14173 C 208.51176,139.68306 208.27443,139.37373 208.27443,139.21373 C 208.27443,139.02706 208.49843,138.92306 208.94643,138.90173 C 209.39976,138.88039 209.62643,138.78706 209.62643,138.62173 C 209.62643,138.44573 209.5731,138.14706 209.46643,137.72573 C 209.3651,137.29906 209.31443,137.04573 209.31443,136.96572 L 208.31443,134.19773 C 208.39443,134.0644 208.45843,133.97373 208.50643,133.92573 C 208.55443,133.87773 208.61843,133.85373 208.69843,133.85373 C 208.7891,133.85373 208.9971,134.28573 209.32243,135.14973 C 209.64776,136.01373 209.85043,136.66439 209.93043,137.10172 L 210.22643,138.69373 C 210.30109,138.76306 210.57843,138.85106 211.05843,138.95773 C 211.53843,139.06439 211.77843,139.18973 211.77843,139.33373 M 209.63443,140.26173 L 209.62643,139.34973 L 209.43443,139.33373 C 209.35976,139.33373 209.29043,139.33906 209.22643,139.34973 C 209.16243,139.35506 209.13043,139.38439 209.13043,139.43773 C 209.13043,139.51773 209.19976,139.64306 209.33843,139.81373 C 209.48243,139.98439 209.5811,140.13373 209.63443,140.26173 M 218.95318,135.78172 C 218.95318,136.37906 218.78518,136.76306 218.44918,136.93372 C 218.11318,137.09906 217.65718,137.22706 217.08118,137.31773 C 216.50518,137.4084 216.21718,137.5604 216.21718,137.77373 C 216.21718,138.00306 216.28385,138.30706 216.41718,138.68573 C 216.55584,139.05906 216.74251,139.52839 216.97718,140.09373 C 217.21184,140.65373 217.34518,141.01106 217.37718,141.16573 L 216.88118,141.16573 C 216.79051,141.05373 216.61451,140.73373 216.35318,140.20573 C 216.09185,139.67239 215.83851,138.98973 215.59318,138.15773 C 215.34785,137.32573 215.22518,136.48039 215.22518,135.62172 C 215.22518,135.1524 215.33985,134.7444 215.56918,134.39773 C 215.80385,134.05107 216.13185,133.87773 216.55318,133.87773 C 217.19318,133.87773 217.75318,134.07507 218.23318,134.46973 C 218.71318,134.8644 218.95318,135.30173 218.95318,135.78172 M 218.28918,136.03772 C 218.28918,135.5364 218.16918,135.18973 217.92918,134.99773 C 217.69451,134.80573 217.37184,134.70973 216.96118,134.70973 C 216.95584,134.68307 216.93451,134.6644 216.89718,134.65373 C 216.86518,134.63773 216.81718,134.62973 216.75318,134.62973 C 216.69451,134.62973 216.61718,134.63773 216.52118,134.65373 C 216.43051,134.6644 216.32918,134.68307 216.21718,134.70973 C 216.09451,135.0884 216.00385,135.37107 215.94518,135.55772 C 215.89185,135.73906 215.86518,135.89639 215.86518,136.02972 C 215.86518,136.24839 215.96651,136.44306 216.16918,136.61372 C 216.35051,136.68306 216.48918,136.74173 216.58518,136.78972 C 216.68118,136.83773 216.74518,136.86173 216.77718,136.86172 L 216.96118,136.86172 C 217.30784,136.86173 217.61451,136.79506 217.88118,136.66172 C 218.15318,136.52306 218.28918,136.31506 218.28918,136.03772 M 220.61605,140.54973 C 220.59472,140.60839 220.56805,140.66706 220.53605,140.72573 C 220.50405,140.78439 220.46405,140.81373 220.41605,140.81373 C 220.32539,140.81373 220.24272,140.71506 220.16805,140.51773 C 220.09339,140.31506 220.01605,140.02439 219.93605,139.64573 C 219.85605,139.26706 219.73605,138.68573 219.57605,137.90173 C 219.42139,137.11239 219.31472,136.55506 219.25605,136.22972 C 219.19739,135.89906 219.16805,135.37107 219.16805,134.64573 C 219.16272,134.5764 219.16005,134.51507 219.16005,134.46173 C 219.16005,134.32307 219.17605,134.21107 219.20805,134.12573 C 219.24539,134.0404 219.32005,133.99773 219.43205,133.99773 C 219.52272,133.99773 219.57872,134.03773 219.60005,134.11773 C 219.62672,134.1924 219.64005,134.3364 219.64005,134.54973 L 219.64005,134.98973 C 219.64005,135.43773 219.65339,135.8324 219.68005,136.17372 C 219.71205,136.50973 219.76005,136.87506 219.82405,137.26973 C 219.88805,137.54173 219.98139,137.92306 220.10405,138.41373 C 220.22672,138.90439 220.34139,139.37639 220.44805,139.82973 C 220.56005,140.27773 220.61605,140.51773 220.61605,140.54973 M 228.14768,140.16573 L 228.06768,140.25373 C 227.91301,140.37639 227.65967,140.48839 227.30768,140.58973 C 226.95567,140.68573 226.72101,140.73373 226.60368,140.73373 C 226.10767,140.73373 225.66767,140.61373 225.28368,140.37373 C 224.96368,140.11773 224.64634,139.85906 224.33168,139.59773 C 223.94768,139.91239 223.48368,140.19506 222.93968,140.44573 C 222.40101,140.69106 221.86501,140.81373 221.33168,140.81373 C 221.21435,140.81373 221.07568,140.76039 220.91568,140.65373 C 220.76101,140.54173 220.68368,140.40839 220.68368,140.25373 C 220.68368,139.77373 220.98235,139.30173 221.57968,138.83773 C 222.17701,138.3684 222.90501,138.13373 223.76368,138.13373 C 223.97168,138.13373 224.10768,138.0484 224.17168,137.87773 C 224.22501,137.62173 224.27834,137.41106 224.33168,137.24573 C 224.09701,137.09639 223.80634,136.97906 223.45968,136.89372 C 223.11301,136.80306 222.80901,136.75773 222.54768,136.75772 C 222.32901,136.75773 222.03034,136.77906 221.65168,136.82172 C 221.27301,136.86439 221.00368,136.88573 220.84368,136.88572 C 220.69968,136.88573 220.56901,136.87773 220.45168,136.86172 C 220.33435,136.84039 220.23035,136.81106 220.13968,136.77372 C 220.04901,136.73106 220.00368,136.65639 220.00368,136.54972 C 220.00368,136.43239 220.03035,136.35239 220.08368,136.30972 C 220.13701,136.26173 220.22235,136.22973 220.33968,136.21372 C 220.45701,136.19773 220.58501,136.18973 220.72368,136.18972 C 220.96901,136.18973 221.19568,136.19773 221.40368,136.21372 C 221.61168,136.22973 221.80368,136.25106 221.97968,136.27772 C 222.51301,136.27773 223.03568,136.32573 223.54768,136.42172 C 224.05968,136.51239 224.50768,136.69106 224.89168,136.95772 C 225.27568,137.22439 225.46767,137.58973 225.46768,138.05373 C 225.46767,138.1924 225.38767,138.3444 225.22768,138.50973 C 225.06768,138.67506 224.98768,138.84839 224.98768,139.02973 C 224.98768,139.36039 225.19301,139.66173 225.60368,139.93373 C 226.01967,140.20039 226.48901,140.33373 227.01168,140.33373 C 227.10767,140.33373 227.26501,140.31506 227.48368,140.27773 C 227.70234,140.24039 227.86767,140.20306 227.97968,140.16573 L 228.14768,140.16573 M 224.25168,139.10973 C 224.22501,139.00306 224.20101,138.89639 224.17968,138.78973 C 224.14234,138.67773 224.00368,138.62173 223.76368,138.62173 C 223.10234,138.62173 222.50501,138.8084 221.97168,139.18173 C 221.43835,139.55506 221.17168,139.82706 221.17168,139.99773 C 221.17168,140.09906 221.20368,140.18173 221.26768,140.24573 C 221.33168,140.30439 221.43301,140.33373 221.57168,140.33373 C 222.00368,140.33373 222.46501,140.18973 222.95568,139.90173 C 223.45168,139.60839 223.88368,139.34439 224.25168,139.10973 M 229.96593,139.33373 C 229.96593,139.42973 229.92326,139.52306 229.83793,139.61373 C 229.75259,139.70439 229.65126,139.74973 229.53393,139.74973 L 228.63793,139.38973 L 228.48593,139.38973 L 228.48593,140.87773 L 228.10193,140.87773 C 227.95793,140.84573 227.6486,140.60039 227.17393,140.14173 C 226.69926,139.68306 226.46193,139.37373 226.46193,139.21373 C 226.46193,139.02706 226.68593,138.92306 227.13393,138.90173 C 227.58726,138.88039 227.81393,138.78706 227.81393,138.62173 C 227.81393,138.44573 227.7606,138.14706 227.65393,137.72573 C 227.5526,137.29906 227.50193,137.04573 227.50193,136.96572 L 226.50193,134.19773 C 226.58193,134.0644 226.64593,133.97373 226.69393,133.92573 C 226.74193,133.87773 226.80593,133.85373 226.88593,133.85373 C 226.9766,133.85373 227.1846,134.28573 227.50993,135.14973 C 227.83526,136.01373 228.03793,136.66439 228.11793,137.10172 L 228.41393,138.69373 C 228.48859,138.76306 228.76593,138.85106 229.24593,138.95773 C 229.72593,139.06439 229.96593,139.18973 229.96593,139.33373 M 227.82193,140.26173 L 227.81393,139.34973 L 227.62193,139.33373 C 227.54726,139.33373 227.47793,139.33906 227.41393,139.34973 C 227.34993,139.35506 227.31793,139.38439 227.31793,139.43773 C 227.31793,139.51773 227.38726,139.64306 227.52593,139.81373 C 227.66993,139.98439 227.7686,140.13373 227.82193,140.26173 M 233.71668,135.55772 C 233.65801,135.63773 233.58868,135.70706 233.50868,135.76572 C 233.42868,135.8244 233.35134,135.85373 233.27668,135.85372 C 233.23401,135.85373 233.18601,135.8324 233.13268,135.78972 C 233.08468,135.74706 233.06068,135.67506 233.06068,135.57372 C 233.06068,135.5364 233.06601,135.48573 233.07668,135.42173 C 233.08734,135.35773 233.09268,135.32307 233.09268,135.31773 C 233.09268,134.94973 232.90334,134.6484 232.52468,134.41373 C 232.15134,134.17907 231.81268,134.06173 231.50868,134.06173 C 230.98601,134.06173 230.58068,134.37373 230.29268,134.99773 C 230.00468,135.6164 229.86068,136.30439 229.86068,137.06172 C 229.89801,137.30173 229.95135,137.61906 230.02068,138.01373 C 230.09535,138.4084 230.22335,138.8084 230.40468,139.21373 C 230.59134,139.61373 230.82868,139.81373 231.11668,139.81373 C 231.43134,139.79773 231.75134,139.77639 232.07668,139.74973 C 232.40201,139.71773 232.61001,139.65906 232.70068,139.57373 C 232.79668,139.66973 232.87134,139.74706 232.92468,139.80573 C 232.97801,139.85906 233.00468,139.91239 233.00468,139.96573 C 233.00468,140.08839 232.96734,140.18973 232.89268,140.26973 C 232.82334,140.34439 232.70601,140.38173 232.54068,140.38173 C 232.41801,140.38173 232.26068,140.34973 232.06868,140.28573 L 230.96468,140.28573 L 230.96468,140.44573 C 231.09268,140.66973 231.24201,140.94439 231.41268,141.26973 C 231.58868,141.59506 231.67668,141.79239 231.67668,141.86173 C 231.62868,141.91506 231.57268,141.96839 231.50868,142.02173 C 231.45001,142.07506 231.37268,142.10173 231.27668,142.10173 C 231.14334,142.10173 230.86068,141.94706 230.42868,141.63773 C 229.99668,141.32839 229.59668,141.00306 229.22868,140.66173 C 228.86068,140.31506 228.67668,140.08306 228.67668,139.96573 C 228.67668,139.85373 228.77001,139.78706 228.95668,139.76573 C 229.13801,139.73906 229.31935,139.72573 229.50068,139.72573 C 229.58601,139.72573 229.67135,139.72839 229.75668,139.73373 C 229.84735,139.73373 229.93535,139.73373 230.02068,139.73373 L 230.02068,139.49373 C 229.86068,139.17373 229.72735,138.7844 229.62068,138.32573 C 229.51935,137.86706 229.46868,137.36573 229.46868,136.82172 C 229.46868,135.93639 229.63135,135.1764 229.95668,134.54173 C 230.28201,133.90707 230.79934,133.58973 231.50868,133.58973 C 232.21801,133.58973 232.73268,133.7284 233.05268,134.00573 C 233.32468,134.36307 233.53001,134.60307 233.66868,134.72573 C 233.80734,134.8484 233.87668,134.9844 233.87668,135.13373 C 233.87668,135.28307 233.82334,135.4244 233.71668,135.55772 M 230.64468,141.09373 C 230.58068,140.81106 230.50601,140.61906 230.42068,140.51773 C 230.34068,140.41106 230.23401,140.35773 230.10068,140.35773 C 230.02068,140.35239 229.95935,140.34973 229.91668,140.34973 C 229.86868,140.34973 229.79935,140.36573 229.70868,140.39773 C 229.83135,140.53639 229.98068,140.67239 230.15668,140.80573 C 230.33268,140.93906 230.49535,141.03506 230.64468,141.09373 M 239.67868,139.04573 C 239.69467,139.14173 239.70267,139.23506 239.70268,139.32573 C 239.70267,139.72573 239.51867,140.03773 239.15068,140.26173 C 238.78267,140.48039 238.34534,140.62706 237.83868,140.70173 C 237.33734,140.77639 236.82268,140.81373 236.29468,140.81373 C 235.62268,140.81373 235.00134,140.63506 234.43068,140.27773 C 233.86001,139.91506 233.57468,139.48839 233.57468,138.99773 C 233.57468,138.86439 233.63601,138.6324 233.75868,138.30173 C 233.88668,137.96573 234.06001,137.65906 234.27868,137.38173 C 234.49735,137.09906 235.01734,136.84839 235.83868,136.62972 C 235.86534,136.55506 235.89468,136.47239 235.92668,136.38172 C 235.95868,136.28573 236.01734,136.17639 236.10268,136.05372 C 236.42268,136.18706 236.86001,136.44039 237.41468,136.81372 C 237.96934,137.18173 238.47067,137.5764 238.91868,137.99773 C 239.36667,138.41373 239.62001,138.76306 239.67868,139.04573 M 239.16668,139.65373 C 239.16667,139.37639 238.98267,139.07506 238.61468,138.74973 C 238.25201,138.41906 237.84134,138.10973 237.38268,137.82173 C 236.92401,137.53373 236.68401,137.38973 236.66268,137.38973 C 236.66268,137.59773 236.60401,137.77106 236.48668,137.90973 C 236.36934,138.04306 236.14268,138.10973 235.80668,138.10973 C 235.67334,138.10973 235.58001,138.0964 235.52668,138.06973 C 235.47334,138.03773 235.40401,137.95506 235.31868,137.82173 C 235.00401,137.9444 234.77468,138.12573 234.63068,138.36573 C 234.48668,138.60573 234.36935,138.83773 234.27868,139.06173 C 234.27868,139.50439 234.55335,139.83773 235.10268,140.06173 C 235.65201,140.28573 236.20401,140.39773 236.75868,140.39773 C 237.54268,140.39773 238.09734,140.34973 238.42268,140.25373 C 238.75334,140.15239 239.00134,139.95239 239.16668,139.65373 M 243.66805,136.62972 C 243.46538,136.67239 243.29738,136.73106 243.16405,136.80572 C 243.03605,136.87506 242.93205,136.90973 242.85205,136.90972 C 242.74538,136.90973 242.65472,136.83506 242.58005,136.68572 C 242.50539,136.53106 242.41739,136.45373 242.31605,136.45372 C 242.06539,136.45373 241.77739,136.69373 241.45205,137.17372 C 241.12672,137.6484 240.96405,138.1444 240.96405,138.66173 C 240.96405,138.86439 240.99605,139.06173 241.06005,139.25373 L 241.06005,140.86973 L 240.60405,140.86973 C 240.48672,140.86973 240.32139,140.58173 240.10805,140.00573 C 239.90005,139.42973 239.79605,138.75773 239.79605,137.98973 C 239.79605,137.90973 239.79339,137.81106 239.78805,137.69373 C 239.78272,137.57106 239.78005,137.4884 239.78005,137.44573 C 239.78005,137.28573 239.80139,137.15773 239.84405,137.06172 C 239.89205,136.96573 239.99605,136.85373 240.15605,136.72572 L 240.42005,136.72572 C 240.44672,136.81106 240.46272,136.88039 240.46805,136.93372 C 240.47339,136.98706 240.47605,137.05106 240.47605,137.12572 C 240.47605,137.20039 240.46539,137.2884 240.44405,137.38973 C 240.42272,137.49106 240.41205,137.5604 240.41205,137.59773 C 240.41205,137.67773 240.44672,137.7764 240.51605,137.89373 C 240.80405,137.16306 241.12672,136.63773 241.48405,136.31772 C 241.84672,135.99239 242.21472,135.82973 242.58805,135.82972 C 242.59872,135.82973 242.72938,135.88039 242.98005,135.98172 C 243.23072,136.07773 243.46005,136.14439 243.66805,136.18172 L 243.66805,136.62972 M 252.12968,141.03773 C 251.911,141.10173 251.687,141.16306 251.45768,141.22173 C 251.22834,141.28039 251.08967,141.29906 251.04168,141.27773 C 250.99367,141.25639 250.83901,141.09106 250.57768,140.78173 C 250.32167,140.46706 250.06834,140.08306 249.81768,139.62973 C 249.56701,139.17639 249.41234,138.72306 249.35368,138.26973 L 249.11368,138.26973 C 248.83101,138.57373 248.66567,138.7524 248.61768,138.80573 C 248.57501,138.85373 248.55367,138.91239 248.55368,138.98173 C 248.40967,139.22706 248.22567,139.47239 248.00168,139.71773 C 247.78301,139.95773 247.47101,140.07773 247.06568,140.07773 C 246.78834,139.72573 246.61768,139.47773 246.55368,139.33373 C 246.48968,139.18973 246.45768,139.00306 246.45768,138.77373 C 246.45768,138.69906 246.45768,138.62173 246.45768,138.54173 C 246.45768,138.4564 246.46034,138.36573 246.46568,138.26973 L 246.21768,138.26973 C 246.03101,138.48306 245.82568,138.8324 245.60168,139.31773 C 245.37768,139.80306 245.17768,140.15239 245.00168,140.36573 C 244.83101,140.57373 244.55368,140.67773 244.16968,140.67773 C 243.96701,140.67773 243.79368,140.42706 243.64968,139.92573 C 243.51101,139.41906 243.44168,138.6644 243.44168,137.66173 C 243.44168,136.98439 243.47101,136.45373 243.52968,136.06972 C 243.59368,135.68573 243.72701,135.49373 243.92968,135.49372 C 244.12701,135.49373 244.25501,135.54706 244.31368,135.65372 C 244.37768,135.7604 244.40968,135.89639 244.40968,136.06172 L 244.40968,136.22172 C 244.37235,136.64306 244.33768,137.04306 244.30568,137.42173 C 244.27901,137.79506 244.26568,138.11773 244.26568,138.38973 C 244.26568,138.68306 244.27368,138.92839 244.28968,139.12573 C 244.31101,139.31773 244.35101,139.51506 244.40968,139.71773 L 244.65768,139.71773 C 244.99368,139.51506 245.21234,139.22173 245.31368,138.83773 C 245.41501,138.45373 245.51368,137.89373 245.60968,137.15772 C 245.70568,136.41639 245.82834,135.90173 245.97768,135.61372 C 246.38834,135.72573 246.64968,135.96573 246.76168,136.33372 C 246.87368,136.70173 246.98568,137.25106 247.09768,137.98173 C 247.21501,138.70706 247.36434,139.08306 247.54568,139.10973 C 247.80168,138.96573 248.08701,138.58706 248.40168,137.97373 C 248.71634,137.3604 248.87367,136.81639 248.87368,136.34172 C 248.87367,136.27773 248.92967,136.22173 249.04168,136.17372 C 249.15367,136.12039 249.25767,136.09373 249.35368,136.09372 C 249.58301,136.09373 249.76967,136.48839 249.91368,137.27773 C 250.05767,138.06706 250.26034,138.74173 250.52168,139.30173 C 250.78834,139.85639 251.32434,140.23506 252.12968,140.43773 L 252.12968,141.03773"
       id="text1915" />
    <rect
       style="opacity:1;fill:#d5e5ff;fill-opacity:1;stroke:#2b0000;stroke-width:0.81815302;stroke-linecap:butt;stroke-linejoin:miter;stroke-miterlimit:4;stroke-dasharray:none;stroke-opacity:1"
       id="rect1919"
       width="36.378059"
       height="37.882584"
       x="190.28056"
       y="57.630562"
       rx="0.38987687"
       ry="0.66313428" />
    <g
       style="overflow:visible"
       id="g1884"
       transform="matrix(7.24772e-2,0,0,7.24772e-2,195.50408,62.98756)">
      <path
         id="path1873"
         d="M 177.783,374.859 C 177.783,374.859 117.397,344.296 70.518,276.416 C 23.641,208.519 13.132,154.143 7.885,121.513 C 2.638,88.891 0,33 0,0 L 177.783,0 L 355.553,0 C 355.553,33 352.927,88.891 347.682,121.513 C 342.419,154.143 331.939,208.519 285.047,276.415 C 238.157,344.296 177.783,374.859 177.783,374.859"
         style="fill:#df002a" />
      <polygon
         id="polygon1875"
         points="177.957,10.294 151.33,84.175 125.078,12.366 97.32,85.675 70.316,15.925 16.306,15.925 16.306,68.804 84.956,97.685 15.553,134.437 88.697,147.186 31.686,189.948 107.439,192.2 56.444,243.948 128.457,234.569 86.826,289.709 165.202,269.083 134.457,324.221 177.957,356.661 221.471,324.221 190.712,269.083 269.102,289.709 227.458,234.569 299.47,243.948 248.461,192.2 324.213,189.948 267.217,147.186 340.345,134.437 270.972,97.685 339.591,68.804 339.591,15.925 285.584,15.925 258.594,85.675 230.848,12.366 204.584,84.175 177.957,10.294 "
         style="fill:#ffffff" />
      <path
         id="path1877"
         d="M 151.071,177.434 C 141.107,174.734 130.138,171.977 122.045,166.756 C 129.65,175.417 140.592,184.378 151.059,188.828 L 151.071,177.434 z M 197.224,178.99 C 191.195,180.051 184.036,180.609 177.629,180.609 C 177.629,180.609 164.371,180.05 158.342,178.99 L 158.356,191.522 C 164.328,193.156 171.488,194.026 177.937,194.026 C 183.546,194.026 191.223,193.156 197.209,191.522 L 197.224,178.99 z M 174.225,174.232 C 160.953,173.751 146.467,170.707 135.274,166.605 L 135.302,153.214 C 146.409,157.275 160.798,160.198 174.21,160.673 L 174.225,174.232 z M 127.877,150.654 C 119.825,146.754 111.046,141.066 105.451,135.608 C 107.279,141.239 110.503,150.186 113.363,155.182 C 117.522,158.14 122.993,161.699 127.878,164.044 L 127.878,150.654 L 127.877,150.654 z M 197.098,153.102 C 191.153,153.925 184.286,154.373 177.909,154.373 C 171.517,154.373 164.414,153.925 158.454,153.102 L 158.454,141.462 C 164.386,142.251 171.503,142.663 177.909,142.663 C 184.315,142.663 191.167,142.251 197.098,141.462 L 197.098,153.102 L 197.098,153.102 z M 204.507,177.42 C 214.445,174.733 225.428,171.977 233.508,166.756 C 225.93,175.417 214.96,184.378 204.507,188.808 L 204.507,177.42 z M 181.342,174.232 C 194.613,173.751 209.085,170.707 220.279,166.605 L 220.251,153.214 C 209.157,157.275 194.769,160.198 181.371,160.673 L 181.342,174.232 z M 227.69,150.654 C 235.741,146.754 244.52,141.066 250.101,135.608 C 248.274,141.239 245.063,150.186 242.19,155.182 C 238.031,158.14 232.587,161.699 227.69,164.044 L 227.69,150.654 z M 204.592,151.881 L 204.592,140.34 C 209.49,139.32 215.017,137.611 219.344,136.104 L 219.344,118.485 L 228.484,118.485 L 228.484,132.376 C 243.557,125.19 253.032,114.843 253.103,103.35 L 264.687,103.35 C 264.853,105.778 264.812,107.642 264.812,110.126 C 264.812,163.06 226.727,206.658 177.797,206.736 C 129.37,206.371 90.754,163.06 90.754,110.126 C 90.754,107.642 90.713,105.778 90.88,103.35 L 102.463,103.35 C 102.532,114.844 112.008,125.19 127.082,132.376 L 127.082,118.485 L 136.208,118.485 L 136.208,136.104 C 140.549,137.612 146.075,139.321 150.988,140.34 L 150.988,151.881 C 143.996,150.353 136.585,147.839 130.655,145.28 C 130.655,145.28 128.085,144.183 126.831,143.535 C 124.695,142.495 122.616,141.38 120.662,140.207 C 105.045,131.358 98.011,122.19 97.328,121.458 C 102.324,165.487 136.488,199.93 177.783,200.015 C 219.789,199.93 253.228,165.488 258.252,121.458 C 257.555,122.19 250.534,131.358 234.903,140.207 C 232.935,141.38 230.884,142.495 228.734,143.535 C 227.478,144.183 226.181,144.825 224.841,145.482 C 224.842,145.483 211.556,150.353 204.592,151.881"
         style="fill:#3c474c" />
    </g>
    <text
       xml:space="preserve"
       style="font-size:12px;font-style:normal;font-weight:normal;fill:#000000;fill-opacity:1;stroke:none;stroke-width:1pt;stroke-linecap:butt;stroke-linejoin:miter;stroke-opacity:1;font-family:Bitstream Vera Sans"
       x="76.714157"
       y="81.224655"
       id="text1899"><tspan
         sodipodi:role="line"
         id="tspan1901"
         x="76.714157"
         y="81.224655"
         style="font-size:13px;font-weight:bold;font-family:Arial">KIEL</tspan></text>
    <path
       style="font-size:12px;font-style:normal;font-weight:normal;fill:#000000;fill-opacity:1;stroke:none;stroke-width:1pt;stroke-linecap:butt;stroke-linejoin:miter;stroke-opacity:1;font-family:Bitstream Vera Sans"
       d="M 152.199,86.678407 C 151.87899,86.870416 151.58699,87.010416 151.323,87.098407 C 151.05899,87.178416 150.81899,87.218416 150.603,87.218407 C 150.59499,87.218416 150.26699,87.174416 149.619,87.086407 C 148.97899,86.998416 148.43899,86.954416 147.999,86.954407 C 147.56699,86.954416 147.20299,86.970416 146.907,87.002407 C 146.61899,87.034416 146.39099,87.070416 146.223,87.110407 C 146.06299,87.150416 145.72699,87.218416 145.215,87.314407 C 144.70299,87.410416 144.063,87.522415 143.295,87.650407 C 142.439,87.890415 142.011,88.334415 142.011,88.982407 C 141.915,89.158414 141.819,89.398414 141.723,89.702407 C 141.627,90.006413 141.579,90.482412 141.579,91.130407 C 141.531,91.106412 141.483,91.122412 141.435,91.178407 C 141.395,91.234412 141.375,91.366412 141.375,91.574407 C 141.375,91.670411 141.379,91.786411 141.387,91.922407 C 141.395,92.058411 141.411,92.226411 141.435,92.426407 C 142.003,92.306411 142.423,92.226411 142.695,92.186407 C 142.967,92.146411 143.175,92.126411 143.319,92.126407 C 143.367,92.126411 143.407,92.130411 143.439,92.138407 L 148.467,91.562407 L 149.043,91.562407 C 148.85899,92.090411 148.09099,92.47041 146.739,92.702407 C 145.54699,92.83841 144.33899,92.97841 143.115,93.122407 C 141.899,93.25841 141.291,93.502409 141.291,93.854407 C 141.291,94.310409 141.639,94.738408 142.335,95.138407 C 143.031,95.530407 144.023,95.726407 145.311,95.726407 C 145.95099,95.726407 146.76299,95.630407 147.747,95.438407 C 148.73099,95.246408 149.35099,95.150408 149.607,95.150407 C 149.47099,95.622407 149.23099,95.934407 148.887,96.086407 C 148.55099,96.238407 148.09499,96.314407 147.519,96.314407 C 147.39899,96.314407 147.20299,96.310407 146.931,96.302407 C 146.65899,96.294407 146.45099,96.290407 146.307,96.290407 L 144.591,96.290407 C 143.015,96.290407 141.879,96.082407 141.183,95.666407 C 140.495,95.242408 140.151,94.398409 140.151,93.134407 C 140.151,92.55041 140.219,91.922411 140.355,91.250407 C 140.499,90.578412 140.571,90.202413 140.571,90.122407 C 140.571,90.106413 140.591,90.070413 140.631,90.014407 C 140.679,89.958413 140.703,89.862413 140.703,89.726407 C 140.703,89.662413 140.699,89.582413 140.691,89.486407 C 140.683,89.382414 140.667,89.262414 140.643,89.126407 C 140.163,88.926414 139.891,88.814414 139.827,88.790407 C 139.755,88.766414 139.719,88.686414 139.719,88.550407 C 139.719,88.214415 140.135,87.858415 140.967,87.482407 C 141.807,87.098416 142.779,86.774416 143.883,86.510407 C 144.99499,86.246417 145.89899,86.114417 146.595,86.114407 C 147.75499,86.114417 148.67499,86.118417 149.355,86.126407 C 150.03499,86.134417 150.67099,86.142417 151.263,86.150407 L 151.431,86.150407 C 151.78299,86.150417 152.03899,86.138417 152.199,86.114407 L 152.199,86.678407 M 161.38875,96.602407 C 161.38874,96.818406 161.36074,96.946406 161.30475,96.986407 C 161.24874,97.034406 161.12074,97.058406 160.92075,97.058407 C 160.79274,97.058406 160.24874,96.886406 159.28875,96.542407 C 158.32874,96.198407 157.80074,96.026407 157.70475,96.026407 C 157.66474,96.026407 157.38474,95.922407 156.86475,95.714407 C 156.34474,95.498407 155.78474,95.218408 155.18475,94.874407 C 154.59275,94.522408 154.05275,94.102409 153.56475,93.614407 C 154.22075,93.30241 154.82474,92.97841 155.37675,92.642407 C 155.93674,92.306411 156.21674,91.670411 156.21675,90.734407 C 156.21674,89.974413 155.90874,89.326414 155.29275,88.790407 C 154.68475,88.246415 154.14875,87.974415 153.68475,87.974407 C 153.36475,87.974415 153.09275,88.246415 152.86875,88.790407 C 152.64475,89.326414 152.53275,89.938413 152.53275,90.626407 C 152.53275,90.826412 152.62075,91.342412 152.79675,92.174407 C 152.97275,93.00641 153.16075,93.874409 153.36075,94.778407 C 153.56875,95.682407 153.67675,96.134407 153.68475,96.134407 L 153.68475,96.602407 L 153.00075,96.602407 C 152.64075,96.146407 152.36875,95.386408 152.18475,94.322407 C 152.00075,93.25041 151.83275,92.238411 151.68075,91.286407 C 151.46475,90.350413 151.13675,89.842413 150.69675,89.762407 C 150.72875,89.650413 150.76875,89.382414 150.81675,88.958407 C 150.85675,88.534414 151.04875,88.322415 151.39275,88.322407 C 151.41675,88.322415 151.49275,88.354415 151.62075,88.418407 C 151.74875,88.482414 151.90075,88.566414 152.07675,88.670407 C 152.26075,88.350415 152.44875,88.026415 152.64075,87.698407 C 152.92875,87.346416 153.31675,87.170416 153.80475,87.170407 C 154.56475,87.170416 155.28874,87.570415 155.97675,88.370407 C 156.67274,89.170414 157.02074,89.922413 157.02075,90.626407 C 157.02074,91.178412 156.81674,91.730411 156.40875,92.282407 C 155.96074,92.80241 155.51274,93.32241 155.06475,93.842407 C 155.06474,93.994409 155.45674,94.214409 156.24075,94.502407 C 157.02474,94.790408 157.71674,95.074408 158.31675,95.354407 C 158.92474,95.626407 159.41674,95.806407 159.79275,95.894407 C 160.17674,95.982407 160.57274,96.026407 160.98075,96.026407 L 161.38875,96.026407 C 161.55674,96.026407 161.64074,96.078407 161.64075,96.182407 C 161.64074,96.262407 161.60874,96.342407 161.54475,96.422407 C 161.48074,96.502406 161.42874,96.562406 161.38875,96.602407"
       id="text1903" />
    <path
       style="fill:none;fill-opacity:0.75;fill-rule:evenodd;stroke:#000000;stroke-width:1;stroke-linecap:butt;stroke-linejoin:miter;marker-end:url(#Arrow2Mend);stroke-miterlimit:4;stroke-dasharray:none;stroke-opacity:1"
       d="M 109.86536,82.707376 C 123.96441,82.707376 129.50678,82.707376 129.50678,82.707376"
       id="path1935"
       sodipodi:nodetypes="cc" />
    <path
       style="fill:none;fill-opacity:0.75;fill-rule:evenodd;stroke:#000000;stroke-width:1;stroke-linecap:butt;stroke-linejoin:miter;marker-end:url(#Arrow2Mend);stroke-miterlimit:4;stroke-dasharray:none;stroke-opacity:1"
       d="M 109.30324,64.490386 C 183.53422,64.177696 188.61531,64.353156 188.61531,64.353156"
       id="path1937"
       sodipodi:nodetypes="cc" />
    <path
       style="fill:none;fill-opacity:0.75;fill-rule:evenodd;stroke:#000000;stroke-width:1;stroke-linecap:butt;stroke-linejoin:miter;marker-end:url(#Arrow2Mend);stroke-miterlimit:4;stroke-dasharray:none;stroke-opacity:1"
       d="M 56.338317,101.24209 C 122.5059,101.24209 129.46335,101.24209 129.46335,101.24209"
       id="path1939"
       sodipodi:nodetypes="cc" />
    <path
       style="fill:none;fill-opacity:0.75;fill-rule:evenodd;stroke:#000000;stroke-width:1;stroke-linecap:butt;stroke-linejoin:miter;marker-end:url(#Arrow2Mend);stroke-miterlimit:4;stroke-dasharray:none;stroke-opacity:1"
       d="M 55.837204,76.581466 C 66.59993,76.581466 71.552687,76.581466 71.552687,76.581466"
       id="path1941"
       sodipodi:nodetypes="cc" />
    <path
       style="fill:none;fill-opacity:0.75;fill-rule:evenodd;stroke:#000000;stroke-width:0.99632001;stroke-linecap:butt;stroke-linejoin:miter;marker-end:url(#Arrow2Mend);stroke-miterlimit:4;stroke-dasharray:none;stroke-opacity:1"
       d="M 167.16195,91.612196 C 184.02429,91.612196 188.5851,91.730236 188.5851,91.730236"
       id="path1943"
       sodipodi:nodetypes="cc" />
    <path
       style="fill:none;fill-opacity:0.75;fill-rule:evenodd;stroke:#000000;stroke-width:1;stroke-linecap:butt;stroke-linejoin:miter;marker-end:url(#Arrow2Mend);stroke-miterlimit:4;stroke-dasharray:none;stroke-opacity:1"
       d="M 226.79349,76.585156 C 233.4198,76.585156 238.49048,76.703076 238.49048,76.703076"
       id="path1945"
       sodipodi:nodetypes="cc" />
  </g>
</svg>
