<?xml version="1.0" encoding="UTF-8" standalone="no"?>
<!-- Created with Inkscape (http://www.inkscape.org/) -->
<svg
   xmlns:dc="http://purl.org/dc/elements/1.1/"
   xmlns:cc="http://creativecommons.org/ns#"
   xmlns:rdf="http://www.w3.org/1999/02/22-rdf-syntax-ns#"
   xmlns:svg="http://www.w3.org/2000/svg"
   xmlns="http://www.w3.org/2000/svg"
   xmlns:xlink="http://www.w3.org/1999/xlink"
   xmlns:sodipodi="http://sodipodi.sourceforge.net/DTD/sodipodi-0.dtd"
   xmlns:inkscape="http://www.inkscape.org/namespaces/inkscape"
   width="250"
   height="165"
   id="svg2"
   sodipodi:version="0.32"
   inkscape:version="0.46"
   sodipodi:docbase="/home/haf/shared/kieler/trunk/common/doc/images"
   sodipodi:docname="kieler-splash2.svg"
   inkscape:export-filename="/Users/haf/shared/kieler/trunk/common/doc/images/kieler-trac-logo.png"
   inkscape:export-xdpi="150"
   inkscape:export-ydpi="150"
   inkscape:output_extension="org.inkscape.output.svg.inkscape"
   version="1.0">
  <defs
     id="defs4">
    <linearGradient
       id="linearGradient3349">
      <stop
         id="stop3351"
         offset="0"
         style="stop-color:#c8c8c8;stop-opacity:1;" />
      <stop
         id="stop3353"
         offset="1"
         style="stop-color:#646464;stop-opacity:1;" />
    </linearGradient>
    <linearGradient
       id="linearGradient3225">
      <stop
         style="stop-color:#6400c8;stop-opacity:1;"
         offset="0"
         id="stop3227" />
      <stop
         style="stop-color:#320064;stop-opacity:1;"
         offset="1"
         id="stop3229" />
    </linearGradient>
    <linearGradient
       id="linearGradient3200">
      <stop
         style="stop-color:#ffffff;stop-opacity:1;"
         offset="0"
         id="stop3212" />
      <stop
         style="stop-color:#9e9eff;stop-opacity:1;"
         offset="1"
         id="stop3210" />
    </linearGradient>
    <inkscape:perspective
       sodipodi:type="inkscape:persp3d"
       inkscape:vp_x="0 : 526.18109 : 1"
       inkscape:vp_y="0 : 1000 : 0"
       inkscape:vp_z="744.09448 : 526.18109 : 1"
       inkscape:persp3d-origin="372.04724 : 350.78739 : 1"
       id="perspective38" />
    <marker
       inkscape:stockid="Arrow1Mend"
       orient="auto"
       refY="0"
       refX="0"
       id="Arrow1Mend"
       style="overflow:visible">
      <path
         id="path2998"
         d="M 0,0 L 5,-5 L -12.5,0 L 5,5 L 0,0 z"
         style="fill-rule:evenodd;stroke:#000000;stroke-width:1pt;marker-start:none"
         transform="matrix(-0.4,0,0,-0.4,-4,0)" />
    </marker>
    <marker
       inkscape:stockid="Arrow2Mend"
       orient="auto"
       refY="0"
       refX="0"
       id="Arrow2Mend"
       style="overflow:visible">
      <path
         id="path2980"
         style="font-size:12px;fill-rule:evenodd;stroke-width:0.625;stroke-linejoin:round"
         d="M 8.7185878,4.0337352 L -2.2072895,0.016013256 L 8.7185884,-4.0017078 C 6.97309,-1.6296469 6.9831476,1.6157441 8.7185878,4.0337352 z"
         transform="scale(-0.6,-0.6)" />
    </marker>
    <marker
       inkscape:stockid="Arrow2Lend"
       orient="auto"
       refY="0"
       refX="0"
       id="Arrow2Lend"
       style="overflow:visible">
      <path
         id="path2986"
         style="font-size:12px;fill-rule:evenodd;stroke-width:0.625;stroke-linejoin:round"
         d="M 8.7185878,4.0337352 L -2.2072895,0.016013256 L 8.7185884,-4.0017078 C 6.97309,-1.6296469 6.9831476,1.6157441 8.7185878,4.0337352 z"
         transform="matrix(-1.1,0,0,-1.1,-1.1,0)" />
    </marker>
    <radialGradient
       inkscape:collect="always"
       xlink:href="#linearGradient3200"
       id="radialGradient3204"
       cx="149.13931"
       cy="74.339027"
       fx="149.13931"
       fy="74.339027"
       r="124.95019"
       gradientTransform="matrix(1.0025019,0,0,0.6604585,-0.5521182,57.821324)"
       gradientUnits="userSpaceOnUse" />
    <inkscape:perspective
       id="perspective2580"
       inkscape:persp3d-origin="372.04724 : 350.78739 : 1"
       inkscape:vp_z="744.09448 : 526.18109 : 1"
       inkscape:vp_y="0 : 1000 : 0"
       inkscape:vp_x="0 : 526.18109 : 1"
       sodipodi:type="inkscape:persp3d" />
    <inkscape:perspective
       id="perspective2647"
       inkscape:persp3d-origin="372.04724 : 350.78739 : 1"
       inkscape:vp_z="744.09448 : 526.18109 : 1"
       inkscape:vp_y="0 : 1000 : 0"
       inkscape:vp_x="0 : 526.18109 : 1"
       sodipodi:type="inkscape:persp3d" />
    <inkscape:perspective
       id="perspective2714"
       inkscape:persp3d-origin="372.04724 : 350.78739 : 1"
       inkscape:vp_z="744.09448 : 526.18109 : 1"
       inkscape:vp_y="0 : 1000 : 0"
       inkscape:vp_x="0 : 526.18109 : 1"
       sodipodi:type="inkscape:persp3d" />
    <radialGradient
       inkscape:collect="always"
       xlink:href="#linearGradient3225"
       id="radialGradient3231"
       cx="-62.833118"
       cy="78.721687"
       fx="-62.833118"
       fy="78.721687"
       r="25.240654"
       gradientTransform="matrix(1,0,0,0.9503546,0,4.6188729)"
       gradientUnits="userSpaceOnUse" />
    <filter
       inkscape:collect="always"
       id="filter3329">
      <feGaussianBlur
         inkscape:collect="always"
         stdDeviation="0.24614113"
         id="feGaussianBlur3331" />
    </filter>
    <linearGradient
       inkscape:collect="always"
       xlink:href="#linearGradient3349"
       id="linearGradient3347"
       x1="0"
       y1="201.5184"
       x2="71.246674"
       y2="201.5184"
       gradientUnits="userSpaceOnUse"
       gradientTransform="matrix(2.5175879,0,0,0.1190476,26.337264,108.18828)" />
    <linearGradient
       inkscape:collect="always"
       xlink:href="#linearGradient3349"
       id="linearGradient3357"
       gradientUnits="userSpaceOnUse"
       gradientTransform="matrix(2.5175879,0,0,0.1190476,26.516272,115.16974)"
       x1="0"
       y1="201.5184"
       x2="71.246674"
       y2="201.5184" />
    <linearGradient
       inkscape:collect="always"
       xlink:href="#linearGradient3349"
       id="linearGradient3361"
       gradientUnits="userSpaceOnUse"
       gradientTransform="matrix(2.5175879,0,0,0.1190476,26.516272,121.97218)"
       x1="0"
       y1="201.5184"
       x2="71.246674"
       y2="201.5184" />
    <linearGradient
       inkscape:collect="always"
       xlink:href="#linearGradient3349"
       id="linearGradient3365"
       gradientUnits="userSpaceOnUse"
       gradientTransform="matrix(2.5175879,0,0,0.1190476,26.516272,128.4166)"
       x1="0"
       y1="201.5184"
       x2="71.246674"
       y2="201.5184" />
    <filter
       inkscape:collect="always"
       id="filter3367"
       x="-0.0060598802"
       width="1.0121198"
       y="-0.6072001"
       height="2.2144002">
      <feGaussianBlur
         inkscape:collect="always"
         stdDeviation="0.45289971"
         id="feGaussianBlur3369" />
    </filter>
    <filter
       inkscape:collect="always"
       id="filter3371"
       x="-0.0060598802"
       width="1.0121198"
       y="-0.6072001"
       height="2.2144002">
      <feGaussianBlur
         inkscape:collect="always"
         stdDeviation="0.45289971"
         id="feGaussianBlur3373" />
    </filter>
    <filter
       inkscape:collect="always"
       id="filter3375"
       x="-0.0060598802"
       width="1.0121198"
       y="-0.6072001"
       height="2.2144002">
      <feGaussianBlur
         inkscape:collect="always"
         stdDeviation="0.45289971"
         id="feGaussianBlur3377" />
    </filter>
    <filter
       inkscape:collect="always"
       id="filter3379"
       x="-0.0060598802"
       width="1.0121198"
       y="-0.6072001"
       height="2.2144002">
      <feGaussianBlur
         inkscape:collect="always"
         stdDeviation="0.45289971"
         id="feGaussianBlur3381" />
    </filter>
    <filter
       inkscape:collect="always"
       id="filter3415"
       x="-0.01347851"
       width="1.026957"
       y="-0.10939535"
       height="1.2187907">
      <feGaussianBlur
         inkscape:collect="always"
         stdDeviation="1.403452"
         id="feGaussianBlur3417" />
    </filter>
    <filter
       inkscape:collect="always"
       id="filter3427"
       x="-0.01347851"
       width="1.026957"
       y="-0.10939535"
       height="1.2187907">
      <feGaussianBlur
         inkscape:collect="always"
         stdDeviation="1.403452"
         id="feGaussianBlur3429" />
    </filter>
  </defs>
  <sodipodi:namedview
     id="base"
     pagecolor="#ffffff"
     bordercolor="#666666"
     borderopacity="1.0"
     gridtolerance="10000"
     guidetolerance="10"
     objecttolerance="10"
     inkscape:pageopacity="0.0"
     inkscape:pageshadow="2"
     inkscape:zoom="2.793113"
     inkscape:cx="114.91994"
     inkscape:cy="59.667446"
     inkscape:document-units="px"
     inkscape:current-layer="layer1"
     inkscape:window-width="1280"
     inkscape:window-height="949"
     inkscape:window-x="0"
     inkscape:window-y="25"
     showgrid="false" />
  <metadata
     id="metadata7">
    <rdf:RDF>
      <cc:Work
         rdf:about="">
        <dc:format>image/svg+xml</dc:format>
        <dc:type
           rdf:resource="http://purl.org/dc/dcmitype/StillImage" />
      </cc:Work>
    </rdf:RDF>
  </metadata>
  <g
     inkscape:label="Layer 1"
     inkscape:groupmode="layer"
     id="layer1"
     transform="translate(-23.8311,-24.2833)">
    <rect
       style="opacity:1;fill:url(#radialGradient3204);fill-opacity:1;fill-rule:nonzero;stroke:#9b0000;stroke-width:0;stroke-miterlimit:4;stroke-dasharray:none;stroke-opacity:1"
       id="rect2408"
       width="250.52554"
       height="165.04881"
       x="23.697535"
       y="24.394753"
       rx="0.30279118"
       ry="0.69955355"
       inkscape:export-xdpi="179.7722"
       inkscape:export-ydpi="179.7722"
       inkscape:export-filename="/home/schm/studienarbeit/logosvn/images/kieler-splash5.png" />
    <g
       id="g3383"
       transform="translate(0,-12)">
      <rect
         ry="0.53713876"
         rx="0.31580028"
         y="99.521202"
         x="88.447746"
         height="30.684893"
         width="29.466228"
         id="rect1927"
         style="fill:#d5e5ff;fill-opacity:1;stroke:#2b0000;stroke-width:0.66270393;stroke-linecap:butt;stroke-linejoin:miter;stroke-miterlimit:4;stroke-dasharray:none;stroke-opacity:1" />
      <rect
         ry="0.53713876"
         rx="0.31580028"
         y="87.359413"
         x="41.466785"
         height="30.684893"
         width="29.466228"
         id="rect1925"
         style="fill:#d5e5ff;fill-opacity:1;stroke:#2b0000;stroke-width:0.66270393;stroke-linecap:butt;stroke-linejoin:miter;stroke-miterlimit:4;stroke-dasharray:none;stroke-opacity:1" />
      <rect
         ry="0.53713876"
         rx="0.31580028"
         y="87.359413"
         x="136.33969"
         height="30.684893"
         width="29.466228"
         id="rect1919"
         style="fill:#d5e5ff;fill-opacity:1;stroke:#2b0000;stroke-width:0.66270393;stroke-linecap:butt;stroke-linejoin:miter;stroke-miterlimit:4;stroke-dasharray:none;stroke-opacity:1" />
      <g
         transform="matrix(5.8706532e-2,0,0,5.8706532e-2,140.57074,91.698582)"
         id="g1884"
         style="overflow:visible">
        <path
           style="fill:#df002a"
           d="M 177.783,374.859 C 177.783,374.859 117.397,344.296 70.518,276.416 C 23.641,208.519 13.132,154.143 7.885,121.513 C 2.638,88.891 0,33 0,0 L 177.783,0 L 355.553,0 C 355.553,33 352.927,88.891 347.682,121.513 C 342.419,154.143 331.939,208.519 285.047,276.415 C 238.157,344.296 177.783,374.859 177.783,374.859"
           id="path1873" />
        <polygon
           style="fill:#ffffff"
           points="177.957,10.294 151.33,84.175 125.078,12.366 97.32,85.675 70.316,15.925 16.306,15.925 16.306,68.804 84.956,97.685 15.553,134.437 88.697,147.186 31.686,189.948 107.439,192.2 56.444,243.948 128.457,234.569 86.826,289.709 165.202,269.083 134.457,324.221 177.957,356.661 221.471,324.221 190.712,269.083 269.102,289.709 227.458,234.569 299.47,243.948 248.461,192.2 324.213,189.948 267.217,147.186 340.345,134.437 270.972,97.685 339.591,68.804 339.591,15.925 285.584,15.925 258.594,85.675 230.848,12.366 204.584,84.175 177.957,10.294 "
           id="polygon1875" />
        <path
           style="fill:#3c474c"
           d="M 151.071,177.434 C 141.107,174.734 130.138,171.977 122.045,166.756 C 129.65,175.417 140.592,184.378 151.059,188.828 L 151.071,177.434 z M 197.224,178.99 C 191.195,180.051 184.036,180.609 177.629,180.609 C 177.629,180.609 164.371,180.05 158.342,178.99 L 158.356,191.522 C 164.328,193.156 171.488,194.026 177.937,194.026 C 183.546,194.026 191.223,193.156 197.209,191.522 L 197.224,178.99 z M 174.225,174.232 C 160.953,173.751 146.467,170.707 135.274,166.605 L 135.302,153.214 C 146.409,157.275 160.798,160.198 174.21,160.673 L 174.225,174.232 z M 127.877,150.654 C 119.825,146.754 111.046,141.066 105.451,135.608 C 107.279,141.239 110.503,150.186 113.363,155.182 C 117.522,158.14 122.993,161.699 127.878,164.044 L 127.878,150.654 L 127.877,150.654 z M 197.098,153.102 C 191.153,153.925 184.286,154.373 177.909,154.373 C 171.517,154.373 164.414,153.925 158.454,153.102 L 158.454,141.462 C 164.386,142.251 171.503,142.663 177.909,142.663 C 184.315,142.663 191.167,142.251 197.098,141.462 L 197.098,153.102 L 197.098,153.102 z M 204.507,177.42 C 214.445,174.733 225.428,171.977 233.508,166.756 C 225.93,175.417 214.96,184.378 204.507,188.808 L 204.507,177.42 z M 181.342,174.232 C 194.613,173.751 209.085,170.707 220.279,166.605 L 220.251,153.214 C 209.157,157.275 194.769,160.198 181.371,160.673 L 181.342,174.232 z M 227.69,150.654 C 235.741,146.754 244.52,141.066 250.101,135.608 C 248.274,141.239 245.063,150.186 242.19,155.182 C 238.031,158.14 232.587,161.699 227.69,164.044 L 227.69,150.654 z M 204.592,151.881 L 204.592,140.34 C 209.49,139.32 215.017,137.611 219.344,136.104 L 219.344,118.485 L 228.484,118.485 L 228.484,132.376 C 243.557,125.19 253.032,114.843 253.103,103.35 L 264.687,103.35 C 264.853,105.778 264.812,107.642 264.812,110.126 C 264.812,163.06 226.727,206.658 177.797,206.736 C 129.37,206.371 90.754,163.06 90.754,110.126 C 90.754,107.642 90.713,105.778 90.88,103.35 L 102.463,103.35 C 102.532,114.844 112.008,125.19 127.082,132.376 L 127.082,118.485 L 136.208,118.485 L 136.208,136.104 C 140.549,137.612 146.075,139.321 150.988,140.34 L 150.988,151.881 C 143.996,150.353 136.585,147.839 130.655,145.28 C 130.655,145.28 128.085,144.183 126.831,143.535 C 124.695,142.495 122.616,141.38 120.662,140.207 C 105.045,131.358 98.011,122.19 97.328,121.458 C 102.324,165.487 136.488,199.93 177.783,200.015 C 219.789,199.93 253.228,165.488 258.252,121.458 C 257.555,122.19 250.534,131.358 234.903,140.207 C 232.935,141.38 230.884,142.495 228.734,143.535 C 227.478,144.183 226.181,144.825 224.841,145.482 C 224.842,145.483 211.556,150.353 204.592,151.881"
           id="path1877" />
      </g>
      <text
         id="text1899"
         y="106.47063"
         x="44.350899"
         style="font-size:9.72000027px;font-style:normal;font-weight:normal;fill:#000000;fill-opacity:1;stroke:none;stroke-width:1pt;stroke-linecap:butt;stroke-linejoin:miter;stroke-opacity:1;font-family:Bitstream Vera Sans"
         xml:space="preserve"><tspan
           style="font-size:10.52999973px;font-weight:bold;font-family:Arial"
           y="106.47063"
           x="44.350899"
           id="tspan1901"
           sodipodi:role="line">KIEL</tspan></text>
      <path
         id="text1903"
         d="M 105.49361,110.88817 C 105.23441,111.0437 104.99789,111.1571 104.78406,111.22837 C 104.57021,111.29318 104.37581,111.32558 104.20085,111.32557 C 104.19437,111.32558 103.92869,111.28994 103.40381,111.21865 C 102.88541,111.14738 102.44801,111.11174 102.09162,111.11173 C 101.74169,111.11174 101.44685,111.1247 101.2071,111.15061 C 100.97381,111.17654 100.78913,111.2057 100.65305,111.23809 C 100.52345,111.2705 100.25129,111.32558 99.836573,111.40333 C 99.421852,111.4811 98.903453,111.57182 98.281373,111.67549 C 97.588023,111.8699 97.241343,112.22954 97.241343,112.75441 C 97.163573,112.89698 97.085813,113.09138 97.008063,113.33761 C 96.930303,113.58386 96.891413,113.96942 96.891413,114.49429 C 96.852543,114.47486 96.813663,114.48782 96.774783,114.53317 C 96.742383,114.57854 96.726183,114.68546 96.726183,114.85393 C 96.726183,114.93169 96.729423,115.02565 96.735903,115.13581 C 96.742383,115.24597 96.755343,115.38205 96.774783,115.54405 C 97.234853,115.44685 97.575063,115.38205 97.795373,115.34965 C 98.015703,115.31725 98.184173,115.30105 98.300823,115.30105 C 98.339703,115.30105 98.372103,115.30429 98.398023,115.31077 L 102.4707,114.84421 L 102.93725,114.84421 C 102.78821,115.27189 102.16613,115.57969 101.07101,115.76761 C 100.10549,115.87777 99.127013,115.99117 98.135572,116.10781 C 97.150623,116.21797 96.658143,116.41561 96.658143,116.70073 C 96.658143,117.07009 96.940013,117.41677 97.503783,117.74077 C 98.067543,118.05829 98.871063,118.21705 99.914343,118.21705 C 100.43273,118.21705 101.09045,118.13929 101.88749,117.98377 C 102.68453,117.82825 103.18673,117.75049 103.3941,117.75049 C 103.28393,118.13281 103.08953,118.38553 102.8109,118.50865 C 102.53873,118.63177 102.16937,118.69333 101.70281,118.69333 C 101.60561,118.69333 101.44685,118.69009 101.22654,118.68361 C 101.00621,118.67713 100.83773,118.67389 100.7211,118.67389 L 99.331143,118.67389 C 98.054583,118.67389 97.134423,118.50541 96.570663,118.16845 C 96.013383,117.82501 95.734743,117.14137 95.734743,116.11753 C 95.734743,115.64449 95.789813,115.13581 95.899983,114.59149 C 96.016623,114.04718 96.074943,113.74262 96.074943,113.67781 C 96.074943,113.66486 96.091143,113.6357 96.123543,113.59033 C 96.162413,113.54498 96.181852,113.46722 96.181852,113.35705 C 96.181852,113.30522 96.178612,113.24042 96.172143,113.16265 C 96.165662,113.07842 96.152703,112.98122 96.133252,112.87105 C 95.744453,112.70906 95.524143,112.61834 95.472303,112.59889 C 95.413983,112.57946 95.384822,112.51466 95.384822,112.40449 C 95.384822,112.13234 95.721773,111.84398 96.395703,111.53941 C 97.076103,111.22838 97.863413,110.96594 98.757663,110.75209 C 99.658373,110.53825 100.39061,110.43133 100.95438,110.43132 C 101.89397,110.43133 102.63917,110.43457 103.18998,110.44104 C 103.74077,110.44753 104.25593,110.45401 104.73545,110.46048 L 104.87154,110.46048 C 105.15665,110.46049 105.36401,110.45077 105.49361,110.43132 L 105.49361,110.88817 M 112.93731,118.92661 C 112.9373,119.10157 112.91462,119.20525 112.86927,119.23765 C 112.8239,119.27653 112.72022,119.29597 112.55823,119.29597 C 112.45454,119.29597 112.0139,119.15665 111.23631,118.87801 C 110.4587,118.59937 110.03102,118.46005 109.95327,118.46005 C 109.92086,118.46005 109.69406,118.37581 109.27287,118.20733 C 108.85166,118.03237 108.39806,117.80557 107.91207,117.52693 C 107.43255,117.24181 106.99515,116.90161 106.59987,116.50633 C 107.13123,116.25361 107.62046,115.99117 108.06759,115.71901 C 108.52118,115.44685 108.74798,114.93169 108.74799,114.17353 C 108.74798,113.55794 108.4985,113.03306 107.99955,112.59889 C 107.50707,112.15826 107.07291,111.93794 106.69707,111.93793 C 106.43787,111.93794 106.21755,112.15826 106.03611,112.59889 C 105.85467,113.03306 105.76395,113.52878 105.76395,114.08605 C 105.76395,114.24806 105.83523,114.66602 105.97779,115.33993 C 106.12035,116.01385 106.27263,116.71693 106.43463,117.44917 C 106.60311,118.18141 106.69059,118.54753 106.69707,118.54753 L 106.69707,118.92661 L 106.14303,118.92661 C 105.85143,118.55725 105.63111,117.94165 105.48207,117.07981 C 105.33303,116.21149 105.19695,115.39177 105.07383,114.62065 C 104.89887,113.8625 104.63319,113.45102 104.27679,113.38621 C 104.30271,113.2955 104.33511,113.07842 104.37399,112.73497 C 104.40639,112.39154 104.56191,112.21982 104.84055,112.21981 C 104.85999,112.21982 104.92155,112.24574 105.02523,112.29757 C 105.12891,112.34942 105.25203,112.41746 105.39459,112.50169 C 105.54363,112.2425 105.69591,111.98006 105.85143,111.71437 C 106.08471,111.42926 106.39899,111.2867 106.79427,111.28669 C 107.40987,111.2867 107.9963,111.6107 108.55359,112.25869 C 109.11734,112.9067 109.39922,113.51582 109.39923,114.08605 C 109.39922,114.53318 109.23398,114.98029 108.90351,115.42741 C 108.54062,115.84861 108.17774,116.26981 107.81487,116.69101 C 107.81486,116.81413 108.13238,116.99233 108.76743,117.22561 C 109.40246,117.45889 109.96298,117.68893 110.44899,117.91573 C 110.94146,118.13605 111.33998,118.28185 111.64455,118.35313 C 111.95558,118.42441 112.27634,118.46005 112.60683,118.46005 L 112.93731,118.46005 C 113.07338,118.46005 113.14142,118.50217 113.14143,118.58641 C 113.14142,118.65121 113.1155,118.71601 113.06367,118.78081 C 113.01182,118.84561 112.9697,118.89421 112.93731,118.92661"
         style="font-size:12px;font-style:normal;font-weight:normal;fill:#000000;fill-opacity:1;stroke:none;stroke-width:1pt;stroke-linecap:butt;stroke-linejoin:miter;stroke-opacity:1;font-family:Bitstream Vera Sans" />
      <path
         sodipodi:nodetypes="cc"
         id="path1935"
         d="M 71.203373,107.67163 C 82.623603,107.67163 87.112922,107.67163 87.112922,107.67163"
         style="fill:none;fill-opacity:0.75;fill-rule:evenodd;stroke:#000000;stroke-width:0.81;stroke-linecap:butt;stroke-linejoin:miter;marker-end:url(#Arrow2Mend);stroke-miterlimit:4;stroke-dasharray:none;stroke-opacity:1" />
      <path
         sodipodi:nodetypes="cc"
         id="path1937"
         d="M 70.748054,92.91587 C 130.87515,92.662591 134.99084,92.804713 134.99084,92.804713"
         style="fill:none;fill-opacity:0.75;fill-rule:evenodd;stroke:#000000;stroke-width:0.81;stroke-linecap:butt;stroke-linejoin:miter;marker-end:url(#Arrow2Mend);stroke-miterlimit:4;stroke-dasharray:none;stroke-opacity:1" />
      <path
         sodipodi:nodetypes="cc"
         id="path1939"
         d="M 27.846467,122.68475 C 81.44221,122.68475 87.077743,122.68475 87.077743,122.68475"
         style="fill:none;fill-opacity:0.75;fill-rule:evenodd;stroke:#000000;stroke-width:0.81;stroke-linecap:butt;stroke-linejoin:miter;marker-end:url(#Arrow2Mend);stroke-miterlimit:4;stroke-dasharray:none;stroke-opacity:1" />
      <path
         sodipodi:nodetypes="cc"
         id="path1941"
         d="M 27.440565,102.70964 C 36.158374,102.70964 40.170107,102.70964 40.170107,102.70964"
         style="fill:none;fill-opacity:0.75;fill-rule:evenodd;stroke:#000000;stroke-width:0.81;stroke-linecap:butt;stroke-linejoin:miter;marker-end:url(#Arrow2Mend);stroke-miterlimit:4;stroke-dasharray:none;stroke-opacity:1" />
      <path
         sodipodi:nodetypes="cc"
         id="path1943"
         d="M 117.61361,114.88454 C 131.27211,114.88454 134.96637,114.98015 134.96637,114.98015"
         style="fill:none;fill-opacity:0.75;fill-rule:evenodd;stroke:#000000;stroke-width:0.80701923;stroke-linecap:butt;stroke-linejoin:miter;marker-end:url(#Arrow2Mend);stroke-miterlimit:4;stroke-dasharray:none;stroke-opacity:1" />
      <path
         sodipodi:nodetypes="cc"
         id="path1945"
         d="M 165.91516,102.71263 C 171.28247,102.71263 175.38972,102.80815 175.38972,102.80815"
         style="fill:none;fill-opacity:0.75;fill-rule:evenodd;stroke:#000000;stroke-width:0.81;stroke-linecap:butt;stroke-linejoin:miter;marker-end:url(#Arrow2Mend);stroke-miterlimit:4;stroke-dasharray:none;stroke-opacity:1" />
    </g>
    <g
       id="g3401">
      <rect
         ry="0.083280176"
         rx="0.77712548"
         y="131.28351"
         x="26.337263"
         height="1.7901171"
         width="179.36977"
         id="rect3339"
         style="opacity:1;fill:url(#linearGradient3347);fill-opacity:1;fill-rule:nonzero;stroke:#9b0000;stroke-width:0;stroke-miterlimit:4;stroke-dasharray:none;stroke-opacity:1;filter:url(#filter3367)" />
      <rect
         ry="0.083280176"
         rx="0.77712548"
         y="138.26495"
         x="26.516272"
         height="1.7901171"
         width="179.36977"
         id="rect3355"
         style="opacity:1;fill:url(#linearGradient3357);fill-opacity:1;fill-rule:nonzero;stroke:#9b0000;stroke-width:0;stroke-miterlimit:4;stroke-dasharray:none;stroke-opacity:1;filter:url(#filter3371)" />
      <rect
         ry="0.083280176"
         rx="0.77712548"
         y="145.0674"
         x="26.516272"
         height="1.7901171"
         width="179.36977"
         id="rect3359"
         style="opacity:1;fill:url(#linearGradient3361);fill-opacity:1;fill-rule:nonzero;stroke:#9b0000;stroke-width:0;stroke-miterlimit:4;stroke-dasharray:none;stroke-opacity:1;filter:url(#filter3375)" />
      <rect
         ry="0.083280176"
         rx="0.77712548"
         y="151.51183"
         x="26.516272"
         height="1.7901171"
         width="179.36977"
         id="rect3363"
         style="opacity:1;fill:url(#linearGradient3365);fill-opacity:1;fill-rule:nonzero;stroke:#9b0000;stroke-width:0;stroke-miterlimit:4;stroke-dasharray:none;stroke-opacity:1;filter:url(#filter3379)" />
    </g>
    <path
       sodipodi:type="arc"
       style="opacity:1;fill:url(#radialGradient3231);fill-opacity:1;fill-rule:nonzero;stroke:#9b0000;stroke-width:0;stroke-miterlimit:4;stroke-dasharray:none;stroke-opacity:1;filter:url(#filter3329)"
       id="path2435"
       sodipodi:cx="-53.524509"
       sodipodi:cy="93.037285"
       sodipodi:rx="25.240654"
       sodipodi:ry="23.987572"
       d="M -28.283855,93.037285 A 25.240654,23.987572 0 1 1 -78.765163,93.037285 A 25.240654,23.987572 0 1 1 -28.283855,93.037285 z"
       transform="matrix(3.64,0,0,3.64,404.65352,-138.98973)" />
    <g
       id="g2552"
       transform="matrix(0.7351246,0,0,0.7853559,137.06793,14.796209)">
      <text
         id="text1907"
         y="84.722809"
         x="76.007019"
         style="font-size:12px;font-style:normal;font-weight:normal;fill:#000000;fill-opacity:1;stroke:none;stroke-width:1pt;stroke-linecap:butt;stroke-linejoin:miter;stroke-opacity:1;font-family:Bitstream Vera Sans"
         xml:space="preserve"><tspan
           id="tspan1911"
           y="84.722809"
           x="76.007019"
           sodipodi:role="line"><tspan
   id="tspan3018"
   style="font-weight:bold">K</tspan>iel</tspan></text>
      <text
         id="text2507"
         y="108.81635"
         x="75.200089"
         style="font-size:12px;font-style:normal;font-weight:normal;fill:#000000;fill-opacity:1;stroke:none;stroke-width:1pt;stroke-linecap:butt;stroke-linejoin:miter;stroke-opacity:1;font-family:Bitstream Vera Sans"
         xml:space="preserve"><tspan
           id="tspan2509"
           y="108.81635"
           x="75.200089"
           sodipodi:role="line"><tspan
   id="tspan2515"
   style="font-weight:bold">E</tspan>nvironment for</tspan></text>
      <text
         id="text2519"
         y="96.643555"
         x="75.916138"
         style="font-size:12px;font-style:normal;font-weight:normal;fill:#000000;fill-opacity:1;stroke:none;stroke-width:1pt;stroke-linecap:butt;stroke-linejoin:miter;stroke-opacity:1;font-family:Bitstream Vera Sans"
         xml:space="preserve"><tspan
           id="tspan2521"
           y="96.643555"
           x="75.916138"
           sodipodi:role="line"><tspan
   id="tspan2525"
   style="font-weight:bold">I</tspan>ntegrated</tspan></text>
      <text
         id="text2531"
         y="120.98916"
         x="74.842064"
         style="font-size:12px;font-style:normal;font-weight:normal;fill:#000000;fill-opacity:1;stroke:none;stroke-width:1pt;stroke-linecap:butt;stroke-linejoin:miter;stroke-opacity:1;font-family:Bitstream Vera Sans"
         xml:space="preserve"><tspan
           id="tspan2533"
           y="120.98916"
           x="74.842064"
           sodipodi:role="line"><tspan
   id="tspan2535"
   style="font-weight:bold">L</tspan>ayout</tspan></text>
      <path
         sodipodi:nodetypes="csssssssccscssscssccccssssscsssccssssssscsssssscccccssssssssccsssssssssssccsssssssssssccssssccscsssssccssscscccsscscsssssscssssccsssssccssssssssssccsssccsccsscsssccsccssscccscscscssssssccsssssssccssssscssssssccssssssssssssscssccccssscssssc"
         id="text1915"
         d="M 83.872247,138.22421 C 83.658907,138.35221 83.464247,138.44555 83.288247,138.50421 C 83.112247,138.55755 82.952247,138.58421 82.808247,138.58421 C 82.802907,138.58421 82.584247,138.55488 82.152247,138.49621 C 81.725577,138.43755 81.365577,138.40821 81.072247,138.40821 C 80.784247,138.40821 80.541577,138.41888 80.344247,138.44021 C 80.152247,138.46155 80.000247,138.48555 79.888247,138.51221 C 79.781577,138.53888 79.557577,138.58421 79.216247,138.64821 C 78.874917,138.71221 78.448247,138.78688 77.936247,138.87221 C 77.365587,139.03221 77.080247,139.32821 77.080247,139.7602 C 77.016247,139.87754 76.952247,140.03754 76.888247,140.2402 C 76.824247,140.44287 76.792247,140.76021 76.792247,141.19221 C 76.760247,141.17621 76.728247,141.18688 76.696247,141.22421 C 76.669587,141.26154 76.656247,141.34954 76.656247,141.48821 C 76.656247,141.55221 76.658917,141.62954 76.664247,141.72021 C 76.669587,141.81088 76.680247,141.92288 76.696247,142.05621 C 77.074917,141.97621 77.354917,141.92288 77.536247,141.89621 C 77.717587,141.86954 77.856247,141.85621 77.952247,141.85621 C 77.984247,141.85621 78.010917,141.85888 78.032247,141.86421 L 81.384247,141.48021 L 81.768247,141.48021 C 81.645577,141.83221 81.133577,142.08554 80.232247,142.24021 C 79.437577,142.33088 78.632247,142.42421 77.816247,142.52021 C 77.005587,142.61088 76.600247,142.77354 76.600247,143.00821 C 76.600247,143.31221 76.832247,143.59754 77.296247,143.86421 C 77.760247,144.12554 78.421587,144.25621 79.280247,144.25621 C 79.706917,144.25621 80.248247,144.19221 80.904247,144.06421 C 81.560247,143.93621 81.973577,143.87221 82.144247,143.87221 C 82.053577,144.18687 81.893577,144.39487 81.664247,144.49621 C 81.440247,144.59754 81.136247,144.64821 80.752247,144.64821 C 80.672247,144.64821 80.541577,144.64554 80.360247,144.64021 C 80.178917,144.63487 80.040247,144.63221 79.944247,144.63221 L 78.800247,144.63221 C 77.749587,144.63221 76.992247,144.49354 76.528247,144.21621 C 76.069587,143.93354 75.840247,143.37087 75.840247,142.52821 C 75.840247,142.13888 75.885587,141.72021 75.976247,141.27221 C 76.072247,140.82421 76.120247,140.57354 76.120247,140.5202 C 76.120247,140.50954 76.133587,140.48554 76.160247,140.4482 C 76.192247,140.41087 76.208247,140.34687 76.208247,140.2562 C 76.208247,140.21354 76.205587,140.16021 76.200247,140.0962 C 76.194917,140.02687 76.184247,139.94687 76.168247,139.8562 C 75.848247,139.72287 75.666917,139.64821 75.624247,139.6322 C 75.576247,139.61621 75.552247,139.56288 75.552247,139.4722 C 75.552247,139.24821 75.829587,139.01088 76.384247,138.76021 C 76.944247,138.50421 77.592247,138.28821 78.328247,138.11221 C 79.069577,137.93621 79.672247,137.84821 80.136247,137.84821 C 80.909577,137.84821 81.522917,137.85088 81.976247,137.85621 C 82.429577,137.86155 82.853577,137.86688 83.248247,137.87221 L 83.360247,137.87221 C 83.594907,137.87221 83.765577,137.86421 83.872247,137.84821 L 83.872247,138.22421 M 90.038745,143.64821 C 89.078745,144.11754 88.468075,144.41087 88.206745,144.52821 C 87.950745,144.64554 87.420075,144.70421 86.614745,144.70421 C 85.580087,144.70421 84.721417,144.54954 84.038747,144.24021 C 83.356087,143.92554 83.014747,143.37621 83.014747,142.59221 C 83.014747,142.46421 83.148087,142.18688 83.414747,141.76021 C 83.686747,141.33354 84.068087,140.94154 84.558747,140.5842 C 85.049417,140.22687 85.628087,140.04821 86.294745,140.0482 C 86.417415,140.04821 86.590745,140.09621 86.814745,140.1922 C 87.038745,140.28287 87.217415,140.37621 87.350745,140.4722 L 87.350745,140.7922 C 87.270745,140.80821 87.201415,140.81621 87.142745,140.8162 C 87.089415,140.81621 86.940075,140.81354 86.694745,140.8082 C 86.449415,140.79754 86.244075,140.79221 86.078745,140.7922 C 85.454747,140.79221 84.910747,140.98687 84.446747,141.37621 C 83.988087,141.76554 83.758747,142.20554 83.758747,142.69621 C 83.758747,143.04287 84.028087,143.37621 84.566747,143.69621 C 85.110747,144.01621 85.756087,144.17621 86.502745,144.17621 C 87.041415,144.17621 87.502745,144.10954 87.886745,143.97621 C 88.276075,143.83754 88.609415,143.66954 88.886745,143.47221 C 88.988075,143.39221 89.089415,143.30954 89.190745,143.22421 C 89.206745,143.22421 89.284075,143.26954 89.422745,143.36021 C 89.561405,143.44554 89.766745,143.54154 90.038745,143.64821 M 89.960495,144.32821 C 89.939165,144.38687 89.912495,144.44554 89.880495,144.50421 C 89.848495,144.56287 89.808495,144.59221 89.760495,144.59221 C 89.669835,144.59221 89.587165,144.49354 89.512495,144.29621 C 89.437835,144.09354 89.360495,143.80287 89.280495,143.42421 C 89.200495,143.04554 89.080495,142.46421 88.920495,141.68021 C 88.765835,140.89087 88.659165,140.33354 88.600495,140.0082 C 88.541835,139.67754 88.512495,139.14955 88.512495,138.42421 C 88.507165,138.35488 88.504495,138.29355 88.504495,138.24021 C 88.504495,138.10155 88.520495,137.98955 88.552495,137.90421 C 88.589835,137.81888 88.664495,137.77621 88.776495,137.77621 C 88.867165,137.77621 88.923165,137.81621 88.944495,137.89621 C 88.971165,137.97088 88.984495,138.11488 88.984495,138.32821 L 88.984495,138.76821 C 88.984495,139.21621 88.997835,139.61088 89.024495,139.9522 C 89.056495,140.28821 89.104495,140.65354 89.168495,141.04821 C 89.232495,141.32021 89.325835,141.70154 89.448495,142.19221 C 89.571165,142.68287 89.685835,143.15487 89.792495,143.60821 C 89.904495,144.05621 89.960495,144.29621 89.960495,144.32821 M 91.788125,137.68021 C 91.788125,137.89355 91.753455,138.03488 91.684125,138.10421 C 91.620125,138.16821 91.486785,138.22955 91.284125,138.28821 C 91.257455,138.24021 91.225455,138.13621 91.188125,137.97621 C 91.156125,137.81088 91.140125,137.67221 91.140125,137.56021 C 91.140125,137.46421 91.150795,137.39221 91.172125,137.34421 C 91.193455,137.29621 91.230795,137.27221 91.284125,137.27221 C 91.476125,137.27221 91.606785,137.29621 91.676125,137.34421 C 91.750785,137.38688 91.788125,137.49888 91.788125,137.68021 M 94.924125,142.54421 C 94.924115,143.01887 94.572125,143.44021 93.868125,143.80821 C 93.169455,144.17621 92.508125,144.36021 91.884125,144.36021 C 91.457455,144.36021 91.193455,144.28821 91.092125,144.14421 C 90.990795,144.00021 90.865455,143.66687 90.716125,143.14421 C 90.652125,143.16021 90.588125,143.18954 90.524125,143.23221 C 90.465455,143.26954 90.412125,143.30954 90.364125,143.35221 L 89.452125,143.35221 L 89.452125,142.84821 C 90.060125,142.68821 90.462795,142.48554 90.660125,142.24021 C 90.862795,141.99488 91.009455,141.65088 91.100125,141.20821 C 91.190795,140.76554 91.302785,140.42954 91.436125,140.2002 C 91.606785,140.26954 91.777455,140.33621 91.948125,140.4002 C 92.054785,140.44821 92.188125,140.54954 92.348125,140.7042 C 92.076125,141.04021 91.862785,141.41621 91.708125,141.83221 C 91.553455,142.24821 91.476125,142.65354 91.476125,143.04821 C 91.476125,143.29887 91.532125,143.49621 91.644125,143.64021 C 91.756125,143.78421 91.902785,143.85621 92.084125,143.85621 C 92.196125,143.85621 92.468125,143.80554 92.900125,143.70421 C 93.337455,143.60287 93.748125,143.44021 94.132125,143.21621 C 94.521455,142.99221 94.716115,142.69887 94.716125,142.33621 C 94.774785,142.32021 94.817455,142.31221 94.844125,142.31221 C 94.881455,142.31221 94.908115,142.32021 94.924125,142.33621 C 94.940115,142.35221 94.948115,142.37888 94.948125,142.41621 C 94.948115,142.44821 94.945455,142.47488 94.940125,142.49621 C 94.940115,142.51221 94.934785,142.52821 94.924125,142.54421 M 98.037375,142.08021 C 98.037375,142.41621 97.888035,142.69887 97.589375,142.92821 C 97.296035,143.15754 96.888035,143.27221 96.365375,143.27221 C 96.232035,143.27221 96.085375,143.25621 95.925375,143.22421 C 95.765375,143.19221 95.650705,143.17621 95.581375,143.17621 C 95.512045,143.17621 95.448045,143.18421 95.389375,143.20021 C 95.336045,143.21087 95.264045,143.23487 95.173375,143.27221 L 95.173375,143.59221 C 95.194705,143.65621 95.258705,143.99487 95.365375,144.60821 C 95.472045,145.22687 95.538705,145.60287 95.565375,145.73621 C 95.624035,145.9602 95.682705,146.18687 95.741375,146.41621 C 95.736035,146.46954 95.730705,146.52554 95.725375,146.58421 C 95.741375,146.6002 95.757375,146.6162 95.773375,146.63221 C 95.789375,146.65354 95.797375,146.67487 95.797375,146.69621 C 95.797375,146.73887 95.757375,146.77354 95.677375,146.80021 C 95.602705,146.8322 95.461375,146.8482 95.253375,146.84821 C 95.232045,146.8482 95.144045,146.73887 94.989375,146.52021 C 94.840045,146.30687 94.698705,146.0082 94.565375,145.62421 C 94.437375,145.24554 94.373375,144.80554 94.373375,144.30421 L 94.373375,143.59221 C 94.373375,142.49888 94.440045,141.62954 94.573375,140.9842 C 94.712045,140.33354 95.096045,140.00821 95.725375,140.0082 C 96.205375,140.00821 96.709375,140.23487 97.237375,140.6882 C 97.770705,141.14154 98.037375,141.60554 98.037375,142.08021 M 97.477375,142.16021 C 97.477375,141.78688 97.280035,141.45088 96.885375,141.15221 C 96.490705,140.85354 96.130705,140.68554 95.805375,140.6482 L 95.253375,140.8402 C 95.210705,141.00554 95.189375,141.14421 95.189375,141.25621 C 95.205375,141.44821 95.218705,141.65088 95.229375,141.86421 C 95.245375,142.07221 95.253375,142.27754 95.253375,142.48021 C 95.370705,142.49621 95.562705,142.53888 95.829375,142.60821 C 96.096035,142.67754 96.354705,142.71221 96.605375,142.71221 C 96.962705,142.71221 97.197375,142.68021 97.309375,142.61621 C 97.421375,142.54688 97.477375,142.39488 97.477375,142.16021 M 103.85713,143.68821 C 103.85712,143.81621 103.72112,143.98687 103.44913,144.20021 C 103.17712,144.41354 102.85179,144.52021 102.47313,144.52021 L 100.44113,144.52021 C 99.886465,144.45621 99.331805,144.37621 98.777125,144.28021 C 98.222455,144.17887 97.945125,144.04554 97.945125,143.88021 C 97.945125,143.73621 97.990455,143.63221 98.081125,143.56821 C 98.166455,143.50421 98.553125,143.30154 99.241125,142.96021 L 99.617135,142.96021 L 99.617135,143.23221 C 99.361135,143.34954 99.206455,143.42687 99.153125,143.46421 C 99.099795,143.51754 99.038455,143.57621 98.969125,143.64021 C 99.102455,143.77354 99.385135,143.89354 99.817135,144.00021 C 100.25446,144.10154 100.77179,144.15221 101.36913,144.15221 C 101.69446,144.13087 102.03846,144.09354 102.40113,144.04021 C 102.76379,143.98154 103.03579,143.86421 103.21713,143.68821 C 102.96646,143.50154 102.34513,143.26154 101.35313,142.96821 C 100.36113,142.67487 99.593135,142.37621 99.049125,142.07221 C 98.505125,141.76821 98.233125,141.32288 98.233125,140.7362 C 98.233125,140.30954 98.326455,140.05087 98.513125,139.9602 C 98.699795,139.86421 99.035795,139.81621 99.521135,139.8162 C 99.862465,139.81621 100.11313,139.83487 100.27313,139.8722 C 100.43313,139.90954 100.57979,139.98421 100.71313,140.0962 L 100.71313,140.3762 C 100.44113,140.48821 100.26513,140.54421 100.18513,140.5442 C 100.14779,140.54421 100.12379,140.51754 100.11313,140.4642 C 100.10246,140.40554 100.05713,140.37621 99.977135,140.3762 C 99.731795,140.46154 99.483795,140.55487 99.233125,140.6562 C 98.987795,140.75221 98.865125,140.84021 98.865125,140.9202 C 98.865125,141.33088 99.097125,141.63754 99.561135,141.84021 C 100.03046,142.03754 100.86246,142.34154 102.05713,142.75221 C 103.25712,143.15754 103.85712,143.46954 103.85713,143.68821 M 109.572,144.32021 C 109.572,144.41621 109.516,144.52554 109.404,144.64821 C 109.292,144.77621 109.14,144.84021 108.948,144.84021 C 108.67067,144.84021 108.052,144.74154 107.092,144.54421 C 106.13734,144.34154 105.47067,144.15221 105.092,143.97621 C 104.71867,143.79487 104.45734,143.64287 104.308,143.52021 C 104.15867,143.39221 103.96134,143.17887 103.716,142.88021 C 103.59334,142.89621 103.48134,142.90421 103.38,142.90421 C 103.06534,142.90421 102.80401,142.82421 102.596,142.66421 C 102.38801,142.49888 102.28401,142.32288 102.284,142.13621 C 102.28401,142.02421 102.33201,141.93354 102.428,141.86421 C 102.51867,141.78954 102.64401,141.74154 102.804,141.72021 C 102.83601,141.75221 102.90001,141.81621 102.996,141.91221 C 103.09201,142.00288 103.16667,142.06954 103.22,142.11221 L 103.844,142.13621 C 103.844,141.59754 104.06267,141.16554 104.5,140.8402 C 104.93734,140.50954 105.37467,140.28021 105.812,140.1522 C 106.24934,140.01887 106.548,139.94687 106.708,139.9362 C 106.87333,139.92021 107.02267,139.90954 107.156,139.9042 C 107.65733,139.90421 108.09733,140.01887 108.476,140.2482 C 108.86,140.47221 109.052,140.75487 109.052,141.09621 C 109.052,141.27221 108.90267,141.49088 108.604,141.75221 C 108.31067,142.00821 107.86,142.23488 107.252,142.43221 C 106.644,142.62954 105.89467,142.72821 105.004,142.72821 C 104.92934,142.71754 104.87867,142.71221 104.852,142.71221 C 104.77734,142.71221 104.74,142.73087 104.74,142.76821 C 104.74,142.80554 104.78534,142.86687 104.876,142.95221 C 104.972,143.03754 105.06,143.11221 105.14,143.17621 C 105.47067,143.37887 105.80134,143.57887 106.132,143.77621 C 106.60134,143.93621 107.19067,144.01621 107.9,144.01621 C 108.16133,144.01621 108.324,143.96021 108.388,143.84821 C 108.452,143.73087 108.604,143.64554 108.844,143.59221 L 109.156,143.59221 L 109.572,144.32021 M 108.324,141.24821 C 108.228,140.97087 108.06533,140.78954 107.836,140.7042 C 107.60667,140.61887 107.24933,140.57621 106.764,140.5762 C 106.19334,140.57621 105.71334,140.72021 105.324,141.0082 C 104.93467,141.29088 104.61467,141.70154 104.364,142.24021 C 104.444,142.20821 104.50534,142.19221 104.548,142.19221 C 104.58,142.19221 104.62,142.20021 104.668,142.21621 C 104.716,142.23221 104.75334,142.24021 104.78,142.24021 C 105.42534,142.24021 106.16134,142.13088 106.988,141.91221 C 107.81467,141.69354 108.26,141.47221 108.324,141.24821"
         style="font-size:12px;font-style:normal;font-weight:normal;fill:#ffffff;fill-opacity:1;stroke:none;stroke-width:1pt;stroke-linecap:butt;stroke-linejoin:miter;stroke-opacity:1;font-family:Bitstream Vera Sans" />
      <path
         sodipodi:nodetypes="csssssscsssssssscccsccsssccsssccsssccssccscsssssccssscscccsscscsssssscssssccssssssssccsssssssssssccssscscsssssssssssscccssccsssscccsssssssssssccsssssccssccccsssssssssssccssssccscsssssccssscscccsscscsssssscssssccssssscssssssccssssssssssssscssccccssscssssccsssscsccsscscsscsccccscccccsssssccsssccsccccsssccsssssccssssssccscssscsscsccsccsssssssssssccsssscccssccssssssscssssssssssscsssssssscccsssssssccscccccsssssccsssccsccccsssccssssssssscsssscsssscccssssssssssccsssscssccssscsccsssssssscscssccsssssscscsssccsssssscccsssssccsssscssscccssssccssscsssccssssssssccsssccsscsscsssssscc"
         id="path2544"
         d="M 82.717436,156.29695 C 82.717426,156.44095 82.698766,156.52628 82.661436,156.55295 C 82.624096,156.58495 82.538766,156.60095 82.405436,156.60095 C 82.320096,156.60095 81.957426,156.48628 81.317436,156.25695 C 80.677426,156.02761 80.325426,155.91295 80.261436,155.91295 C 80.234766,155.91295 80.048096,155.84361 79.701436,155.70495 C 79.354766,155.56095 78.981436,155.37428 78.581436,155.14495 C 78.186766,154.91028 77.826766,154.63028 77.501436,154.30495 C 77.938766,154.09695 78.341436,153.88095 78.709436,153.65695 C 79.082766,153.43295 79.269436,153.00895 79.269436,152.38494 C 79.269436,151.87828 79.064096,151.44628 78.653436,151.08894 C 78.248096,150.72628 77.890766,150.54495 77.581436,150.54495 C 77.368096,150.54495 77.186766,150.72628 77.037436,151.08894 C 76.888106,151.44628 76.813436,151.85428 76.813436,152.31294 C 76.813436,152.44628 76.872106,152.79028 76.989436,153.34495 C 77.106766,153.89962 77.232096,154.47828 77.365436,155.08095 C 77.504096,155.68361 77.576096,155.98495 77.581436,155.98495 L 77.581436,156.29695 L 77.125436,156.29695 C 76.885436,155.99295 76.704106,155.48628 76.581436,154.77695 C 76.458766,154.06228 76.346766,153.38762 76.245436,152.75295 C 76.101436,152.12895 75.882766,151.79028 75.589436,151.73694 C 75.610766,151.66228 75.637436,151.48361 75.669436,151.20094 C 75.696106,150.91828 75.824106,150.77695 76.053436,150.77694 C 76.069436,150.77695 76.120106,150.79828 76.205436,150.84094 C 76.290766,150.88362 76.392106,150.93962 76.509436,151.00894 C 76.632106,150.79562 76.757436,150.57962 76.885436,150.36095 C 77.077436,150.12629 77.336096,150.00895 77.661436,150.00895 C 78.168096,150.00895 78.650766,150.27562 79.109436,150.80894 C 79.573436,151.34228 79.805436,151.84361 79.805436,152.31294 C 79.805436,152.68095 79.669436,153.04895 79.397436,153.41695 C 79.098766,153.76362 78.800096,154.11028 78.501436,154.45695 C 78.501436,154.55828 78.762766,154.70495 79.285436,154.89695 C 79.808096,155.08895 80.269426,155.27828 80.669436,155.46495 C 81.074766,155.64628 81.402766,155.76628 81.653436,155.82495 C 81.909426,155.88361 82.173426,155.91295 82.445436,155.91295 L 82.717436,155.91295 C 82.829426,155.91295 82.885426,155.94761 82.885436,156.01695 C 82.885426,156.07028 82.864096,156.12361 82.821436,156.17695 C 82.778766,156.23028 82.744096,156.27028 82.717436,156.29695 M 83.397436,149.13695 C 83.397436,149.35029 83.362766,149.49162 83.293436,149.56095 C 83.229436,149.62495 83.096096,149.68629 82.893436,149.74495 C 82.866766,149.69695 82.834766,149.59295 82.797436,149.43295 C 82.765436,149.26762 82.749436,149.12895 82.749436,149.01695 C 82.749436,148.92095 82.760106,148.84895 82.781436,148.80095 C 82.802766,148.75295 82.840106,148.72895 82.893436,148.72895 C 83.085436,148.72895 83.216096,148.75295 83.285436,148.80095 C 83.360096,148.84362 83.397436,148.95562 83.397436,149.13695 M 86.533435,154.00095 C 86.533425,154.47561 86.181435,154.89695 85.477436,155.26495 C 84.778766,155.63295 84.117436,155.81695 83.493436,155.81695 C 83.066766,155.81695 82.802766,155.74495 82.701436,155.60095 C 82.600106,155.45695 82.474766,155.12361 82.325436,154.60095 C 82.261436,154.61695 82.197436,154.64628 82.133436,154.68895 C 82.074766,154.72628 82.021436,154.76628 81.973436,154.80895 L 81.061436,154.80895 L 81.061436,154.30495 C 81.669436,154.14495 82.072106,153.94228 82.269436,153.69695 C 82.472106,153.45162 82.618766,153.10762 82.709436,152.66495 C 82.800106,152.22228 82.912096,151.88628 83.045436,151.65694 C 83.216096,151.72628 83.386766,151.79295 83.557436,151.85694 C 83.664096,151.90495 83.797436,152.00628 83.957436,152.16094 C 83.685436,152.49695 83.472096,152.87295 83.317436,153.28895 C 83.162766,153.70495 83.085436,154.11028 83.085436,154.50495 C 83.085436,154.75561 83.141436,154.95295 83.253436,155.09695 C 83.365436,155.24095 83.512096,155.31295 83.693436,155.31295 C 83.805436,155.31295 84.077436,155.26228 84.509436,155.16095 C 84.946766,155.05961 85.357436,154.89695 85.741436,154.67295 C 86.130765,154.44895 86.325425,154.15561 86.325435,153.79295 C 86.384095,153.77695 86.426765,153.76895 86.453435,153.76895 C 86.490765,153.76895 86.517425,153.77695 86.533435,153.79295 C 86.549425,153.80895 86.557425,153.83562 86.557435,153.87295 C 86.557425,153.90495 86.554765,153.93162 86.549435,153.95295 C 86.549425,153.96895 86.544095,153.98495 86.533435,154.00095 M 93.038685,155.10495 C 92.078675,155.57428 91.468015,155.86761 91.206685,155.98495 C 90.950675,156.10228 90.420015,156.16095 89.614685,156.16095 C 88.580015,156.16095 87.721345,156.00628 87.038685,155.69695 C 86.356015,155.38228 86.014686,154.83295 86.014686,154.04895 C 86.014686,153.92095 86.148015,153.64362 86.414685,153.21695 C 86.686685,152.79028 87.068015,152.39828 87.558685,152.04094 C 88.049345,151.68361 88.628015,151.50495 89.294685,151.50494 C 89.417345,151.50495 89.590685,151.55295 89.814685,151.64894 C 90.038685,151.73961 90.217345,151.83295 90.350685,151.92894 L 90.350685,152.24894 C 90.270685,152.26495 90.201345,152.27295 90.142685,152.27294 C 90.089345,152.27295 89.940015,152.27028 89.694685,152.26494 C 89.449345,152.25428 89.244015,152.24895 89.078685,152.24894 C 88.454685,152.24895 87.910685,152.44361 87.446685,152.83295 C 86.988015,153.22228 86.758685,153.66228 86.758685,154.15295 C 86.758685,154.49961 87.028015,154.83295 87.566685,155.15295 C 88.110685,155.47295 88.756015,155.63295 89.502685,155.63295 C 90.041345,155.63295 90.502685,155.56628 90.886685,155.43295 C 91.276015,155.29428 91.609345,155.12628 91.886685,154.92895 C 91.988015,154.84895 92.089345,154.76628 92.190685,154.68095 C 92.206675,154.68095 92.284015,154.72628 92.422685,154.81695 C 92.561345,154.90228 92.766675,154.99828 93.038685,155.10495 M 94.936435,156.33695 C 94.760435,156.42228 94.611095,156.50228 94.488435,156.57695 C 94.365765,156.65161 94.301765,156.68895 94.296435,156.68895 C 94.003095,156.68895 93.779095,156.44095 93.624435,155.94495 C 93.475095,155.44895 93.331095,155.12895 93.192435,154.98495 C 93.096435,155.05961 92.965765,155.21695 92.800435,155.45695 C 92.635105,155.69161 92.397765,155.88895 92.088435,156.04895 C 92.035105,155.92628 91.995105,155.77961 91.968435,155.60895 C 91.941765,155.43828 91.928435,155.27828 91.928435,155.12895 C 91.928435,154.93695 91.939105,154.77428 91.960435,154.64095 C 91.981765,154.50228 92.003105,154.38228 92.024435,154.28095 C 91.987105,154.27028 91.947105,154.25428 91.904435,154.23295 C 91.867105,154.20628 91.835105,154.15028 91.808435,154.06495 C 91.755105,153.75562 91.688435,153.37695 91.608435,152.92895 C 91.533765,152.48095 91.443105,151.94495 91.336435,151.32094 C 91.224435,150.69162 91.168435,150.35295 91.168435,150.30495 C 91.168435,150.26762 91.152435,150.19029 91.120435,150.07295 C 91.083105,149.95029 91.064435,149.86495 91.064435,149.81695 C 91.064435,149.74762 91.077765,149.67829 91.104435,149.60895 C 91.125765,149.53962 91.171105,149.46229 91.240435,149.37695 C 91.453765,149.42495 91.597765,149.61162 91.672435,149.93695 C 91.763105,150.65162 91.856435,151.36361 91.952435,152.07294 C 92.021765,152.37161 92.091105,152.79028 92.160435,153.32895 C 92.235105,153.86228 92.272435,154.30228 92.272435,154.64895 C 92.272435,154.86761 92.259105,155.02761 92.232435,155.12895 L 92.448435,155.12895 C 92.613765,155.03295 92.760435,154.83295 92.888435,154.52895 C 93.016435,154.21961 93.176435,154.06495 93.368435,154.06495 C 93.555095,154.06495 93.688435,154.29161 93.768435,154.74495 C 93.853765,155.19295 93.952435,155.53428 94.064435,155.76895 C 94.181765,156.00361 94.472435,156.12095 94.936435,156.12095 L 94.936435,156.33695 M 107.74905,155.45695 C 107.67438,155.49961 107.22905,155.59028 106.41305,155.72895 C 105.60238,155.86761 104.78105,155.99028 103.94905,156.09695 C 103.11705,156.20895 102.55705,156.26495 102.26905,156.26495 C 101.23972,156.26495 100.46105,156.08895 99.933055,155.73695 C 99.410395,155.38495 99.077055,154.96361 98.933055,154.47295 C 98.789055,153.98228 98.717055,153.39562 98.717055,152.71295 C 98.717055,151.41695 99.106395,150.41695 99.885055,149.71295 C 100.66905,149.00895 101.66638,148.65695 102.87705,148.65695 C 103.56505,148.65695 104.07438,148.76895 104.40505,148.99295 C 104.74105,149.21695 104.90905,149.54495 104.90905,149.97695 C 104.90905,150.05695 104.86905,150.13162 104.78905,150.20095 C 104.71438,150.26495 104.63438,150.32362 104.54905,150.37695 C 104.41572,150.09429 104.28505,149.81162 104.15705,149.52895 C 103.94905,149.28362 103.52238,149.16095 102.87705,149.16095 C 101.82105,149.16095 100.98105,149.50495 100.35705,150.19295 C 99.738395,150.87562 99.429055,151.75028 99.429055,152.81695 C 99.429055,153.68095 99.557055,154.31561 99.813055,154.72095 C 100.06905,155.12628 100.42372,155.38495 100.87705,155.49695 C 101.33572,155.60361 101.97038,155.65695 102.78105,155.65695 L 104.09305,155.65695 C 104.31172,155.65695 104.67172,155.58228 105.17305,155.43295 C 105.67438,155.27828 106.11971,155.13161 106.50905,154.99295 C 106.89838,154.84895 107.21038,154.73161 107.44505,154.64095 L 107.74905,154.64095 L 107.74905,155.45695 M 107.8823,155.78495 C 107.86097,155.84361 107.8343,155.90228 107.8023,155.96095 C 107.7703,156.01961 107.7303,156.04895 107.6823,156.04895 C 107.59164,156.04895 107.50897,155.95028 107.4343,155.75295 C 107.35964,155.55028 107.2823,155.25961 107.2023,154.88095 C 107.1223,154.50228 107.0023,153.92095 106.8423,153.13695 C 106.68764,152.34761 106.58097,151.79028 106.5223,151.46494 C 106.46364,151.13428 106.4343,150.60629 106.4343,149.88095 C 106.42897,149.81162 106.4263,149.75029 106.4263,149.69695 C 106.4263,149.55829 106.4423,149.44629 106.4743,149.36095 C 106.51164,149.27562 106.5863,149.23295 106.6983,149.23295 C 106.78897,149.23295 106.84497,149.27295 106.8663,149.35295 C 106.89297,149.42762 106.9063,149.57162 106.9063,149.78495 L 106.9063,150.22495 C 106.9063,150.67295 106.91964,151.06762 106.9463,151.40894 C 106.9783,151.74495 107.0263,152.11028 107.0903,152.50495 C 107.1543,152.77695 107.24764,153.15828 107.3703,153.64895 C 107.49297,154.13961 107.60764,154.61161 107.7143,155.06495 C 107.8263,155.51295 107.8823,155.75295 107.8823,155.78495 M 109.70993,149.13695 C 109.70993,149.35029 109.67526,149.49162 109.60593,149.56095 C 109.54193,149.62495 109.40859,149.68629 109.20593,149.74495 C 109.17926,149.69695 109.14726,149.59295 109.10993,149.43295 C 109.07793,149.26762 109.06193,149.12895 109.06193,149.01695 C 109.06193,148.92095 109.0726,148.84895 109.09393,148.80095 C 109.11526,148.75295 109.1526,148.72895 109.20593,148.72895 C 109.39793,148.72895 109.52859,148.75295 109.59793,148.80095 C 109.67259,148.84362 109.70993,148.95562 109.70993,149.13695 M 112.84593,154.00095 C 112.84592,154.47561 112.49393,154.89695 111.78993,155.26495 C 111.09126,155.63295 110.42993,155.81695 109.80593,155.81695 C 109.37926,155.81695 109.11526,155.74495 109.01393,155.60095 C 108.9126,155.45695 108.78726,155.12361 108.63793,154.60095 C 108.57393,154.61695 108.50993,154.64628 108.44593,154.68895 C 108.38726,154.72628 108.33393,154.76628 108.28593,154.80895 L 107.37393,154.80895 L 107.37393,154.30495 C 107.98193,154.14495 108.3846,153.94228 108.58193,153.69695 C 108.7846,153.45162 108.93126,153.10762 109.02193,152.66495 C 109.1126,152.22228 109.22459,151.88628 109.35793,151.65694 C 109.52859,151.72628 109.69926,151.79295 109.86993,151.85694 C 109.97659,151.90495 110.10993,152.00628 110.26993,152.16094 C 109.99793,152.49695 109.78459,152.87295 109.62993,153.28895 C 109.47526,153.70495 109.39793,154.11028 109.39793,154.50495 C 109.39793,154.75561 109.45393,154.95295 109.56593,155.09695 C 109.67793,155.24095 109.82459,155.31295 110.00593,155.31295 C 110.11793,155.31295 110.38993,155.26228 110.82193,155.16095 C 111.25926,155.05961 111.66993,154.89695 112.05393,154.67295 C 112.44326,154.44895 112.63792,154.15561 112.63793,153.79295 C 112.69659,153.77695 112.73926,153.76895 112.76593,153.76895 C 112.80326,153.76895 112.82992,153.77695 112.84593,153.79295 C 112.86192,153.80895 112.86992,153.83562 112.86993,153.87295 C 112.86992,153.90495 112.86726,153.93162 112.86193,153.95295 C 112.86192,153.96895 112.85659,153.98495 112.84593,154.00095 M 118.10318,155.77695 C 118.10317,155.87295 118.04717,155.98228 117.93518,156.10495 C 117.82317,156.23295 117.67117,156.29695 117.47918,156.29695 C 117.20184,156.29695 116.58318,156.19828 115.62318,156.00095 C 114.66851,155.79828 114.00184,155.60895 113.62318,155.43295 C 113.24985,155.25161 112.98851,155.09961 112.83918,154.97695 C 112.68985,154.84895 112.49251,154.63561 112.24718,154.33695 C 112.12451,154.35295 112.01251,154.36095 111.91118,154.36095 C 111.59651,154.36095 111.33518,154.28095 111.12718,154.12095 C 110.91918,153.95562 110.81518,153.77962 110.81518,153.59295 C 110.81518,153.48095 110.86318,153.39028 110.95918,153.32095 C 111.04985,153.24628 111.17518,153.19828 111.33518,153.17695 C 111.36718,153.20895 111.43118,153.27295 111.52718,153.36895 C 111.62318,153.45962 111.69785,153.52628 111.75118,153.56895 L 112.37518,153.59295 C 112.37518,153.05428 112.59385,152.62228 113.03118,152.29694 C 113.46851,151.96628 113.90584,151.73695 114.34318,151.60894 C 114.78051,151.47561 115.07918,151.40361 115.23918,151.39294 C 115.40451,151.37695 115.55384,151.36628 115.68718,151.36094 C 116.18851,151.36095 116.62851,151.47561 117.00718,151.70494 C 117.39117,151.92895 117.58317,152.21161 117.58318,152.55295 C 117.58317,152.72895 117.43384,152.94762 117.13518,153.20895 C 116.84184,153.46495 116.39118,153.69162 115.78318,153.88895 C 115.17518,154.08628 114.42584,154.18495 113.53518,154.18495 C 113.46051,154.17428 113.40985,154.16895 113.38318,154.16895 C 113.30851,154.16895 113.27118,154.18761 113.27118,154.22495 C 113.27118,154.26228 113.31651,154.32361 113.40718,154.40895 C 113.50318,154.49428 113.59118,154.56895 113.67118,154.63295 C 114.00184,154.83561 114.33251,155.03561 114.66318,155.23295 C 115.13251,155.39295 115.72184,155.47295 116.43118,155.47295 C 116.69251,155.47295 116.85517,155.41695 116.91918,155.30495 C 116.98317,155.18761 117.13517,155.10228 117.37518,155.04895 L 117.68718,155.04895 L 118.10318,155.77695 M 116.85518,152.70495 C 116.75918,152.42761 116.59651,152.24628 116.36718,152.16094 C 116.13784,152.07561 115.78051,152.03295 115.29518,152.03294 C 114.72451,152.03295 114.24451,152.17695 113.85518,152.46494 C 113.46585,152.74762 113.14585,153.15828 112.89518,153.69695 C 112.97518,153.66495 113.03651,153.64895 113.07918,153.64895 C 113.11118,153.64895 113.15118,153.65695 113.19918,153.67295 C 113.24718,153.68895 113.28451,153.69695 113.31118,153.69695 C 113.95651,153.69695 114.69251,153.58762 115.51918,153.36895 C 116.34584,153.15028 116.79118,152.92895 116.85518,152.70495 M 122.79505,155.37695 C 122.79505,155.53161 122.73372,155.65428 122.61105,155.74495 C 122.48838,155.83028 122.34438,155.87295 122.17905,155.87295 C 121.98172,155.87295 121.81905,155.78228 121.69105,155.60095 C 121.56305,155.41428 121.32838,155.03561 120.98705,154.46495 C 120.64572,153.89428 120.37638,153.53428 120.17905,153.38495 C 120.00305,153.97162 119.80572,154.47828 119.58705,154.90495 C 119.36839,155.33161 119.06972,155.73961 118.69105,156.12895 L 118.31505,156.12895 C 118.12839,155.66495 117.98439,154.99828 117.88305,154.12895 C 117.78705,153.25428 117.70172,152.64628 117.62705,152.30494 C 117.55239,151.96361 117.36572,151.69961 117.06705,151.51294 C 117.15239,151.26228 117.21639,151.08628 117.25905,150.98494 C 117.30172,150.88362 117.36305,150.76895 117.44305,150.64095 C 117.77372,150.80095 117.99239,151.07562 118.09905,151.46494 C 118.20572,151.84895 118.30439,152.43295 118.39505,153.21695 C 118.49105,154.00095 118.60839,154.55561 118.74705,154.88095 C 119.02439,154.74761 119.29105,154.41961 119.54705,153.89695 C 119.80305,153.37428 119.93105,152.62228 119.93105,151.64094 L 120.30705,151.64094 L 122.79505,155.37695 M 126.23218,154.56895 C 126.23218,154.66495 126.18951,154.75828 126.10418,154.84895 C 126.01884,154.93961 125.91751,154.98495 125.80018,154.98495 L 124.90418,154.62495 L 124.75218,154.62495 L 124.75218,156.11295 L 124.36818,156.11295 C 124.22418,156.08095 123.91485,155.83561 123.44018,155.37695 C 122.96551,154.91828 122.72818,154.60895 122.72818,154.44895 C 122.72818,154.26228 122.95218,154.15828 123.40018,154.13695 C 123.85351,154.11561 124.08018,154.02228 124.08018,153.85695 C 124.08018,153.68095 124.02685,153.38228 123.92018,152.96095 C 123.81885,152.53428 123.76818,152.28095 123.76818,152.20094 L 122.76818,149.43295 C 122.84818,149.29962 122.91218,149.20895 122.96018,149.16095 C 123.00818,149.11295 123.07218,149.08895 123.15218,149.08895 C 123.24285,149.08895 123.45085,149.52095 123.77618,150.38495 C 124.10151,151.24895 124.30418,151.89961 124.38418,152.33694 L 124.68018,153.92895 C 124.75484,153.99828 125.03218,154.08628 125.51218,154.19295 C 125.99218,154.29961 126.23218,154.42495 126.23218,154.56895 M 124.08818,155.49695 L 124.08018,154.58495 L 123.88818,154.56895 C 123.81351,154.56895 123.74418,154.57428 123.68018,154.58495 C 123.61618,154.59028 123.58418,154.61961 123.58418,154.67295 C 123.58418,154.75295 123.65351,154.87828 123.79218,155.04895 C 123.93618,155.21961 124.03485,155.36895 124.08818,155.49695 M 133.40693,151.01694 C 133.40693,151.61428 133.23893,151.99828 132.90293,152.16894 C 132.56693,152.33428 132.11093,152.46228 131.53493,152.55295 C 130.95893,152.64362 130.67093,152.79562 130.67093,153.00895 C 130.67093,153.23828 130.7376,153.54228 130.87093,153.92095 C 131.00959,154.29428 131.19626,154.76361 131.43093,155.32895 C 131.66559,155.88895 131.79893,156.24628 131.83093,156.40095 L 131.33493,156.40095 C 131.24426,156.28895 131.06826,155.96895 130.80693,155.44095 C 130.5456,154.90761 130.29226,154.22495 130.04693,153.39295 C 129.8016,152.56095 129.67893,151.71561 129.67893,150.85694 C 129.67893,150.38762 129.7936,149.97962 130.02293,149.63295 C 130.2576,149.28629 130.5856,149.11295 131.00693,149.11295 C 131.64693,149.11295 132.20693,149.31029 132.68693,149.70495 C 133.16693,150.09962 133.40693,150.53695 133.40693,151.01694 M 132.74293,151.27294 C 132.74293,150.77162 132.62293,150.42495 132.38293,150.23295 C 132.14826,150.04095 131.82559,149.94495 131.41493,149.94495 C 131.40959,149.91829 131.38826,149.89962 131.35093,149.88895 C 131.31893,149.87295 131.27093,149.86495 131.20693,149.86495 C 131.14826,149.86495 131.07093,149.87295 130.97493,149.88895 C 130.88426,149.89962 130.78293,149.91829 130.67093,149.94495 C 130.54826,150.32362 130.4576,150.60629 130.39893,150.79294 C 130.3456,150.97428 130.31893,151.13161 130.31893,151.26494 C 130.31893,151.48361 130.42026,151.67828 130.62293,151.84894 C 130.80426,151.91828 130.94293,151.97695 131.03893,152.02494 C 131.13493,152.07295 131.19893,152.09695 131.23093,152.09694 L 131.41493,152.09694 C 131.76159,152.09695 132.06826,152.03028 132.33493,151.89694 C 132.60693,151.75828 132.74293,151.55028 132.74293,151.27294 M 135.0698,155.78495 C 135.04847,155.84361 135.0218,155.90228 134.9898,155.96095 C 134.9578,156.01961 134.9178,156.04895 134.8698,156.04895 C 134.77914,156.04895 134.69647,155.95028 134.6218,155.75295 C 134.54714,155.55028 134.4698,155.25961 134.3898,154.88095 C 134.3098,154.50228 134.1898,153.92095 134.0298,153.13695 C 133.87514,152.34761 133.76847,151.79028 133.7098,151.46494 C 133.65114,151.13428 133.6218,150.60629 133.6218,149.88095 C 133.61647,149.81162 133.6138,149.75029 133.6138,149.69695 C 133.6138,149.55829 133.6298,149.44629 133.6618,149.36095 C 133.69914,149.27562 133.7738,149.23295 133.8858,149.23295 C 133.97647,149.23295 134.03247,149.27295 134.0538,149.35295 C 134.08047,149.42762 134.0938,149.57162 134.0938,149.78495 L 134.0938,150.22495 C 134.0938,150.67295 134.10714,151.06762 134.1338,151.40894 C 134.1658,151.74495 134.2138,152.11028 134.2778,152.50495 C 134.3418,152.77695 134.43514,153.15828 134.5578,153.64895 C 134.68047,154.13961 134.79514,154.61161 134.9018,155.06495 C 135.0138,155.51295 135.0698,155.75295 135.0698,155.78495 M 142.60143,155.40095 L 142.52143,155.48895 C 142.36676,155.61161 142.11342,155.72361 141.76143,155.82495 C 141.40942,155.92095 141.17476,155.96895 141.05743,155.96895 C 140.56142,155.96895 140.12142,155.84895 139.73743,155.60895 C 139.41743,155.35295 139.10009,155.09428 138.78543,154.83295 C 138.40143,155.14761 137.93743,155.43028 137.39343,155.68095 C 136.85476,155.92628 136.31876,156.04895 135.78543,156.04895 C 135.6681,156.04895 135.52943,155.99561 135.36943,155.88895 C 135.21476,155.77695 135.13743,155.64361 135.13743,155.48895 C 135.13743,155.00895 135.4361,154.53695 136.03343,154.07295 C 136.63076,153.60362 137.35876,153.36895 138.21743,153.36895 C 138.42543,153.36895 138.56143,153.28362 138.62543,153.11295 C 138.67876,152.85695 138.73209,152.64628 138.78543,152.48095 C 138.55076,152.33161 138.26009,152.21428 137.91343,152.12894 C 137.56676,152.03828 137.26276,151.99295 137.00143,151.99294 C 136.78276,151.99295 136.48409,152.01428 136.10543,152.05694 C 135.72676,152.09961 135.45743,152.12095 135.29743,152.12094 C 135.15343,152.12095 135.02276,152.11295 134.90543,152.09694 C 134.7881,152.07561 134.6841,152.04628 134.59343,152.00894 C 134.50276,151.96628 134.45743,151.89161 134.45743,151.78494 C 134.45743,151.66761 134.4841,151.58761 134.53743,151.54494 C 134.59076,151.49695 134.6761,151.46495 134.79343,151.44894 C 134.91076,151.43295 135.03876,151.42495 135.17743,151.42494 C 135.42276,151.42495 135.64943,151.43295 135.85743,151.44894 C 136.06543,151.46495 136.25743,151.48628 136.43343,151.51294 C 136.96676,151.51295 137.48943,151.56095 138.00143,151.65694 C 138.51343,151.74761 138.96143,151.92628 139.34543,152.19294 C 139.72943,152.45961 139.92142,152.82495 139.92143,153.28895 C 139.92142,153.42762 139.84142,153.57962 139.68143,153.74495 C 139.52143,153.91028 139.44143,154.08361 139.44143,154.26495 C 139.44143,154.59561 139.64676,154.89695 140.05743,155.16895 C 140.47342,155.43561 140.94276,155.56895 141.46543,155.56895 C 141.56142,155.56895 141.71876,155.55028 141.93743,155.51295 C 142.15609,155.47561 142.32142,155.43828 142.43343,155.40095 L 142.60143,155.40095 M 138.70543,154.34495 C 138.67876,154.23828 138.65476,154.13161 138.63343,154.02495 C 138.59609,153.91295 138.45743,153.85695 138.21743,153.85695 C 137.55609,153.85695 136.95876,154.04362 136.42543,154.41695 C 135.8921,154.79028 135.62543,155.06228 135.62543,155.23295 C 135.62543,155.33428 135.65743,155.41695 135.72143,155.48095 C 135.78543,155.53961 135.88676,155.56895 136.02543,155.56895 C 136.45743,155.56895 136.91876,155.42495 137.40943,155.13695 C 137.90543,154.84361 138.33743,154.57961 138.70543,154.34495 M 144.41968,154.56895 C 144.41968,154.66495 144.37701,154.75828 144.29168,154.84895 C 144.20634,154.93961 144.10501,154.98495 143.98768,154.98495 L 143.09168,154.62495 L 142.93968,154.62495 L 142.93968,156.11295 L 142.55568,156.11295 C 142.41168,156.08095 142.10235,155.83561 141.62768,155.37695 C 141.15301,154.91828 140.91568,154.60895 140.91568,154.44895 C 140.91568,154.26228 141.13968,154.15828 141.58768,154.13695 C 142.04101,154.11561 142.26768,154.02228 142.26768,153.85695 C 142.26768,153.68095 142.21435,153.38228 142.10768,152.96095 C 142.00635,152.53428 141.95568,152.28095 141.95568,152.20094 L 140.95568,149.43295 C 141.03568,149.29962 141.09968,149.20895 141.14768,149.16095 C 141.19568,149.11295 141.25968,149.08895 141.33968,149.08895 C 141.43035,149.08895 141.63835,149.52095 141.96368,150.38495 C 142.28901,151.24895 142.49168,151.89961 142.57168,152.33694 L 142.86768,153.92895 C 142.94234,153.99828 143.21968,154.08628 143.69968,154.19295 C 144.17968,154.29961 144.41968,154.42495 144.41968,154.56895 M 142.27568,155.49695 L 142.26768,154.58495 L 142.07568,154.56895 C 142.00101,154.56895 141.93168,154.57428 141.86768,154.58495 C 141.80368,154.59028 141.77168,154.61961 141.77168,154.67295 C 141.77168,154.75295 141.84101,154.87828 141.97968,155.04895 C 142.12368,155.21961 142.22235,155.36895 142.27568,155.49695 M 148.17043,150.79294 C 148.11176,150.87295 148.04243,150.94228 147.96243,151.00094 C 147.88243,151.05962 147.80509,151.08895 147.73043,151.08894 C 147.68776,151.08895 147.63976,151.06762 147.58643,151.02494 C 147.53843,150.98228 147.51443,150.91028 147.51443,150.80894 C 147.51443,150.77162 147.51976,150.72095 147.53043,150.65695 C 147.54109,150.59295 147.54643,150.55829 147.54643,150.55295 C 147.54643,150.18495 147.35709,149.88362 146.97843,149.64895 C 146.60509,149.41429 146.26643,149.29695 145.96243,149.29695 C 145.43976,149.29695 145.03443,149.60895 144.74643,150.23295 C 144.45843,150.85162 144.31443,151.53961 144.31443,152.29694 C 144.35176,152.53695 144.4051,152.85428 144.47443,153.24895 C 144.5491,153.64362 144.6771,154.04362 144.85843,154.44895 C 145.04509,154.84895 145.28243,155.04895 145.57043,155.04895 C 145.88509,155.03295 146.20509,155.01161 146.53043,154.98495 C 146.85576,154.95295 147.06376,154.89428 147.15443,154.80895 C 147.25043,154.90495 147.32509,154.98228 147.37843,155.04095 C 147.43176,155.09428 147.45843,155.14761 147.45843,155.20095 C 147.45843,155.32361 147.42109,155.42495 147.34643,155.50495 C 147.27709,155.57961 147.15976,155.61695 146.99443,155.61695 C 146.87176,155.61695 146.71443,155.58495 146.52243,155.52095 L 145.41843,155.52095 L 145.41843,155.68095 C 145.54643,155.90495 145.69576,156.17961 145.86643,156.50495 C 146.04243,156.83028 146.13043,157.02761 146.13043,157.09695 C 146.08243,157.15028 146.02643,157.20361 145.96243,157.25695 C 145.90376,157.31028 145.82643,157.33695 145.73043,157.33695 C 145.59709,157.33695 145.31443,157.18228 144.88243,156.87295 C 144.45043,156.56361 144.05043,156.23828 143.68243,155.89695 C 143.31443,155.55028 143.13043,155.31828 143.13043,155.20095 C 143.13043,155.08895 143.22376,155.02228 143.41043,155.00095 C 143.59176,154.97428 143.7731,154.96095 143.95443,154.96095 C 144.03976,154.96095 144.1251,154.96361 144.21043,154.96895 C 144.3011,154.96895 144.3891,154.96895 144.47443,154.96895 L 144.47443,154.72895 C 144.31443,154.40895 144.1811,154.01962 144.07443,153.56095 C 143.9731,153.10228 143.92243,152.60095 143.92243,152.05694 C 143.92243,151.17161 144.0851,150.41162 144.41043,149.77695 C 144.73576,149.14229 145.25309,148.82495 145.96243,148.82495 C 146.67176,148.82495 147.18643,148.96362 147.50643,149.24095 C 147.77843,149.59829 147.98376,149.83829 148.12243,149.96095 C 148.26109,150.08362 148.33043,150.21962 148.33043,150.36895 C 148.33043,150.51829 148.27709,150.65962 148.17043,150.79294 M 145.09843,156.32895 C 145.03443,156.04628 144.95976,155.85428 144.87443,155.75295 C 144.79443,155.64628 144.68776,155.59295 144.55443,155.59295 C 144.47443,155.58761 144.4131,155.58495 144.37043,155.58495 C 144.32243,155.58495 144.2531,155.60095 144.16243,155.63295 C 144.2851,155.77161 144.43443,155.90761 144.61043,156.04095 C 144.78643,156.17428 144.9491,156.27028 145.09843,156.32895 M 154.13243,154.28095 C 154.14842,154.37695 154.15642,154.47028 154.15643,154.56095 C 154.15642,154.96095 153.97242,155.27295 153.60443,155.49695 C 153.23642,155.71561 152.79909,155.86228 152.29243,155.93695 C 151.79109,156.01161 151.27643,156.04895 150.74843,156.04895 C 150.07643,156.04895 149.45509,155.87028 148.88443,155.51295 C 148.31376,155.15028 148.02843,154.72361 148.02843,154.23295 C 148.02843,154.09961 148.08976,153.86762 148.21243,153.53695 C 148.34043,153.20095 148.51376,152.89428 148.73243,152.61695 C 148.9511,152.33428 149.47109,152.08361 150.29243,151.86494 C 150.31909,151.79028 150.34843,151.70761 150.38043,151.61694 C 150.41243,151.52095 150.47109,151.41161 150.55643,151.28894 C 150.87643,151.42228 151.31376,151.67561 151.86843,152.04894 C 152.42309,152.41695 152.92442,152.81162 153.37243,153.23295 C 153.82042,153.64895 154.07376,153.99828 154.13243,154.28095 M 153.62043,154.88895 C 153.62042,154.61161 153.43642,154.31028 153.06843,153.98495 C 152.70576,153.65428 152.29509,153.34495 151.83643,153.05695 C 151.37776,152.76895 151.13776,152.62495 151.11643,152.62495 C 151.11643,152.83295 151.05776,153.00628 150.94043,153.14495 C 150.82309,153.27828 150.59643,153.34495 150.26043,153.34495 C 150.12709,153.34495 150.03376,153.33162 149.98043,153.30495 C 149.92709,153.27295 149.85776,153.19028 149.77243,153.05695 C 149.45776,153.17962 149.22843,153.36095 149.08443,153.60095 C 148.94043,153.84095 148.8231,154.07295 148.73243,154.29695 C 148.73243,154.73961 149.0071,155.07295 149.55643,155.29695 C 150.10576,155.52095 150.65776,155.63295 151.21243,155.63295 C 151.99643,155.63295 152.55109,155.58495 152.87643,155.48895 C 153.20709,155.38761 153.45509,155.18761 153.62043,154.88895 M 158.1218,151.86494 C 157.91913,151.90761 157.75113,151.96628 157.6178,152.04094 C 157.4898,152.11028 157.3858,152.14495 157.3058,152.14494 C 157.19913,152.14495 157.10847,152.07028 157.0338,151.92094 C 156.95914,151.76628 156.87114,151.68895 156.7698,151.68894 C 156.51914,151.68895 156.23114,151.92895 155.9058,152.40894 C 155.58047,152.88362 155.4178,153.37962 155.4178,153.89695 C 155.4178,154.09961 155.4498,154.29695 155.5138,154.48895 L 155.5138,156.10495 L 155.0578,156.10495 C 154.94047,156.10495 154.77514,155.81695 154.5618,155.24095 C 154.3538,154.66495 154.2498,153.99295 154.2498,153.22495 C 154.2498,153.14495 154.24714,153.04628 154.2418,152.92895 C 154.23647,152.80628 154.2338,152.72362 154.2338,152.68095 C 154.2338,152.52095 154.25514,152.39295 154.2978,152.29694 C 154.3458,152.20095 154.4498,152.08895 154.6098,151.96094 L 154.8738,151.96094 C 154.90047,152.04628 154.91647,152.11561 154.9218,152.16894 C 154.92714,152.22228 154.9298,152.28628 154.9298,152.36094 C 154.9298,152.43561 154.91914,152.52362 154.8978,152.62495 C 154.87647,152.72628 154.8658,152.79562 154.8658,152.83295 C 154.8658,152.91295 154.90047,153.01162 154.9698,153.12895 C 155.2578,152.39828 155.58047,151.87295 155.9378,151.55294 C 156.30047,151.22761 156.66847,151.06495 157.0418,151.06494 C 157.05247,151.06495 157.18313,151.11561 157.4338,151.21694 C 157.68447,151.31295 157.9138,151.37961 158.1218,151.41694 L 158.1218,151.86494 M 166.58343,156.27295 C 166.36475,156.33695 166.14075,156.39828 165.91143,156.45695 C 165.68209,156.51561 165.54342,156.53428 165.49543,156.51295 C 165.44742,156.49161 165.29276,156.32628 165.03143,156.01695 C 164.77542,155.70228 164.52209,155.31828 164.27143,154.86495 C 164.02076,154.41161 163.86609,153.95828 163.80743,153.50495 L 163.56743,153.50495 C 163.28476,153.80895 163.11942,153.98762 163.07143,154.04095 C 163.02876,154.08895 163.00742,154.14761 163.00743,154.21695 C 162.86342,154.46228 162.67942,154.70761 162.45543,154.95295 C 162.23676,155.19295 161.92476,155.31295 161.51943,155.31295 C 161.24209,154.96095 161.07143,154.71295 161.00743,154.56895 C 160.94343,154.42495 160.91143,154.23828 160.91143,154.00895 C 160.91143,153.93428 160.91143,153.85695 160.91143,153.77695 C 160.91143,153.69162 160.91409,153.60095 160.91943,153.50495 L 160.67143,153.50495 C 160.48476,153.71828 160.27943,154.06762 160.05543,154.55295 C 159.83143,155.03828 159.63143,155.38761 159.45543,155.60095 C 159.28476,155.80895 159.00743,155.91295 158.62343,155.91295 C 158.42076,155.91295 158.24743,155.66228 158.10343,155.16095 C 157.96476,154.65428 157.89543,153.89962 157.89543,152.89695 C 157.89543,152.21961 157.92476,151.68895 157.98343,151.30494 C 158.04743,150.92095 158.18076,150.72895 158.38343,150.72894 C 158.58076,150.72895 158.70876,150.78228 158.76743,150.88894 C 158.83143,150.99562 158.86343,151.13161 158.86343,151.29694 L 158.86343,151.45694 C 158.8261,151.87828 158.79143,152.27828 158.75943,152.65695 C 158.73276,153.03028 158.71943,153.35295 158.71943,153.62495 C 158.71943,153.91828 158.72743,154.16361 158.74343,154.36095 C 158.76476,154.55295 158.80476,154.75028 158.86343,154.95295 L 159.11143,154.95295 C 159.44743,154.75028 159.66609,154.45695 159.76743,154.07295 C 159.86876,153.68895 159.96743,153.12895 160.06343,152.39294 C 160.15943,151.65161 160.28209,151.13695 160.43143,150.84894 C 160.84209,150.96095 161.10343,151.20095 161.21543,151.56894 C 161.32743,151.93695 161.43943,152.48628 161.55143,153.21695 C 161.66876,153.94228 161.81809,154.31828 161.99943,154.34495 C 162.25543,154.20095 162.54076,153.82228 162.85543,153.20895 C 163.17009,152.59562 163.32742,152.05161 163.32743,151.57694 C 163.32742,151.51295 163.38342,151.45695 163.49543,151.40894 C 163.60742,151.35561 163.71142,151.32895 163.80743,151.32894 C 164.03676,151.32895 164.22342,151.72361 164.36743,152.51295 C 164.51142,153.30228 164.71409,153.97695 164.97543,154.53695 C 165.24209,155.09161 165.77809,155.47028 166.58343,155.67295 L 166.58343,156.27295"
         style="font-size:12px;font-style:normal;font-weight:normal;fill:#ffffff;fill-opacity:1;stroke:none;stroke-width:1pt;stroke-linecap:butt;stroke-linejoin:miter;stroke-opacity:1;font-family:Bitstream Vera Sans" />
      <path
         sodipodi:nodetypes="cccsccccccccccccscccsssssssscscssccsssssscscsssccsssssscccsssssccsssscssscccscccccsssssccsssccsccccsssccssscscsssssssssssscccssccsssscccssssscssssssccssssssssssssscssccccssscssssc"
         id="path2550"
         d="M 78.270664,127.40735 L 78.270664,128.00501 L 77.583164,128.00501 C 77.325354,128.00501 77.145664,128.0571 77.044104,128.16125 C 76.945144,128.26543 76.895664,128.45293 76.895664,128.72375 L 76.895664,129.11047 L 78.079254,129.11047 L 78.079254,129.66907 L 76.895664,129.66907 L 76.895664,133.48548 L 76.173004,133.48548 L 76.173004,129.66907 L 75.485504,129.66907 L 75.485504,129.11047 L 76.173004,129.11047 L 76.173004,128.80579 C 76.173004,128.31881 76.286284,127.96465 76.512854,127.74329 C 76.739414,127.51934 77.098784,127.40736 77.590974,127.40735 L 78.270664,127.40735 M 84.218041,131.72548 C 84.234041,131.82148 84.242041,131.91481 84.242041,132.00548 C 84.242041,132.40548 84.058041,132.71748 83.690041,132.94148 C 83.322031,133.16014 82.884701,133.30681 82.378034,133.38148 C 81.876704,133.45614 81.362034,133.49348 80.834034,133.49348 C 80.162034,133.49348 79.540704,133.31481 78.970034,132.95748 C 78.399374,132.59481 78.114034,132.16814 78.114034,131.67748 C 78.114034,131.54414 78.175374,131.31215 78.298034,130.98148 C 78.426034,130.64548 78.599374,130.33881 78.818034,130.06148 C 79.036704,129.77881 79.556704,129.52814 80.378034,129.30947 C 80.404704,129.23481 80.434034,129.15214 80.466034,129.06147 C 80.498034,128.96548 80.556704,128.85614 80.642034,128.73347 C 80.962034,128.86681 81.399364,129.12014 81.954034,129.49347 C 82.508704,129.86148 83.010031,130.25615 83.458031,130.67748 C 83.906041,131.09348 84.159371,131.44281 84.218041,131.72548 M 83.706041,132.33348 C 83.706041,132.05614 83.522031,131.75481 83.154031,131.42948 C 82.791364,131.09881 82.380704,130.78948 81.922034,130.50148 C 81.463364,130.21348 81.223364,130.06948 81.202034,130.06948 C 81.202034,130.27748 81.143364,130.45081 81.026034,130.58948 C 80.908704,130.72281 80.682034,130.78948 80.346034,130.78948 C 80.212704,130.78948 80.119374,130.77615 80.066034,130.74948 C 80.012704,130.71748 79.943374,130.63481 79.858034,130.50148 C 79.543374,130.62415 79.314034,130.80548 79.170034,131.04548 C 79.026034,131.28548 78.908704,131.51748 78.818034,131.74148 C 78.818034,132.18414 79.092704,132.51748 79.642034,132.74148 C 80.191374,132.96548 80.743374,133.07748 81.298034,133.07748 C 82.082034,133.07748 82.636704,133.02948 82.962031,132.93348 C 83.292701,132.83214 83.540701,132.63214 83.706041,132.33348 M 88.207425,129.30947 C 88.004755,129.35214 87.836755,129.41081 87.703425,129.48547 C 87.575425,129.55481 87.471425,129.58948 87.391425,129.58947 C 87.284755,129.58948 87.194085,129.51481 87.119425,129.36547 C 87.044755,129.21081 86.956755,129.13348 86.855425,129.13347 C 86.604755,129.13348 86.316755,129.37348 85.991421,129.85347 C 85.666081,130.32815 85.503421,130.82415 85.503421,131.34148 C 85.503421,131.54414 85.535421,131.74148 85.599421,131.93348 L 85.599421,133.54948 L 85.143421,133.54948 C 85.026091,133.54948 84.860751,133.26148 84.647421,132.68548 C 84.439421,132.10948 84.335421,131.43748 84.335421,130.66948 C 84.335421,130.58948 84.332751,130.49081 84.327421,130.37348 C 84.322091,130.25081 84.319421,130.16815 84.319421,130.12548 C 84.319421,129.96548 84.340751,129.83748 84.383421,129.74147 C 84.431421,129.64548 84.535421,129.53348 84.695421,129.40547 L 84.959421,129.40547 C 84.986091,129.49081 85.002091,129.56014 85.007421,129.61347 C 85.012751,129.66681 85.015421,129.73081 85.015421,129.80547 C 85.015421,129.88014 85.004751,129.96815 84.983421,130.06948 C 84.962091,130.17081 84.951421,130.24015 84.951421,130.27748 C 84.951421,130.35748 84.986091,130.45615 85.055421,130.57348 C 85.343421,129.84281 85.666081,129.31748 86.023421,128.99747 C 86.386085,128.67214 86.754085,128.50948 87.127425,128.50947 C 87.138085,128.50948 87.268755,128.56014 87.519425,128.66147 C 87.770085,128.75748 87.999425,128.82414 88.207425,128.86147 L 88.207425,129.30947 M 95.349045,132.01348 C 95.349045,132.10948 95.306375,132.20281 95.221045,132.29348 C 95.135715,132.38414 95.034375,132.42948 94.917045,132.42948 L 94.021045,132.06948 L 93.869045,132.06948 L 93.869045,133.55748 L 93.485045,133.55748 C 93.341045,133.52548 93.031715,133.28014 92.557045,132.82148 C 92.082385,132.36281 91.845045,132.05348 91.845045,131.89348 C 91.845045,131.70681 92.069045,131.60281 92.517045,131.58148 C 92.970385,131.56014 93.197045,131.46681 93.197045,131.30148 C 93.197045,131.12548 93.143715,130.82681 93.037045,130.40548 C 92.935715,129.97881 92.885045,129.72548 92.885045,129.64547 L 91.885045,126.87748 C 91.965045,126.74415 92.029045,126.65348 92.077045,126.60548 C 92.125045,126.55748 92.189045,126.53348 92.269045,126.53348 C 92.359715,126.53348 92.567715,126.96548 92.893045,127.82948 C 93.218385,128.69348 93.421045,129.34414 93.501045,129.78147 L 93.797045,131.37348 C 93.871715,131.44281 94.149045,131.53081 94.629045,131.63748 C 95.109045,131.74414 95.349045,131.86948 95.349045,132.01348 M 93.205045,132.94148 L 93.197045,132.02948 L 93.005045,132.01348 C 92.930385,132.01348 92.861045,132.01881 92.797045,132.02948 C 92.733045,132.03481 92.701045,132.06414 92.701045,132.11748 C 92.701045,132.19748 92.770385,132.32281 92.909045,132.49348 C 93.053045,132.66414 93.151715,132.81348 93.205045,132.94148 M 98.115795,133.78148 C 97.939795,133.86681 97.790465,133.94681 97.667795,134.02148 C 97.545135,134.09614 97.481135,134.13348 97.475795,134.13348 C 97.182465,134.13348 96.958465,133.88548 96.803795,133.38948 C 96.654465,132.89348 96.510465,132.57348 96.371795,132.42948 C 96.275795,132.50414 96.145135,132.66148 95.979795,132.90148 C 95.814465,133.13614 95.577135,133.33348 95.267795,133.49348 C 95.214465,133.37081 95.174465,133.22414 95.147795,133.05348 C 95.121135,132.88281 95.107795,132.72281 95.107795,132.57348 C 95.107795,132.38148 95.118465,132.21881 95.139795,132.08548 C 95.161135,131.94681 95.182465,131.82681 95.203795,131.72548 C 95.166465,131.71481 95.126465,131.69881 95.083795,131.67748 C 95.046465,131.65081 95.014465,131.59481 94.987795,131.50948 C 94.934465,131.20015 94.867795,130.82148 94.787795,130.37348 C 94.713135,129.92548 94.622465,129.38948 94.515795,128.76547 C 94.403795,128.13615 94.347795,127.79748 94.347795,127.74948 C 94.347795,127.71215 94.331795,127.63482 94.299795,127.51748 C 94.262465,127.39482 94.243805,127.30948 94.243795,127.26148 C 94.243805,127.19215 94.257135,127.12282 94.283795,127.05348 C 94.305135,126.98415 94.350465,126.90682 94.419795,126.82148 C 94.633135,126.86948 94.777135,127.05615 94.851795,127.38148 C 94.942465,128.09615 95.035795,128.80814 95.131795,129.51747 C 95.201135,129.81614 95.270465,130.23481 95.339795,130.77348 C 95.414465,131.30681 95.451795,131.74681 95.451795,132.09348 C 95.451795,132.31214 95.438465,132.47214 95.411795,132.57348 L 95.627795,132.57348 C 95.793135,132.47748 95.939795,132.27748 96.067795,131.97348 C 96.195795,131.66414 96.355795,131.50948 96.547795,131.50948 C 96.734465,131.50948 96.867795,131.73614 96.947795,132.18948 C 97.033135,132.63748 97.131795,132.97881 97.243795,133.21348 C 97.361135,133.44814 97.651795,133.56548 98.115795,133.56548 L 98.115795,133.78148 M 103.70442,133.22148 C 103.70441,133.31748 103.64841,133.42681 103.53642,133.54948 C 103.42441,133.67748 103.27241,133.74148 103.08042,133.74148 C 102.80308,133.74148 102.18442,133.64281 101.22442,133.44548 C 100.26975,133.24281 99.603085,133.05348 99.224425,132.87748 C 98.851095,132.69614 98.589755,132.54414 98.440425,132.42148 C 98.291095,132.29348 98.093755,132.08014 97.848425,131.78148 C 97.725755,131.79748 97.613755,131.80548 97.512425,131.80548 C 97.197755,131.80548 96.936425,131.72548 96.728425,131.56548 C 96.520425,131.40015 96.416425,131.22415 96.416425,131.03748 C 96.416425,130.92548 96.464425,130.83481 96.560425,130.76548 C 96.651095,130.69081 96.776425,130.64281 96.936425,130.62148 C 96.968425,130.65348 97.032425,130.71748 97.128425,130.81348 C 97.224425,130.90415 97.299095,130.97081 97.352425,131.01348 L 97.976425,131.03748 C 97.976425,130.49881 98.195095,130.06681 98.632425,129.74147 C 99.069755,129.41081 99.507085,129.18148 99.944425,129.05347 C 100.38175,128.92014 100.68042,128.84814 100.84042,128.83747 C 101.00575,128.82148 101.15508,128.81081 101.28842,128.80547 C 101.78975,128.80548 102.22975,128.92014 102.60842,129.14947 C 102.99241,129.37348 103.18441,129.65614 103.18442,129.99748 C 103.18441,130.17348 103.03508,130.39215 102.73642,130.65348 C 102.44308,130.90948 101.99242,131.13615 101.38442,131.33348 C 100.77642,131.53081 100.02708,131.62948 99.136425,131.62948 C 99.061755,131.61881 99.011095,131.61348 98.984425,131.61348 C 98.909755,131.61348 98.872425,131.63214 98.872425,131.66948 C 98.872425,131.70681 98.917755,131.76814 99.008425,131.85348 C 99.104425,131.93881 99.192425,132.01348 99.272425,132.07748 C 99.603085,132.28014 99.933755,132.48014 100.26442,132.67748 C 100.73375,132.83748 101.32308,132.91748 102.03242,132.91748 C 102.29375,132.91748 102.45641,132.86148 102.52042,132.74948 C 102.58441,132.63214 102.73641,132.54681 102.97642,132.49348 L 103.28842,132.49348 L 103.70442,133.22148 M 102.45642,130.14948 C 102.36042,129.87214 102.19775,129.69081 101.96842,129.60547 C 101.73908,129.52014 101.38175,129.47748 100.89642,129.47747 C 100.32575,129.47748 99.845755,129.62148 99.456425,129.90947 C 99.067095,130.19215 98.747095,130.60281 98.496425,131.14148 C 98.576425,131.10948 98.637755,131.09348 98.680425,131.09348 C 98.712425,131.09348 98.752425,131.10148 98.800425,131.11748 C 98.848425,131.13348 98.885755,131.14148 98.912425,131.14148 C 99.557755,131.14148 100.29375,131.03215 101.12042,130.81348 C 101.94708,130.59481 102.39242,130.37348 102.45642,130.14948"
         style="font-size:12px;font-style:normal;font-weight:normal;fill:#ffffff;fill-opacity:1;stroke:none;stroke-width:1pt;stroke-linecap:butt;stroke-linejoin:miter;stroke-opacity:1;font-family:Bitstream Vera Sans" />
    </g>
    <rect
       style="opacity:1;fill:#ffffff;fill-opacity:1;fill-rule:nonzero;stroke:#9b0000;stroke-width:0;stroke-miterlimit:4;stroke-dasharray:none;stroke-opacity:1;filter:url(#filter3415)"
       id="rect2720"
       width="249.90038"
       height="30.790018"
       x="23.831099"
       y="24.23448"
       rx="0.3086786"
       ry="0.69955355"
       inkscape:export-filename="/home/schm/studienarbeit/logosvn/images/kieler-splash3.png"
       inkscape:export-xdpi="179.7722"
       inkscape:export-ydpi="179.7722"
       transform="matrix(1.0673353,0,0,1.1627907,-10.913283,-8.9574764)" />
    <image
       y="27.629486"
       x="29.361824"
       id="image2582"
       height="24"
       width="72"
       sodipodi:absref="/home/schm/Desktop/cau-logo.png"
       xlink:href="/home/schm/Desktop/cau-logo.png" />
    <image
       y="26.850746"
       x="213.92743"
       id="image2716"
       height="24.948"
       width="48.599998"
       sodipodi:absref="/home/schm/Desktop/ifi-logo.png"
       xlink:href="/home/schm/Desktop/ifi-logo.png" />
    <rect
       style="opacity:1;fill:#ffffff;fill-opacity:1;fill-rule:nonzero;stroke:#9b0000;stroke-width:0;stroke-miterlimit:4;stroke-dasharray:none;stroke-opacity:1;filter:url(#filter3427)"
       id="rect3512"
       width="249.90038"
       height="30.790018"
       x="23.831102"
       y="158.49329"
       rx="0.3086786"
       ry="0.69955355"
       transform="matrix(1.0587392,0,0,1.3604651,-11.066455,-57.131301)" />
    <image
       y="162.42551"
       x="28.509291"
       id="image2649"
       height="21.6"
       width="18.450001"
       sodipodi:absref="/home/schm/Desktop/cau-siegel.gif"
       xlink:href="/home/schm/Desktop/cau-siegel.gif" />
    <rect
       style="opacity:1;fill:#c8c8c8;fill-opacity:1;fill-rule:nonzero;stroke:#9b0000;stroke-width:0;stroke-miterlimit:4;stroke-dasharray:none;stroke-opacity:1"
       id="rect3441"
       width="218.03629"
       height="20.76536"
       x="49.608788"
       y="162.43155"
       rx="3.0155661"
       ry="0.35159016" />
    <rect
       style="opacity:1;fill:#646464;fill-opacity:1;fill-rule:nonzero;stroke:#9b0000;stroke-width:0;stroke-miterlimit:4;stroke-dasharray:none;stroke-opacity:1"
       id="rect3443"
       width="261.35712"
       height="9.308609"
       x="18.281746"
       y="184.98701"
       rx="3.614718"
       ry="0.15760937" />
  </g>
</svg>
