<?xml version="1.0" encoding="UTF-8" standalone="no"?>
<!-- Created with Inkscape (http://www.inkscape.org/) -->
<svg
   xmlns:dc="http://purl.org/dc/elements/1.1/"
   xmlns:cc="http://creativecommons.org/ns#"
   xmlns:rdf="http://www.w3.org/1999/02/22-rdf-syntax-ns#"
   xmlns:svg="http://www.w3.org/2000/svg"
   xmlns="http://www.w3.org/2000/svg"
   xmlns:xlink="http://www.w3.org/1999/xlink"
   xmlns:sodipodi="http://sodipodi.sourceforge.net/DTD/sodipodi-0.dtd"
   xmlns:inkscape="http://www.inkscape.org/namespaces/inkscape"
   width="250"
   height="165"
   id="svg2"
   sodipodi:version="0.32"
   inkscape:version="0.46"
   sodipodi:docbase="/home/haf/shared/kieler/trunk/common/doc/images"
   sodipodi:docname="kieler-splash2.svg"
   inkscape:export-filename="/Users/haf/shared/kieler/trunk/common/doc/images/kieler-trac-logo.png"
   inkscape:export-xdpi="150"
   inkscape:export-ydpi="150"
   inkscape:output_extension="org.inkscape.output.svg.inkscape"
   version="1.0">
  <defs
     id="defs4">
    <linearGradient
       id="linearGradient3349">
      <stop
         id="stop3351"
         offset="0"
         style="stop-color:#c8c8c8;stop-opacity:1;" />
      <stop
         id="stop3353"
         offset="1"
         style="stop-color:#646464;stop-opacity:1;" />
    </linearGradient>
    <linearGradient
       id="linearGradient3225">
      <stop
         style="stop-color:#6400c8;stop-opacity:1;"
         offset="0"
         id="stop3227" />
      <stop
         style="stop-color:#320064;stop-opacity:1;"
         offset="1"
         id="stop3229" />
    </linearGradient>
    <linearGradient
       id="linearGradient3200">
      <stop
         style="stop-color:#ffffff;stop-opacity:1;"
         offset="0"
         id="stop3212" />
      <stop
         style="stop-color:#9e9eff;stop-opacity:1;"
         offset="1"
         id="stop3210" />
    </linearGradient>
    <inkscape:perspective
       sodipodi:type="inkscape:persp3d"
       inkscape:vp_x="0 : 526.18109 : 1"
       inkscape:vp_y="0 : 1000 : 0"
       inkscape:vp_z="744.09448 : 526.18109 : 1"
       inkscape:persp3d-origin="372.04724 : 350.78739 : 1"
       id="perspective38" />
    <marker
       inkscape:stockid="Arrow1Mend"
       orient="auto"
       refY="0"
       refX="0"
       id="Arrow1Mend"
       style="overflow:visible">
      <path
         id="path2998"
         d="M 0,0 L 5,-5 L -12.5,0 L 5,5 L 0,0 z"
         style="fill-rule:evenodd;stroke:#000000;stroke-width:1pt;marker-start:none"
         transform="matrix(-0.4,0,0,-0.4,-4,0)" />
    </marker>
    <marker
       inkscape:stockid="Arrow2Mend"
       orient="auto"
       refY="0"
       refX="0"
       id="Arrow2Mend"
       style="overflow:visible">
      <path
         id="path2980"
         style="font-size:12px;fill-rule:evenodd;stroke-width:0.625;stroke-linejoin:round"
         d="M 8.7185878,4.0337352 L -2.2072895,0.016013256 L 8.7185884,-4.0017078 C 6.97309,-1.6296469 6.9831476,1.6157441 8.7185878,4.0337352 z"
         transform="scale(-0.6,-0.6)" />
    </marker>
    <marker
       inkscape:stockid="Arrow2Lend"
       orient="auto"
       refY="0"
       refX="0"
       id="Arrow2Lend"
       style="overflow:visible">
      <path
         id="path2986"
         style="font-size:12px;fill-rule:evenodd;stroke-width:0.625;stroke-linejoin:round"
         d="M 8.7185878,4.0337352 L -2.2072895,0.016013256 L 8.7185884,-4.0017078 C 6.97309,-1.6296469 6.9831476,1.6157441 8.7185878,4.0337352 z"
         transform="matrix(-1.1,0,0,-1.1,-1.1,0)" />
    </marker>
    <radialGradient
       inkscape:collect="always"
       xlink:href="#linearGradient3200"
       id="radialGradient3204"
       cx="149.13931"
       cy="74.339027"
       fx="149.13931"
       fy="74.339027"
       r="124.95019"
       gradientTransform="matrix(1.0025019,0,0,0.6604585,-0.5521182,57.821324)"
       gradientUnits="userSpaceOnUse" />
    <inkscape:perspective
       id="perspective2580"
       inkscape:persp3d-origin="372.04724 : 350.78739 : 1"
       inkscape:vp_z="744.09448 : 526.18109 : 1"
       inkscape:vp_y="0 : 1000 : 0"
       inkscape:vp_x="0 : 526.18109 : 1"
       sodipodi:type="inkscape:persp3d" />
    <inkscape:perspective
       id="perspective2647"
       inkscape:persp3d-origin="372.04724 : 350.78739 : 1"
       inkscape:vp_z="744.09448 : 526.18109 : 1"
       inkscape:vp_y="0 : 1000 : 0"
       inkscape:vp_x="0 : 526.18109 : 1"
       sodipodi:type="inkscape:persp3d" />
    <inkscape:perspective
       id="perspective2714"
       inkscape:persp3d-origin="372.04724 : 350.78739 : 1"
       inkscape:vp_z="744.09448 : 526.18109 : 1"
       inkscape:vp_y="0 : 1000 : 0"
       inkscape:vp_x="0 : 526.18109 : 1"
       sodipodi:type="inkscape:persp3d" />
    <radialGradient
       inkscape:collect="always"
       xlink:href="#linearGradient3225"
       id="radialGradient3231"
       cx="-62.833118"
       cy="78.721687"
       fx="-62.833118"
       fy="78.721687"
       r="25.240654"
       gradientTransform="matrix(1,0,0,0.9503546,0,4.6188729)"
       gradientUnits="userSpaceOnUse" />
    <filter
       inkscape:collect="always"
       id="filter3329">
      <feGaussianBlur
         inkscape:collect="always"
         stdDeviation="0.24614113"
         id="feGaussianBlur3331" />
    </filter>
    <linearGradient
       inkscape:collect="always"
       xlink:href="#linearGradient3349"
       id="linearGradient3347"
       x1="0"
       y1="201.5184"
       x2="71.246674"
       y2="201.5184"
       gradientUnits="userSpaceOnUse"
       gradientTransform="matrix(2.5175879,0,0,0.1190476,26.337264,108.18828)" />
    <linearGradient
       inkscape:collect="always"
       xlink:href="#linearGradient3349"
       id="linearGradient3357"
       gradientUnits="userSpaceOnUse"
       gradientTransform="matrix(2.5175879,0,0,0.1190476,26.516272,115.16974)"
       x1="0"
       y1="201.5184"
       x2="71.246674"
       y2="201.5184" />
    <linearGradient
       inkscape:collect="always"
       xlink:href="#linearGradient3349"
       id="linearGradient3361"
       gradientUnits="userSpaceOnUse"
       gradientTransform="matrix(2.5175879,0,0,0.1190476,26.516272,121.97218)"
       x1="0"
       y1="201.5184"
       x2="71.246674"
       y2="201.5184" />
    <linearGradient
       inkscape:collect="always"
       xlink:href="#linearGradient3349"
       id="linearGradient3365"
       gradientUnits="userSpaceOnUse"
       gradientTransform="matrix(2.5175879,0,0,0.1190476,26.516272,128.4166)"
       x1="0"
       y1="201.5184"
       x2="71.246674"
       y2="201.5184" />
    <filter
       inkscape:collect="always"
       id="filter3367"
       x="-0.0060598802"
       width="1.0121198"
       y="-0.6072001"
       height="2.2144002">
      <feGaussianBlur
         inkscape:collect="always"
         stdDeviation="0.45289971"
         id="feGaussianBlur3369" />
    </filter>
    <filter
       inkscape:collect="always"
       id="filter3371"
       x="-0.0060598802"
       width="1.0121198"
       y="-0.6072001"
       height="2.2144002">
      <feGaussianBlur
         inkscape:collect="always"
         stdDeviation="0.45289971"
         id="feGaussianBlur3373" />
    </filter>
    <filter
       inkscape:collect="always"
       id="filter3375"
       x="-0.0060598802"
       width="1.0121198"
       y="-0.6072001"
       height="2.2144002">
      <feGaussianBlur
         inkscape:collect="always"
         stdDeviation="0.45289971"
         id="feGaussianBlur3377" />
    </filter>
    <filter
       inkscape:collect="always"
       id="filter3379"
       x="-0.0060598802"
       width="1.0121198"
       y="-0.6072001"
       height="2.2144002">
      <feGaussianBlur
         inkscape:collect="always"
         stdDeviation="0.45289971"
         id="feGaussianBlur3381" />
    </filter>
    <filter
       inkscape:collect="always"
       id="filter3415"
       x="-0.01347851"
       width="1.026957"
       y="-0.10939535"
       height="1.2187907">
      <feGaussianBlur
         inkscape:collect="always"
         stdDeviation="1.403452"
         id="feGaussianBlur3417" />
    </filter>
    <filter
       inkscape:collect="always"
       id="filter3427"
       x="-0.01347851"
       width="1.026957"
       y="-0.10939535"
       height="1.2187907">
      <feGaussianBlur
         inkscape:collect="always"
         stdDeviation="1.403452"
         id="feGaussianBlur3429" />
    </filter>
  </defs>
  <sodipodi:namedview
     id="base"
     pagecolor="#ffffff"
     bordercolor="#666666"
     borderopacity="1.0"
     gridtolerance="10000"
     guidetolerance="10"
     objecttolerance="10"
     inkscape:pageopacity="0.0"
     inkscape:pageshadow="2"
     inkscape:zoom="2.793113"
     inkscape:cx="178.29009"
     inkscape:cy="59.667446"
     inkscape:document-units="px"
     inkscape:current-layer="layer1"
     inkscape:window-width="1280"
     inkscape:window-height="949"
     inkscape:window-x="0"
     inkscape:window-y="25"
     showgrid="false" />
  <metadata
     id="metadata7">
    <rdf:RDF>
      <cc:Work
         rdf:about="">
        <dc:format>image/svg+xml</dc:format>
        <dc:type
           rdf:resource="http://purl.org/dc/dcmitype/StillImage" />
      </cc:Work>
    </rdf:RDF>
  </metadata>
  <g
     inkscape:label="Layer 1"
     inkscape:groupmode="layer"
     id="layer1"
     transform="translate(-23.8311,-24.2833)">
    <rect
       style="opacity:1;fill:url(#radialGradient3204);fill-opacity:1;fill-rule:nonzero;stroke:#9b0000;stroke-width:0;stroke-miterlimit:4;stroke-dasharray:none;stroke-opacity:1"
       id="rect2408"
       width="250.52554"
       height="165.04881"
       x="23.697535"
       y="24.394753"
       rx="0.30279118"
       ry="0.69955355"
       inkscape:export-xdpi="179.94676"
       inkscape:export-ydpi="179.94676"
       inkscape:export-filename="/home/schm/studienarbeit/logosvn/images/kieler-splash7.png" />
    <g
       id="g3383"
       transform="translate(0,-12)">
      <rect
         ry="0.53713876"
         rx="0.31580028"
         y="99.521202"
         x="88.447746"
         height="30.684893"
         width="29.466228"
         id="rect1927"
         style="fill:#d5e5ff;fill-opacity:1;stroke:#2b0000;stroke-width:0.66270393;stroke-linecap:butt;stroke-linejoin:miter;stroke-miterlimit:4;stroke-dasharray:none;stroke-opacity:1" />
      <rect
         ry="0.53713876"
         rx="0.31580028"
         y="87.359413"
         x="41.466785"
         height="30.684893"
         width="29.466228"
         id="rect1925"
         style="fill:#d5e5ff;fill-opacity:1;stroke:#2b0000;stroke-width:0.66270393;stroke-linecap:butt;stroke-linejoin:miter;stroke-miterlimit:4;stroke-dasharray:none;stroke-opacity:1" />
      <rect
         ry="0.53713876"
         rx="0.31580028"
         y="87.359413"
         x="136.33969"
         height="30.684893"
         width="29.466228"
         id="rect1919"
         style="fill:#d5e5ff;fill-opacity:1;stroke:#2b0000;stroke-width:0.66270393;stroke-linecap:butt;stroke-linejoin:miter;stroke-miterlimit:4;stroke-dasharray:none;stroke-opacity:1" />
      <g
         transform="matrix(5.8706532e-2,0,0,5.8706532e-2,140.57074,91.698582)"
         id="g1884"
         style="overflow:visible">
        <path
           style="fill:#df002a"
           d="M 177.783,374.859 C 177.783,374.859 117.397,344.296 70.518,276.416 C 23.641,208.519 13.132,154.143 7.885,121.513 C 2.638,88.891 0,33 0,0 L 177.783,0 L 355.553,0 C 355.553,33 352.927,88.891 347.682,121.513 C 342.419,154.143 331.939,208.519 285.047,276.415 C 238.157,344.296 177.783,374.859 177.783,374.859"
           id="path1873" />
        <polygon
           style="fill:#ffffff"
           points="177.957,10.294 151.33,84.175 125.078,12.366 97.32,85.675 70.316,15.925 16.306,15.925 16.306,68.804 84.956,97.685 15.553,134.437 88.697,147.186 31.686,189.948 107.439,192.2 56.444,243.948 128.457,234.569 86.826,289.709 165.202,269.083 134.457,324.221 177.957,356.661 221.471,324.221 190.712,269.083 269.102,289.709 227.458,234.569 299.47,243.948 248.461,192.2 324.213,189.948 267.217,147.186 340.345,134.437 270.972,97.685 339.591,68.804 339.591,15.925 285.584,15.925 258.594,85.675 230.848,12.366 204.584,84.175 177.957,10.294 "
           id="polygon1875" />
        <path
           style="fill:#3c474c"
           d="M 151.071,177.434 C 141.107,174.734 130.138,171.977 122.045,166.756 C 129.65,175.417 140.592,184.378 151.059,188.828 L 151.071,177.434 z M 197.224,178.99 C 191.195,180.051 184.036,180.609 177.629,180.609 C 177.629,180.609 164.371,180.05 158.342,178.99 L 158.356,191.522 C 164.328,193.156 171.488,194.026 177.937,194.026 C 183.546,194.026 191.223,193.156 197.209,191.522 L 197.224,178.99 z M 174.225,174.232 C 160.953,173.751 146.467,170.707 135.274,166.605 L 135.302,153.214 C 146.409,157.275 160.798,160.198 174.21,160.673 L 174.225,174.232 z M 127.877,150.654 C 119.825,146.754 111.046,141.066 105.451,135.608 C 107.279,141.239 110.503,150.186 113.363,155.182 C 117.522,158.14 122.993,161.699 127.878,164.044 L 127.878,150.654 L 127.877,150.654 z M 197.098,153.102 C 191.153,153.925 184.286,154.373 177.909,154.373 C 171.517,154.373 164.414,153.925 158.454,153.102 L 158.454,141.462 C 164.386,142.251 171.503,142.663 177.909,142.663 C 184.315,142.663 191.167,142.251 197.098,141.462 L 197.098,153.102 L 197.098,153.102 z M 204.507,177.42 C 214.445,174.733 225.428,171.977 233.508,166.756 C 225.93,175.417 214.96,184.378 204.507,188.808 L 204.507,177.42 z M 181.342,174.232 C 194.613,173.751 209.085,170.707 220.279,166.605 L 220.251,153.214 C 209.157,157.275 194.769,160.198 181.371,160.673 L 181.342,174.232 z M 227.69,150.654 C 235.741,146.754 244.52,141.066 250.101,135.608 C 248.274,141.239 245.063,150.186 242.19,155.182 C 238.031,158.14 232.587,161.699 227.69,164.044 L 227.69,150.654 z M 204.592,151.881 L 204.592,140.34 C 209.49,139.32 215.017,137.611 219.344,136.104 L 219.344,118.485 L 228.484,118.485 L 228.484,132.376 C 243.557,125.19 253.032,114.843 253.103,103.35 L 264.687,103.35 C 264.853,105.778 264.812,107.642 264.812,110.126 C 264.812,163.06 226.727,206.658 177.797,206.736 C 129.37,206.371 90.754,163.06 90.754,110.126 C 90.754,107.642 90.713,105.778 90.88,103.35 L 102.463,103.35 C 102.532,114.844 112.008,125.19 127.082,132.376 L 127.082,118.485 L 136.208,118.485 L 136.208,136.104 C 140.549,137.612 146.075,139.321 150.988,140.34 L 150.988,151.881 C 143.996,150.353 136.585,147.839 130.655,145.28 C 130.655,145.28 128.085,144.183 126.831,143.535 C 124.695,142.495 122.616,141.38 120.662,140.207 C 105.045,131.358 98.011,122.19 97.328,121.458 C 102.324,165.487 136.488,199.93 177.783,200.015 C 219.789,199.93 253.228,165.488 258.252,121.458 C 257.555,122.19 250.534,131.358 234.903,140.207 C 232.935,141.38 230.884,142.495 228.734,143.535 C 227.478,144.183 226.181,144.825 224.841,145.482 C 224.842,145.483 211.556,150.353 204.592,151.881"
           id="path1877" />
      </g>
      <text
         id="text1899"
         y="106.47063"
         x="44.350899"
         style="font-size:9.72000027px;font-style:normal;font-weight:normal;fill:#000000;fill-opacity:1;stroke:none;stroke-width:1pt;stroke-linecap:butt;stroke-linejoin:miter;stroke-opacity:1;font-family:Bitstream Vera Sans"
         xml:space="preserve"><tspan
           style="font-size:10.52999973px;font-weight:bold;font-family:Arial"
           y="106.47063"
           x="44.350899"
           id="tspan1901"
           sodipodi:role="line">KIEL</tspan></text>
      <path
         id="text1903"
         d="M 105.49361,110.88817 C 105.23441,111.0437 104.99789,111.1571 104.78406,111.22837 C 104.57021,111.29318 104.37581,111.32558 104.20085,111.32557 C 104.19437,111.32558 103.92869,111.28994 103.40381,111.21865 C 102.88541,111.14738 102.44801,111.11174 102.09162,111.11173 C 101.74169,111.11174 101.44685,111.1247 101.2071,111.15061 C 100.97381,111.17654 100.78913,111.2057 100.65305,111.23809 C 100.52345,111.2705 100.25129,111.32558 99.836573,111.40333 C 99.421852,111.4811 98.903453,111.57182 98.281373,111.67549 C 97.588023,111.8699 97.241343,112.22954 97.241343,112.75441 C 97.163573,112.89698 97.085813,113.09138 97.008063,113.33761 C 96.930303,113.58386 96.891413,113.96942 96.891413,114.49429 C 96.852543,114.47486 96.813663,114.48782 96.774783,114.53317 C 96.742383,114.57854 96.726183,114.68546 96.726183,114.85393 C 96.726183,114.93169 96.729423,115.02565 96.735903,115.13581 C 96.742383,115.24597 96.755343,115.38205 96.774783,115.54405 C 97.234853,115.44685 97.575063,115.38205 97.795373,115.34965 C 98.015703,115.31725 98.184173,115.30105 98.300823,115.30105 C 98.339703,115.30105 98.372103,115.30429 98.398023,115.31077 L 102.4707,114.84421 L 102.93725,114.84421 C 102.78821,115.27189 102.16613,115.57969 101.07101,115.76761 C 100.10549,115.87777 99.127013,115.99117 98.135572,116.10781 C 97.150623,116.21797 96.658143,116.41561 96.658143,116.70073 C 96.658143,117.07009 96.940013,117.41677 97.503783,117.74077 C 98.067543,118.05829 98.871063,118.21705 99.914343,118.21705 C 100.43273,118.21705 101.09045,118.13929 101.88749,117.98377 C 102.68453,117.82825 103.18673,117.75049 103.3941,117.75049 C 103.28393,118.13281 103.08953,118.38553 102.8109,118.50865 C 102.53873,118.63177 102.16937,118.69333 101.70281,118.69333 C 101.60561,118.69333 101.44685,118.69009 101.22654,118.68361 C 101.00621,118.67713 100.83773,118.67389 100.7211,118.67389 L 99.331143,118.67389 C 98.054583,118.67389 97.134423,118.50541 96.570663,118.16845 C 96.013383,117.82501 95.734743,117.14137 95.734743,116.11753 C 95.734743,115.64449 95.789813,115.13581 95.899983,114.59149 C 96.016623,114.04718 96.074943,113.74262 96.074943,113.67781 C 96.074943,113.66486 96.091143,113.6357 96.123543,113.59033 C 96.162413,113.54498 96.181852,113.46722 96.181852,113.35705 C 96.181852,113.30522 96.178612,113.24042 96.172143,113.16265 C 96.165662,113.07842 96.152703,112.98122 96.133252,112.87105 C 95.744453,112.70906 95.524143,112.61834 95.472303,112.59889 C 95.413983,112.57946 95.384822,112.51466 95.384822,112.40449 C 95.384822,112.13234 95.721773,111.84398 96.395703,111.53941 C 97.076103,111.22838 97.863413,110.96594 98.757663,110.75209 C 99.658373,110.53825 100.39061,110.43133 100.95438,110.43132 C 101.89397,110.43133 102.63917,110.43457 103.18998,110.44104 C 103.74077,110.44753 104.25593,110.45401 104.73545,110.46048 L 104.87154,110.46048 C 105.15665,110.46049 105.36401,110.45077 105.49361,110.43132 L 105.49361,110.88817 M 112.93731,118.92661 C 112.9373,119.10157 112.91462,119.20525 112.86927,119.23765 C 112.8239,119.27653 112.72022,119.29597 112.55823,119.29597 C 112.45454,119.29597 112.0139,119.15665 111.23631,118.87801 C 110.4587,118.59937 110.03102,118.46005 109.95327,118.46005 C 109.92086,118.46005 109.69406,118.37581 109.27287,118.20733 C 108.85166,118.03237 108.39806,117.80557 107.91207,117.52693 C 107.43255,117.24181 106.99515,116.90161 106.59987,116.50633 C 107.13123,116.25361 107.62046,115.99117 108.06759,115.71901 C 108.52118,115.44685 108.74798,114.93169 108.74799,114.17353 C 108.74798,113.55794 108.4985,113.03306 107.99955,112.59889 C 107.50707,112.15826 107.07291,111.93794 106.69707,111.93793 C 106.43787,111.93794 106.21755,112.15826 106.03611,112.59889 C 105.85467,113.03306 105.76395,113.52878 105.76395,114.08605 C 105.76395,114.24806 105.83523,114.66602 105.97779,115.33993 C 106.12035,116.01385 106.27263,116.71693 106.43463,117.44917 C 106.60311,118.18141 106.69059,118.54753 106.69707,118.54753 L 106.69707,118.92661 L 106.14303,118.92661 C 105.85143,118.55725 105.63111,117.94165 105.48207,117.07981 C 105.33303,116.21149 105.19695,115.39177 105.07383,114.62065 C 104.89887,113.8625 104.63319,113.45102 104.27679,113.38621 C 104.30271,113.2955 104.33511,113.07842 104.37399,112.73497 C 104.40639,112.39154 104.56191,112.21982 104.84055,112.21981 C 104.85999,112.21982 104.92155,112.24574 105.02523,112.29757 C 105.12891,112.34942 105.25203,112.41746 105.39459,112.50169 C 105.54363,112.2425 105.69591,111.98006 105.85143,111.71437 C 106.08471,111.42926 106.39899,111.2867 106.79427,111.28669 C 107.40987,111.2867 107.9963,111.6107 108.55359,112.25869 C 109.11734,112.9067 109.39922,113.51582 109.39923,114.08605 C 109.39922,114.53318 109.23398,114.98029 108.90351,115.42741 C 108.54062,115.84861 108.17774,116.26981 107.81487,116.69101 C 107.81486,116.81413 108.13238,116.99233 108.76743,117.22561 C 109.40246,117.45889 109.96298,117.68893 110.44899,117.91573 C 110.94146,118.13605 111.33998,118.28185 111.64455,118.35313 C 111.95558,118.42441 112.27634,118.46005 112.60683,118.46005 L 112.93731,118.46005 C 113.07338,118.46005 113.14142,118.50217 113.14143,118.58641 C 113.14142,118.65121 113.1155,118.71601 113.06367,118.78081 C 113.01182,118.84561 112.9697,118.89421 112.93731,118.92661"
         style="font-size:12px;font-style:normal;font-weight:normal;fill:#000000;fill-opacity:1;stroke:none;stroke-width:1pt;stroke-linecap:butt;stroke-linejoin:miter;stroke-opacity:1;font-family:Bitstream Vera Sans" />
      <path
         sodipodi:nodetypes="cc"
         id="path1935"
         d="M 71.203373,107.67163 C 82.623603,107.67163 87.112922,107.67163 87.112922,107.67163"
         style="fill:none;fill-opacity:0.75;fill-rule:evenodd;stroke:#000000;stroke-width:0.81;stroke-linecap:butt;stroke-linejoin:miter;marker-end:url(#Arrow2Mend);stroke-miterlimit:4;stroke-dasharray:none;stroke-opacity:1" />
      <path
         sodipodi:nodetypes="cc"
         id="path1937"
         d="M 70.748054,92.91587 C 130.87515,92.662591 134.99084,92.804713 134.99084,92.804713"
         style="fill:none;fill-opacity:0.75;fill-rule:evenodd;stroke:#000000;stroke-width:0.81;stroke-linecap:butt;stroke-linejoin:miter;marker-end:url(#Arrow2Mend);stroke-miterlimit:4;stroke-dasharray:none;stroke-opacity:1" />
      <path
         sodipodi:nodetypes="cc"
         id="path1939"
         d="M 27.846467,122.68475 C 81.44221,122.68475 87.077743,122.68475 87.077743,122.68475"
         style="fill:none;fill-opacity:0.75;fill-rule:evenodd;stroke:#000000;stroke-width:0.81;stroke-linecap:butt;stroke-linejoin:miter;marker-end:url(#Arrow2Mend);stroke-miterlimit:4;stroke-dasharray:none;stroke-opacity:1" />
      <path
         sodipodi:nodetypes="cc"
         id="path1941"
         d="M 27.440565,102.70964 C 36.158374,102.70964 40.170107,102.70964 40.170107,102.70964"
         style="fill:none;fill-opacity:0.75;fill-rule:evenodd;stroke:#000000;stroke-width:0.81;stroke-linecap:butt;stroke-linejoin:miter;marker-end:url(#Arrow2Mend);stroke-miterlimit:4;stroke-dasharray:none;stroke-opacity:1" />
      <path
         sodipodi:nodetypes="cc"
         id="path1943"
         d="M 117.61361,114.88454 C 131.27211,114.88454 134.96637,114.98015 134.96637,114.98015"
         style="fill:none;fill-opacity:0.75;fill-rule:evenodd;stroke:#000000;stroke-width:0.80701923;stroke-linecap:butt;stroke-linejoin:miter;marker-end:url(#Arrow2Mend);stroke-miterlimit:4;stroke-dasharray:none;stroke-opacity:1" />
      <path
         sodipodi:nodetypes="cc"
         id="path1945"
         d="M 165.91516,102.71263 C 171.28247,102.71263 175.38972,102.80815 175.38972,102.80815"
         style="fill:none;fill-opacity:0.75;fill-rule:evenodd;stroke:#000000;stroke-width:0.81;stroke-linecap:butt;stroke-linejoin:miter;marker-end:url(#Arrow2Mend);stroke-miterlimit:4;stroke-dasharray:none;stroke-opacity:1" />
    </g>
    <g
       id="g3401">
      <rect
         ry="0.083280176"
         rx="0.77712548"
         y="131.28351"
         x="26.337263"
         height="1.7901171"
         width="179.36977"
         id="rect3339"
         style="opacity:1;fill:url(#linearGradient3347);fill-opacity:1;fill-rule:nonzero;stroke:#9b0000;stroke-width:0;stroke-miterlimit:4;stroke-dasharray:none;stroke-opacity:1;filter:url(#filter3367)" />
      <rect
         ry="0.083280176"
         rx="0.77712548"
         y="138.26495"
         x="26.516272"
         height="1.7901171"
         width="179.36977"
         id="rect3355"
         style="opacity:1;fill:url(#linearGradient3357);fill-opacity:1;fill-rule:nonzero;stroke:#9b0000;stroke-width:0;stroke-miterlimit:4;stroke-dasharray:none;stroke-opacity:1;filter:url(#filter3371)" />
      <rect
         ry="0.083280176"
         rx="0.77712548"
         y="145.0674"
         x="26.516272"
         height="1.7901171"
         width="179.36977"
         id="rect3359"
         style="opacity:1;fill:url(#linearGradient3361);fill-opacity:1;fill-rule:nonzero;stroke:#9b0000;stroke-width:0;stroke-miterlimit:4;stroke-dasharray:none;stroke-opacity:1;filter:url(#filter3375)" />
      <rect
         ry="0.083280176"
         rx="0.77712548"
         y="151.51183"
         x="26.516272"
         height="1.7901171"
         width="179.36977"
         id="rect3363"
         style="opacity:1;fill:url(#linearGradient3365);fill-opacity:1;fill-rule:nonzero;stroke:#9b0000;stroke-width:0;stroke-miterlimit:4;stroke-dasharray:none;stroke-opacity:1;filter:url(#filter3379)" />
    </g>
    <path
       sodipodi:type="arc"
       style="opacity:1;fill:url(#radialGradient3231);fill-opacity:1;fill-rule:nonzero;stroke:#9b0000;stroke-width:0;stroke-miterlimit:4;stroke-dasharray:none;stroke-opacity:1;filter:url(#filter3329)"
       id="path2435"
       sodipodi:cx="-53.524509"
       sodipodi:cy="93.037285"
       sodipodi:rx="25.240654"
       sodipodi:ry="23.987572"
       d="M -28.283855,93.037285 A 25.240654,23.987572 0 1 1 -78.765163,93.037285 A 25.240654,23.987572 0 1 1 -28.283855,93.037285 z"
       transform="matrix(3.64,0,0,3.64,404.65352,-138.98973)" />
    <text
       xml:space="preserve"
       style="font-size:9.11790371px;font-style:normal;font-weight:normal;fill:#000000;fill-opacity:1;stroke:none;stroke-width:1pt;stroke-linecap:butt;stroke-linejoin:miter;stroke-opacity:1;font-family:Bitstream Vera Sans"
       x="199.42555"
       y="78.689743"
       id="text1907"
       transform="scale(0.9674916,1.0336007)"><tspan
         sodipodi:role="line"
         x="199.42555"
         y="78.689743"
         id="tspan1911"><tspan
   style="font-weight:bold"
   id="tspan3018">K</tspan>iel</tspan></text>
    <text
       xml:space="preserve"
       style="font-size:9.11790371px;font-style:normal;font-weight:normal;fill:#000000;fill-opacity:1;stroke:none;stroke-width:1pt;stroke-linecap:butt;stroke-linejoin:miter;stroke-opacity:1;font-family:Bitstream Vera Sans"
       x="198.81242"
       y="96.99662"
       id="text2507"
       transform="scale(0.9674916,1.0336007)"><tspan
         sodipodi:role="line"
         x="198.81242"
         y="96.99662"
         id="tspan2509"><tspan
   style="font-weight:bold"
   id="tspan2515">E</tspan>nvironment for</tspan></text>
    <text
       xml:space="preserve"
       style="font-size:9.11790371px;font-style:normal;font-weight:normal;fill:#000000;fill-opacity:1;stroke:none;stroke-width:1pt;stroke-linecap:butt;stroke-linejoin:miter;stroke-opacity:1;font-family:Bitstream Vera Sans"
       x="199.35651"
       y="87.747421"
       id="text2519"
       transform="scale(0.9674916,1.0336007)"><tspan
         sodipodi:role="line"
         x="199.35651"
         y="87.747421"
         id="tspan2521"><tspan
   style="font-weight:bold"
   id="tspan2525">I</tspan>ntegrated</tspan></text>
    <text
       xml:space="preserve"
       style="font-size:9.11790371px;font-style:normal;font-weight:normal;fill:#000000;fill-opacity:1;stroke:none;stroke-width:1pt;stroke-linecap:butt;stroke-linejoin:miter;stroke-opacity:1;font-family:Bitstream Vera Sans"
       x="198.54039"
       y="106.24583"
       id="text2531"
       transform="scale(0.9674916,1.0336007)"><tspan
         sodipodi:role="line"
         x="198.54039"
         y="106.24583"
         id="tspan2533"><tspan
   style="font-weight:bold"
   id="tspan2535">L</tspan>ayout</tspan></text>
    <path
       style="font-size:12px;font-style:normal;font-weight:normal;fill:#ffffff;fill-opacity:1;stroke:none;stroke-width:1pt;stroke-linecap:butt;stroke-linejoin:miter;stroke-opacity:1;font-family:Bitstream Vera Sans"
       d="M 198.72448,121.35141 C 198.56765,121.45193 198.42455,121.52524 198.29517,121.57131 C 198.16579,121.6132 198.04817,121.63414 197.94231,121.63414 C 197.93838,121.63414 197.77764,121.6111 197.46007,121.56502 C 197.14641,121.51896 196.88177,121.49591 196.66613,121.49591 C 196.45442,121.49591 196.27602,121.50429 196.13096,121.52104 C 195.98982,121.5378 195.87808,121.55665 195.79575,121.57759 C 195.71733,121.59854 195.55266,121.63414 195.30174,121.6844 C 195.05082,121.73466 194.73717,121.7933 194.36078,121.86032 C 193.94128,121.98598 193.73152,122.21844 193.73152,122.55771 C 193.68447,122.64986 193.63742,122.77552 193.59037,122.93468 C 193.54332,123.09385 193.5198,123.34307 193.5198,123.68234 C 193.49628,123.66978 193.47275,123.67816 193.44923,123.70748 C 193.42963,123.73679 193.41982,123.8059 193.41982,123.91481 C 193.41982,123.96507 193.42179,124.0258 193.4257,124.09701 C 193.42963,124.16822 193.43747,124.25618 193.44923,124.36089 C 193.7276,124.29806 193.93343,124.25618 194.06673,124.23523 C 194.20004,124.21429 194.30197,124.20382 194.37254,124.20382 C 194.39607,124.20382 194.41567,124.20592 194.43135,124.2101 L 196.89549,123.90853 L 197.17778,123.90853 C 197.0876,124.18497 196.71122,124.38393 196.04863,124.5054 C 195.46445,124.57661 194.87243,124.6499 194.27257,124.7253 C 193.67663,124.79651 193.37866,124.92425 193.37866,125.10855 C 193.37866,125.3473 193.5492,125.57138 193.8903,125.78082 C 194.2314,125.98605 194.71757,126.08867 195.34879,126.08867 C 195.66245,126.08867 196.06039,126.03841 196.54263,125.93789 C 197.02487,125.83736 197.32872,125.7871 197.45419,125.7871 C 197.38753,126.03422 197.26991,126.19757 197.10133,126.27716 C 196.93666,126.35674 196.71318,126.39653 196.43089,126.39653 C 196.37208,126.39653 196.27602,126.39444 196.14272,126.39025 C 196.00942,126.38606 195.90748,126.38397 195.83691,126.38397 L 194.99593,126.38397 C 194.22356,126.38397 193.66682,126.27506 193.32573,126.05726 C 192.98855,125.83526 192.81996,125.39337 192.81996,124.73158 C 192.81996,124.42582 192.85329,124.09701 192.91994,123.74517 C 192.99051,123.39333 193.0258,123.19647 193.0258,123.15458 C 193.0258,123.14621 193.0356,123.12736 193.0552,123.09803 C 193.07873,123.06871 193.09049,123.01845 193.09049,122.94724 C 193.09049,122.91374 193.08853,122.87186 193.08461,122.82159 C 193.08069,122.76714 193.07284,122.70431 193.06108,122.6331 C 192.82584,122.52839 192.69254,122.46975 192.66117,122.45718 C 192.62589,122.44462 192.60825,122.40274 192.60825,122.33152 C 192.60825,122.15561 192.81212,121.96922 193.21987,121.77236 C 193.63154,121.57131 194.1079,121.40167 194.64895,121.26345 C 195.19392,121.12523 195.63696,121.05611 195.97806,121.05611 C 196.54655,121.05611 196.99743,121.05821 197.33069,121.0624 C 197.66394,121.06659 197.97563,121.07078 198.26576,121.07496 L 198.3481,121.07496 C 198.5206,121.07496 198.64607,121.06868 198.72448,121.05611 L 198.72448,121.35141 M 203.25763,125.61118 C 202.55191,125.97977 202.10299,126.21014 201.91088,126.30229 C 201.72269,126.39444 201.33258,126.44051 200.74056,126.44051 C 199.97996,126.44051 199.34873,126.31904 198.84688,126.07611 C 198.34504,125.82898 198.09411,125.39756 198.09411,124.78184 C 198.09411,124.68132 198.19213,124.46351 198.38816,124.12843 C 198.58812,123.79334 198.86845,123.48548 199.22915,123.20484 C 199.58985,122.92421 200.01524,122.7839 200.50532,122.78389 C 200.5955,122.7839 200.72292,122.82159 200.88758,122.89698 C 201.05225,122.96819 201.1836,123.04149 201.28161,123.11688 L 201.28161,123.36819 C 201.2228,123.38077 201.17184,123.38705 201.12871,123.38704 C 201.0895,123.38705 200.97972,123.38495 200.79937,123.38076 C 200.61902,123.37239 200.46807,123.3682 200.34653,123.36819 C 199.88782,123.3682 199.48791,123.52108 199.14681,123.82685 C 198.80964,124.13261 198.64105,124.47817 198.64105,124.86352 C 198.64105,125.13577 198.83904,125.39756 199.23503,125.64888 C 199.63493,125.90019 200.10934,126.02585 200.65823,126.02585 C 201.05422,126.02585 201.39335,125.97349 201.67564,125.86877 C 201.96184,125.75987 202.20689,125.62793 202.41076,125.47296 C 202.48525,125.41013 202.55975,125.3452 202.63424,125.27819 C 202.646,125.27819 202.70285,125.31379 202.80479,125.385 C 202.90672,125.45201 203.05767,125.5274 203.25763,125.61118 M 203.2001,126.14522 C 203.18442,126.19129 203.16482,126.23737 203.14129,126.28344 C 203.11777,126.32951 203.08836,126.35255 203.05308,126.35255 C 202.98643,126.35255 202.92566,126.27506 202.87077,126.12009 C 202.81588,125.96092 202.75903,125.73264 202.70022,125.43526 C 202.64141,125.13787 202.55319,124.68132 202.43557,124.0656 C 202.32188,123.44569 202.24346,123.00798 202.20033,122.75247 C 202.15721,122.49279 202.13564,122.07813 202.13564,121.50848 C 202.13172,121.45403 202.12976,121.40586 202.12976,121.36397 C 202.12976,121.25508 202.14152,121.16712 202.16505,121.10009 C 202.1925,121.03308 202.24738,120.99957 202.32972,120.99957 C 202.39637,120.99957 202.43754,121.03098 202.45322,121.09381 C 202.47282,121.15245 202.48262,121.26554 202.48262,121.43308 L 202.48262,121.77864 C 202.48262,122.13048 202.49243,122.44044 202.51203,122.70849 C 202.53555,122.97238 202.57084,123.2593 202.61788,123.56925 C 202.66493,123.78287 202.73355,124.08235 202.82372,124.4677 C 202.9139,124.85304 202.99819,125.22373 203.0766,125.57976 C 203.15894,125.9316 203.2001,126.12009 203.2001,126.14522 M 204.54364,120.92417 C 204.54364,121.09172 204.51815,121.20272 204.46719,121.25717 C 204.42014,121.30743 204.32212,121.3556 204.17314,121.40167 C 204.15353,121.36397 204.13001,121.2823 204.10256,121.15664 C 204.07904,121.0268 204.06728,120.91789 204.06728,120.82993 C 204.06728,120.75454 204.07512,120.69799 204.0908,120.66029 C 204.10648,120.6226 204.13393,120.60375 204.17314,120.60375 C 204.31428,120.60375 204.41033,120.6226 204.4613,120.66029 C 204.51619,120.69381 204.54364,120.78177 204.54364,120.92417 M 206.84899,124.74415 C 206.84898,125.11692 206.59023,125.44782 206.0727,125.73684 C 205.55909,126.02585 205.07293,126.17035 204.61421,126.17035 C 204.30056,126.17035 204.10648,126.11381 204.03199,126.00071 C 203.9575,125.88762 203.86536,125.62583 203.75559,125.21536 C 203.70854,125.22792 203.66149,125.25096 203.61444,125.28447 C 203.57131,125.31379 203.53211,125.3452 203.49682,125.37871 L 202.82639,125.37871 L 202.82639,124.98289 C 203.27334,124.85724 203.56936,124.69807 203.71442,124.5054 C 203.86341,124.31273 203.97122,124.04256 204.03787,123.69491 C 204.10453,123.34726 204.18685,123.08338 204.28487,122.90326 C 204.41033,122.95772 204.53579,123.01008 204.66126,123.06033 C 204.73967,123.09804 204.83769,123.17762 204.95531,123.29908 C 204.75535,123.56297 204.59852,123.85826 204.48483,124.18497 C 204.37113,124.51168 204.31428,124.83001 204.31428,125.13996 C 204.31428,125.33682 204.35545,125.4918 204.43778,125.6049 C 204.52011,125.71799 204.62793,125.77453 204.76124,125.77453 C 204.84357,125.77453 205.04352,125.73474 205.3611,125.65516 C 205.68259,125.57557 205.98448,125.44782 206.26677,125.2719 C 206.55298,125.09598 206.69608,124.86561 206.69608,124.58079 C 206.73921,124.56823 206.77057,124.56194 206.79018,124.56194 C 206.81762,124.56194 206.83722,124.56823 206.84899,124.58079 C 206.86074,124.59336 206.86663,124.6143 206.86663,124.64362 C 206.86663,124.66875 206.86467,124.6897 206.86075,124.70645 C 206.86074,124.71901 206.85683,124.73158 206.84899,124.74415 M 209.13762,124.37974 C 209.13762,124.64362 209.02783,124.86561 208.80828,125.04572 C 208.59264,125.22583 208.29271,125.31588 207.90849,125.31588 C 207.81047,125.31588 207.70265,125.30332 207.58503,125.27819 C 207.46741,125.25306 207.38312,125.24049 207.33215,125.24049 C 207.28118,125.24049 207.23414,125.24677 207.19101,125.25934 C 207.1518,125.26771 207.09887,125.28656 207.03222,125.31588 L 207.03222,125.5672 C 207.0479,125.61746 207.09495,125.88343 207.17336,126.36512 C 207.25178,126.85099 207.30078,127.14628 207.32039,127.251 C 207.36351,127.42691 207.40664,127.60493 207.44977,127.78504 C 207.44584,127.82693 207.44193,127.87091 207.43801,127.91698 C 207.44977,127.92954 207.46153,127.94211 207.47329,127.95468 C 207.48506,127.97143 207.49094,127.98818 207.49094,128.00494 C 207.49094,128.03845 207.46153,128.06567 207.40272,128.08662 C 207.34783,128.11174 207.24394,128.12431 207.09103,128.12432 C 207.07535,128.12431 207.01066,128.03845 206.89696,127.86672 C 206.78718,127.69917 206.68328,127.46461 206.58526,127.16304 C 206.49117,126.86565 206.44412,126.52009 206.44412,126.12637 L 206.44412,125.5672 C 206.44412,124.70855 206.49313,124.0258 206.59114,123.51898 C 206.69308,123.00798 206.97537,122.75248 207.43801,122.75247 C 207.79087,122.75248 208.16137,122.93049 208.54952,123.28652 C 208.94158,123.64255 209.13762,124.00696 209.13762,124.37974 M 208.72595,124.44257 C 208.72595,124.14937 208.58088,123.88549 208.29075,123.65093 C 208.00062,123.41637 207.73598,123.28443 207.49682,123.2551 L 207.09103,123.40589 C 207.05966,123.53574 207.04398,123.64465 207.04398,123.73261 C 207.05574,123.8834 207.06554,124.04256 207.07339,124.2101 C 207.08515,124.37346 207.09103,124.53471 207.09103,124.69388 C 207.17728,124.70645 207.31843,124.73996 207.51446,124.79441 C 207.71049,124.84886 207.90064,124.87609 208.08492,124.87609 C 208.3476,124.87609 208.52011,124.85095 208.60245,124.80069 C 208.68478,124.74624 208.72595,124.62687 208.72595,124.44257 M 213.41586,125.64259 C 213.41585,125.74312 213.31588,125.87715 213.11593,126.04469 C 212.91597,126.21223 212.67681,126.29601 212.39845,126.29601 L 210.90468,126.29601 C 210.49693,126.24575 210.08918,126.18292 209.68142,126.10752 C 209.27367,126.02794 209.0698,125.92322 209.0698,125.79338 C 209.0698,125.68029 209.10312,125.59861 209.16978,125.54835 C 209.23251,125.49809 209.51676,125.33892 210.02252,125.07085 L 210.29894,125.07085 L 210.29894,125.28447 C 210.11074,125.37662 209.99704,125.43735 209.95783,125.46667 C 209.91863,125.50856 209.87353,125.55463 209.82257,125.6049 C 209.92058,125.70961 210.12839,125.80385 210.44596,125.88762 C 210.76745,125.9672 211.14775,126.007 211.58687,126.007 C 211.82603,125.99024 212.07891,125.96092 212.34552,125.91904 C 212.61212,125.87296 212.81207,125.78082 212.94538,125.64259 C 212.76111,125.49599 212.30435,125.3075 211.57511,125.07714 C 210.84587,124.84676 210.28129,124.61221 209.88138,124.37346 C 209.48147,124.13471 209.28152,123.78497 209.28152,123.32421 C 209.28152,122.98913 209.35013,122.78599 209.48735,122.71478 C 209.62458,122.63939 209.87158,122.60169 210.22836,122.60169 C 210.47928,122.60169 210.66355,122.61635 210.78117,122.64567 C 210.89879,122.67499 211.00661,122.73363 211.10463,122.82159 L 211.10463,123.04149 C 210.90468,123.12945 210.77529,123.17343 210.71648,123.17343 C 210.68903,123.17343 210.67139,123.15249 210.66355,123.1106 C 210.65571,123.06453 210.62239,123.04149 210.56358,123.04149 C 210.38323,123.10851 210.20092,123.18181 210.01664,123.26139 C 209.83629,123.33679 209.74612,123.4059 209.74612,123.46872 C 209.74612,123.79125 209.91666,124.03209 210.25777,124.19125 C 210.60278,124.34623 211.21441,124.58498 212.09264,124.9075 C 212.97478,125.22583 213.41585,125.47086 213.41586,125.64259 M 217.617,126.13894 C 217.617,126.21433 217.57584,126.30019 217.4935,126.39653 C 217.41117,126.49706 217.29943,126.54732 217.15828,126.54732 C 216.95441,126.54732 216.49961,126.46983 215.79389,126.31486 C 215.0921,126.15569 214.60201,126.007 214.32364,125.86877 C 214.0492,125.72636 213.85709,125.60698 213.74731,125.51065 C 213.63753,125.41013 213.49247,125.24258 213.31211,125.00802 C 213.22194,125.02059 213.13961,125.02687 213.06511,125.02687 C 212.8338,125.02687 212.64169,124.96404 212.48877,124.83839 C 212.33587,124.70855 212.25942,124.57032 212.25941,124.42372 C 212.25942,124.33576 212.29471,124.26455 212.36527,124.2101 C 212.43193,124.15146 212.52407,124.11376 212.64168,124.09701 C 212.66521,124.12214 212.71226,124.17241 212.78282,124.2478 C 212.8534,124.31901 212.90829,124.37136 212.94749,124.40487 L 213.40621,124.42372 C 213.40621,124.00067 213.56696,123.6614 213.88845,123.40589 C 214.20995,123.14621 214.53144,122.9661 214.85293,122.86557 C 215.17443,122.76085 215.39399,122.70431 215.51161,122.69593 C 215.63314,122.68337 215.74293,122.67499 215.84094,122.6708 C 216.20948,122.67081 216.53294,122.76085 216.81131,122.94096 C 217.09359,123.11689 217.23474,123.33888 217.23474,123.60695 C 217.23474,123.74517 217.12496,123.91691 216.9054,124.12214 C 216.68977,124.32319 216.35847,124.50121 215.91151,124.65619 C 215.46456,124.81116 214.91371,124.88865 214.25895,124.88865 C 214.20407,124.88027 214.16682,124.87609 214.14721,124.87609 C 214.09233,124.87609 214.06488,124.89074 214.06488,124.92007 C 214.06488,124.94938 214.09821,124.99755 214.16486,125.06457 C 214.23543,125.13158 214.30012,125.19023 214.35893,125.24049 C 214.60201,125.39965 214.8451,125.55672 215.08817,125.7117 C 215.4332,125.83736 215.86643,125.90019 216.38787,125.90019 C 216.57998,125.90019 216.69957,125.85621 216.74662,125.76825 C 216.79366,125.6761 216.9054,125.60908 217.08183,125.5672 L 217.31119,125.5672 L 217.617,126.13894 M 216.69957,123.72632 C 216.629,123.50851 216.50941,123.3661 216.34083,123.29908 C 216.17224,123.23207 215.90955,123.19856 215.55277,123.19856 C 215.13327,123.19856 214.78041,123.31166 214.49419,123.53783 C 214.20799,123.75984 213.97275,124.08235 213.78847,124.5054 C 213.84728,124.48027 213.89238,124.4677 213.92374,124.4677 C 213.94726,124.4677 213.97667,124.47398 214.01195,124.48655 C 214.04724,124.49911 214.07469,124.5054 214.09429,124.5054 C 214.56869,124.5054 215.10974,124.41953 215.71744,124.2478 C 216.32515,124.07607 216.65252,123.90224 216.69957,123.72632"
       id="text1915"
       sodipodi:nodetypes="csssssssccscssscssccccssssscsssccssssssscsssssscccccssssssssccsssssssssssccsssssssssssccssssccscsssssccssscscccsscscsssssscssssccsssssccssssssssssccsssccsccsscsssccsccssscccscscscssssssccsssssssccssssscssssssccssssssssssssscssccccssscssssc" />
    <path
       style="font-size:12px;font-style:normal;font-weight:normal;fill:#ffffff;fill-opacity:1;stroke:none;stroke-width:1pt;stroke-linecap:butt;stroke-linejoin:miter;stroke-opacity:1;font-family:Bitstream Vera Sans"
       d="M 197.87555,135.54494 C 197.87554,135.65803 197.86183,135.72505 197.83439,135.74599 C 197.80694,135.77112 197.74421,135.78369 197.64619,135.78369 C 197.58346,135.78369 197.31685,135.69363 196.84638,135.51353 C 196.37589,135.33341 196.11713,135.24336 196.07009,135.24336 C 196.05048,135.24336 195.91325,135.18891 195.65842,135.08001 C 195.40357,134.96692 195.12913,134.82032 194.83508,134.64021 C 194.54495,134.45591 194.2803,134.23601 194.04114,133.98051 C 194.36263,133.81716 194.65865,133.64752 194.92917,133.4716 C 195.20362,133.29568 195.34084,132.96269 195.34084,132.47262 C 195.34084,132.07471 195.18989,131.73544 194.88801,131.4548 C 194.59003,131.16998 194.32735,131.02757 194.09995,131.02757 C 193.94312,131.02757 193.80982,131.16998 193.70004,131.4548 C 193.59027,131.73544 193.53538,132.05586 193.53538,132.41608 C 193.53538,132.52079 193.57851,132.79096 193.66476,133.22657 C 193.75101,133.66218 193.84314,134.11664 193.94117,134.58995 C 194.0431,135.06325 194.09603,135.29991 194.09995,135.29991 L 194.09995,135.54494 L 193.76474,135.54494 C 193.58831,135.30619 193.45501,134.90828 193.36483,134.3512 C 193.27465,133.78993 193.19232,133.26008 193.11783,132.76164 C 193.01197,132.27158 192.85122,132.0056 192.63558,131.96371 C 192.65126,131.90508 192.67087,131.76476 192.69439,131.54276 C 192.714,131.32077 192.8081,131.20978 192.97668,131.20977 C 192.98844,131.20978 193.02569,131.22653 193.08842,131.26003 C 193.15115,131.29355 193.22565,131.33753 193.3119,131.39197 C 193.40208,131.22444 193.49421,131.0548 193.58831,130.88307 C 193.72945,130.69878 193.9196,130.60662 194.15876,130.60662 C 194.53122,130.60662 194.88604,130.81605 195.22322,131.2349 C 195.56432,131.65376 195.73487,132.04748 195.73487,132.41608 C 195.73487,132.70509 195.63489,132.9941 195.43494,133.28312 C 195.21538,133.55538 194.99582,133.82763 194.77627,134.09989 C 194.77627,134.17947 194.96838,134.29465 195.3526,134.44544 C 195.73682,134.59623 196.07596,134.74492 196.37002,134.89152 C 196.66798,135.03393 196.90911,135.12818 197.09338,135.17425 C 197.28156,135.22032 197.47564,135.24336 197.6756,135.24336 L 197.87555,135.24336 C 197.95788,135.24336 197.99905,135.27058 197.99905,135.32504 C 197.99905,135.36692 197.98337,135.40881 197.95201,135.4507 C 197.92064,135.49258 197.89515,135.524 197.87555,135.54494 M 198.37544,129.92179 C 198.37544,130.08934 198.34995,130.20033 198.29898,130.25478 C 198.25194,130.30505 198.15391,130.35322 198.00493,130.39929 C 197.98533,130.36159 197.9618,130.27991 197.93436,130.15426 C 197.91084,130.02442 197.89908,129.91551 197.89908,129.82755 C 197.89908,129.75216 197.90692,129.69561 197.9226,129.65791 C 197.93828,129.62022 197.96573,129.60137 198.00493,129.60137 C 198.14608,129.60137 198.24213,129.62022 198.2931,129.65791 C 198.34799,129.69142 198.37544,129.77938 198.37544,129.92179 M 200.68079,133.74176 C 200.68078,134.11454 200.42202,134.44544 199.9045,134.73445 C 199.39089,135.02346 198.90473,135.16797 198.44601,135.16797 C 198.13235,135.16797 197.93828,135.11142 197.86379,134.99833 C 197.7893,134.88524 197.69716,134.62345 197.58738,134.21298 C 197.54034,134.22554 197.49329,134.24858 197.44624,134.28209 C 197.40311,134.31141 197.36391,134.34282 197.32862,134.37633 L 196.65819,134.37633 L 196.65819,133.98051 C 197.10514,133.85485 197.40115,133.69569 197.54622,133.50302 C 197.6952,133.31034 197.80302,133.04018 197.86967,132.69253 C 197.93632,132.34487 198.01865,132.081 198.11667,131.90088 C 198.24213,131.95534 198.36759,132.0077 198.49306,132.05795 C 198.57147,132.09566 198.66949,132.17524 198.78711,132.2967 C 198.58715,132.56059 198.43032,132.85588 198.31663,133.18259 C 198.20293,133.5093 198.14608,133.82763 198.14608,134.13758 C 198.14608,134.33444 198.18724,134.48942 198.26958,134.60251 C 198.35191,134.71561 198.45973,134.77215 198.59303,134.77215 C 198.67537,134.77215 198.87532,134.73236 199.1929,134.65278 C 199.51439,134.57319 199.81628,134.44544 200.09857,134.26952 C 200.38477,134.0936 200.52787,133.86323 200.52788,133.57841 C 200.571,133.56584 200.60237,133.55956 200.62198,133.55956 C 200.64942,133.55956 200.66902,133.56584 200.68079,133.57841 C 200.69254,133.59098 200.69842,133.61192 200.69843,133.64124 C 200.69842,133.66637 200.69647,133.68731 200.69255,133.70407 C 200.69254,133.71663 200.68862,133.7292 200.68079,133.74176 M 205.46296,134.6088 C 204.75723,134.97739 204.30832,135.20776 204.11621,135.29991 C 203.92801,135.39206 203.53791,135.43813 202.94589,135.43813 C 202.18528,135.43813 201.55405,135.31666 201.05221,135.07373 C 200.55036,134.8266 200.29944,134.39518 200.29944,133.77946 C 200.29944,133.67894 200.39746,133.46113 200.59349,133.12604 C 200.79344,132.79096 201.07377,132.4831 201.43447,132.20246 C 201.79517,131.92183 202.22056,131.78152 202.71065,131.78151 C 202.80082,131.78152 202.92825,131.81921 203.09291,131.8946 C 203.25758,131.96581 203.38892,132.03911 203.48694,132.1145 L 203.48694,132.36581 C 203.42813,132.37839 203.37716,132.38467 203.33404,132.38466 C 203.29482,132.38467 203.18505,132.38257 203.0047,132.37838 C 202.82434,132.37001 202.6734,132.36582 202.55186,132.36581 C 202.09314,132.36582 201.69324,132.5187 201.35214,132.82447 C 201.01496,133.13023 200.84637,133.47579 200.84637,133.86114 C 200.84637,134.13339 201.04436,134.39518 201.44035,134.64649 C 201.84026,134.89781 202.31466,135.02346 202.86356,135.02346 C 203.25954,135.02346 203.59868,134.9711 203.88097,134.86639 C 204.16717,134.75749 204.41221,134.62555 204.61609,134.47057 C 204.69058,134.40775 204.76507,134.34282 204.83957,134.27581 C 204.85133,134.27581 204.90818,134.31141 205.01012,134.38261 C 205.11205,134.44963 205.26299,134.52502 205.46296,134.6088 M 206.85804,135.57636 C 206.72866,135.64337 206.61887,135.7062 206.5287,135.76484 C 206.43853,135.82348 206.39148,135.8528 206.38756,135.8528 C 206.17192,135.8528 206.00725,135.65803 205.89356,135.2685 C 205.78377,134.87896 205.67791,134.62765 205.57598,134.51455 C 205.50541,134.57319 205.40935,134.69676 205.28781,134.88524 C 205.16627,135.06953 204.9918,135.22452 204.7644,135.35017 C 204.7252,135.25383 204.69579,135.13864 204.67619,135.00462 C 204.65658,134.87058 204.64678,134.74492 204.64678,134.62765 C 204.64678,134.47686 204.65463,134.3491 204.67031,134.24439 C 204.68599,134.13549 204.70168,134.04124 204.71736,133.96166 C 204.68991,133.95328 204.66051,133.94072 204.62914,133.92397 C 204.6017,133.90302 204.57817,133.85904 204.55857,133.79203 C 204.51936,133.54909 204.47035,133.2517 204.41154,132.89986 C 204.35665,132.54802 204.29001,132.12707 204.21159,131.637 C 204.12926,131.14276 204.08809,130.87679 204.08809,130.83909 C 204.08809,130.80977 204.07633,130.74904 204.0528,130.65689 C 204.02536,130.56055 204.01164,130.49353 204.01164,130.45583 C 204.01164,130.40139 204.02144,130.34694 204.04104,130.29248 C 204.05672,130.23803 204.09005,130.1773 204.14102,130.11028 C 204.29784,130.14798 204.4037,130.29458 204.45859,130.55008 C 204.52525,131.11135 204.59386,131.67051 204.66443,132.22759 C 204.71539,132.46215 204.76637,132.79096 204.81733,133.214 C 204.87222,133.63286 204.89967,133.97841 204.89967,134.25067 C 204.89967,134.4224 204.88987,134.54806 204.87026,134.62765 L 205.02905,134.62765 C 205.15059,134.55225 205.25841,134.39518 205.3525,134.15643 C 205.4466,133.91349 205.56422,133.79203 205.70536,133.79203 C 205.84258,133.79203 205.9406,133.97004 205.99941,134.32607 C 206.06214,134.67791 206.13468,134.94597 206.21701,135.13027 C 206.30326,135.31456 206.51694,135.40672 206.85804,135.40672 L 206.85804,135.57636 M 216.27691,134.88524 C 216.22202,134.91875 215.89464,134.98995 215.29478,135.09886 C 214.69884,135.20776 214.09506,135.3041 213.48343,135.38787 C 212.87181,135.47583 212.46014,135.51981 212.24842,135.51981 C 211.49174,135.51981 210.91932,135.38159 210.53118,135.10514 C 210.14696,134.8287 209.90191,134.49779 209.79605,134.11245 C 209.69019,133.7271 209.63727,133.26636 209.63727,132.73023 C 209.63727,131.7124 209.92348,130.92705 210.49589,130.37416 C 211.07223,129.82127 211.80539,129.54482 212.69538,129.54482 C 213.20115,129.54482 213.57557,129.63278 213.81865,129.8087 C 214.06565,129.98462 214.18915,130.24222 214.18915,130.58149 C 214.18915,130.64432 214.15975,130.70296 214.10094,130.75741 C 214.04605,130.80767 213.98724,130.85375 213.92451,130.89563 C 213.82649,130.67365 213.73044,130.45165 213.63634,130.22965 C 213.48343,130.03698 213.16978,129.94064 212.69538,129.94064 C 211.91909,129.94064 211.30158,130.2108 210.84287,130.75113 C 210.38808,131.28727 210.16067,131.97419 210.16067,132.8119 C 210.16067,133.49045 210.25477,133.98888 210.44296,134.30722 C 210.63115,134.62555 210.89188,134.8287 211.22513,134.91666 C 211.56231,135.00042 212.02886,135.04231 212.62481,135.04231 L 213.58929,135.04231 C 213.75004,135.04231 214.01469,134.98367 214.38323,134.86639 C 214.75177,134.74492 215.07914,134.62973 215.36535,134.52084 C 215.65156,134.40775 215.88092,134.31559 216.05343,134.24439 L 216.27691,134.24439 L 216.27691,134.88524 M 216.37486,135.14284 C 216.35918,135.18891 216.33958,135.23498 216.31605,135.28106 C 216.29253,135.32713 216.26312,135.35017 216.22784,135.35017 C 216.16119,135.35017 216.10042,135.27268 216.04553,135.11771 C 215.99064,134.95854 215.93379,134.73026 215.87498,134.43288 C 215.81617,134.13549 215.72795,133.67894 215.61033,133.06322 C 215.49664,132.4433 215.41822,132.0056 215.37509,131.75009 C 215.33197,131.49041 215.3104,131.07575 215.3104,130.5061 C 215.30648,130.45165 215.30452,130.40348 215.30452,130.36159 C 215.30452,130.25269 215.31628,130.16473 215.33981,130.09771 C 215.36726,130.0307 215.42214,129.99719 215.50448,129.99719 C 215.57113,129.99719 215.6123,130.0286 215.62798,130.09143 C 215.64758,130.15007 215.65738,130.26316 215.65738,130.4307 L 215.65738,130.77626 C 215.65738,131.1281 215.66719,131.43806 215.68679,131.70611 C 215.71031,131.97 215.7456,132.25691 215.79264,132.56687 C 215.83969,132.78049 215.90831,133.07997 215.99848,133.46532 C 216.08866,133.85066 216.17295,134.22135 216.25136,134.57738 C 216.3337,134.92922 216.37486,135.11771 216.37486,135.14284 M 217.7184,129.92179 C 217.7184,130.08934 217.69291,130.20033 217.64195,130.25478 C 217.5949,130.30505 217.49688,130.35322 217.3479,130.39929 C 217.32829,130.36159 217.30477,130.27991 217.27732,130.15426 C 217.2538,130.02442 217.24204,129.91551 217.24204,129.82755 C 217.24204,129.75216 217.24988,129.69561 217.26556,129.65791 C 217.28124,129.62022 217.30869,129.60137 217.3479,129.60137 C 217.48904,129.60137 217.58509,129.62022 217.63606,129.65791 C 217.69095,129.69142 217.7184,129.77938 217.7184,129.92179 M 220.02375,133.74176 C 220.02374,134.11454 219.76499,134.44544 219.24746,134.73445 C 218.73385,135.02346 218.24769,135.16797 217.78897,135.16797 C 217.47531,135.16797 217.28124,135.11142 217.20675,134.99833 C 217.13226,134.88524 217.04012,134.62345 216.93034,134.21298 C 216.8833,134.22554 216.83625,134.24858 216.7892,134.28209 C 216.74607,134.31141 216.70687,134.34282 216.67158,134.37633 L 216.00115,134.37633 L 216.00115,133.98051 C 216.4481,133.85485 216.74412,133.69569 216.88918,133.50302 C 217.03817,133.31034 217.14598,133.04018 217.21263,132.69253 C 217.27929,132.34487 217.36161,132.081 217.45963,131.90088 C 217.58509,131.95534 217.71055,132.0077 217.83602,132.05795 C 217.91443,132.09566 218.01245,132.17524 218.13007,132.2967 C 217.93011,132.56059 217.77328,132.85588 217.65959,133.18259 C 217.54589,133.5093 217.48904,133.82763 217.48904,134.13758 C 217.48904,134.33444 217.53021,134.48942 217.61254,134.60251 C 217.69487,134.71561 217.80269,134.77215 217.936,134.77215 C 218.01833,134.77215 218.21828,134.73236 218.53586,134.65278 C 218.85735,134.57319 219.15924,134.44544 219.44153,134.26952 C 219.72774,134.0936 219.87084,133.86323 219.87084,133.57841 C 219.91397,133.56584 219.94533,133.55956 219.96494,133.55956 C 219.99238,133.55956 220.01198,133.56584 220.02375,133.57841 C 220.0355,133.59098 220.04138,133.61192 220.04139,133.64124 C 220.04138,133.66637 220.03943,133.68731 220.03551,133.70407 C 220.0355,133.71663 220.03159,133.7292 220.02375,133.74176 M 223.88848,135.13656 C 223.88848,135.21195 223.84731,135.29781 223.76498,135.39415 C 223.68264,135.49468 223.5709,135.54494 223.42977,135.54494 C 223.22589,135.54494 222.77109,135.46745 222.06537,135.31248 C 221.36357,135.15331 220.87349,135.00462 220.59512,134.86639 C 220.32068,134.72398 220.12856,134.6046 220.01879,134.50827 C 219.90901,134.40775 219.76394,134.2402 219.58359,134.00564 C 219.49342,134.01821 219.41108,134.02449 219.33659,134.02449 C 219.10527,134.02449 218.91316,133.96166 218.76025,133.83601 C 218.60735,133.70616 218.53089,133.56794 218.53089,133.42134 C 218.53089,133.33338 218.56618,133.26217 218.63675,133.20772 C 218.70341,133.14908 218.79554,133.11138 218.91316,133.09463 C 218.93668,133.11976 218.98373,133.17002 219.0543,133.24542 C 219.12488,133.31663 219.17977,133.36898 219.21897,133.40249 L 219.67769,133.42134 C 219.67769,132.99829 219.83844,132.65902 220.15993,132.40351 C 220.48142,132.14382 220.80292,131.96372 221.12441,131.86318 C 221.44591,131.75847 221.66547,131.70193 221.78309,131.69355 C 221.90462,131.68099 222.0144,131.67261 222.11242,131.66842 C 222.48096,131.66842 222.80442,131.75847 223.08279,131.93858 C 223.36507,132.11451 223.50621,132.33649 223.50622,132.60457 C 223.50621,132.74279 223.39643,132.91452 223.17688,133.11976 C 222.96124,133.32081 222.62995,133.49883 222.18299,133.6538 C 221.73604,133.80878 221.18518,133.88627 220.53043,133.88627 C 220.47554,133.87789 220.4383,133.8737 220.41869,133.8737 C 220.3638,133.8737 220.33636,133.88836 220.33636,133.91768 C 220.33636,133.947 220.36968,133.99517 220.43634,134.06219 C 220.50691,134.1292 220.5716,134.18785 220.63041,134.23811 C 220.87349,134.39727 221.11657,134.55434 221.35965,134.70932 C 221.70467,134.83498 222.1379,134.89781 222.65935,134.89781 C 222.85146,134.89781 222.97104,134.85383 223.0181,134.76587 C 223.06514,134.67371 223.17687,134.6067 223.35331,134.56482 L 223.58267,134.56482 L 223.88848,135.13656 M 222.97105,132.72394 C 222.90048,132.50613 222.78089,132.36372 222.61231,132.2967 C 222.44371,132.22969 222.18103,132.19618 221.82425,132.19618 C 221.40474,132.19618 221.05188,132.30927 220.76567,132.53545 C 220.47947,132.75745 220.24423,133.07997 220.05995,133.50302 C 220.11876,133.47788 220.16385,133.46532 220.19522,133.46532 C 220.21874,133.46532 220.24815,133.4716 220.28343,133.48417 C 220.31872,133.49673 220.34616,133.50302 220.36577,133.50302 C 220.84016,133.50302 221.38122,133.41715 221.98892,133.24542 C 222.59662,133.07368 222.924,132.89986 222.97105,132.72394 M 227.33759,134.82241 C 227.33759,134.94388 227.29251,135.04022 227.20233,135.11142 C 227.11215,135.17844 227.00629,135.21195 226.88476,135.21195 C 226.73969,135.21195 226.62011,135.14074 226.52601,134.99833 C 226.43192,134.85173 226.25941,134.55434 226.00849,134.10617 C 225.75757,133.65799 225.55957,133.37526 225.41451,133.25798 C 225.28512,133.71873 225.14006,134.11664 224.97931,134.45173 C 224.81857,134.78681 224.59901,135.10723 224.32064,135.413 L 224.04423,135.413 C 223.90702,135.0486 223.80116,134.52502 223.72666,133.84229 C 223.65609,133.15536 223.59336,132.67787 223.53847,132.40979 C 223.48358,132.14173 223.34636,131.93439 223.1268,131.78779 C 223.18953,131.59093 223.23658,131.45271 223.26794,131.37312 C 223.29931,131.29355 223.3444,131.20349 223.40321,131.10297 C 223.64629,131.22862 223.80704,131.44434 223.88545,131.75009 C 223.96386,132.05168 224.0364,132.51033 224.10304,133.12604 C 224.17362,133.74176 224.25988,134.17737 224.36181,134.43288 C 224.56569,134.32816 224.76172,134.07056 224.94991,133.66009 C 225.1381,133.2496 225.2322,132.65902 225.2322,131.88832 L 225.5086,131.88832 L 227.33759,134.82241 M 229.86431,134.18785 C 229.86431,134.26324 229.83294,134.33654 229.77021,134.40775 C 229.70748,134.47895 229.63299,134.51455 229.54674,134.51455 L 228.88807,134.23183 L 228.77633,134.23183 L 228.77633,135.40044 L 228.49404,135.40044 C 228.38818,135.3753 228.16078,135.18262 227.81184,134.82241 C 227.4629,134.46219 227.28843,134.21926 227.28843,134.0936 C 227.28843,133.947 227.4531,133.86532 227.78244,133.84857 C 228.11569,133.83181 228.28232,133.75852 228.28232,133.62867 C 228.28232,133.49045 228.24312,133.25589 228.1647,132.92499 C 228.09021,132.58991 228.05296,132.39095 228.05296,132.32812 L 227.31784,130.15426 C 227.37665,130.04955 227.4237,129.97834 227.45898,129.94064 C 227.49427,129.90294 227.54132,129.8841 227.60013,129.8841 C 227.66678,129.8841 227.81969,130.22337 228.05884,130.90192 C 228.298,131.58046 228.44699,132.09146 228.5058,132.43492 L 228.7234,133.68522 C 228.77828,133.73967 228.98216,133.80878 229.33502,133.89255 C 229.68788,133.97632 229.86431,134.07475 229.86431,134.18785 M 228.2882,134.91666 L 228.28232,134.20041 L 228.14118,134.18785 C 228.08629,134.18785 228.03532,134.19203 227.98827,134.20041 C 227.94122,134.2046 227.9177,134.22763 227.9177,134.26952 C 227.9177,134.33235 227.96867,134.43078 228.07061,134.56482 C 228.17646,134.69885 228.249,134.81613 228.2882,134.91666 M 235.13865,131.39825 C 235.13865,131.86738 235.01515,132.16895 234.76814,132.30298 C 234.52114,132.43283 234.18592,132.53336 233.76249,132.60457 C 233.33906,132.67578 233.12735,132.79515 233.12735,132.96269 C 233.12735,133.1428 233.17636,133.38154 233.27437,133.67894 C 233.3763,133.97213 233.51353,134.34072 233.68604,134.78472 C 233.85854,135.22452 233.95657,135.50515 233.98009,135.62662 L 233.61547,135.62662 C 233.54881,135.53866 233.41943,135.28734 233.22732,134.87268 C 233.03521,134.45381 232.84898,133.91768 232.66863,133.26427 C 232.48828,132.61085 232.3981,131.94696 232.3981,131.2726 C 232.3981,130.90401 232.4824,130.58359 232.65098,130.31133 C 232.8235,130.03908 233.06462,129.90294 233.37435,129.90294 C 233.84483,129.90294 234.2565,130.05793 234.60936,130.36787 C 234.96222,130.67783 235.13865,131.02129 235.13865,131.39825 M 234.65052,131.5993 C 234.65052,131.20559 234.56231,130.93333 234.38588,130.78254 C 234.21337,130.63175 233.97616,130.55636 233.67428,130.55636 C 233.67035,130.53542 233.65467,130.52076 233.62723,130.51238 C 233.60371,130.49981 233.56842,130.49353 233.52137,130.49353 C 233.47824,130.49353 233.42139,130.49981 233.35082,130.51238 C 233.28417,130.52076 233.20968,130.53542 233.12735,130.55636 C 233.03717,130.85375 232.97052,131.07575 232.92739,131.22233 C 232.88819,131.36475 232.86858,131.48831 232.86858,131.59302 C 232.86858,131.76476 232.94307,131.91764 233.09206,132.05167 C 233.22536,132.10613 233.3273,132.1522 233.39787,132.18989 C 233.46844,132.2276 233.51549,132.24645 233.53901,132.24644 L 233.67428,132.24644 C 233.92912,132.24645 234.15456,132.19409 234.35059,132.08937 C 234.55055,131.98047 234.65052,131.81712 234.65052,131.5993 M 236.36106,135.14284 C 236.34538,135.18891 236.32578,135.23498 236.30225,135.28106 C 236.27873,135.32713 236.24932,135.35017 236.21404,135.35017 C 236.14739,135.35017 236.08662,135.27268 236.03173,135.11771 C 235.97684,134.95854 235.91999,134.73026 235.86118,134.43288 C 235.80237,134.13549 235.71415,133.67894 235.59653,133.06322 C 235.48284,132.4433 235.40442,132.0056 235.36129,131.75009 C 235.31817,131.49041 235.2966,131.07575 235.2966,130.5061 C 235.29268,130.45165 235.29072,130.40348 235.29072,130.36159 C 235.29072,130.25269 235.30248,130.16473 235.32601,130.09771 C 235.35346,130.0307 235.40834,129.99719 235.49068,129.99719 C 235.55733,129.99719 235.5985,130.0286 235.61418,130.09143 C 235.63378,130.15007 235.64358,130.26316 235.64358,130.4307 L 235.64358,130.77626 C 235.64358,131.1281 235.65339,131.43806 235.67299,131.70611 C 235.69651,131.97 235.7318,132.25691 235.77884,132.56687 C 235.82589,132.78049 235.89451,133.07997 235.98468,133.46532 C 236.07486,133.85066 236.15915,134.22135 236.23756,134.57738 C 236.3199,134.92922 236.36106,135.11771 236.36106,135.14284 M 241.89775,134.84126 L 241.83894,134.91037 C 241.72524,135.00671 241.539,135.09466 241.28024,135.17425 C 241.02147,135.24965 240.84897,135.28734 240.76272,135.28734 C 240.39809,135.28734 240.07463,135.1931 239.79235,135.00462 C 239.55711,134.80356 239.32383,134.60042 239.09251,134.39518 C 238.81023,134.6423 238.46913,134.8643 238.06922,135.06116 C 237.67323,135.25383 237.2792,135.35017 236.88714,135.35017 C 236.80089,135.35017 236.69895,135.30828 236.58133,135.22452 C 236.46763,135.13656 236.41078,135.03184 236.41078,134.91037 C 236.41078,134.5334 236.63034,134.16271 237.06945,133.79831 C 237.50856,133.42972 238.04373,133.24542 238.67496,133.24542 C 238.82787,133.24542 238.92785,133.1784 238.97489,133.04437 C 239.0141,132.84332 239.0533,132.67787 239.09251,132.54802 C 238.92,132.43074 238.70632,132.33859 238.45149,132.27157 C 238.19664,132.20037 237.97316,132.16477 237.78105,132.16476 C 237.6203,132.16477 237.40074,132.18152 237.12238,132.21502 C 236.84401,132.24854 236.64602,132.26529 236.5284,132.26529 C 236.42254,132.26529 236.32648,132.25901 236.24023,132.24644 C 236.15398,132.22969 236.07753,132.20665 236.01087,132.17733 C 235.94422,132.14382 235.91089,132.08518 235.91089,132.00141 C 235.91089,131.90926 235.9305,131.84643 235.9697,131.81292 C 236.00891,131.77523 236.07164,131.7501 236.1579,131.73753 C 236.24415,131.72497 236.33824,131.71869 236.44018,131.71868 C 236.62053,131.71869 236.78716,131.72497 236.94007,131.73753 C 237.09297,131.7501 237.23412,131.76685 237.3635,131.78779 C 237.75556,131.7878 238.13979,131.8255 238.51618,131.90088 C 238.89256,131.97209 239.2219,132.11241 239.50418,132.32183 C 239.78647,132.53126 239.92761,132.81819 239.92762,133.18259 C 239.92761,133.2915 239.8688,133.41087 239.75119,133.54071 C 239.63357,133.67056 239.57476,133.80668 239.57476,133.9491 C 239.57476,134.20878 239.7257,134.44544 240.02759,134.65906 C 240.3334,134.86848 240.67842,134.9732 241.06265,134.9732 C 241.13321,134.9732 241.24888,134.95854 241.40963,134.92922 C 241.57037,134.8999 241.69191,134.87058 241.77425,134.84126 L 241.89775,134.84126 M 239.0337,134.01193 C 239.0141,133.92815 238.99645,133.84438 238.98077,133.76061 C 238.95333,133.67265 238.85139,133.62867 238.67496,133.62867 C 238.1888,133.62867 237.74968,133.77527 237.35762,134.06847 C 236.96556,134.36167 236.76952,134.57529 236.76952,134.70932 C 236.76952,134.7889 236.79304,134.85383 236.84009,134.90409 C 236.88714,134.95016 236.96163,134.9732 237.06357,134.9732 C 237.38114,134.9732 237.72028,134.86011 238.08098,134.63393 C 238.4456,134.40355 238.76318,134.19622 239.0337,134.01193 M 243.23439,134.18785 C 243.23439,134.26324 243.20302,134.33654 243.14029,134.40775 C 243.07756,134.47895 243.00307,134.51455 242.91682,134.51455 L 242.25814,134.23183 L 242.14641,134.23183 L 242.14641,135.40044 L 241.86412,135.40044 C 241.75826,135.3753 241.53086,135.18262 241.18192,134.82241 C 240.83298,134.46219 240.65851,134.21926 240.65851,134.0936 C 240.65851,133.947 240.82318,133.86532 241.15252,133.84857 C 241.48577,133.83181 241.6524,133.75852 241.6524,133.62867 C 241.6524,133.49045 241.6132,133.25589 241.53478,132.92499 C 241.46029,132.58991 241.42304,132.39095 241.42304,132.32812 L 240.68792,130.15426 C 240.74673,130.04955 240.79378,129.97834 240.82906,129.94064 C 240.86435,129.90294 240.9114,129.8841 240.97021,129.8841 C 241.03686,129.8841 241.18977,130.22337 241.42892,130.90192 C 241.66808,131.58046 241.81707,132.09146 241.87588,132.43492 L 242.09348,133.68522 C 242.14836,133.73967 242.35224,133.80878 242.7051,133.89255 C 243.05796,133.97632 243.23439,134.07475 243.23439,134.18785 M 241.65828,134.91666 L 241.6524,134.20041 L 241.51126,134.18785 C 241.45637,134.18785 241.4054,134.19203 241.35835,134.20041 C 241.3113,134.2046 241.28778,134.22763 241.28778,134.26952 C 241.28778,134.33235 241.33875,134.43078 241.44069,134.56482 C 241.54654,134.69885 241.61908,134.81613 241.65828,134.91666 M 245.99166,131.22233 C 245.94853,131.28517 245.89756,131.33962 245.83875,131.38569 C 245.77994,131.43177 245.72309,131.45481 245.6682,131.4548 C 245.63684,131.45481 245.60155,131.43806 245.56235,131.40454 C 245.52706,131.37103 245.50942,131.31449 245.50942,131.2349 C 245.50942,131.20559 245.51333,131.1658 245.52118,131.11553 C 245.52901,131.06527 245.53294,131.03805 245.53294,131.03386 C 245.53294,130.74485 245.39375,130.50819 245.11539,130.32389 C 244.84094,130.1396 244.59198,130.04745 244.3685,130.04745 C 243.98428,130.04745 243.68631,130.29248 243.47459,130.78254 C 243.26288,131.26842 243.15702,131.80874 243.15702,132.40351 C 243.18446,132.592 243.22367,132.84122 243.27464,133.15118 C 243.32953,133.46113 243.42363,133.77527 243.55693,134.0936 C 243.69414,134.40775 243.86862,134.56482 244.08033,134.56482 C 244.31165,134.55225 244.54689,134.53549 244.78605,134.51455 C 245.02521,134.48942 245.17812,134.44335 245.24477,134.37633 C 245.31534,134.45173 245.37023,134.51246 245.40944,134.55853 C 245.44864,134.60042 245.46825,134.6423 245.46825,134.68419 C 245.46825,134.78052 245.4408,134.86011 245.38592,134.92294 C 245.33494,134.98157 245.24869,135.0109 245.12715,135.0109 C 245.03697,135.0109 244.92132,134.98577 244.78017,134.9355 L 243.9686,134.9355 L 243.9686,135.06116 C 244.06269,135.23708 244.17247,135.45279 244.29793,135.70829 C 244.42731,135.96379 244.492,136.11877 244.492,136.17323 C 244.45672,136.21511 244.41555,136.25699 244.3685,136.29888 C 244.32537,136.34077 244.26853,136.36171 244.19795,136.36171 C 244.09993,136.36171 243.89214,136.24024 243.57457,135.99731 C 243.25699,135.75436 242.96294,135.49886 242.69242,135.2308 C 242.42189,134.95854 242.28663,134.77634 242.28663,134.68419 C 242.28663,134.59623 242.35524,134.54387 242.49246,134.52712 C 242.62577,134.50617 242.75907,134.49571 242.89237,134.49571 C 242.9551,134.49571 243.01784,134.49779 243.08056,134.50199 C 243.14722,134.50199 243.21191,134.50199 243.27464,134.50199 L 243.27464,134.3135 C 243.15702,134.06219 243.059,133.75643 242.98059,133.39621 C 242.9061,133.03599 242.86885,132.64227 242.86885,132.21502 C 242.86885,131.51972 242.98843,130.92286 243.22759,130.42442 C 243.46675,129.92599 243.84705,129.67676 244.3685,129.67676 C 244.88995,129.67676 245.2683,129.78567 245.50354,130.00347 C 245.70349,130.28411 245.85443,130.47259 245.95637,130.56893 C 246.0583,130.66527 246.10928,130.77207 246.10928,130.88935 C 246.10928,131.00664 246.07007,131.11763 245.99166,131.22233 M 243.73336,135.57007 C 243.68631,135.34808 243.63142,135.19729 243.56869,135.11771 C 243.50988,135.03393 243.43146,134.99205 243.33345,134.99205 C 243.27464,134.98786 243.22955,134.98577 243.19818,134.98577 C 243.1629,134.98577 243.11193,134.99833 243.04528,135.02346 C 243.13546,135.13236 243.24523,135.23917 243.37461,135.34389 C 243.504,135.4486 243.62358,135.524 243.73336,135.57007 M 250.37447,133.96166 C 250.38623,134.03706 250.39211,134.11035 250.39211,134.18156 C 250.39211,134.49571 250.25684,134.74074 249.98633,134.91666 C 249.71579,135.08838 249.3943,135.20357 249.02184,135.26221 C 248.65329,135.32085 248.27496,135.35017 247.88681,135.35017 C 247.39281,135.35017 246.93604,135.20985 246.51654,134.92922 C 246.09702,134.6444 245.88727,134.30931 245.88727,133.92397 C 245.88727,133.81925 245.93236,133.63705 246.02253,133.37736 C 246.11663,133.11348 246.24405,132.87263 246.4048,132.65483 C 246.56555,132.43283 246.94781,132.23597 247.55159,132.06424 C 247.57119,132.0056 247.59276,131.94068 247.61628,131.86947 C 247.63981,131.79408 247.68293,131.70821 247.74567,131.61187 C 247.98091,131.71659 248.3024,131.91554 248.71015,132.20874 C 249.11789,132.49776 249.48643,132.80772 249.81578,133.13861 C 250.1451,133.46532 250.33134,133.73967 250.37447,133.96166 M 249.99809,134.43916 C 249.99808,134.22135 249.86282,133.9847 249.5923,133.7292 C 249.32569,133.4695 249.0238,133.22657 248.68662,133.00039 C 248.34945,132.77421 248.17302,132.66111 248.15734,132.66111 C 248.15734,132.82447 248.11421,132.96059 248.02795,133.0695 C 247.94169,133.17421 247.77507,133.22657 247.52807,133.22657 C 247.43005,133.22657 247.36144,133.2161 247.32223,133.19516 C 247.28302,133.17002 247.23206,133.1051 247.16933,133.00039 C 246.93801,133.09673 246.76942,133.23914 246.66356,133.42762 C 246.5577,133.61611 246.47145,133.79831 246.4048,133.97423 C 246.4048,134.32187 246.60671,134.58367 247.01054,134.75958 C 247.41437,134.9355 247.82016,135.02346 248.22791,135.02346 C 248.80424,135.02346 249.21199,134.98577 249.45115,134.91037 C 249.69423,134.83079 249.87654,134.67371 249.99809,134.43916 M 253.30715,132.06424 C 253.15817,132.09775 253.03467,132.14382 252.93665,132.20246 C 252.84256,132.25691 252.7661,132.28414 252.70729,132.28414 C 252.62888,132.28414 252.56223,132.2255 252.50734,132.10822 C 252.45246,131.98675 252.38776,131.92602 252.31327,131.92601 C 252.129,131.92602 251.91728,132.11451 251.67812,132.49147 C 251.43896,132.86426 251.31938,133.2538 251.31938,133.66009 C 251.31938,133.81925 251.3429,133.97423 251.38995,134.12502 L 251.38995,135.39415 L 251.05473,135.39415 C 250.96848,135.39415 250.84694,135.16797 250.69011,134.71561 C 250.53721,134.26324 250.46075,133.73548 250.46075,133.13233 C 250.46075,133.0695 250.4588,132.99201 250.45487,132.89986 C 250.45095,132.80352 250.44899,132.73861 250.44899,132.70509 C 250.44899,132.57944 250.46468,132.47891 250.49604,132.40351 C 250.53132,132.32812 250.60778,132.24016 250.7254,132.13963 L 250.91947,132.13963 C 250.93908,132.20665 250.95084,132.2611 250.95476,132.30298 C 250.95868,132.34487 250.96064,132.39514 250.96064,132.45377 C 250.96064,132.51241 250.9528,132.58153 250.93711,132.66111 C 250.92143,132.74069 250.91359,132.79515 250.91359,132.82447 C 250.91359,132.8873 250.93908,132.96479 250.99004,133.05693 C 251.20176,132.4831 251.43896,132.07053 251.70164,131.8192 C 251.96825,131.5637 252.23878,131.43596 252.51322,131.43595 C 252.52106,131.43596 252.61712,131.47574 252.80139,131.55533 C 252.98566,131.63073 253.15425,131.68308 253.30715,131.7124 L 253.30715,132.06424 M 259.52751,135.52609 C 259.36675,135.57636 259.20208,135.62452 259.0335,135.6706 C 258.86491,135.71667 258.76297,135.73133 258.72769,135.71458 C 258.6924,135.69782 258.5787,135.56798 258.38659,135.32504 C 258.19839,135.07791 258.01217,134.77634 257.8279,134.42031 C 257.64363,134.06428 257.52992,133.70825 257.4868,133.35223 L 257.31037,133.35223 C 257.10257,133.59098 256.98103,133.73129 256.94575,133.77318 C 256.91438,133.81088 256.89869,133.85694 256.8987,133.9114 C 256.79284,134.10407 256.65757,134.29674 256.49291,134.48942 C 256.33216,134.67791 256.1028,134.77215 255.80484,134.77215 C 255.60096,134.49571 255.4755,134.30094 255.42845,134.18785 C 255.3814,134.07475 255.35788,133.92815 255.35788,133.74805 C 255.35788,133.6894 255.35788,133.62867 255.35788,133.56584 C 255.35788,133.49883 255.35984,133.42762 255.36376,133.35223 L 255.18145,133.35223 C 255.04423,133.51977 254.89328,133.79412 254.72861,134.17528 C 254.56395,134.55644 254.41692,134.83079 254.28754,134.99833 C 254.16208,135.16169 253.9582,135.24336 253.67592,135.24336 C 253.52693,135.24336 253.39951,135.0465 253.29365,134.65278 C 253.19171,134.25486 253.14074,133.66218 253.14074,132.87473 C 253.14074,132.34278 253.16231,131.92602 253.20544,131.62444 C 253.25248,131.32287 253.3505,131.17208 253.49949,131.17207 C 253.64455,131.17208 253.73864,131.21396 253.78177,131.29773 C 253.82882,131.38151 253.85235,131.48831 253.85235,131.61815 L 253.85235,131.74381 C 253.8249,132.07471 253.79942,132.38885 253.77589,132.68625 C 253.75629,132.97944 253.74649,133.23285 253.74649,133.44647 C 253.74649,133.67684 253.75237,133.86951 253.76413,134.02449 C 253.77981,134.17528 253.80922,134.33025 253.85235,134.48942 L 254.03466,134.48942 C 254.28166,134.33025 254.4424,134.09989 254.5169,133.79831 C 254.59139,133.49673 254.66392,133.05693 254.73449,132.4789 C 254.80507,131.8967 254.89524,131.4925 255.00502,131.26631 C 255.30691,131.35428 255.49902,131.54277 255.58136,131.83177 C 255.66369,132.12079 255.74603,132.55221 255.82836,133.12604 C 255.91461,133.69569 256.02439,133.99098 256.1577,134.01193 C 256.34589,133.89883 256.55564,133.60144 256.78696,133.11976 C 257.01828,132.63808 257.13393,132.21084 257.13394,131.83805 C 257.13393,131.7878 257.1751,131.74382 257.25744,131.70611 C 257.33977,131.66423 257.41622,131.64329 257.4868,131.64328 C 257.65539,131.64329 257.79261,131.95324 257.89847,132.57315 C 258.00432,133.19306 258.15331,133.72292 258.34543,134.16271 C 258.54146,134.59832 258.93548,134.89571 259.52751,135.05488 L 259.52751,135.52609"
       id="path2544"
       sodipodi:nodetypes="csssssscsssssssscccsccsssccsssccsssccssccscsssssccssscscccsscscsssssscssssccssssssssccsssssssssssccssscscsssssssssssscccssccsssscccsssssssssssccsssssccssccccsssssssssssccssssccscsssssccssscscccsscscsssssscssssccssssscssssssccssssssssssssscssccccssscssssccsssscsccsscscsscsccccscccccsssssccsssccsccccsssccsssssccssssssccscssscsscsccsccsssssssssssccsssscccssccssssssscssssssssssscsssssssscccsssssssccscccccsssssccsssccsccccsssccssssssssscsssscsssscccssssssssssccsssscssccssscsccsssssssscscssccsssssscscsssccsssssscccsssssccsssscssscccssssccssscsssccssssssssccsssccsscsscsssssscc" />
    <path
       style="font-size:12px;font-style:normal;font-weight:normal;fill:#ffffff;fill-opacity:1;stroke:none;stroke-width:1pt;stroke-linecap:butt;stroke-linejoin:miter;stroke-opacity:1;font-family:Bitstream Vera Sans"
       d="M 171.18695,121.44889 L 171.18695,121.91826 L 170.68156,121.91826 C 170.49203,121.91826 170.35994,121.95917 170.28528,122.04097 C 170.21253,122.12278 170.17616,122.27004 170.17616,122.48273 L 170.17616,122.78644 L 171.04624,122.78644 L 171.04624,123.22514 L 170.17616,123.22514 L 170.17616,126.22238 L 169.64491,126.22238 L 169.64491,123.22514 L 169.13951,123.22514 L 169.13951,122.78644 L 169.64491,122.78644 L 169.64491,122.54716 C 169.64491,122.16471 169.72819,121.88657 169.89474,121.71272 C 170.06129,121.53684 170.32548,121.44889 170.6873,121.44889 L 171.18695,121.44889 M 175.55902,124.84016 C 175.57078,124.91555 175.57666,124.98885 175.57666,125.06005 C 175.57666,125.3742 175.4414,125.61923 175.17087,125.79515 C 174.90034,125.96687 174.57885,126.08206 174.20638,126.1407 C 173.83784,126.19934 173.4595,126.22866 173.07135,126.22866 C 172.57735,126.22866 172.12059,126.08834 171.70108,125.80771 C 171.28157,125.52289 171.07181,125.1878 171.07181,124.80246 C 171.07181,124.69774 171.1169,124.51554 171.20707,124.25585 C 171.30117,123.99197 171.4286,123.75113 171.58934,123.53332 C 171.75009,123.31133 172.13235,123.11446 172.73613,122.94273 C 172.75574,122.88409 172.7773,122.81917 172.80082,122.74796 C 172.82435,122.67257 172.86748,122.5867 172.93021,122.49036 C 173.16545,122.59508 173.48694,122.79404 173.89469,123.08723 C 174.30244,123.37625 174.67098,123.68621 175.00032,124.0171 C 175.32966,124.34381 175.51589,124.61816 175.55902,124.84016 M 175.18263,125.31765 C 175.18263,125.09984 175.04736,124.86319 174.77684,124.60769 C 174.51023,124.348 174.20835,124.10506 173.87117,123.87888 C 173.53399,123.6527 173.35756,123.53961 173.34188,123.53961 C 173.34188,123.70296 173.29875,123.83909 173.21249,123.94799 C 173.12624,124.0527 172.95961,124.10506 172.71261,124.10506 C 172.6146,124.10506 172.54599,124.09459 172.50677,124.07365 C 172.46757,124.04852 172.4166,123.98359 172.35387,123.87888 C 172.12255,123.97522 171.95396,124.11763 171.8481,124.30611 C 171.74225,124.4946 171.65599,124.6768 171.58934,124.85272 C 171.58934,125.20037 171.79126,125.46216 172.19508,125.63808 C 172.59892,125.814 173.0047,125.90196 173.41245,125.90196 C 173.98879,125.90196 174.39654,125.86426 174.63569,125.78887 C 174.87878,125.70928 175.06109,125.55221 175.18263,125.31765 M 178.49171,122.94273 C 178.34272,122.97624 178.21922,123.02232 178.12121,123.08095 C 178.02711,123.13541 177.95066,123.16263 177.89185,123.16263 C 177.81343,123.16263 177.74678,123.10399 177.6919,122.98671 C 177.637,122.86524 177.57231,122.80451 177.49782,122.8045 C 177.31355,122.80451 177.10183,122.993 176.86267,123.36996 C 176.62351,123.74275 176.50393,124.13229 176.50393,124.53858 C 176.50393,124.69774 176.52746,124.85272 176.5745,125.00351 L 176.5745,126.27264 L 176.23929,126.27264 C 176.15303,126.27264 176.03149,126.04646 175.87467,125.5941 C 175.72176,125.14173 175.64531,124.61397 175.64531,124.01082 C 175.64531,123.94799 175.64334,123.8705 175.63943,123.77835 C 175.63551,123.68201 175.63354,123.6171 175.63354,123.58359 C 175.63354,123.45793 175.64922,123.3574 175.68059,123.282 C 175.71588,123.20661 175.79233,123.11865 175.90995,123.01812 L 176.10402,123.01812 C 176.12363,123.08514 176.13539,123.13959 176.13931,123.18148 C 176.14323,123.22337 176.14519,123.27363 176.14519,123.33226 C 176.14519,123.39091 176.13735,123.46003 176.12167,123.53961 C 176.10599,123.61919 176.09814,123.67364 176.09814,123.70296 C 176.09814,123.76579 176.12363,123.84328 176.1746,123.93543 C 176.38631,123.36159 176.62351,122.94902 176.8862,122.6977 C 177.1528,122.4422 177.42333,122.31445 177.69778,122.31444 C 177.70561,122.31445 177.80167,122.35424 177.98595,122.43382 C 178.17021,122.50922 178.33881,122.56157 178.49171,122.59089 L 178.49171,122.94273 M 183.74169,125.06634 C 183.74169,125.14173 183.71032,125.21503 183.6476,125.28624 C 183.58487,125.35744 183.51037,125.39305 183.42412,125.39305 L 182.76545,125.11032 L 182.65371,125.11032 L 182.65371,126.27893 L 182.37142,126.27893 C 182.26556,126.2538 182.03817,126.06112 181.68922,125.70091 C 181.34029,125.34069 181.16582,125.09775 181.16582,124.97209 C 181.16582,124.82549 181.33048,124.74382 181.65982,124.72706 C 181.99308,124.7103 182.1597,124.63701 182.1597,124.50716 C 182.1597,124.36894 182.1205,124.13438 182.04208,123.80349 C 181.96759,123.4684 181.93035,123.26944 181.93035,123.20661 L 181.19522,121.03275 C 181.25403,120.92804 181.30108,120.85683 181.33636,120.81913 C 181.37165,120.78144 181.4187,120.76259 181.47751,120.76259 C 181.54416,120.76259 181.69707,121.10186 181.93623,121.78041 C 182.17539,122.45896 182.32437,122.96996 182.38318,123.31342 L 182.60078,124.56371 C 182.65567,124.61816 182.85954,124.68727 183.2124,124.77104 C 183.56526,124.85481 183.74169,124.95325 183.74169,125.06634 M 182.16559,125.79515 L 182.1597,125.0789 L 182.01856,125.06634 C 181.96368,125.06634 181.9127,125.07052 181.86565,125.0789 C 181.81861,125.08309 181.79508,125.10612 181.79508,125.14801 C 181.79508,125.21084 181.84606,125.30927 181.94799,125.44331 C 182.05385,125.57734 182.12638,125.69462 182.16559,125.79515 M 185.7756,126.45485 C 185.64622,126.52186 185.53644,126.58469 185.44626,126.64333 C 185.35609,126.70197 185.30904,126.73129 185.30512,126.73129 C 185.08948,126.73129 184.92482,126.53652 184.81111,126.14699 C 184.70134,125.75745 184.59548,125.50614 184.49354,125.39305 C 184.42297,125.45168 184.32692,125.57525 184.20537,125.76373 C 184.08383,125.94803 183.90937,126.10301 183.68196,126.22866 C 183.64276,126.13232 183.61335,126.01714 183.59375,125.88311 C 183.57415,125.74907 183.56434,125.62341 183.56434,125.50614 C 183.56434,125.35535 183.57219,125.22759 183.58787,125.12288 C 183.60356,125.01398 183.61924,124.91974 183.63492,124.84016 C 183.60747,124.83178 183.57807,124.81921 183.5467,124.80246 C 183.51926,124.78151 183.49573,124.73753 183.47613,124.67052 C 183.43692,124.42758 183.38791,124.13019 183.3291,123.77835 C 183.27422,123.42651 183.20757,123.00556 183.12915,122.51549 C 183.04682,122.02125 183.00565,121.75528 183.00565,121.71758 C 183.00565,121.68826 182.99389,121.62753 182.97036,121.53538 C 182.94292,121.43905 182.9292,121.37202 182.9292,121.33433 C 182.9292,121.27988 182.939,121.22543 182.9586,121.17097 C 182.97429,121.11652 183.00761,121.05579 183.05858,120.98877 C 183.21541,121.02647 183.32127,121.17307 183.37615,121.42857 C 183.44281,121.98984 183.51141,122.549 183.58199,123.10608 C 183.63296,123.34064 183.68393,123.66945 183.73489,124.0925 C 183.78978,124.51135 183.81723,124.85691 183.81723,125.12917 C 183.81723,125.30089 183.80743,125.42655 183.78782,125.50614 L 183.94661,125.50614 C 184.06815,125.43074 184.17597,125.27367 184.27006,125.03492 C 184.36416,124.79198 184.48178,124.67052 184.62292,124.67052 C 184.76015,124.67052 184.85816,124.84853 184.91697,125.20456 C 184.97971,125.5564 185.05224,125.82447 185.13457,126.00876 C 185.22083,126.19306 185.4345,126.28521 185.7756,126.28521 L 185.7756,126.45485 M 189.88393,126.01505 C 189.88393,126.09044 189.84276,126.1763 189.76043,126.27264 C 189.67809,126.37317 189.56635,126.42343 189.42522,126.42343 C 189.22134,126.42343 188.76654,126.34594 188.06083,126.19097 C 187.35902,126.0318 186.86894,125.88311 186.59058,125.74489 C 186.31614,125.60247 186.12402,125.48309 186.01424,125.38676 C 185.90447,125.28624 185.7594,125.11869 185.57905,124.88414 C 185.48887,124.8967 185.40654,124.90298 185.33205,124.90298 C 185.10072,124.90298 184.90861,124.84016 184.75571,124.7145 C 184.6028,124.58466 184.52635,124.44643 184.52635,124.29983 C 184.52635,124.21187 184.56164,124.14066 184.63221,124.08621 C 184.69886,124.02757 184.79099,123.98987 184.90861,123.97312 C 184.93214,123.99825 184.97919,124.04852 185.04976,124.12391 C 185.12033,124.19512 185.17522,124.24747 185.21443,124.28098 L 185.67314,124.29983 C 185.67314,123.87678 185.83389,123.53751 186.15539,123.282 C 186.47688,123.02232 186.79837,122.84221 187.11987,122.74168 C 187.44136,122.63696 187.66092,122.58042 187.77854,122.57204 C 187.90008,122.55948 188.00985,122.5511 188.10787,122.54691 C 188.47641,122.54692 188.79987,122.63696 189.07824,122.81707 C 189.36052,122.993 189.50166,123.21499 189.50167,123.48306 C 189.50166,123.62128 189.39189,123.79302 189.17233,123.99825 C 188.95669,124.1993 188.6254,124.37732 188.17844,124.5323 C 187.73149,124.68727 187.18063,124.76476 186.52589,124.76476 C 186.471,124.75638 186.43376,124.7522 186.41415,124.7522 C 186.35926,124.7522 186.33182,124.76685 186.33182,124.79618 C 186.33182,124.82549 186.36514,124.87366 186.43179,124.94068 C 186.50236,125.0077 186.56706,125.06634 186.62587,125.1166 C 186.86894,125.27576 187.11203,125.43283 187.35511,125.58781 C 187.70012,125.71347 188.13335,125.7763 188.65481,125.7763 C 188.84692,125.7763 188.96649,125.73232 189.01355,125.64436 C 189.06059,125.55221 189.17233,125.48519 189.34876,125.44331 L 189.57812,125.44331 L 189.88393,126.01505 M 188.9665,123.60243 C 188.89593,123.38462 188.77634,123.24222 188.60776,123.17519 C 188.43916,123.10818 188.17648,123.07468 187.8197,123.07467 C 187.40019,123.07468 187.04733,123.18777 186.76113,123.41394 C 186.47492,123.63595 186.23968,123.95846 186.05541,124.38151 C 186.11422,124.35638 186.1593,124.34381 186.19067,124.34381 C 186.2142,124.34381 186.2436,124.35009 186.27889,124.36266 C 186.31417,124.37522 186.34161,124.38151 186.36122,124.38151 C 186.83562,124.38151 187.37667,124.29564 187.98437,124.12391 C 188.59207,123.95218 188.91945,123.77835 188.9665,123.60243"
       id="path2550"
       sodipodi:nodetypes="cccsccccccccccccscccsssssssscscssccsssssscscsssccsssssscccsssssccsssscssscccscccccsssssccsssccsccccsssccssscscsssssssssssscccssccsssscccssssscssssssccssssssssssssscssccccssscssssc" />
    <rect
       style="opacity:1;fill:#ffffff;fill-opacity:1;fill-rule:nonzero;stroke:#9b0000;stroke-width:0;stroke-miterlimit:4;stroke-dasharray:none;stroke-opacity:1;filter:url(#filter3415)"
       id="rect2720"
       width="249.90038"
       height="30.790018"
       x="23.831099"
       y="24.23448"
       rx="0.3086786"
       ry="0.69955355"
       inkscape:export-filename="/home/schm/studienarbeit/logosvn/images/kieler-splash3.png"
       inkscape:export-xdpi="179.7722"
       inkscape:export-ydpi="179.7722"
       transform="matrix(1.0673353,0,0,1.1627907,-10.913283,-8.9574764)" />
    <image
       y="27.629486"
       x="29.361824"
       id="image2582"
       height="24"
       width="72"
       sodipodi:absref="/home/schm/Desktop/cau-logo.png"
       xlink:href="/home/schm/Desktop/cau-logo.png" />
    <image
       y="26.850746"
       x="213.92743"
       id="image2716"
       height="24.948"
       width="48.599998"
       sodipodi:absref="/home/schm/Desktop/ifi-logo.png"
       xlink:href="/home/schm/Desktop/ifi-logo.png" />
    <rect
       style="opacity:1;fill:#ffffff;fill-opacity:1;fill-rule:nonzero;stroke:#9b0000;stroke-width:0;stroke-miterlimit:4;stroke-dasharray:none;stroke-opacity:1;filter:url(#filter3427)"
       id="rect3512"
       width="249.90038"
       height="30.790018"
       x="23.831102"
       y="158.49329"
       rx="0.3086786"
       ry="0.69955355"
       transform="matrix(1.0587392,0,0,1.3604651,-11.066455,-57.131301)" />
    <image
       y="162.42551"
       x="28.509291"
       id="image2649"
       height="21.6"
       width="18.450001"
       sodipodi:absref="/home/schm/Desktop/cau-siegel.gif"
       xlink:href="/home/schm/Desktop/cau-siegel.gif" />
    <rect
       style="opacity:1;fill:#c8c8c8;fill-opacity:1;fill-rule:nonzero;stroke:#9b0000;stroke-width:0;stroke-miterlimit:4;stroke-dasharray:none;stroke-opacity:1"
       id="rect3441"
       width="218.03629"
       height="20.76536"
       x="49.608788"
       y="162.43155"
       rx="3.0155661"
       ry="0.35159016" />
    <rect
       style="opacity:1;fill:#646464;fill-opacity:1;fill-rule:nonzero;stroke:#9b0000;stroke-width:0;stroke-miterlimit:4;stroke-dasharray:none;stroke-opacity:1"
       id="rect3443"
       width="261.35712"
       height="9.308609"
       x="18.281746"
       y="184.98701"
       rx="3.614718"
       ry="0.15760937" />
  </g>
</svg>
