<?xml version="1.0" encoding="UTF-8" standalone="no"?>
<!-- Created with Inkscape (http://www.inkscape.org/) -->
<svg
   xmlns:dc="http://purl.org/dc/elements/1.1/"
   xmlns:cc="http://creativecommons.org/ns#"
   xmlns:rdf="http://www.w3.org/1999/02/22-rdf-syntax-ns#"
   xmlns:svg="http://www.w3.org/2000/svg"
   xmlns="http://www.w3.org/2000/svg"
   xmlns:xlink="http://www.w3.org/1999/xlink"
   xmlns:sodipodi="http://sodipodi.sourceforge.net/DTD/sodipodi-0.dtd"
   xmlns:inkscape="http://www.inkscape.org/namespaces/inkscape"
   width="250"
   height="165"
   id="svg2"
   sodipodi:version="0.32"
   inkscape:version="0.46"
   sodipodi:docbase="/home/haf/shared/kieler/trunk/common/doc/images"
   sodipodi:docname="kieler-splash3.svg"
   inkscape:export-filename="/home/schm/studienarbeit/logosvn/images/kieler-splash13.png"
   inkscape:export-xdpi="150"
   inkscape:export-ydpi="150"
   inkscape:output_extension="org.inkscape.output.svg.inkscape"
   version="1.0">
  <defs
     id="defs4">
    <linearGradient
       id="linearGradient3888">
      <stop
         style="stop-color:#dcdcff;stop-opacity:1;"
         offset="0"
         id="stop3890" />
      <stop
         style="stop-color:#ffffff;stop-opacity:0;"
         offset="1"
         id="stop3892" />
    </linearGradient>
    <linearGradient
       id="linearGradient3349">
      <stop
         id="stop3351"
         offset="0"
         style="stop-color:#e6e6e6;stop-opacity:1;" />
      <stop
         id="stop3353"
         offset="1"
         style="stop-color:#e6e6e6;stop-opacity:1;" />
    </linearGradient>
    <linearGradient
       id="linearGradient3225">
      <stop
         style="stop-color:#6400c8;stop-opacity:1;"
         offset="0"
         id="stop3227" />
      <stop
         style="stop-color:#320064;stop-opacity:1;"
         offset="1"
         id="stop3229" />
    </linearGradient>
    <linearGradient
       id="linearGradient3200">
      <stop
         style="stop-color:#ffffff;stop-opacity:1;"
         offset="0"
         id="stop3212" />
      <stop
         style="stop-color:#c8c8ff;stop-opacity:1;"
         offset="1"
         id="stop3210" />
    </linearGradient>
    <inkscape:perspective
       sodipodi:type="inkscape:persp3d"
       inkscape:vp_x="0 : 526.18109 : 1"
       inkscape:vp_y="0 : 1000 : 0"
       inkscape:vp_z="744.09448 : 526.18109 : 1"
       inkscape:persp3d-origin="372.04724 : 350.78739 : 1"
       id="perspective38" />
    <marker
       inkscape:stockid="Arrow1Mend"
       orient="auto"
       refY="0"
       refX="0"
       id="Arrow1Mend"
       style="overflow:visible">
      <path
         id="path2998"
         d="M 0,0 L 5,-5 L -12.5,0 L 5,5 L 0,0 z"
         style="fill-rule:evenodd;stroke:#000000;stroke-width:1pt;marker-start:none"
         transform="matrix(-0.4,0,0,-0.4,-4,0)" />
    </marker>
    <marker
       inkscape:stockid="Arrow2Mend"
       orient="auto"
       refY="0"
       refX="0"
       id="Arrow2Mend"
       style="overflow:visible">
      <path
         id="path2980"
         style="font-size:12px;fill-rule:evenodd;stroke-width:0.625;stroke-linejoin:round"
         d="M 8.7185878,4.0337352 L -2.2072895,0.016013256 L 8.7185884,-4.0017078 C 6.97309,-1.6296469 6.9831476,1.6157441 8.7185878,4.0337352 z"
         transform="scale(-0.6,-0.6)" />
    </marker>
    <marker
       inkscape:stockid="Arrow2Lend"
       orient="auto"
       refY="0"
       refX="0"
       id="Arrow2Lend"
       style="overflow:visible">
      <path
         id="path2986"
         style="font-size:12px;fill-rule:evenodd;stroke-width:0.625;stroke-linejoin:round"
         d="M 8.7185878,4.0337352 L -2.2072895,0.016013256 L 8.7185884,-4.0017078 C 6.97309,-1.6296469 6.9831476,1.6157441 8.7185878,4.0337352 z"
         transform="matrix(-1.1,0,0,-1.1,-1.1,0)" />
    </marker>
    <inkscape:perspective
       id="perspective2580"
       inkscape:persp3d-origin="372.04724 : 350.78739 : 1"
       inkscape:vp_z="744.09448 : 526.18109 : 1"
       inkscape:vp_y="0 : 1000 : 0"
       inkscape:vp_x="0 : 526.18109 : 1"
       sodipodi:type="inkscape:persp3d" />
    <inkscape:perspective
       id="perspective2647"
       inkscape:persp3d-origin="372.04724 : 350.78739 : 1"
       inkscape:vp_z="744.09448 : 526.18109 : 1"
       inkscape:vp_y="0 : 1000 : 0"
       inkscape:vp_x="0 : 526.18109 : 1"
       sodipodi:type="inkscape:persp3d" />
    <inkscape:perspective
       id="perspective2714"
       inkscape:persp3d-origin="372.04724 : 350.78739 : 1"
       inkscape:vp_z="744.09448 : 526.18109 : 1"
       inkscape:vp_y="0 : 1000 : 0"
       inkscape:vp_x="0 : 526.18109 : 1"
       sodipodi:type="inkscape:persp3d" />
    <radialGradient
       inkscape:collect="always"
       xlink:href="#linearGradient3225"
       id="radialGradient3231"
       cx="-62.833118"
       cy="78.721687"
       fx="-62.833118"
       fy="78.721687"
       r="25.240654"
       gradientTransform="matrix(1,0,0,0.9503546,0,4.6188729)"
       gradientUnits="userSpaceOnUse" />
    <inkscape:perspective
       id="perspective2631"
       inkscape:persp3d-origin="372.04724 : 350.78739 : 1"
       inkscape:vp_z="744.09448 : 526.18109 : 1"
       inkscape:vp_y="0 : 1000 : 0"
       inkscape:vp_x="0 : 526.18109 : 1"
       sodipodi:type="inkscape:persp3d" />
    <inkscape:perspective
       id="perspective3486"
       inkscape:persp3d-origin="372.04724 : 350.78739 : 1"
       inkscape:vp_z="744.09448 : 526.18109 : 1"
       inkscape:vp_y="0 : 1000 : 0"
       inkscape:vp_x="0 : 526.18109 : 1"
       sodipodi:type="inkscape:persp3d" />
    <inkscape:perspective
       id="perspective3553"
       inkscape:persp3d-origin="372.04724 : 350.78739 : 1"
       inkscape:vp_z="744.09448 : 526.18109 : 1"
       inkscape:vp_y="0 : 1000 : 0"
       inkscape:vp_x="0 : 526.18109 : 1"
       sodipodi:type="inkscape:persp3d" />
    <inkscape:perspective
       id="perspective4121"
       inkscape:persp3d-origin="372.04724 : 350.78739 : 1"
       inkscape:vp_z="744.09448 : 526.18109 : 1"
       inkscape:vp_y="0 : 1000 : 0"
       inkscape:vp_x="0 : 526.18109 : 1"
       sodipodi:type="inkscape:persp3d" />
    <inkscape:perspective
       id="perspective3370"
       inkscape:persp3d-origin="372.04724 : 350.78739 : 1"
       inkscape:vp_z="744.09448 : 526.18109 : 1"
       inkscape:vp_y="0 : 1000 : 0"
       inkscape:vp_x="0 : 526.18109 : 1"
       sodipodi:type="inkscape:persp3d" />
    <filter
       inkscape:collect="always"
       id="filter3281"
       x="-0.0066292508"
       width="1.0132585"
       y="-0.66425104"
       height="2.3285021">
      <feGaussianBlur
         inkscape:collect="always"
         stdDeviation="0.49545299"
         id="feGaussianBlur3283" />
    </filter>
    <filter
       inkscape:collect="always"
       id="filter3285"
       x="-0.0066292508"
       width="1.0132585"
       y="-0.66425104"
       height="2.3285021">
      <feGaussianBlur
         inkscape:collect="always"
         stdDeviation="0.49545299"
         id="feGaussianBlur3287" />
    </filter>
    <filter
       inkscape:collect="always"
       id="filter3289"
       x="-0.0066292508"
       width="1.0132585"
       y="-0.66425104"
       height="2.3285021">
      <feGaussianBlur
         inkscape:collect="always"
         stdDeviation="0.49545299"
         id="feGaussianBlur3291" />
    </filter>
    <filter
       inkscape:collect="always"
       id="filter3293"
       x="-0.0066292508"
       width="1.0132585"
       y="-0.66425104"
       height="2.3285021">
      <feGaussianBlur
         inkscape:collect="always"
         stdDeviation="0.49545299"
         id="feGaussianBlur3295" />
    </filter>
  </defs>
  <sodipodi:namedview
     id="base"
     pagecolor="#ffffff"
     bordercolor="#666666"
     borderopacity="1.0"
     gridtolerance="10000"
     guidetolerance="10"
     objecttolerance="10"
     inkscape:pageopacity="0.0"
     inkscape:pageshadow="2"
     inkscape:zoom="2"
     inkscape:cx="121.07143"
     inkscape:cy="58.308795"
     inkscape:document-units="px"
     inkscape:current-layer="layer1"
     inkscape:window-width="1280"
     inkscape:window-height="949"
     inkscape:window-x="0"
     inkscape:window-y="25"
     showgrid="false" />
  <metadata
     id="metadata7">
    <rdf:RDF>
      <cc:Work
         rdf:about="">
        <dc:format>image/svg+xml</dc:format>
        <dc:type
           rdf:resource="http://purl.org/dc/dcmitype/StillImage" />
      </cc:Work>
    </rdf:RDF>
  </metadata>
  <g
     inkscape:label="Layer 1"
     inkscape:groupmode="layer"
     id="layer1"
     transform="translate(-23.8311,-24.2833)">
    <rect
       style="opacity:1;fill:#fffffa;fill-opacity:1;fill-rule:nonzero;stroke:#f0f0f0;stroke-width:1;stroke-miterlimit:4;stroke-dasharray:none;stroke-opacity:1;stroke-linejoin:round"
       id="rect3578"
       width="249.90038"
       height="165.40685"
       x="0"
       y="-0.04881829"
       rx="0.30279118"
       ry="0.69955355"
       inkscape:export-filename="/home/schm/studienarbeit/logosvn/images/kieler-splash13.png"
       inkscape:export-xdpi="178.47824"
       inkscape:export-ydpi="178.47824"
       transform="translate(23.8311,24.2833)" />
    <image
       y="26.555017"
       x="127.36739"
       id="image3372"
       height="240"
       width="205"
       sodipodi:absref="/home/schm/studienarbeit/logosvn/images/cau-siegel.png"
       xlink:href="cau-siegel.png" />
    <g
       id="g3251"
       transform="matrix(1,0,0,1.4715449,-0.4197654,-85.25846)">
      <rect
         transform="matrix(1.4087737,0,0,1,-14.346214,8)"
         ry="0.083280176"
         rx="0.77712548"
         y="131.28351"
         x="26.337263"
         height="1.7901171"
         width="179.36977"
         id="rect3339"
         style="fill:#f0f0f0;fill-opacity:1;fill-rule:nonzero;stroke:#9b0000;stroke-width:0;stroke-miterlimit:4;stroke-dasharray:none;stroke-opacity:1;filter:url(#filter3293)" />
      <rect
         transform="matrix(1.4087737,0,0,1,-14.346214,8)"
         ry="0.083280176"
         rx="0.77712548"
         y="138.26495"
         x="26.516272"
         height="1.7901171"
         width="179.36977"
         id="rect3355"
         style="fill:#f0f0f0;fill-opacity:1;fill-rule:nonzero;stroke:#9b0000;stroke-width:0;stroke-miterlimit:4;stroke-dasharray:none;stroke-opacity:1;filter:url(#filter3289)" />
      <rect
         transform="matrix(1.4087737,0,0,1,-14.346214,8)"
         ry="0.083280176"
         rx="0.77712548"
         y="145.0674"
         x="26.516272"
         height="1.7901171"
         width="179.36977"
         id="rect3359"
         style="fill:#f0f0f0;fill-opacity:1;fill-rule:nonzero;stroke:#9b0000;stroke-width:0;stroke-miterlimit:4;stroke-dasharray:none;stroke-opacity:1;filter:url(#filter3285)" />
      <rect
         transform="matrix(1.4087737,0,0,1,-14.346214,8)"
         ry="0.083280176"
         rx="0.77712548"
         y="151.51183"
         x="26.516272"
         height="1.7901171"
         width="179.36977"
         id="rect3363"
         style="fill:#f0f0f0;fill-opacity:1;fill-rule:nonzero;stroke:#9b0000;stroke-width:0;stroke-miterlimit:4;stroke-dasharray:none;stroke-opacity:1;filter:url(#filter3281)" />
    </g>
    <rect
       style="fill:#d5e5ff;fill-opacity:1;stroke:#2b0000;stroke-width:0.66270393;stroke-linecap:butt;stroke-linejoin:miter;stroke-miterlimit:4;stroke-dasharray:none;stroke-opacity:1"
       id="rect1927"
       width="29.466228"
       height="30.684893"
       x="134.49686"
       y="127.63225"
       rx="0.31580028"
       ry="0.53713876" />
    <rect
       style="fill:#d5e5ff;fill-opacity:1;stroke:#2b0000;stroke-width:0.66270393;stroke-linecap:butt;stroke-linejoin:miter;stroke-miterlimit:4;stroke-dasharray:none;stroke-opacity:1"
       id="rect1925"
       width="29.466228"
       height="30.684893"
       x="87.515907"
       y="115.47047"
       rx="0.31580028"
       ry="0.53713876" />
    <rect
       style="fill:#000000;fill-opacity:1;fill-rule:nonzero;stroke:#f0f0f0;stroke-width:0.02375;stroke-linejoin:round;stroke-miterlimit:4;stroke-dasharray:none;stroke-opacity:1"
       id="rect3374"
       width="51.019478"
       height="0.85724854"
       x="211.93233"
       y="130.39598"
       rx="0.27985913"
       ry="0.022271255" />
    <rect
       style="fill:#d5e5ff;fill-opacity:1;stroke:#2b0000;stroke-width:0.66270393;stroke-linecap:butt;stroke-linejoin:miter;stroke-miterlimit:4;stroke-dasharray:none;stroke-opacity:1"
       id="rect1919"
       width="29.466228"
       height="30.684893"
       x="182.38881"
       y="115.47047"
       rx="0.31580028"
       ry="0.53713876" />
    <g
       style="overflow:visible"
       id="g1884"
       transform="matrix(5.8706532e-2,0,0,5.8706532e-2,186.61986,119.80964)">
      <path
         id="path1873"
         d="M 177.783,374.859 C 177.783,374.859 117.397,344.296 70.518,276.416 C 23.641,208.519 13.132,154.143 7.885,121.513 C 2.638,88.891 0,33 0,0 L 177.783,0 L 355.553,0 C 355.553,33 352.927,88.891 347.682,121.513 C 342.419,154.143 331.939,208.519 285.047,276.415 C 238.157,344.296 177.783,374.859 177.783,374.859"
         style="fill:#df002a" />
      <polygon
         id="polygon1875"
         points="177.957,10.294 151.33,84.175 125.078,12.366 97.32,85.675 70.316,15.925 16.306,15.925 16.306,68.804 84.956,97.685 15.553,134.437 88.697,147.186 31.686,189.948 107.439,192.2 56.444,243.948 128.457,234.569 86.826,289.709 165.202,269.083 134.457,324.221 177.957,356.661 221.471,324.221 190.712,269.083 269.102,289.709 227.458,234.569 299.47,243.948 248.461,192.2 324.213,189.948 267.217,147.186 340.345,134.437 270.972,97.685 339.591,68.804 339.591,15.925 285.584,15.925 258.594,85.675 230.848,12.366 204.584,84.175 177.957,10.294 "
         style="fill:#ffffff" />
      <path
         id="path1877"
         d="M 151.071,177.434 C 141.107,174.734 130.138,171.977 122.045,166.756 C 129.65,175.417 140.592,184.378 151.059,188.828 L 151.071,177.434 z M 197.224,178.99 C 191.195,180.051 184.036,180.609 177.629,180.609 C 177.629,180.609 164.371,180.05 158.342,178.99 L 158.356,191.522 C 164.328,193.156 171.488,194.026 177.937,194.026 C 183.546,194.026 191.223,193.156 197.209,191.522 L 197.224,178.99 z M 174.225,174.232 C 160.953,173.751 146.467,170.707 135.274,166.605 L 135.302,153.214 C 146.409,157.275 160.798,160.198 174.21,160.673 L 174.225,174.232 z M 127.877,150.654 C 119.825,146.754 111.046,141.066 105.451,135.608 C 107.279,141.239 110.503,150.186 113.363,155.182 C 117.522,158.14 122.993,161.699 127.878,164.044 L 127.878,150.654 L 127.877,150.654 z M 197.098,153.102 C 191.153,153.925 184.286,154.373 177.909,154.373 C 171.517,154.373 164.414,153.925 158.454,153.102 L 158.454,141.462 C 164.386,142.251 171.503,142.663 177.909,142.663 C 184.315,142.663 191.167,142.251 197.098,141.462 L 197.098,153.102 L 197.098,153.102 z M 204.507,177.42 C 214.445,174.733 225.428,171.977 233.508,166.756 C 225.93,175.417 214.96,184.378 204.507,188.808 L 204.507,177.42 z M 181.342,174.232 C 194.613,173.751 209.085,170.707 220.279,166.605 L 220.251,153.214 C 209.157,157.275 194.769,160.198 181.371,160.673 L 181.342,174.232 z M 227.69,150.654 C 235.741,146.754 244.52,141.066 250.101,135.608 C 248.274,141.239 245.063,150.186 242.19,155.182 C 238.031,158.14 232.587,161.699 227.69,164.044 L 227.69,150.654 z M 204.592,151.881 L 204.592,140.34 C 209.49,139.32 215.017,137.611 219.344,136.104 L 219.344,118.485 L 228.484,118.485 L 228.484,132.376 C 243.557,125.19 253.032,114.843 253.103,103.35 L 264.687,103.35 C 264.853,105.778 264.812,107.642 264.812,110.126 C 264.812,163.06 226.727,206.658 177.797,206.736 C 129.37,206.371 90.754,163.06 90.754,110.126 C 90.754,107.642 90.713,105.778 90.88,103.35 L 102.463,103.35 C 102.532,114.844 112.008,125.19 127.082,132.376 L 127.082,118.485 L 136.208,118.485 L 136.208,136.104 C 140.549,137.612 146.075,139.321 150.988,140.34 L 150.988,151.881 C 143.996,150.353 136.585,147.839 130.655,145.28 C 130.655,145.28 128.085,144.183 126.831,143.535 C 124.695,142.495 122.616,141.38 120.662,140.207 C 105.045,131.358 98.011,122.19 97.328,121.458 C 102.324,165.487 136.488,199.93 177.783,200.015 C 219.789,199.93 253.228,165.488 258.252,121.458 C 257.555,122.19 250.534,131.358 234.903,140.207 C 232.935,141.38 230.884,142.495 228.734,143.535 C 227.478,144.183 226.181,144.825 224.841,145.482 C 224.842,145.483 211.556,150.353 204.592,151.881"
         style="fill:#3c474c" />
    </g>
    <text
       xml:space="preserve"
       style="font-size:9.72000027px;font-style:normal;font-weight:normal;fill:#000000;fill-opacity:1;stroke:none;stroke-width:1pt;stroke-linecap:butt;stroke-linejoin:miter;stroke-opacity:1;font-family:Bitstream Vera Sans"
       x="90.400017"
       y="134.58168"
       id="text1899"><tspan
         sodipodi:role="line"
         id="tspan1901"
         x="90.400017"
         y="134.58168"
         style="font-size:10.52999973px;font-weight:bold;font-family:Arial">KIEL</tspan></text>
    <path
       style="font-size:12px;font-style:normal;font-weight:normal;fill:#000000;fill-opacity:1;stroke:none;stroke-width:1pt;stroke-linecap:butt;stroke-linejoin:miter;stroke-opacity:1;font-family:Bitstream Vera Sans"
       d="M 151.54273,138.99923 C 151.28353,139.15476 151.04701,139.26816 150.83318,139.33943 C 150.61933,139.40424 150.42493,139.43664 150.24997,139.43663 C 150.24349,139.43664 149.97781,139.401 149.45293,139.32971 C 148.93453,139.25844 148.49713,139.2228 148.14074,139.22279 C 147.79081,139.2228 147.49597,139.23576 147.25622,139.26167 C 147.02293,139.2876 146.83825,139.31676 146.70217,139.34915 C 146.57257,139.38156 146.30041,139.43664 145.88569,139.51439 C 145.47097,139.59216 144.95257,139.68288 144.33049,139.78655 C 143.63714,139.98096 143.29046,140.3406 143.29046,140.86547 C 143.21269,141.00804 143.13493,141.20244 143.05718,141.44867 C 142.97942,141.69492 142.94053,142.08048 142.94053,142.60535 C 142.90166,142.58592 142.86278,142.59888 142.8239,142.64423 C 142.7915,142.6896 142.7753,142.79652 142.7753,142.96499 C 142.7753,143.04275 142.77854,143.13671 142.78502,143.24687 C 142.7915,143.35703 142.80446,143.49311 142.8239,143.65511 C 143.28397,143.55791 143.62418,143.49311 143.84449,143.46071 C 144.06482,143.42831 144.23329,143.41211 144.34994,143.41211 C 144.38882,143.41211 144.42122,143.41535 144.44714,143.42183 L 148.51982,142.95527 L 148.98637,142.95527 C 148.83733,143.38295 148.21525,143.69075 147.12013,143.87867 C 146.15461,143.98883 145.17613,144.10223 144.18469,144.21887 C 143.19974,144.32903 142.70726,144.52667 142.70726,144.81179 C 142.70726,145.18115 142.98913,145.52783 143.5529,145.85183 C 144.11666,146.16935 144.92018,146.32811 145.96346,146.32811 C 146.48185,146.32811 147.13957,146.25035 147.93661,146.09483 C 148.73365,145.93931 149.23585,145.86155 149.44322,145.86155 C 149.33305,146.24387 149.13865,146.49659 148.86002,146.61971 C 148.58785,146.74283 148.21849,146.80439 147.75193,146.80439 C 147.65473,146.80439 147.49597,146.80115 147.27566,146.79467 C 147.05533,146.78819 146.88685,146.78495 146.77022,146.78495 L 145.38026,146.78495 C 144.1037,146.78495 143.18354,146.61647 142.61978,146.27951 C 142.0625,145.93607 141.78386,145.25243 141.78386,144.22859 C 141.78386,143.75555 141.83893,143.24687 141.9491,142.70255 C 142.06574,142.15824 142.12406,141.85368 142.12406,141.78887 C 142.12406,141.77592 142.14026,141.74676 142.17266,141.70139 C 142.21153,141.65604 142.23097,141.57828 142.23097,141.46811 C 142.23097,141.41628 142.22773,141.35148 142.22126,141.27371 C 142.21478,141.18948 142.20182,141.09228 142.18237,140.98211 C 141.79357,140.82012 141.57326,140.7294 141.52142,140.70995 C 141.4631,140.69052 141.43394,140.62572 141.43394,140.51555 C 141.43394,140.2434 141.77089,139.95504 142.44482,139.65047 C 143.12522,139.33944 143.91253,139.077 144.80678,138.86315 C 145.70749,138.64931 146.43973,138.54239 147.0035,138.54238 C 147.94309,138.54239 148.68829,138.54563 149.2391,138.5521 C 149.78989,138.55859 150.30505,138.56507 150.78457,138.57154 L 150.92066,138.57154 C 151.20577,138.57155 151.41313,138.56183 151.54273,138.54238 L 151.54273,138.99923 M 158.98643,147.03767 C 158.98642,147.21263 158.96374,147.31631 158.91839,147.34871 C 158.87302,147.38759 158.76934,147.40703 158.60735,147.40703 C 158.50366,147.40703 158.06302,147.26771 157.28543,146.98907 C 156.50782,146.71043 156.08014,146.57111 156.00239,146.57111 C 155.96998,146.57111 155.74318,146.48687 155.32199,146.31839 C 154.90078,146.14343 154.44718,145.91663 153.96119,145.63799 C 153.48167,145.35287 153.04427,145.01267 152.64899,144.61739 C 153.18035,144.36467 153.66958,144.10223 154.11671,143.83007 C 154.5703,143.55791 154.7971,143.04275 154.79711,142.28459 C 154.7971,141.669 154.54762,141.14412 154.04867,140.70995 C 153.55619,140.26932 153.12203,140.049 152.74619,140.04899 C 152.48699,140.049 152.26667,140.26932 152.08523,140.70995 C 151.90379,141.14412 151.81307,141.63984 151.81307,142.19711 C 151.81307,142.35912 151.88435,142.77708 152.02691,143.45099 C 152.16947,144.12491 152.32175,144.82799 152.48375,145.56023 C 152.65223,146.29247 152.73971,146.65859 152.74619,146.65859 L 152.74619,147.03767 L 152.19215,147.03767 C 151.90055,146.66831 151.68023,146.05271 151.53119,145.19087 C 151.38215,144.32255 151.24607,143.50283 151.12295,142.73171 C 150.94799,141.97356 150.68231,141.56208 150.32591,141.49727 C 150.35183,141.40656 150.38423,141.18948 150.42311,140.84603 C 150.45551,140.5026 150.61103,140.33088 150.88967,140.33087 C 150.90911,140.33088 150.97067,140.3568 151.07435,140.40863 C 151.17803,140.46048 151.30115,140.52852 151.44371,140.61275 C 151.59275,140.35356 151.74503,140.09112 151.90055,139.82543 C 152.13383,139.54032 152.44811,139.39776 152.84339,139.39775 C 153.45899,139.39776 154.04542,139.72176 154.60271,140.36975 C 155.16646,141.01776 155.44834,141.62688 155.44835,142.19711 C 155.44834,142.64424 155.2831,143.09135 154.95263,143.53847 C 154.58974,143.95967 154.22686,144.38087 153.86399,144.80207 C 153.86398,144.92519 154.1815,145.10339 154.81655,145.33667 C 155.45158,145.56995 156.0121,145.79999 156.49811,146.02679 C 156.99058,146.24711 157.3891,146.39291 157.69367,146.46419 C 158.0047,146.53547 158.32546,146.57111 158.65595,146.57111 L 158.98643,146.57111 C 159.1225,146.57111 159.19054,146.61323 159.19055,146.69747 C 159.19054,146.76227 159.16462,146.82707 159.11279,146.89187 C 159.06094,146.95667 159.01882,147.00527 158.98643,147.03767"
       id="text1903" />
    <path
       style="fill:none;fill-opacity:0.75;fill-rule:evenodd;stroke:#000000;stroke-width:0.81;stroke-linecap:butt;stroke-linejoin:miter;marker-end:url(#Arrow2Mend);stroke-miterlimit:4;stroke-dasharray:none;stroke-opacity:1"
       d="M 116.89447,140.49874 C 128.3147,140.49874 132.80402,140.49874 132.80402,140.49874"
       id="path1935"
       sodipodi:nodetypes="cc" />
    <path
       style="fill:none;fill-opacity:0.75;fill-rule:evenodd;stroke:#000000;stroke-width:0.81;stroke-linecap:butt;stroke-linejoin:miter;marker-end:url(#Arrow2Mend);stroke-miterlimit:4;stroke-dasharray:none;stroke-opacity:1"
       d="M 116.79717,121.02693 C 176.92427,120.77365 181.03996,120.91577 181.03996,120.91577"
       id="path1937"
       sodipodi:nodetypes="cc" />
    <rect
       style="fill:#000000;fill-opacity:1;fill-rule:nonzero;stroke:#f0f0f0;stroke-width:0.02375232;stroke-linejoin:round;stroke-miterlimit:4;stroke-dasharray:none;stroke-opacity:1"
       id="rect3372"
       width="56.444775"
       height="0.85045868"
       x="24.256182"
       y="150.37013"
       rx="0.30961868"
       ry="0.022094853" />
    <path
       style="fill:none;fill-opacity:0.75;fill-rule:evenodd;stroke:#000000;stroke-width:0.81;stroke-linecap:butt;stroke-linejoin:miter;marker-end:url(#Arrow2Mend);stroke-miterlimit:4;stroke-dasharray:none;stroke-opacity:1"
       d="M 73.895583,150.79581 C 127.49133,150.79581 133.12686,150.79581 133.12686,150.79581"
       id="path1939"
       sodipodi:nodetypes="cc" />
    <rect
       style="fill:#000000;fill-opacity:1;fill-rule:nonzero;stroke:#f0f0f0;stroke-width:0.02375;stroke-linejoin:round;stroke-miterlimit:4;stroke-dasharray:none;stroke-opacity:1"
       id="rect3370"
       width="54.109322"
       height="0.85332608"
       x="24.209991"
       y="130.37534"
       rx="0.29680794"
       ry="0.02216935" />
    <path
       style="fill:none;fill-opacity:0.75;fill-rule:evenodd;stroke:#000000;stroke-width:0.81;stroke-linecap:butt;stroke-linejoin:miter;marker-end:url(#Arrow2Mend);stroke-miterlimit:4;stroke-dasharray:none;stroke-opacity:1"
       d="M 73.489681,130.8207 C 82.20749,130.8207 86.219223,130.8207 86.219223,130.8207"
       id="path1941"
       sodipodi:nodetypes="cc" />
    <path
       style="fill:none;fill-opacity:0.75;fill-rule:evenodd;stroke:#000000;stroke-width:0.80701923;stroke-linecap:butt;stroke-linejoin:miter;marker-end:url(#Arrow2Mend);stroke-miterlimit:4;stroke-dasharray:none;stroke-opacity:1"
       d="M 163.66273,140.9956 C 177.32123,140.9956 181.01549,141.09121 181.01549,141.09121"
       id="path1943"
       sodipodi:nodetypes="cc" />
    <path
       style="fill:none;fill-opacity:0.75;fill-rule:evenodd;stroke:#000000;stroke-width:0.81;stroke-linecap:butt;stroke-linejoin:miter;marker-end:url(#Arrow2Mend);stroke-miterlimit:4;stroke-dasharray:none;stroke-opacity:1"
       d="M 261.96428,130.82369 C 267.33159,130.82369 271.43884,130.91921 271.43884,130.91921"
       id="path1945"
       sodipodi:nodetypes="cc" />
    <g
       id="g3604"
       transform="translate(-113.01363,-42.962638)" />
    <g
       id="g3297"
       transform="translate(-153.83942,-18.34619)">
      <g
         inkscape:export-ydpi="150"
         inkscape:export-xdpi="150"
         inkscape:export-filename="/home/schm/studienarbeit/logosvn/images/kieler-text.png"
         transform="translate(-1.0740693,-18.506163)"
         id="g3590">
        <text
           xml:space="preserve"
           style="font-size:9.11790371px;font-style:normal;font-weight:normal;fill:#000000;fill-opacity:1;stroke:none;stroke-width:1pt;stroke-linecap:butt;stroke-linejoin:miter;stroke-opacity:1;font-family:Bitstream Vera Sans"
           x="199.42555"
           y="78.689743"
           id="text1907"
           transform="scale(0.9674916,1.0336007)"><tspan
             sodipodi:role="line"
             x="199.42555"
             y="78.689743"
             id="tspan1911"><tspan
   style="font-weight:bold"
   id="tspan3018">K</tspan>iel</tspan></text>
        <text
           xml:space="preserve"
           style="font-size:9.11790371px;font-style:normal;font-weight:normal;fill:#000000;fill-opacity:1;stroke:none;stroke-width:1pt;stroke-linecap:butt;stroke-linejoin:miter;stroke-opacity:1;font-family:Bitstream Vera Sans"
           x="198.81242"
           y="96.99662"
           id="text2507"
           transform="scale(0.9674916,1.0336007)"><tspan
             sodipodi:role="line"
             x="198.81242"
             y="96.99662"
             id="tspan2509"><tspan
   style="font-weight:bold"
   id="tspan2515">E</tspan>nvironment for</tspan></text>
        <text
           xml:space="preserve"
           style="font-size:9.11790371px;font-style:normal;font-weight:normal;fill:#000000;fill-opacity:1;stroke:none;stroke-width:1pt;stroke-linecap:butt;stroke-linejoin:miter;stroke-opacity:1;font-family:Bitstream Vera Sans"
           x="199.35651"
           y="87.747421"
           id="text2519"
           transform="scale(0.9674916,1.0336007)"><tspan
             sodipodi:role="line"
             x="199.35651"
             y="87.747421"
             id="tspan2521"><tspan
   style="font-weight:bold"
   id="tspan2525">I</tspan>ntegrated</tspan></text>
        <text
           xml:space="preserve"
           style="font-size:9.11790371px;font-style:normal;font-weight:normal;fill:#000000;fill-opacity:1;stroke:none;stroke-width:1pt;stroke-linecap:butt;stroke-linejoin:miter;stroke-opacity:1;font-family:Bitstream Vera Sans"
           x="198.54039"
           y="106.24583"
           id="text2531"
           transform="scale(0.9674916,1.0336007)"><tspan
             sodipodi:role="line"
             x="198.54039"
             y="106.24583"
             id="tspan2533"><tspan
   style="font-weight:bold"
   id="tspan2535">L</tspan>ayout</tspan></text>
      </g>
      <g
         transform="matrix(1.0749011,0,0,1.2657297,-152.17952,-46.981407)"
         id="g3875">
        <path
           style="font-size:12px;font-style:normal;font-weight:normal;fill:#000000;fill-opacity:1;stroke:none;stroke-width:1pt;stroke-linecap:butt;stroke-linejoin:miter;stroke-opacity:1;font-family:Bitstream Vera Sans"
           d="M 326.18083,113.32687 C 326.024,113.42739 325.8809,113.5007 325.75152,113.54677 C 325.62214,113.58866 325.50452,113.6096 325.39866,113.6096 C 325.39473,113.6096 325.23399,113.58656 324.91642,113.54048 C 324.60276,113.49442 324.33812,113.47137 324.12248,113.47137 C 323.91077,113.47137 323.73237,113.47975 323.58731,113.4965 C 323.44617,113.51326 323.33443,113.53211 323.2521,113.55305 C 323.17368,113.574 323.00901,113.6096 322.75809,113.65986 C 322.50717,113.71012 322.19352,113.76876 321.81713,113.83578 C 321.39763,113.96144 321.18787,114.1939 321.18787,114.53317 C 321.14082,114.62532 321.09377,114.75098 321.04672,114.91014 C 320.99967,115.06931 320.97615,115.31853 320.97615,115.6578 C 320.95263,115.64524 320.9291,115.65362 320.90558,115.68294 C 320.88598,115.71225 320.87617,115.78136 320.87617,115.89027 C 320.87617,115.94053 320.87814,116.00126 320.88205,116.07247 C 320.88598,116.14368 320.89382,116.23164 320.90558,116.33635 C 321.18395,116.27352 321.38978,116.23164 321.52308,116.21069 C 321.65639,116.18975 321.75832,116.17928 321.82889,116.17928 C 321.85242,116.17928 321.87202,116.18138 321.8877,116.18556 L 324.35184,115.88399 L 324.63413,115.88399 C 324.54395,116.16043 324.16757,116.35939 323.50498,116.48086 C 322.9208,116.55207 322.32878,116.62536 321.72892,116.70076 C 321.13298,116.77197 320.83501,116.89971 320.83501,117.08401 C 320.83501,117.32276 321.00555,117.54684 321.34665,117.75628 C 321.68775,117.96151 322.17392,118.06413 322.80514,118.06413 C 323.1188,118.06413 323.51674,118.01387 323.99898,117.91335 C 324.48122,117.81282 324.78507,117.76256 324.91054,117.76256 C 324.84388,118.00968 324.72626,118.17303 324.55768,118.25262 C 324.39301,118.3322 324.16953,118.37199 323.88724,118.37199 C 323.82843,118.37199 323.73237,118.3699 323.59907,118.36571 C 323.46577,118.36152 323.36383,118.35943 323.29326,118.35943 L 322.45228,118.35943 C 321.67991,118.35943 321.12317,118.25052 320.78208,118.03272 C 320.4449,117.81072 320.27631,117.36883 320.27631,116.70704 C 320.27631,116.40128 320.30964,116.07247 320.37629,115.72063 C 320.44686,115.36879 320.48215,115.17193 320.48215,115.13004 C 320.48215,115.12167 320.49195,115.10282 320.51155,115.07349 C 320.53508,115.04417 320.54684,114.99391 320.54684,114.9227 C 320.54684,114.8892 320.54488,114.84732 320.54096,114.79705 C 320.53704,114.7426 320.52919,114.67977 320.51743,114.60856 C 320.28219,114.50385 320.14889,114.44521 320.11752,114.43264 C 320.08224,114.42008 320.0646,114.3782 320.0646,114.30698 C 320.0646,114.13107 320.26847,113.94468 320.67622,113.74782 C 321.08789,113.54677 321.56425,113.37713 322.1053,113.23891 C 322.65027,113.10069 323.09331,113.03157 323.43441,113.03157 C 324.0029,113.03157 324.45378,113.03367 324.78704,113.03786 C 325.12029,113.04205 325.43198,113.04624 325.72211,113.05042 L 325.80445,113.05042 C 325.97695,113.05042 326.10242,113.04414 326.18083,113.03157 L 326.18083,113.32687 M 330.71398,117.58664 C 330.00826,117.95523 329.55934,118.1856 329.36723,118.27775 C 329.17904,118.3699 328.78893,118.41597 328.19691,118.41597 C 327.43631,118.41597 326.80508,118.2945 326.30323,118.05157 C 325.80139,117.80444 325.55046,117.37302 325.55046,116.7573 C 325.55046,116.65678 325.64848,116.43897 325.84451,116.10389 C 326.04447,115.7688 326.3248,115.46094 326.6855,115.1803 C 327.0462,114.89967 327.47159,114.75936 327.96167,114.75935 C 328.05185,114.75936 328.17927,114.79705 328.34393,114.87244 C 328.5086,114.94365 328.63995,115.01695 328.73796,115.09234 L 328.73796,115.34365 C 328.67915,115.35623 328.62819,115.36251 328.58506,115.3625 C 328.54585,115.36251 328.43607,115.36041 328.25572,115.35622 C 328.07537,115.34785 327.92442,115.34366 327.80288,115.34365 C 327.34417,115.34366 326.94426,115.49654 326.60316,115.80231 C 326.26599,116.10807 326.0974,116.45363 326.0974,116.83898 C 326.0974,117.11123 326.29539,117.37302 326.69138,117.62434 C 327.09128,117.87565 327.56569,118.00131 328.11458,118.00131 C 328.51057,118.00131 328.8497,117.94895 329.13199,117.84423 C 329.41819,117.73533 329.66324,117.60339 329.86711,117.44842 C 329.9416,117.38559 330.0161,117.32066 330.09059,117.25365 C 330.10235,117.25365 330.1592,117.28925 330.26114,117.36046 C 330.36307,117.42747 330.51402,117.50286 330.71398,117.58664 M 330.65645,118.12068 C 330.64077,118.16675 330.62117,118.21283 330.59764,118.2589 C 330.57412,118.30497 330.54471,118.32801 330.50943,118.32801 C 330.44278,118.32801 330.38201,118.25052 330.32712,118.09555 C 330.27223,117.93638 330.21538,117.7081 330.15657,117.41072 C 330.09776,117.11333 330.00954,116.65678 329.89192,116.04106 C 329.77823,115.42115 329.69981,114.98344 329.65668,114.72793 C 329.61356,114.46825 329.59199,114.05359 329.59199,113.48394 C 329.58807,113.42949 329.58611,113.38132 329.58611,113.33943 C 329.58611,113.23054 329.59787,113.14258 329.6214,113.07555 C 329.64885,113.00854 329.70373,112.97503 329.78607,112.97503 C 329.85272,112.97503 329.89389,113.00644 329.90957,113.06927 C 329.92917,113.12791 329.93897,113.241 329.93897,113.40854 L 329.93897,113.7541 C 329.93897,114.10594 329.94878,114.4159 329.96838,114.68395 C 329.9919,114.94784 330.02719,115.23476 330.07423,115.54471 C 330.12128,115.75833 330.1899,116.05781 330.28007,116.44316 C 330.37025,116.8285 330.45454,117.19919 330.53295,117.55522 C 330.61529,117.90706 330.65645,118.09555 330.65645,118.12068 M 331.99999,112.89963 C 331.99999,113.06718 331.9745,113.17818 331.92354,113.23263 C 331.87649,113.28289 331.77847,113.33106 331.62949,113.37713 C 331.60988,113.33943 331.58636,113.25776 331.55891,113.1321 C 331.53539,113.00226 331.52363,112.89335 331.52363,112.80539 C 331.52363,112.73 331.53147,112.67345 331.54715,112.63575 C 331.56283,112.59806 331.59028,112.57921 331.62949,112.57921 C 331.77063,112.57921 331.86668,112.59806 331.91765,112.63575 C 331.97254,112.66927 331.99999,112.75723 331.99999,112.89963 M 334.30534,116.71961 C 334.30533,117.09238 334.04658,117.42328 333.52905,117.7123 C 333.01544,118.00131 332.52928,118.14581 332.07056,118.14581 C 331.75691,118.14581 331.56283,118.08927 331.48834,117.97617 C 331.41385,117.86308 331.32171,117.60129 331.21194,117.19082 C 331.16489,117.20338 331.11784,117.22642 331.07079,117.25993 C 331.02766,117.28925 330.98846,117.32066 330.95317,117.35417 L 330.28274,117.35417 L 330.28274,116.95835 C 330.72969,116.8327 331.02571,116.67353 331.17077,116.48086 C 331.31976,116.28819 331.42757,116.01802 331.49422,115.67037 C 331.56088,115.32272 331.6432,115.05884 331.74122,114.87872 C 331.86668,114.93318 331.99214,114.98554 332.11761,115.03579 C 332.19602,115.0735 332.29404,115.15308 332.41166,115.27454 C 332.2117,115.53843 332.05487,115.83372 331.94118,116.16043 C 331.82748,116.48714 331.77063,116.80547 331.77063,117.11542 C 331.77063,117.31228 331.8118,117.46726 331.89413,117.58036 C 331.97646,117.69345 332.08428,117.74999 332.21759,117.74999 C 332.29992,117.74999 332.49987,117.7102 332.81745,117.63062 C 333.13894,117.55103 333.44083,117.42328 333.72312,117.24736 C 334.00933,117.07144 334.15243,116.84107 334.15243,116.55625 C 334.19556,116.54369 334.22692,116.5374 334.24653,116.5374 C 334.27397,116.5374 334.29357,116.54369 334.30534,116.55625 C 334.31709,116.56882 334.32298,116.58976 334.32298,116.61908 C 334.32298,116.64421 334.32102,116.66516 334.3171,116.68191 C 334.31709,116.69447 334.31318,116.70704 334.30534,116.71961 M 336.59397,116.3552 C 336.59397,116.61908 336.48418,116.84107 336.26463,117.02118 C 336.04899,117.20129 335.74906,117.29134 335.36484,117.29134 C 335.26682,117.29134 335.159,117.27878 335.04138,117.25365 C 334.92376,117.22852 334.83947,117.21595 334.7885,117.21595 C 334.73753,117.21595 334.69049,117.22223 334.64736,117.2348 C 334.60815,117.24317 334.55522,117.26202 334.48857,117.29134 L 334.48857,117.54266 C 334.50425,117.59292 334.5513,117.85889 334.62971,118.34058 C 334.70813,118.82645 334.75713,119.12174 334.77674,119.22646 C 334.81986,119.40237 334.86299,119.58039 334.90612,119.7605 C 334.90219,119.80239 334.89828,119.84637 334.89436,119.89244 C 334.90612,119.905 334.91788,119.91757 334.92964,119.93014 C 334.94141,119.94689 334.94729,119.96364 334.94729,119.9804 C 334.94729,120.01391 334.91788,120.04113 334.85907,120.06208 C 334.80418,120.0872 334.70029,120.09977 334.54738,120.09978 C 334.5317,120.09977 334.46701,120.01391 334.35331,119.84218 C 334.24353,119.67463 334.13963,119.44007 334.04161,119.1385 C 333.94752,118.84111 333.90047,118.49555 333.90047,118.10183 L 333.90047,117.54266 C 333.90047,116.68401 333.94948,116.00126 334.04749,115.49444 C 334.14943,114.98344 334.43172,114.72794 334.89436,114.72793 C 335.24722,114.72794 335.61772,114.90595 336.00587,115.26198 C 336.39793,115.61801 336.59397,115.98242 336.59397,116.3552 M 336.1823,116.41803 C 336.1823,116.12483 336.03723,115.86095 335.7471,115.62639 C 335.45697,115.39183 335.19233,115.25989 334.95317,115.23056 L 334.54738,115.38135 C 334.51601,115.5112 334.50033,115.62011 334.50033,115.70807 C 334.51209,115.85886 334.52189,116.01802 334.52974,116.18556 C 334.5415,116.34892 334.54738,116.51017 334.54738,116.66934 C 334.63363,116.68191 334.77478,116.71542 334.97081,116.76987 C 335.16684,116.82432 335.35699,116.85155 335.54127,116.85155 C 335.80395,116.85155 335.97646,116.82641 336.0588,116.77615 C 336.14113,116.7217 336.1823,116.60233 336.1823,116.41803 M 340.87221,117.61805 C 340.8722,117.71858 340.77223,117.85261 340.57228,118.02015 C 340.37232,118.18769 340.13316,118.27147 339.8548,118.27147 L 338.36103,118.27147 C 337.95328,118.22121 337.54553,118.15838 337.13777,118.08298 C 336.73002,118.0034 336.52615,117.89868 336.52615,117.76884 C 336.52615,117.65575 336.55947,117.57407 336.62613,117.52381 C 336.68886,117.47355 336.97311,117.31438 337.47887,117.04631 L 337.75529,117.04631 L 337.75529,117.25993 C 337.56709,117.35208 337.45339,117.41281 337.41418,117.44213 C 337.37498,117.48402 337.32988,117.53009 337.27892,117.58036 C 337.37693,117.68507 337.58474,117.77931 337.90231,117.86308 C 338.2238,117.94266 338.6041,117.98246 339.04322,117.98246 C 339.28238,117.9657 339.53526,117.93638 339.80187,117.8945 C 340.06847,117.84842 340.26842,117.75628 340.40173,117.61805 C 340.21746,117.47145 339.7607,117.28296 339.03146,117.0526 C 338.30222,116.82222 337.73764,116.58767 337.33773,116.34892 C 336.93782,116.11017 336.73787,115.76043 336.73787,115.29967 C 336.73787,114.96459 336.80648,114.76145 336.9437,114.69024 C 337.08093,114.61485 337.32793,114.57715 337.68471,114.57715 C 337.93563,114.57715 338.1199,114.59181 338.23752,114.62113 C 338.35514,114.65045 338.46296,114.70909 338.56098,114.79705 L 338.56098,115.01695 C 338.36103,115.10491 338.23164,115.14889 338.17283,115.14889 C 338.14538,115.14889 338.12774,115.12795 338.1199,115.08606 C 338.11206,115.03999 338.07874,115.01695 338.01993,115.01695 C 337.83958,115.08397 337.65727,115.15727 337.47299,115.23685 C 337.29264,115.31225 337.20247,115.38136 337.20247,115.44418 C 337.20247,115.76671 337.37301,116.00755 337.71412,116.16671 C 338.05913,116.32169 338.67076,116.56044 339.54899,116.88296 C 340.43113,117.20129 340.8722,117.44632 340.87221,117.61805 M 345.07335,118.1144 C 345.07335,118.18979 345.03219,118.27565 344.94985,118.37199 C 344.86752,118.47252 344.75578,118.52278 344.61463,118.52278 C 344.41076,118.52278 343.95596,118.44529 343.25024,118.29032 C 342.54845,118.13115 342.05836,117.98246 341.77999,117.84423 C 341.50555,117.70182 341.31344,117.58244 341.20366,117.48611 C 341.09388,117.38559 340.94882,117.21804 340.76846,116.98348 C 340.67829,116.99605 340.59596,117.00233 340.52146,117.00233 C 340.29015,117.00233 340.09804,116.9395 339.94512,116.81385 C 339.79222,116.68401 339.71577,116.54578 339.71576,116.39918 C 339.71577,116.31122 339.75106,116.24001 339.82162,116.18556 C 339.88828,116.12692 339.98042,116.08922 340.09803,116.07247 C 340.12156,116.0976 340.16861,116.14787 340.23917,116.22326 C 340.30975,116.29447 340.36464,116.34682 340.40384,116.38033 L 340.86256,116.39918 C 340.86256,115.97613 341.02331,115.63686 341.3448,115.38135 C 341.6663,115.12167 341.98779,114.94156 342.30928,114.84103 C 342.63078,114.73631 342.85034,114.67977 342.96796,114.67139 C 343.08949,114.65883 343.19928,114.65045 343.29729,114.64626 C 343.66583,114.64627 343.98929,114.73631 344.26766,114.91642 C 344.54994,115.09235 344.69109,115.31434 344.69109,115.58241 C 344.69109,115.72063 344.58131,115.89237 344.36175,116.0976 C 344.14612,116.29865 343.81482,116.47667 343.36786,116.63165 C 342.92091,116.78662 342.37006,116.86411 341.7153,116.86411 C 341.66042,116.85573 341.62317,116.85155 341.60356,116.85155 C 341.54868,116.85155 341.52123,116.8662 341.52123,116.89553 C 341.52123,116.92484 341.55456,116.97301 341.62121,117.04003 C 341.69178,117.10704 341.75647,117.16569 341.81528,117.21595 C 342.05836,117.37511 342.30145,117.53218 342.54452,117.68716 C 342.88955,117.81282 343.32278,117.87565 343.84422,117.87565 C 344.03633,117.87565 344.15592,117.83167 344.20297,117.74371 C 344.25001,117.65156 344.36175,117.58454 344.53818,117.54266 L 344.76754,117.54266 L 345.07335,118.1144 M 344.15592,115.70178 C 344.08535,115.48397 343.96576,115.34156 343.79718,115.27454 C 343.62859,115.20753 343.3659,115.17402 343.00912,115.17402 C 342.58962,115.17402 342.23676,115.28712 341.95054,115.51329 C 341.66434,115.7353 341.4291,116.05781 341.24482,116.48086 C 341.30363,116.45573 341.34873,116.44316 341.38009,116.44316 C 341.40361,116.44316 341.43302,116.44944 341.4683,116.46201 C 341.50359,116.47457 341.53104,116.48086 341.55064,116.48086 C 342.02504,116.48086 342.56609,116.39499 343.17379,116.22326 C 343.7815,116.05153 344.10887,115.8777 344.15592,115.70178"
           id="path3877"
           sodipodi:nodetypes="csssssssccscssscssccccssssscsssccssssssscsssssscccccssssssssccsssssssssssccsssssssssssccssssccscsssssccssscscccsscscsssssscssssccsssssccssssssssssccsssccsccsscsssccsccssscccscscscssssssccsssssssccssssscssssssccssssssssssssscssccccssscssssc" />
        <path
           style="font-size:12px;font-style:normal;font-weight:normal;fill:#000000;fill-opacity:1;stroke:none;stroke-width:1pt;stroke-linecap:butt;stroke-linejoin:miter;stroke-opacity:1;font-family:Bitstream Vera Sans"
           d="M 325.3319,127.5204 C 325.33189,127.63349 325.31818,127.70051 325.29074,127.72145 C 325.26329,127.74658 325.20056,127.75915 325.10254,127.75915 C 325.03981,127.75915 324.7732,127.66909 324.30273,127.48899 C 323.83224,127.30887 323.57348,127.21882 323.52644,127.21882 C 323.50683,127.21882 323.3696,127.16437 323.11477,127.05547 C 322.85992,126.94238 322.58548,126.79578 322.29143,126.61567 C 322.0013,126.43137 321.73665,126.21147 321.49749,125.95597 C 321.81898,125.79262 322.115,125.62298 322.38552,125.44706 C 322.65997,125.27114 322.79719,124.93815 322.79719,124.44808 C 322.79719,124.05017 322.64624,123.7109 322.34436,123.43026 C 322.04638,123.14544 321.7837,123.00303 321.5563,123.00303 C 321.39947,123.00303 321.26617,123.14544 321.15639,123.43026 C 321.04662,123.7109 320.99173,124.03132 320.99173,124.39154 C 320.99173,124.49625 321.03486,124.76642 321.12111,125.20203 C 321.20736,125.63764 321.29949,126.0921 321.39752,126.56541 C 321.49945,127.03871 321.55238,127.27537 321.5563,127.27537 L 321.5563,127.5204 L 321.22109,127.5204 C 321.04466,127.28165 320.91136,126.88374 320.82118,126.32666 C 320.731,125.76539 320.64867,125.23554 320.57418,124.7371 C 320.46832,124.24704 320.30757,123.98106 320.09193,123.93917 C 320.10761,123.88054 320.12722,123.74022 320.15074,123.51822 C 320.17035,123.29623 320.26445,123.18524 320.43303,123.18523 C 320.44479,123.18524 320.48204,123.20199 320.54477,123.23549 C 320.6075,123.26901 320.682,123.31299 320.76825,123.36743 C 320.85843,123.1999 320.95056,123.03026 321.04466,122.85853 C 321.1858,122.67424 321.37595,122.58208 321.61511,122.58208 C 321.98757,122.58208 322.34239,122.79151 322.67957,123.21036 C 323.02067,123.62922 323.19122,124.02294 323.19122,124.39154 C 323.19122,124.68055 323.09124,124.96956 322.89129,125.25858 C 322.67173,125.53084 322.45217,125.80309 322.23262,126.07535 C 322.23262,126.15493 322.42473,126.27011 322.80895,126.4209 C 323.19317,126.57169 323.53231,126.72038 323.82637,126.86698 C 324.12433,127.00939 324.36546,127.10364 324.54973,127.14971 C 324.73791,127.19578 324.93199,127.21882 325.13195,127.21882 L 325.3319,127.21882 C 325.41423,127.21882 325.4554,127.24604 325.4554,127.3005 C 325.4554,127.34238 325.43972,127.38427 325.40836,127.42616 C 325.37699,127.46804 325.3515,127.49946 325.3319,127.5204 M 325.83179,121.89725 C 325.83179,122.0648 325.8063,122.17579 325.75533,122.23024 C 325.70829,122.28051 325.61026,122.32868 325.46128,122.37475 C 325.44168,122.33705 325.41815,122.25537 325.39071,122.12972 C 325.36719,121.99988 325.35543,121.89097 325.35543,121.80301 C 325.35543,121.72762 325.36327,121.67107 325.37895,121.63337 C 325.39463,121.59568 325.42208,121.57683 325.46128,121.57683 C 325.60243,121.57683 325.69848,121.59568 325.74945,121.63337 C 325.80434,121.66688 325.83179,121.75484 325.83179,121.89725 M 328.13714,125.71722 C 328.13713,126.09 327.87837,126.4209 327.36085,126.70991 C 326.84724,126.99892 326.36108,127.14343 325.90236,127.14343 C 325.5887,127.14343 325.39463,127.08688 325.32014,126.97379 C 325.24565,126.8607 325.15351,126.59891 325.04373,126.18844 C 324.99669,126.201 324.94964,126.22404 324.90259,126.25755 C 324.85946,126.28687 324.82026,126.31828 324.78497,126.35179 L 324.11454,126.35179 L 324.11454,125.95597 C 324.56149,125.83031 324.8575,125.67115 325.00257,125.47848 C 325.15155,125.2858 325.25937,125.01564 325.32602,124.66799 C 325.39267,124.32033 325.475,124.05646 325.57302,123.87634 C 325.69848,123.9308 325.82394,123.98316 325.94941,124.03341 C 326.02782,124.07112 326.12584,124.1507 326.24346,124.27216 C 326.0435,124.53605 325.88667,124.83134 325.77298,125.15805 C 325.65928,125.48476 325.60243,125.80309 325.60243,126.11304 C 325.60243,126.3099 325.64359,126.46488 325.72593,126.57797 C 325.80826,126.69107 325.91608,126.74761 326.04938,126.74761 C 326.13172,126.74761 326.33167,126.70782 326.64925,126.62824 C 326.97074,126.54865 327.27263,126.4209 327.55492,126.24498 C 327.84112,126.06906 327.98422,125.83869 327.98423,125.55387 C 328.02735,125.5413 328.05872,125.53502 328.07833,125.53502 C 328.10577,125.53502 328.12537,125.5413 328.13714,125.55387 C 328.14889,125.56644 328.15477,125.58738 328.15478,125.6167 C 328.15477,125.64183 328.15282,125.66277 328.1489,125.67953 C 328.14889,125.69209 328.14497,125.70466 328.13714,125.71722 M 332.91931,126.58426 C 332.21358,126.95285 331.76467,127.18322 331.57256,127.27537 C 331.38436,127.36752 330.99426,127.41359 330.40224,127.41359 C 329.64163,127.41359 329.0104,127.29212 328.50856,127.04919 C 328.00671,126.80206 327.75579,126.37064 327.75579,125.75492 C 327.75579,125.6544 327.85381,125.43659 328.04984,125.1015 C 328.24979,124.76642 328.53012,124.45856 328.89082,124.17792 C 329.25152,123.89729 329.67691,123.75698 330.167,123.75697 C 330.25717,123.75698 330.3846,123.79467 330.54926,123.87006 C 330.71393,123.94127 330.84527,124.01457 330.94329,124.08996 L 330.94329,124.34127 C 330.88448,124.35385 330.83351,124.36013 330.79039,124.36012 C 330.75117,124.36013 330.6414,124.35803 330.46105,124.35384 C 330.28069,124.34547 330.12975,124.34128 330.00821,124.34127 C 329.54949,124.34128 329.14959,124.49416 328.80849,124.79993 C 328.47131,125.10569 328.30272,125.45125 328.30272,125.8366 C 328.30272,126.10885 328.50071,126.37064 328.8967,126.62195 C 329.29661,126.87327 329.77101,126.99892 330.31991,126.99892 C 330.71589,126.99892 331.05503,126.94656 331.33732,126.84185 C 331.62352,126.73295 331.86856,126.60101 332.07244,126.44603 C 332.14693,126.38321 332.22142,126.31828 332.29592,126.25127 C 332.30768,126.25127 332.36453,126.28687 332.46647,126.35807 C 332.5684,126.42509 332.71934,126.50048 332.91931,126.58426 M 334.31439,127.55182 C 334.18501,127.61883 334.07522,127.68166 333.98505,127.7403 C 333.89488,127.79894 333.84783,127.82826 333.84391,127.82826 C 333.62827,127.82826 333.4636,127.63349 333.34991,127.24396 C 333.24012,126.85442 333.13426,126.60311 333.03233,126.49001 C 332.96176,126.54865 332.8657,126.67222 332.74416,126.8607 C 332.62262,127.04499 332.44815,127.19998 332.22075,127.32563 C 332.18155,127.22929 332.15214,127.1141 332.13254,126.98008 C 332.11293,126.84604 332.10313,126.72038 332.10313,126.60311 C 332.10313,126.45232 332.11098,126.32456 332.12666,126.21985 C 332.14234,126.11095 332.15803,126.0167 332.17371,125.93712 C 332.14626,125.92874 332.11686,125.91618 332.08549,125.89943 C 332.05805,125.87848 332.03452,125.8345 332.01492,125.76749 C 331.97571,125.52455 331.9267,125.22716 331.86789,124.87532 C 331.813,124.52348 331.74636,124.10253 331.66794,123.61246 C 331.58561,123.11822 331.54444,122.85225 331.54444,122.81455 C 331.54444,122.78523 331.53268,122.7245 331.50915,122.63235 C 331.48171,122.53601 331.46799,122.46899 331.46799,122.43129 C 331.46799,122.37685 331.47779,122.3224 331.49739,122.26794 C 331.51307,122.21349 331.5464,122.15276 331.59737,122.08574 C 331.75419,122.12344 331.86005,122.27004 331.91494,122.52554 C 331.9816,123.08681 332.05021,123.64597 332.12078,124.20305 C 332.17174,124.43761 332.22272,124.76642 332.27368,125.18946 C 332.32857,125.60832 332.35602,125.95387 332.35602,126.22613 C 332.35602,126.39786 332.34622,126.52352 332.32661,126.60311 L 332.4854,126.60311 C 332.60694,126.52771 332.71476,126.37064 332.80885,126.13189 C 332.90295,125.88895 333.02057,125.76749 333.16171,125.76749 C 333.29893,125.76749 333.39695,125.9455 333.45576,126.30153 C 333.51849,126.65337 333.59103,126.92143 333.67336,127.10573 C 333.75961,127.29002 333.97329,127.38218 334.31439,127.38218 L 334.31439,127.55182 M 343.73326,126.8607 C 343.67837,126.89421 343.35099,126.96541 342.75113,127.07432 C 342.15519,127.18322 341.55141,127.27956 340.93978,127.36333 C 340.32816,127.45129 339.91649,127.49527 339.70477,127.49527 C 338.94809,127.49527 338.37567,127.35705 337.98753,127.0806 C 337.60331,126.80416 337.35826,126.47325 337.2524,126.08791 C 337.14654,125.70256 337.09362,125.24182 337.09362,124.70569 C 337.09362,123.68786 337.37983,122.90251 337.95224,122.34962 C 338.52858,121.79673 339.26174,121.52028 340.15173,121.52028 C 340.6575,121.52028 341.03192,121.60824 341.275,121.78416 C 341.522,121.96008 341.6455,122.21768 341.6455,122.55695 C 341.6455,122.61978 341.6161,122.67842 341.55729,122.73287 C 341.5024,122.78313 341.44359,122.82921 341.38086,122.87109 C 341.28284,122.64911 341.18679,122.42711 341.09269,122.20511 C 340.93978,122.01244 340.62613,121.9161 340.15173,121.9161 C 339.37544,121.9161 338.75793,122.18626 338.29922,122.72659 C 337.84443,123.26273 337.61702,123.94965 337.61702,124.78736 C 337.61702,125.46591 337.71112,125.96434 337.89931,126.28268 C 338.0875,126.60101 338.34823,126.80416 338.68148,126.89212 C 339.01866,126.97588 339.48521,127.01777 340.08116,127.01777 L 341.04564,127.01777 C 341.20639,127.01777 341.47104,126.95913 341.83958,126.84185 C 342.20812,126.72038 342.53549,126.60519 342.8217,126.4963 C 343.10791,126.38321 343.33727,126.29105 343.50978,126.21985 L 343.73326,126.21985 L 343.73326,126.8607 M 343.83121,127.1183 C 343.81553,127.16437 343.79593,127.21044 343.7724,127.25652 C 343.74888,127.30259 343.71947,127.32563 343.68419,127.32563 C 343.61754,127.32563 343.55677,127.24814 343.50188,127.09317 C 343.44699,126.934 343.39014,126.70572 343.33133,126.40834 C 343.27252,126.11095 343.1843,125.6544 343.06668,125.03868 C 342.95299,124.41876 342.87457,123.98106 342.83144,123.72555 C 342.78832,123.46587 342.76675,123.05121 342.76675,122.48156 C 342.76283,122.42711 342.76087,122.37894 342.76087,122.33705 C 342.76087,122.22815 342.77263,122.14019 342.79616,122.07317 C 342.82361,122.00616 342.87849,121.97265 342.96083,121.97265 C 343.02748,121.97265 343.06865,122.00406 343.08433,122.06689 C 343.10393,122.12553 343.11373,122.23862 343.11373,122.40616 L 343.11373,122.75172 C 343.11373,123.10356 343.12354,123.41352 343.14314,123.68157 C 343.16666,123.94546 343.20195,124.23237 343.24899,124.54233 C 343.29604,124.75595 343.36466,125.05543 343.45483,125.44078 C 343.54501,125.82612 343.6293,126.19681 343.70771,126.55284 C 343.79005,126.90468 343.83121,127.09317 343.83121,127.1183 M 345.17475,121.89725 C 345.17475,122.0648 345.14926,122.17579 345.0983,122.23024 C 345.05125,122.28051 344.95323,122.32868 344.80425,122.37475 C 344.78464,122.33705 344.76112,122.25537 344.73367,122.12972 C 344.71015,121.99988 344.69839,121.89097 344.69839,121.80301 C 344.69839,121.72762 344.70623,121.67107 344.72191,121.63337 C 344.73759,121.59568 344.76504,121.57683 344.80425,121.57683 C 344.94539,121.57683 345.04144,121.59568 345.09241,121.63337 C 345.1473,121.66688 345.17475,121.75484 345.17475,121.89725 M 347.4801,125.71722 C 347.48009,126.09 347.22134,126.4209 346.70381,126.70991 C 346.1902,126.99892 345.70404,127.14343 345.24532,127.14343 C 344.93166,127.14343 344.73759,127.08688 344.6631,126.97379 C 344.58861,126.8607 344.49647,126.59891 344.38669,126.18844 C 344.33965,126.201 344.2926,126.22404 344.24555,126.25755 C 344.20242,126.28687 344.16322,126.31828 344.12793,126.35179 L 343.4575,126.35179 L 343.4575,125.95597 C 343.90445,125.83031 344.20047,125.67115 344.34553,125.47848 C 344.49452,125.2858 344.60233,125.01564 344.66898,124.66799 C 344.73564,124.32033 344.81796,124.05646 344.91598,123.87634 C 345.04144,123.9308 345.1669,123.98316 345.29237,124.03341 C 345.37078,124.07112 345.4688,124.1507 345.58642,124.27216 C 345.38646,124.53605 345.22963,124.83134 345.11594,125.15805 C 345.00224,125.48476 344.94539,125.80309 344.94539,126.11304 C 344.94539,126.3099 344.98656,126.46488 345.06889,126.57797 C 345.15122,126.69107 345.25904,126.74761 345.39235,126.74761 C 345.47468,126.74761 345.67463,126.70782 345.99221,126.62824 C 346.3137,126.54865 346.61559,126.4209 346.89788,126.24498 C 347.18409,126.06906 347.32719,125.83869 347.32719,125.55387 C 347.37032,125.5413 347.40168,125.53502 347.42129,125.53502 C 347.44873,125.53502 347.46833,125.5413 347.4801,125.55387 C 347.49185,125.56644 347.49773,125.58738 347.49774,125.6167 C 347.49773,125.64183 347.49578,125.66277 347.49186,125.67953 C 347.49185,125.69209 347.48794,125.70466 347.4801,125.71722 M 351.34483,127.11202 C 351.34483,127.18741 351.30366,127.27327 351.22133,127.36961 C 351.13899,127.47014 351.02725,127.5204 350.88612,127.5204 C 350.68224,127.5204 350.22744,127.44291 349.52172,127.28794 C 348.81992,127.12877 348.32984,126.98008 348.05147,126.84185 C 347.77703,126.69944 347.58491,126.58006 347.47514,126.48373 C 347.36536,126.38321 347.22029,126.21566 347.03994,125.9811 C 346.94977,125.99367 346.86743,125.99995 346.79294,125.99995 C 346.56162,125.99995 346.36951,125.93712 346.2166,125.81147 C 346.0637,125.68162 345.98724,125.5434 345.98724,125.3968 C 345.98724,125.30884 346.02253,125.23763 346.0931,125.18318 C 346.15976,125.12454 346.25189,125.08684 346.36951,125.07009 C 346.39303,125.09522 346.44008,125.14548 346.51065,125.22088 C 346.58123,125.29209 346.63612,125.34444 346.67532,125.37795 L 347.13404,125.3968 C 347.13404,124.97375 347.29479,124.63448 347.61628,124.37897 C 347.93777,124.11928 348.25927,123.93918 348.58076,123.83864 C 348.90226,123.73393 349.12182,123.67739 349.23944,123.66901 C 349.36097,123.65645 349.47075,123.64807 349.56877,123.64388 C 349.93731,123.64388 350.26077,123.73393 350.53914,123.91404 C 350.82142,124.08997 350.96256,124.31195 350.96257,124.58003 C 350.96256,124.71825 350.85278,124.88998 350.63323,125.09522 C 350.41759,125.29627 350.0863,125.47429 349.63934,125.62926 C 349.19239,125.78424 348.64153,125.86173 347.98678,125.86173 C 347.93189,125.85335 347.89465,125.84916 347.87504,125.84916 C 347.82015,125.84916 347.79271,125.86382 347.79271,125.89314 C 347.79271,125.92246 347.82603,125.97063 347.89269,126.03765 C 347.96326,126.10466 348.02795,126.16331 348.08676,126.21357 C 348.32984,126.37273 348.57292,126.5298 348.816,126.68478 C 349.16102,126.81044 349.59425,126.87327 350.1157,126.87327 C 350.30781,126.87327 350.42739,126.82929 350.47445,126.74133 C 350.52149,126.64917 350.63322,126.58216 350.80966,126.54028 L 351.03902,126.54028 L 351.34483,127.11202 M 350.4274,124.6994 C 350.35683,124.48159 350.23724,124.33918 350.06866,124.27216 C 349.90006,124.20515 349.63738,124.17164 349.2806,124.17164 C 348.86109,124.17164 348.50823,124.28473 348.22202,124.51091 C 347.93582,124.73291 347.70058,125.05543 347.5163,125.47848 C 347.57511,125.45334 347.6202,125.44078 347.65157,125.44078 C 347.67509,125.44078 347.7045,125.44706 347.73978,125.45963 C 347.77507,125.47219 347.80251,125.47848 347.82212,125.47848 C 348.29651,125.47848 348.83757,125.39261 349.44527,125.22088 C 350.05297,125.04914 350.38035,124.87532 350.4274,124.6994 M 354.79394,126.79787 C 354.79394,126.91934 354.74886,127.01568 354.65868,127.08688 C 354.5685,127.1539 354.46264,127.18741 354.34111,127.18741 C 354.19604,127.18741 354.07646,127.1162 353.98236,126.97379 C 353.88827,126.82719 353.71576,126.5298 353.46484,126.08163 C 353.21392,125.63345 353.01592,125.35072 352.87086,125.23344 C 352.74147,125.69419 352.59641,126.0921 352.43566,126.42719 C 352.27492,126.76227 352.05536,127.08269 351.77699,127.38846 L 351.50058,127.38846 C 351.36337,127.02406 351.25751,126.50048 351.18301,125.81775 C 351.11244,125.13082 351.04971,124.65333 350.99482,124.38525 C 350.93993,124.11719 350.80271,123.90985 350.58315,123.76325 C 350.64588,123.56639 350.69293,123.42817 350.72429,123.34858 C 350.75566,123.26901 350.80075,123.17895 350.85956,123.07843 C 351.10264,123.20408 351.26339,123.4198 351.3418,123.72555 C 351.42021,124.02714 351.49275,124.48579 351.55939,125.1015 C 351.62997,125.71722 351.71623,126.15283 351.81816,126.40834 C 352.02204,126.30362 352.21807,126.04602 352.40626,125.63555 C 352.59445,125.22506 352.68855,124.63448 352.68855,123.86378 L 352.96495,123.86378 L 354.79394,126.79787 M 357.32066,126.16331 C 357.32066,126.2387 357.28929,126.312 357.22656,126.38321 C 357.16383,126.45441 357.08934,126.49001 357.00309,126.49001 L 356.34442,126.20729 L 356.23268,126.20729 L 356.23268,127.3759 L 355.95039,127.3759 C 355.84453,127.35076 355.61713,127.15808 355.26819,126.79787 C 354.91925,126.43765 354.74478,126.19472 354.74478,126.06906 C 354.74478,125.92246 354.90945,125.84078 355.23879,125.82403 C 355.57204,125.80727 355.73867,125.73398 355.73867,125.60413 C 355.73867,125.46591 355.69947,125.23135 355.62105,124.90045 C 355.54656,124.56537 355.50931,124.36641 355.50931,124.30358 L 354.77419,122.12972 C 354.833,122.02501 354.88005,121.9538 354.91533,121.9161 C 354.95062,121.8784 354.99767,121.85956 355.05648,121.85956 C 355.12313,121.85956 355.27604,122.19883 355.51519,122.87738 C 355.75435,123.55592 355.90334,124.06692 355.96215,124.41038 L 356.17975,125.66068 C 356.23463,125.71513 356.43851,125.78424 356.79137,125.86801 C 357.14423,125.95178 357.32066,126.05021 357.32066,126.16331 M 355.74455,126.89212 L 355.73867,126.17587 L 355.59753,126.16331 C 355.54264,126.16331 355.49167,126.16749 355.44462,126.17587 C 355.39757,126.18006 355.37405,126.20309 355.37405,126.24498 C 355.37405,126.30781 355.42502,126.40624 355.52696,126.54028 C 355.63281,126.67431 355.70535,126.79159 355.74455,126.89212"
           id="path3879"
           sodipodi:nodetypes="csssssscsssssssscccsccsssccsssccsssccssccscsssssccssscscccsscscsssssscssssccssssssssccsssssssssssccssscscsssssssssssscccssccsssscccsssssssssssccsssssccssccccsssssssssssccssssccscsssssccssscscccsscscsssssscssssccssssscssssssccssssssssssssscssccccssscssssccsssscsccsscscsscsccccscccccsssssccsssccsccccsssc" />
      </g>
    </g>
  </g>
</svg>
