<?xml version="1.0" encoding="UTF-8"?>
<svg xmlns="http://www.w3.org/2000/svg" xmlns:xlink="http://www.w3.org/1999/xlink" stroke-dasharray="none" shape-rendering="auto" font-family="'Dialog'" width="346" text-rendering="auto" fill-opacity="1" contentScriptType="text/ecmascript" color-interpolation="auto" color-rendering="auto" preserveAspectRatio="xMidYMid meet" font-size="12" viewBox="0 0 346 330" fill="black" stroke="black" image-rendering="auto" stroke-miterlimit="10" zoomAndPan="magnify" version="1.0" stroke-linecap="square" stroke-linejoin="miter" contentStyleType="text/css" font-style="normal" height="330" stroke-width="1" stroke-dashoffset="0" font-weight="normal" stroke-opacity="1">
<!--Generated by the Batik Graphics2D SVG Generator-->
<defs id="genericDefs"/>
<g>
<defs id="defs1">
<clipPath clipPathUnits="userSpaceOnUse" id="clipPath1">
<path d="M153 14 L192 14 L192 33 L153 33 L153 14 Z"/>
</clipPath>
<clipPath clipPathUnits="userSpaceOnUse" id="clipPath2">
<path d="M11 36 L336 36 L336 39 L11 39 L11 36 Z"/>
</clipPath>
<clipPath clipPathUnits="userSpaceOnUse" id="clipPath3">
<path d="M63 41 L78 41 L78 60 L63 60 L63 41 Z"/>
</clipPath>
<clipPath clipPathUnits="userSpaceOnUse" id="clipPath4">
<path d="M81 41 L96 41 L96 60 L81 60 L81 41 Z"/>
</clipPath>
<clipPath clipPathUnits="userSpaceOnUse" id="clipPath5">
<path d="M99 41 L114 41 L114 60 L99 60 L99 41 Z"/>
</clipPath>
<clipPath clipPathUnits="userSpaceOnUse" id="clipPath6">
<path d="M117 41 L133 41 L133 60 L117 60 L117 41 Z"/>
</clipPath>
<clipPath clipPathUnits="userSpaceOnUse" id="clipPath7">
<path d="M15 41 L65 41 L65 60 L15 60 L15 41 Z"/>
</clipPath>
<clipPath clipPathUnits="userSpaceOnUse" id="clipPath8">
<path d="M16 69 L330 69 L330 314 L16 314 L16 69 Z"/>
</clipPath>
<clipPath clipPathUnits="userSpaceOnUse" id="clipPath9">
<path d="M18 69 L32 69 L32 83 L18 83 L18 69 Z"/>
</clipPath>
<clipPath clipPathUnits="userSpaceOnUse" id="clipPath10">
<path d="M157 115 L187 115 L187 134 L157 134 L157 115 Z"/>
</clipPath>
<clipPath clipPathUnits="userSpaceOnUse" id="clipPath11">
<path d="M23 137 L322 137 L322 140 L23 140 L23 137 Z"/>
</clipPath>
<clipPath clipPathUnits="userSpaceOnUse" id="clipPath12">
<path d="M28 143 L316 143 L316 301 L28 301 L28 143 Z"/>
</clipPath>
<clipPath clipPathUnits="userSpaceOnUse" id="clipPath13">
<path d="M30 143 L44 143 L44 157 L30 157 L30 143 Z"/>
</clipPath>
<clipPath clipPathUnits="userSpaceOnUse" id="clipPath14">
<path d="M90 153 L139 153 L139 172 L90 172 L90 153 Z"/>
</clipPath>
<clipPath clipPathUnits="userSpaceOnUse" id="clipPath15">
<path d="M36 175 L195 175 L195 178 L36 178 L36 175 Z"/>
</clipPath>
<clipPath clipPathUnits="userSpaceOnUse" id="clipPath16">
<path d="M41 181 L189 181 L189 226 L41 226 L41 181 Z"/>
</clipPath>
<clipPath clipPathUnits="userSpaceOnUse" id="clipPath17">
<path d="M43 181 L57 181 L57 195 L43 195 L43 181 Z"/>
</clipPath>
<clipPath clipPathUnits="userSpaceOnUse" id="clipPath18">
<path d="M56 194 L78 194 L78 213 L56 213 L56 194 Z"/>
</clipPath>
<clipPath clipPathUnits="userSpaceOnUse" id="clipPath19">
<path d="M46 187 L88 187 L88 219 L46 219 L46 187 Z"/>
</clipPath>
<clipPath clipPathUnits="userSpaceOnUse" id="clipPath20">
<path d="M154 194 L173 194 L173 213 L154 213 L154 194 Z"/>
</clipPath>
<clipPath clipPathUnits="userSpaceOnUse" id="clipPath21">
<path d="M144 187 L183 187 L183 219 L144 219 L144 187 Z"/>
</clipPath>
<clipPath clipPathUnits="userSpaceOnUse" id="clipPath22">
<path d="M41 243 L189 243 L189 288 L41 288 L41 243 Z"/>
</clipPath>
<clipPath clipPathUnits="userSpaceOnUse" id="clipPath23">
<path d="M43 243 L57 243 L57 257 L43 257 L43 243 Z"/>
</clipPath>
<clipPath clipPathUnits="userSpaceOnUse" id="clipPath24">
<path d="M56 256 L78 256 L78 275 L56 275 L56 256 Z"/>
</clipPath>
<clipPath clipPathUnits="userSpaceOnUse" id="clipPath25">
<path d="M46 249 L88 249 L88 281 L46 281 L46 249 Z"/>
</clipPath>
<clipPath clipPathUnits="userSpaceOnUse" id="clipPath26">
<path d="M154 256 L173 256 L173 275 L154 275 L154 256 Z"/>
</clipPath>
<clipPath clipPathUnits="userSpaceOnUse" id="clipPath27">
<path d="M144 249 L183 249 L183 281 L144 281 L144 249 Z"/>
</clipPath>
<clipPath clipPathUnits="userSpaceOnUse" id="clipPath28">
<path d="M34 148 L196 148 L196 295 L34 295 L34 148 Z"/>
</clipPath>
<clipPath clipPathUnits="userSpaceOnUse" id="clipPath29">
<path d="M266 212 L300 212 L300 231 L266 231 L266 212 Z"/>
</clipPath>
<clipPath clipPathUnits="userSpaceOnUse" id="clipPath30">
<path d="M256 205 L310 205 L310 237 L256 237 L256 205 Z"/>
</clipPath>
<clipPath clipPathUnits="userSpaceOnUse" id="clipPath31">
<path d="M21 110 L323 110 L323 308 L21 308 L21 110 Z"/>
</clipPath>
<clipPath clipPathUnits="userSpaceOnUse" id="clipPath32">
<path d="M9 9 L337 9 L337 321 L9 321 L9 9 Z"/>
</clipPath>
<clipPath clipPathUnits="userSpaceOnUse" id="clipPath33">
<path d="M-1 -1 L347 -1 L347 331 L-1 331 L-1 -1 Z"/>
</clipPath>
<clipPath clipPathUnits="userSpaceOnUse" id="clipPath34">
<path d="M167 75 L178 75 L178 94 L167 94 L167 75 Z"/>
</clipPath>
<clipPath clipPathUnits="userSpaceOnUse" id="clipPath35">
<path d="M131 99 L139 99 L139 113 L131 113 L131 99 Z"/>
</clipPath>
<clipPath clipPathUnits="userSpaceOnUse" id="clipPath36">
<path d="M121 106 L132 106 L132 117 L121 117 L121 106 Z"/>
</clipPath>
<clipPath clipPathUnits="userSpaceOnUse" id="clipPath37">
<path d="M208 100 L223 100 L223 114 L208 114 L208 100 Z"/>
</clipPath>
<clipPath clipPathUnits="userSpaceOnUse" id="clipPath38">
<path d="M218 204 L234 204 L234 223 L218 223 L218 204 Z"/>
</clipPath>
<clipPath clipPathUnits="userSpaceOnUse" id="clipPath39">
<path d="M200 219 L208 219 L208 233 L200 233 L200 219 Z"/>
</clipPath>
<clipPath clipPathUnits="userSpaceOnUse" id="clipPath40">
<path d="M194 216 L205 216 L205 229 L194 229 L194 216 Z"/>
</clipPath>
<clipPath clipPathUnits="userSpaceOnUse" id="clipPath41">
<path d="M246 216 L260 216 L260 229 L246 229 L246 216 Z"/>
</clipPath>
<clipPath clipPathUnits="userSpaceOnUse" id="clipPath42">
<path d="M110 248 L121 248 L121 267 L110 267 L110 248 Z"/>
</clipPath>
<clipPath clipPathUnits="userSpaceOnUse" id="clipPath43">
<path d="M93 263 L101 263 L101 277 L93 277 L93 263 Z"/>
</clipPath>
<clipPath clipPathUnits="userSpaceOnUse" id="clipPath44">
<path d="M134 260 L148 260 L148 273 L134 273 L134 260 Z"/>
</clipPath>
<clipPath clipPathUnits="userSpaceOnUse" id="clipPath45">
<path d="M110 186 L121 186 L121 205 L110 205 L110 186 Z"/>
</clipPath>
<clipPath clipPathUnits="userSpaceOnUse" id="clipPath46">
<path d="M93 201 L101 201 L101 215 L93 215 L93 201 Z"/>
</clipPath>
<clipPath clipPathUnits="userSpaceOnUse" id="clipPath47">
<path d="M134 198 L148 198 L148 211 L134 211 L134 198 Z"/>
</clipPath>
</defs>
<g stroke-width="0" font-size="6" stroke-miterlimit="0" stroke-linejoin="round">
<text xml:space="preserve" x="154" y="21" clip-path="url(#clipPath1)" stroke="none">ABRO</text>
</g>
<g stroke-width="1.1" font-size="6" stroke-linecap="butt">
<line clip-path="url(#clipPath2)" fill="none" x1="12" x2="334" y1="37" y2="37"/>
<text xml:space="preserve" x="64" y="48" clip-path="url(#clipPath3)" stroke="none">A,</text>
<text xml:space="preserve" x="82" y="48" clip-path="url(#clipPath4)" stroke="none">B,</text>
<text xml:space="preserve" x="100" y="48" clip-path="url(#clipPath5)" stroke="none">R,</text>
<text xml:space="preserve" x="118" y="48" clip-path="url(#clipPath6)" stroke="none">O,</text>
<text xml:space="preserve" x="16" y="48" clip-path="url(#clipPath7)" stroke="none">Signal: </text>
<line clip-path="url(#clipPath8)" fill="none" x1="328" x2="17" y1="312" y2="312" stroke-dasharray="10,5"/>
</g>
<g font-size="4" stroke-linecap="butt" fill="gray" stroke-dasharray="10,5" stroke="gray" stroke-width="1.1">
<text xml:space="preserve" x="19" y="74" clip-path="url(#clipPath9)" stroke="none">R0</text>
<text font-size="6" x="158" y="122" clip-path="url(#clipPath10)" fill="black" stroke="none" xml:space="preserve">ABO</text>
</g>
<g stroke-width="1.1" font-size="6" stroke-linecap="butt">
<line clip-path="url(#clipPath11)" fill="none" x1="24" x2="320" y1="138" y2="138"/>
<line clip-path="url(#clipPath12)" fill="none" x1="314" x2="29" y1="299" y2="299" stroke-dasharray="10,5"/>
</g>
<g font-size="4" stroke-linecap="butt" fill="gray" stroke-dasharray="10,5" stroke="gray" stroke-width="1.1">
<text xml:space="preserve" x="31" y="148" clip-path="url(#clipPath13)" stroke="none">R0</text>
<text font-size="6" x="91" y="160" clip-path="url(#clipPath14)" fill="black" stroke="none" xml:space="preserve">WaitAB</text>
</g>
<g stroke-width="1.1" font-size="6" stroke-linecap="butt">
<line clip-path="url(#clipPath15)" fill="none" x1="37" x2="193" y1="176" y2="176"/>
<line clip-path="url(#clipPath16)" fill="none" x1="187" x2="42" y1="224" y2="224" stroke-dasharray="10,5"/>
</g>
<g font-size="4" stroke-linecap="butt" fill="gray" stroke-dasharray="10,5" stroke="gray" stroke-width="1.1">
<text xml:space="preserve" x="44" y="186" clip-path="url(#clipPath17)" stroke="none">R0</text>
<text font-size="6" x="57" y="201" clip-path="url(#clipPath18)" fill="black" stroke="none" xml:space="preserve">wA</text>
</g>
<g stroke-width="4.1" font-size="6" stroke-linecap="butt">
<rect x="50" y="191" clip-path="url(#clipPath19)" fill="none" width="35" rx="14" ry="14" height="25"/>
<text xml:space="preserve" x="155" y="201" clip-path="url(#clipPath20)" stroke="none">dA</text>
<rect x="146" y="189" clip-path="url(#clipPath21)" fill="none" width="35" rx="15" ry="14.5" height="28" stroke-width="1.1"/>
<rect x="149" y="192" clip-path="url(#clipPath21)" fill="none" width="29" rx="12" ry="11.5" height="22" stroke-width="1.1"/>
<line clip-path="url(#clipPath22)" fill="none" x1="42" x2="187" y1="244" y2="244" stroke-dasharray="10,5" stroke-width="1.1"/>
<line clip-path="url(#clipPath22)" fill="none" x1="187" x2="42" y1="286" y2="286" stroke-dasharray="10,5" stroke-width="1.1"/>
</g>
<g font-size="4" stroke-linecap="butt" fill="gray" stroke-dasharray="10,5" stroke="gray" stroke-width="1.1">
<text xml:space="preserve" x="44" y="248" clip-path="url(#clipPath23)" stroke="none">R1</text>
<text font-size="6" x="57" y="263" clip-path="url(#clipPath24)" fill="black" stroke="none" xml:space="preserve">wB</text>
</g>
<g stroke-width="4.1" font-size="6" stroke-linecap="butt">
<rect x="50" y="253" clip-path="url(#clipPath25)" fill="none" width="35" rx="14" ry="14" height="25"/>
<text xml:space="preserve" x="155" y="263" clip-path="url(#clipPath26)" stroke="none">dB</text>
<rect x="146" y="251" clip-path="url(#clipPath27)" fill="none" width="35" rx="15" ry="14.5" height="28" stroke-width="1.1"/>
<rect x="149" y="254" clip-path="url(#clipPath27)" fill="none" width="29" rx="12" ry="11.5" height="22" stroke-width="1.1"/>
<rect x="38" y="152" clip-path="url(#clipPath28)" fill="none" width="155" rx="14" ry="14" height="140"/>
<text xml:space="preserve" x="267" y="219" clip-path="url(#clipPath29)" stroke="none">done</text>
<rect x="258" y="207" clip-path="url(#clipPath30)" fill="none" width="50" rx="15" ry="15" height="28" stroke-width="1.1"/>
<rect x="25" y="114" clip-path="url(#clipPath31)" fill="none" width="295" rx="14" ry="14" height="191"/>
<rect x="11" y="11" clip-path="url(#clipPath32)" fill="none" width="324" rx="15" ry="15" height="308" stroke-width="1.1"/>
<line clip-path="url(#clipPath33)" fill="none" x1="126" x2="135" y1="111" y2="102" stroke-width="2.1"/>
<line clip-path="url(#clipPath33)" fill="none" x1="135" x2="148" y1="102" y2="97" stroke-width="2.1"/>
<line clip-path="url(#clipPath33)" fill="none" x1="148" x2="164" y1="97" y2="95" stroke-width="2.1"/>
<line clip-path="url(#clipPath33)" fill="none" x1="164" x2="181" y1="95" y2="95" stroke-width="2.1"/>
<line clip-path="url(#clipPath33)" fill="none" x1="181" x2="197" y1="95" y2="97" stroke-width="2.1"/>
<line clip-path="url(#clipPath33)" fill="none" x1="197" x2="210" y1="97" y2="102" stroke-width="2.1"/>
<line clip-path="url(#clipPath33)" fill="none" x1="210" x2="220" y1="102" y2="111" stroke-width="2.1"/>
<text x="168" y="82" clip-path="url(#clipPath34)" stroke="none" stroke-width="2.1" xml:space="preserve">R</text>
<text font-size="4" x="132" y="104" clip-path="url(#clipPath35)" stroke="none" stroke-width="2.1" xml:space="preserve">0</text>
<circle clip-path="url(#clipPath36)" fill="red" r="3" cx="126" cy="111" stroke="none" stroke-width="2.1"/>
<circle clip-path="url(#clipPath36)" fill="none" r="3.5" cx="126.5" cy="111.5" stroke-width="1.1"/>
<polygon stroke-width="1.1" clip-path="url(#clipPath37)" points=" 209 108 221 112 216 101 216 108" stroke="none"/>
<polygon fill="none" stroke-width="1.1" clip-path="url(#clipPath37)" points=" 209 108 221 112 216 101 216 108"/>
<line clip-path="url(#clipPath33)" fill="none" x1="195" x2="211" y1="222" y2="222" stroke-width="2.1"/>
<line clip-path="url(#clipPath33)" fill="none" x1="211" x2="227" y1="222" y2="222" stroke-width="2.1"/>
<line clip-path="url(#clipPath33)" fill="none" x1="227" x2="243" y1="222" y2="222" stroke-width="2.1"/>
<line clip-path="url(#clipPath33)" fill="none" x1="243" x2="257" y1="222" y2="222" stroke-width="2.1"/>
<text x="219" y="211" clip-path="url(#clipPath38)" stroke="none" stroke-width="2.1" xml:space="preserve">/O</text>
<text font-size="4" x="201" y="224" clip-path="url(#clipPath39)" stroke="none" stroke-width="2.1" xml:space="preserve">0</text>
<polygon fill="lime" stroke-width="2.1" clip-path="url(#clipPath40)" points=" 195 217 203 222 195 227" stroke="none"/>
<polygon fill="none" stroke-width="1.1" clip-path="url(#clipPath40)" points=" 195 217 203 222 195 227"/>
<polygon stroke-width="1.1" clip-path="url(#clipPath41)" points=" 247 227 258 222 247 217 252 222" stroke="none"/>
<polygon fill="none" stroke-width="1.1" clip-path="url(#clipPath41)" points=" 247 227 258 222 247 217 252 222"/>
<line clip-path="url(#clipPath33)" fill="none" x1="87" x2="100" y1="266" y2="266" stroke-width="2.1"/>
<line clip-path="url(#clipPath33)" fill="none" x1="100" x2="116" y1="266" y2="266" stroke-width="2.1"/>
<line clip-path="url(#clipPath33)" fill="none" x1="116" x2="130" y1="266" y2="266" stroke-width="2.1"/>
<line clip-path="url(#clipPath33)" fill="none" x1="130" x2="145" y1="266" y2="266" stroke-width="2.1"/>
<text x="111" y="255" clip-path="url(#clipPath42)" stroke="none" stroke-width="2.1" xml:space="preserve">B</text>
<text font-size="4" x="94" y="268" clip-path="url(#clipPath43)" stroke="none" stroke-width="2.1" xml:space="preserve">0</text>
<polygon stroke-width="2.1" clip-path="url(#clipPath44)" points=" 135 271 146 266 135 261 140 266" stroke="none"/>
<polygon fill="none" stroke-width="1.1" clip-path="url(#clipPath44)" points=" 135 271 146 266 135 261 140 266"/>
<line clip-path="url(#clipPath33)" fill="none" x1="87" x2="100" y1="204" y2="204" stroke-width="2.1"/>
<line clip-path="url(#clipPath33)" fill="none" x1="100" x2="116" y1="204" y2="204" stroke-width="2.1"/>
<line clip-path="url(#clipPath33)" fill="none" x1="116" x2="130" y1="204" y2="204" stroke-width="2.1"/>
<line clip-path="url(#clipPath33)" fill="none" x1="130" x2="145" y1="204" y2="204" stroke-width="2.1"/>
<text x="111" y="193" clip-path="url(#clipPath45)" stroke="none" stroke-width="2.1" xml:space="preserve">A</text>
<text font-size="4" x="94" y="206" clip-path="url(#clipPath46)" stroke="none" stroke-width="2.1" xml:space="preserve">0</text>
<polygon stroke-width="2.1" clip-path="url(#clipPath47)" points=" 135 209 146 204 135 199 140 204" stroke="none"/>
<polygon fill="none" stroke-width="1.1" clip-path="url(#clipPath47)" points=" 135 209 146 204 135 199 140 204"/>
<line clip-path="url(#clipPath33)" fill="none" x1="126" x2="135" y1="111" y2="102" stroke-width="2.1"/>
<line clip-path="url(#clipPath33)" fill="none" x1="135" x2="148" y1="102" y2="97" stroke-width="2.1"/>
<line clip-path="url(#clipPath33)" fill="none" x1="148" x2="164" y1="97" y2="95" stroke-width="2.1"/>
<line clip-path="url(#clipPath33)" fill="none" x1="164" x2="181" y1="95" y2="95" stroke-width="2.1"/>
<line clip-path="url(#clipPath33)" fill="none" x1="181" x2="197" y1="95" y2="97" stroke-width="2.1"/>
<line clip-path="url(#clipPath33)" fill="none" x1="197" x2="210" y1="97" y2="102" stroke-width="2.1"/>
<line clip-path="url(#clipPath33)" fill="none" x1="210" x2="220" y1="102" y2="111" stroke-width="2.1"/>
<text x="168" y="82" clip-path="url(#clipPath34)" stroke="none" stroke-width="2.1" xml:space="preserve">R</text>
<text font-size="4" x="132" y="104" clip-path="url(#clipPath35)" stroke="none" stroke-width="2.1" xml:space="preserve">0</text>
<circle clip-path="url(#clipPath36)" fill="red" r="3" cx="126" cy="111" stroke="none" stroke-width="2.1"/>
<circle clip-path="url(#clipPath36)" fill="none" r="3.5" cx="126.5" cy="111.5" stroke-width="1.1"/>
<polygon stroke-width="1.1" clip-path="url(#clipPath37)" points=" 209 108 221 112 216 101 216 108" stroke="none"/>
<polygon fill="none" stroke-width="1.1" clip-path="url(#clipPath37)" points=" 209 108 221 112 216 101 216 108"/>
<line clip-path="url(#clipPath33)" fill="none" x1="195" x2="211" y1="222" y2="222" stroke-width="2.1"/>
<line clip-path="url(#clipPath33)" fill="none" x1="211" x2="227" y1="222" y2="222" stroke-width="2.1"/>
<line clip-path="url(#clipPath33)" fill="none" x1="227" x2="243" y1="222" y2="222" stroke-width="2.1"/>
<line clip-path="url(#clipPath33)" fill="none" x1="243" x2="257" y1="222" y2="222" stroke-width="2.1"/>
<text x="219" y="211" clip-path="url(#clipPath38)" stroke="none" stroke-width="2.1" xml:space="preserve">/O</text>
<text font-size="4" x="201" y="224" clip-path="url(#clipPath39)" stroke="none" stroke-width="2.1" xml:space="preserve">0</text>
<polygon fill="lime" stroke-width="2.1" clip-path="url(#clipPath40)" points=" 195 217 203 222 195 227" stroke="none"/>
<polygon fill="none" stroke-width="1.1" clip-path="url(#clipPath40)" points=" 195 217 203 222 195 227"/>
<polygon stroke-width="1.1" clip-path="url(#clipPath41)" points=" 247 227 258 222 247 217 252 222" stroke="none"/>
<polygon fill="none" stroke-width="1.1" clip-path="url(#clipPath41)" points=" 247 227 258 222 247 217 252 222"/>
<line clip-path="url(#clipPath33)" fill="none" x1="87" x2="100" y1="204" y2="204" stroke-width="2.1"/>
<line clip-path="url(#clipPath33)" fill="none" x1="100" x2="116" y1="204" y2="204" stroke-width="2.1"/>
<line clip-path="url(#clipPath33)" fill="none" x1="116" x2="130" y1="204" y2="204" stroke-width="2.1"/>
<line clip-path="url(#clipPath33)" fill="none" x1="130" x2="145" y1="204" y2="204" stroke-width="2.1"/>
<text x="111" y="193" clip-path="url(#clipPath45)" stroke="none" stroke-width="2.1" xml:space="preserve">A</text>
<text font-size="4" x="94" y="206" clip-path="url(#clipPath46)" stroke="none" stroke-width="2.1" xml:space="preserve">0</text>
<polygon stroke-width="2.1" clip-path="url(#clipPath47)" points=" 135 209 146 204 135 199 140 204" stroke="none"/>
<polygon fill="none" stroke-width="1.1" clip-path="url(#clipPath47)" points=" 135 209 146 204 135 199 140 204"/>
<line clip-path="url(#clipPath33)" fill="none" x1="87" x2="100" y1="266" y2="266" stroke-width="2.1"/>
<line clip-path="url(#clipPath33)" fill="none" x1="100" x2="116" y1="266" y2="266" stroke-width="2.1"/>
<line clip-path="url(#clipPath33)" fill="none" x1="116" x2="130" y1="266" y2="266" stroke-width="2.1"/>
<line clip-path="url(#clipPath33)" fill="none" x1="130" x2="145" y1="266" y2="266" stroke-width="2.1"/>
<text x="111" y="255" clip-path="url(#clipPath42)" stroke="none" stroke-width="2.1" xml:space="preserve">B</text>
<text font-size="4" x="94" y="268" clip-path="url(#clipPath43)" stroke="none" stroke-width="2.1" xml:space="preserve">0</text>
<polygon stroke-width="2.1" clip-path="url(#clipPath44)" points=" 135 271 146 266 135 261 140 266" stroke="none"/>
<polygon fill="none" stroke-width="1.1" clip-path="url(#clipPath44)" points=" 135 271 146 266 135 261 140 266"/>
</g>
</g>
</svg>
